M48
;DRILL file {KiCad 4.0.1-stable} date 6/22/2016 1:27:20 PM
;FORMAT={-:-/ absolute / inch / decimal}
FMAT,2
INCH,TZ
T1C0.013
T2C0.040
T3C0.120
%
G90
G05
M72
T1
X3.5Y-2.02
X3.635Y-2.035
X3.635Y-2.07
X3.635Y-2.105
X3.66Y-2.23
X3.67Y-2.035
X3.67Y-2.07
X3.67Y-2.105
X3.705Y-2.035
X3.705Y-2.07
X3.705Y-2.105
X3.8Y-1.95
T2
X3.05Y-1.6
X3.05Y-1.7
X3.05Y-1.8
X3.05Y-2.06
X3.05Y-2.16
X3.15Y-2.06
X3.15Y-2.16
X3.4Y-1.6
X3.4Y-1.7
X3.5Y-1.6
X3.5Y-1.7
X3.6Y-1.6
X3.6Y-1.7
X3.7Y-1.6
X3.7Y-1.7
X3.8Y-1.6
X3.8Y-1.7
X3.9Y-1.6
X3.9Y-1.7
X4.Y-1.6
X4.Y-1.7
X4.Y-1.96
X4.Y-2.06
X4.Y-2.16
X4.Y-2.26
X4.1Y-1.6
X4.1Y-1.7
X4.1Y-1.96
X4.1Y-2.06
X4.1Y-2.16
X4.1Y-2.26
T3
X3.575Y-1.375
X3.575Y-2.675
T0
M30
