G04 #@! TF.FileFunction,Legend,Top*
%FSLAX46Y46*%
G04 Gerber Fmt 4.6, Leading zero omitted, Abs format (unit mm)*
G04 Created by KiCad (PCBNEW 4.0.2-stable) date Saturday, June 18, 2016 'PMt' 03:39:07 PM*
%MOMM*%
G01*
G04 APERTURE LIST*
%ADD10C,0.100000*%
%ADD11C,0.150000*%
G04 APERTURE END LIST*
D10*
D11*
X88787900Y-40453300D02*
X88787900Y-39528300D01*
X94087900Y-35153300D02*
X94087900Y-36078300D01*
X88787900Y-35153300D02*
X88787900Y-36078300D01*
X94087900Y-40453300D02*
X93162900Y-40453300D01*
X94087900Y-35153300D02*
X93162900Y-35153300D01*
X88787900Y-35153300D02*
X89712900Y-35153300D01*
X88787900Y-40453300D02*
X89712900Y-40453300D01*
X80654000Y-44942000D02*
X80654000Y-42942000D01*
X78604000Y-42942000D02*
X78604000Y-44942000D01*
X75937000Y-39665000D02*
X83937000Y-39665000D01*
X83937000Y-35265000D02*
X75837000Y-35265000D01*
X85506000Y-38450000D02*
X85506000Y-37750000D01*
X86706000Y-37750000D02*
X86706000Y-38450000D01*
X86321000Y-44950000D02*
X86321000Y-43950000D01*
X84621000Y-43950000D02*
X84621000Y-44950000D01*
X88607000Y-44950000D02*
X88607000Y-43950000D01*
X86907000Y-43950000D02*
X86907000Y-44950000D01*
X90893000Y-44950000D02*
X90893000Y-43950000D01*
X89193000Y-43950000D02*
X89193000Y-44950000D01*
X93179000Y-44950000D02*
X93179000Y-43950000D01*
X91479000Y-43950000D02*
X91479000Y-44950000D01*
X95465000Y-44950000D02*
X95465000Y-43950000D01*
X93765000Y-43950000D02*
X93765000Y-44950000D01*
X89281000Y-23495000D02*
G75*
G03X89281000Y-23495000I-2286000J0D01*
G01*
X89281000Y-50165000D02*
G75*
G03X89281000Y-50165000I-2286000J0D01*
G01*
X90675995Y-33735681D02*
X90675995Y-34545205D01*
X90723614Y-34640443D01*
X90771233Y-34688062D01*
X90866471Y-34735681D01*
X91056948Y-34735681D01*
X91152186Y-34688062D01*
X91199805Y-34640443D01*
X91247424Y-34545205D01*
X91247424Y-33735681D01*
X92247424Y-34735681D02*
X91675995Y-34735681D01*
X91961709Y-34735681D02*
X91961709Y-33735681D01*
X91866471Y-33878538D01*
X91771233Y-33973776D01*
X91675995Y-34021395D01*
X79589334Y-41251143D02*
X79541715Y-41298762D01*
X79398858Y-41346381D01*
X79303620Y-41346381D01*
X79160762Y-41298762D01*
X79065524Y-41203524D01*
X79017905Y-41108286D01*
X78970286Y-40917810D01*
X78970286Y-40774952D01*
X79017905Y-40584476D01*
X79065524Y-40489238D01*
X79160762Y-40394000D01*
X79303620Y-40346381D01*
X79398858Y-40346381D01*
X79541715Y-40394000D01*
X79589334Y-40441619D01*
X79970286Y-40441619D02*
X80017905Y-40394000D01*
X80113143Y-40346381D01*
X80351239Y-40346381D01*
X80446477Y-40394000D01*
X80494096Y-40441619D01*
X80541715Y-40536857D01*
X80541715Y-40632095D01*
X80494096Y-40774952D01*
X79922667Y-41346381D01*
X80541715Y-41346381D01*
X98321905Y-34742381D02*
X98321905Y-33742381D01*
X98702858Y-33742381D01*
X98798096Y-33790000D01*
X98845715Y-33837619D01*
X98893334Y-33932857D01*
X98893334Y-34075714D01*
X98845715Y-34170952D01*
X98798096Y-34218571D01*
X98702858Y-34266190D01*
X98321905Y-34266190D01*
X99750477Y-34075714D02*
X99750477Y-34742381D01*
X99512381Y-33694762D02*
X99274286Y-34409048D01*
X99893334Y-34409048D01*
X79843334Y-34647143D02*
X79795715Y-34694762D01*
X79652858Y-34742381D01*
X79557620Y-34742381D01*
X79414762Y-34694762D01*
X79319524Y-34599524D01*
X79271905Y-34504286D01*
X79224286Y-34313810D01*
X79224286Y-34170952D01*
X79271905Y-33980476D01*
X79319524Y-33885238D01*
X79414762Y-33790000D01*
X79557620Y-33742381D01*
X79652858Y-33742381D01*
X79795715Y-33790000D01*
X79843334Y-33837619D01*
X80795715Y-34742381D02*
X80224286Y-34742381D01*
X80510000Y-34742381D02*
X80510000Y-33742381D01*
X80414762Y-33885238D01*
X80319524Y-33980476D01*
X80224286Y-34028095D01*
X85939334Y-36171143D02*
X85891715Y-36218762D01*
X85748858Y-36266381D01*
X85653620Y-36266381D01*
X85510762Y-36218762D01*
X85415524Y-36123524D01*
X85367905Y-36028286D01*
X85320286Y-35837810D01*
X85320286Y-35694952D01*
X85367905Y-35504476D01*
X85415524Y-35409238D01*
X85510762Y-35314000D01*
X85653620Y-35266381D01*
X85748858Y-35266381D01*
X85891715Y-35314000D01*
X85939334Y-35361619D01*
X86272667Y-35266381D02*
X86891715Y-35266381D01*
X86558381Y-35647333D01*
X86701239Y-35647333D01*
X86796477Y-35694952D01*
X86844096Y-35742571D01*
X86891715Y-35837810D01*
X86891715Y-36075905D01*
X86844096Y-36171143D01*
X86796477Y-36218762D01*
X86701239Y-36266381D01*
X86415524Y-36266381D01*
X86320286Y-36218762D01*
X86272667Y-36171143D01*
X85304334Y-42267143D02*
X85256715Y-42314762D01*
X85113858Y-42362381D01*
X85018620Y-42362381D01*
X84875762Y-42314762D01*
X84780524Y-42219524D01*
X84732905Y-42124286D01*
X84685286Y-41933810D01*
X84685286Y-41790952D01*
X84732905Y-41600476D01*
X84780524Y-41505238D01*
X84875762Y-41410000D01*
X85018620Y-41362381D01*
X85113858Y-41362381D01*
X85256715Y-41410000D01*
X85304334Y-41457619D01*
X86161477Y-41695714D02*
X86161477Y-42362381D01*
X85923381Y-41314762D02*
X85685286Y-42029048D01*
X86304334Y-42029048D01*
X87463334Y-42267143D02*
X87415715Y-42314762D01*
X87272858Y-42362381D01*
X87177620Y-42362381D01*
X87034762Y-42314762D01*
X86939524Y-42219524D01*
X86891905Y-42124286D01*
X86844286Y-41933810D01*
X86844286Y-41790952D01*
X86891905Y-41600476D01*
X86939524Y-41505238D01*
X87034762Y-41410000D01*
X87177620Y-41362381D01*
X87272858Y-41362381D01*
X87415715Y-41410000D01*
X87463334Y-41457619D01*
X88368096Y-41362381D02*
X87891905Y-41362381D01*
X87844286Y-41838571D01*
X87891905Y-41790952D01*
X87987143Y-41743333D01*
X88225239Y-41743333D01*
X88320477Y-41790952D01*
X88368096Y-41838571D01*
X88415715Y-41933810D01*
X88415715Y-42171905D01*
X88368096Y-42267143D01*
X88320477Y-42314762D01*
X88225239Y-42362381D01*
X87987143Y-42362381D01*
X87891905Y-42314762D01*
X87844286Y-42267143D01*
X89876334Y-42267143D02*
X89828715Y-42314762D01*
X89685858Y-42362381D01*
X89590620Y-42362381D01*
X89447762Y-42314762D01*
X89352524Y-42219524D01*
X89304905Y-42124286D01*
X89257286Y-41933810D01*
X89257286Y-41790952D01*
X89304905Y-41600476D01*
X89352524Y-41505238D01*
X89447762Y-41410000D01*
X89590620Y-41362381D01*
X89685858Y-41362381D01*
X89828715Y-41410000D01*
X89876334Y-41457619D01*
X90733477Y-41362381D02*
X90543000Y-41362381D01*
X90447762Y-41410000D01*
X90400143Y-41457619D01*
X90304905Y-41600476D01*
X90257286Y-41790952D01*
X90257286Y-42171905D01*
X90304905Y-42267143D01*
X90352524Y-42314762D01*
X90447762Y-42362381D01*
X90638239Y-42362381D01*
X90733477Y-42314762D01*
X90781096Y-42267143D01*
X90828715Y-42171905D01*
X90828715Y-41933810D01*
X90781096Y-41838571D01*
X90733477Y-41790952D01*
X90638239Y-41743333D01*
X90447762Y-41743333D01*
X90352524Y-41790952D01*
X90304905Y-41838571D01*
X90257286Y-41933810D01*
X92162334Y-42267143D02*
X92114715Y-42314762D01*
X91971858Y-42362381D01*
X91876620Y-42362381D01*
X91733762Y-42314762D01*
X91638524Y-42219524D01*
X91590905Y-42124286D01*
X91543286Y-41933810D01*
X91543286Y-41790952D01*
X91590905Y-41600476D01*
X91638524Y-41505238D01*
X91733762Y-41410000D01*
X91876620Y-41362381D01*
X91971858Y-41362381D01*
X92114715Y-41410000D01*
X92162334Y-41457619D01*
X92495667Y-41362381D02*
X93162334Y-41362381D01*
X92733762Y-42362381D01*
X94448334Y-42267143D02*
X94400715Y-42314762D01*
X94257858Y-42362381D01*
X94162620Y-42362381D01*
X94019762Y-42314762D01*
X93924524Y-42219524D01*
X93876905Y-42124286D01*
X93829286Y-41933810D01*
X93829286Y-41790952D01*
X93876905Y-41600476D01*
X93924524Y-41505238D01*
X94019762Y-41410000D01*
X94162620Y-41362381D01*
X94257858Y-41362381D01*
X94400715Y-41410000D01*
X94448334Y-41457619D01*
X95019762Y-41790952D02*
X94924524Y-41743333D01*
X94876905Y-41695714D01*
X94829286Y-41600476D01*
X94829286Y-41552857D01*
X94876905Y-41457619D01*
X94924524Y-41410000D01*
X95019762Y-41362381D01*
X95210239Y-41362381D01*
X95305477Y-41410000D01*
X95353096Y-41457619D01*
X95400715Y-41552857D01*
X95400715Y-41600476D01*
X95353096Y-41695714D01*
X95305477Y-41743333D01*
X95210239Y-41790952D01*
X95019762Y-41790952D01*
X94924524Y-41838571D01*
X94876905Y-41886190D01*
X94829286Y-41981429D01*
X94829286Y-42171905D01*
X94876905Y-42267143D01*
X94924524Y-42314762D01*
X95019762Y-42362381D01*
X95210239Y-42362381D01*
X95305477Y-42314762D01*
X95353096Y-42267143D01*
X95400715Y-42171905D01*
X95400715Y-41981429D01*
X95353096Y-41886190D01*
X95305477Y-41838571D01*
X95210239Y-41790952D01*
X72921905Y-39822381D02*
X72921905Y-38822381D01*
X73302858Y-38822381D01*
X73398096Y-38870000D01*
X73445715Y-38917619D01*
X73493334Y-39012857D01*
X73493334Y-39155714D01*
X73445715Y-39250952D01*
X73398096Y-39298571D01*
X73302858Y-39346190D01*
X72921905Y-39346190D01*
X74445715Y-39822381D02*
X73874286Y-39822381D01*
X74160000Y-39822381D02*
X74160000Y-38822381D01*
X74064762Y-38965238D01*
X73969524Y-39060476D01*
X73874286Y-39108095D01*
X75715905Y-32202381D02*
X75715905Y-31202381D01*
X76096858Y-31202381D01*
X76192096Y-31250000D01*
X76239715Y-31297619D01*
X76287334Y-31392857D01*
X76287334Y-31535714D01*
X76239715Y-31630952D01*
X76192096Y-31678571D01*
X76096858Y-31726190D01*
X75715905Y-31726190D01*
X76668286Y-31297619D02*
X76715905Y-31250000D01*
X76811143Y-31202381D01*
X77049239Y-31202381D01*
X77144477Y-31250000D01*
X77192096Y-31297619D01*
X77239715Y-31392857D01*
X77239715Y-31488095D01*
X77192096Y-31630952D01*
X76620667Y-32202381D01*
X77239715Y-32202381D01*
X79017905Y-30932381D02*
X79017905Y-29932381D01*
X79398858Y-29932381D01*
X79494096Y-29980000D01*
X79541715Y-30027619D01*
X79589334Y-30122857D01*
X79589334Y-30265714D01*
X79541715Y-30360952D01*
X79494096Y-30408571D01*
X79398858Y-30456190D01*
X79017905Y-30456190D01*
X79922667Y-29932381D02*
X80541715Y-29932381D01*
X80208381Y-30313333D01*
X80351239Y-30313333D01*
X80446477Y-30360952D01*
X80494096Y-30408571D01*
X80541715Y-30503810D01*
X80541715Y-30741905D01*
X80494096Y-30837143D01*
X80446477Y-30884762D01*
X80351239Y-30932381D01*
X80065524Y-30932381D01*
X79970286Y-30884762D01*
X79922667Y-30837143D01*
X86256905Y-27122381D02*
X86256905Y-26122381D01*
X86637858Y-26122381D01*
X86733096Y-26170000D01*
X86780715Y-26217619D01*
X86828334Y-26312857D01*
X86828334Y-26455714D01*
X86780715Y-26550952D01*
X86733096Y-26598571D01*
X86637858Y-26646190D01*
X86256905Y-26646190D01*
X87733096Y-26122381D02*
X87256905Y-26122381D01*
X87209286Y-26598571D01*
X87256905Y-26550952D01*
X87352143Y-26503333D01*
X87590239Y-26503333D01*
X87685477Y-26550952D01*
X87733096Y-26598571D01*
X87780715Y-26693810D01*
X87780715Y-26931905D01*
X87733096Y-27027143D01*
X87685477Y-27074762D01*
X87590239Y-27122381D01*
X87352143Y-27122381D01*
X87256905Y-27074762D01*
X87209286Y-27027143D01*
X86256905Y-47442381D02*
X86256905Y-46442381D01*
X86637858Y-46442381D01*
X86733096Y-46490000D01*
X86780715Y-46537619D01*
X86828334Y-46632857D01*
X86828334Y-46775714D01*
X86780715Y-46870952D01*
X86733096Y-46918571D01*
X86637858Y-46966190D01*
X86256905Y-46966190D01*
X87685477Y-46442381D02*
X87495000Y-46442381D01*
X87399762Y-46490000D01*
X87352143Y-46537619D01*
X87256905Y-46680476D01*
X87209286Y-46870952D01*
X87209286Y-47251905D01*
X87256905Y-47347143D01*
X87304524Y-47394762D01*
X87399762Y-47442381D01*
X87590239Y-47442381D01*
X87685477Y-47394762D01*
X87733096Y-47347143D01*
X87780715Y-47251905D01*
X87780715Y-47013810D01*
X87733096Y-46918571D01*
X87685477Y-46870952D01*
X87590239Y-46823333D01*
X87399762Y-46823333D01*
X87304524Y-46870952D01*
X87256905Y-46918571D01*
X87209286Y-47013810D01*
M02*
