M48
;DRILL file {KiCad 4.0.1-stable} date 6/21/2016 10:18:39 AM
;FORMAT={-:-/ absolute / inch / decimal}
FMAT,2
INCH,TZ
T1C0.012
T2C0.040
T3C0.120
%
G90
G05
M72
T1
X3.35Y-1.47
X3.57Y-1.45
X3.57Y-1.47
X3.57Y-1.49
X3.57Y-1.51
X3.57Y-1.53
X3.59Y-1.45
X3.59Y-1.47
X3.59Y-1.49
X3.59Y-1.51
X3.59Y-1.53
X3.61Y-1.45
X3.61Y-1.47
X3.61Y-1.49
X3.61Y-1.51
X3.61Y-1.53
X3.63Y-1.45
X3.63Y-1.47
X3.63Y-1.49
X3.63Y-1.51
X3.63Y-1.53
T2
X2.9Y-1.15
X2.9Y-1.25
X2.9Y-1.35
X2.9Y-1.65
X2.9Y-1.75
X3.Y-1.65
X3.Y-1.75
X3.25Y-1.15
X3.25Y-1.25
X3.35Y-1.15
X3.35Y-1.25
X3.45Y-1.15
X3.45Y-1.25
X3.55Y-1.15
X3.55Y-1.25
X3.65Y-1.15
X3.65Y-1.25
X3.75Y-1.15
X3.75Y-1.25
X3.85Y-1.15
X3.85Y-1.25
X3.85Y-1.45
X3.85Y-1.55
X3.85Y-1.65
X3.85Y-1.75
X3.95Y-1.15
X3.95Y-1.25
X3.95Y-1.45
X3.95Y-1.55
X3.95Y-1.65
X3.95Y-1.75
T3
X3.425Y-0.925
X3.425Y-1.975
T0
M30
