G04 #@! TF.FileFunction,Copper,L1,Top,Signal*
%FSLAX46Y46*%
G04 Gerber Fmt 4.6, Leading zero omitted, Abs format (unit mm)*
G04 Created by KiCad (PCBNEW 4.0.1-stable) date 6/22/2016 1:27:22 PM*
%MOMM*%
G01*
G04 APERTURE LIST*
%ADD10C,0.100000*%
%ADD11R,1.727200X1.727200*%
%ADD12O,1.727200X1.727200*%
%ADD13R,0.550000X0.400000*%
%ADD14R,0.400000X0.550000*%
%ADD15R,1.675000X1.675000*%
%ADD16R,0.750000X0.800000*%
%ADD17R,2.370000X2.430000*%
%ADD18R,1.600000X1.000000*%
%ADD19R,1.250000X1.000000*%
%ADD20R,2.032000X1.727200*%
%ADD21O,2.032000X1.727200*%
%ADD22C,4.064000*%
%ADD23C,0.690000*%
%ADD24C,0.200000*%
%ADD25C,0.250000*%
G04 APERTURE END LIST*
D10*
D11*
X86360000Y-40640000D03*
D12*
X86360000Y-43180000D03*
X88900000Y-40640000D03*
X88900000Y-43180000D03*
X91440000Y-40640000D03*
X91440000Y-43180000D03*
X93980000Y-40640000D03*
X93980000Y-43180000D03*
X96520000Y-40640000D03*
X96520000Y-43180000D03*
X99060000Y-40640000D03*
X99060000Y-43180000D03*
X101600000Y-40640000D03*
X101600000Y-43180000D03*
X104140000Y-40640000D03*
X104140000Y-43180000D03*
D13*
X95504000Y-53908000D03*
X95504000Y-53258000D03*
X95504000Y-52608000D03*
X95504000Y-51958000D03*
X95504000Y-51308000D03*
D14*
X94554000Y-50358000D03*
X93904000Y-50358000D03*
X93254000Y-50358000D03*
X92604000Y-50358000D03*
X91954000Y-50358000D03*
D13*
X91004000Y-51308000D03*
X91004000Y-51958000D03*
X91004000Y-52608000D03*
X91004000Y-53258000D03*
X91004000Y-53908000D03*
D14*
X91954000Y-54858000D03*
X92604000Y-54858000D03*
X93254000Y-54858000D03*
X93904000Y-54858000D03*
X94554000Y-54858000D03*
D15*
X92416500Y-51770500D03*
X92416500Y-53445500D03*
X94091500Y-51770500D03*
X94091500Y-53445500D03*
D11*
X77470000Y-54864000D03*
D12*
X80010000Y-54864000D03*
X77470000Y-52324000D03*
X80010000Y-52324000D03*
D16*
X85344000Y-52070000D03*
X85344000Y-50570000D03*
D17*
X77326000Y-59690000D03*
X83566000Y-59690000D03*
D18*
X86868000Y-59992000D03*
X86868000Y-62992000D03*
D11*
X104140000Y-49784000D03*
D12*
X101600000Y-49784000D03*
X104140000Y-52324000D03*
X101600000Y-52324000D03*
X104140000Y-54864000D03*
X101600000Y-54864000D03*
X104140000Y-57404000D03*
X101600000Y-57404000D03*
D19*
X92456000Y-60976000D03*
X92456000Y-62976000D03*
X94742000Y-60976000D03*
X94742000Y-62976000D03*
X97028000Y-60976000D03*
X97028000Y-62976000D03*
X99314000Y-60976000D03*
X99314000Y-62976000D03*
X101600000Y-60976000D03*
X101600000Y-62976000D03*
D20*
X77470000Y-40640000D03*
D21*
X77470000Y-43180000D03*
X77470000Y-45720000D03*
D22*
X90805000Y-34925000D03*
X90805000Y-67945000D03*
D23*
X92964000Y-56642000D03*
X96520000Y-49530000D03*
X88900000Y-51308000D03*
X94107000Y-51689000D03*
X94107000Y-52578000D03*
X94107000Y-53467000D03*
X93218000Y-53467000D03*
X92329000Y-53467000D03*
X92329000Y-52578000D03*
X92329000Y-51689000D03*
X93218000Y-51689000D03*
X93218000Y-52578000D03*
D24*
X93254000Y-54858000D02*
X93254000Y-56352000D01*
X93254000Y-56352000D02*
X92964000Y-56642000D01*
X104140000Y-40640000D02*
X102763601Y-42016399D01*
X102763601Y-42016399D02*
X102763601Y-43738529D01*
X102763601Y-43738529D02*
X96972130Y-49530000D01*
X96972130Y-49530000D02*
X96520000Y-49530000D01*
X85344000Y-50570000D02*
X88162000Y-50570000D01*
X88162000Y-50570000D02*
X88900000Y-51308000D01*
X93904000Y-50358000D02*
X93904000Y-51583000D01*
X92604000Y-54858000D02*
X92604000Y-53633000D01*
X92604000Y-53633000D02*
X92416500Y-53445500D01*
X93254000Y-54858000D02*
X93254000Y-54283000D01*
X93254000Y-54283000D02*
X92416500Y-53445500D01*
X93904000Y-54858000D02*
X93904000Y-53633000D01*
X93904000Y-53633000D02*
X94091500Y-53445500D01*
X95504000Y-53258000D02*
X94279000Y-53258000D01*
X94279000Y-53258000D02*
X94091500Y-53445500D01*
X93904000Y-51583000D02*
X94091500Y-51770500D01*
X95103990Y-50758010D02*
X95103990Y-49911000D01*
X94091500Y-51770500D02*
X95103990Y-50758010D01*
X91440000Y-50800000D02*
X91440000Y-50038000D01*
X92410500Y-51770500D02*
X91440000Y-50800000D01*
X92416500Y-51770500D02*
X92410500Y-51770500D01*
X85344000Y-52070000D02*
X85919000Y-52070000D01*
X85919000Y-52070000D02*
X87107000Y-53258000D01*
X87107000Y-53258000D02*
X90529000Y-53258000D01*
X90529000Y-53258000D02*
X91004000Y-53258000D01*
X86106000Y-51308000D02*
X87406000Y-52608000D01*
X87406000Y-52608000D02*
X91004000Y-52608000D01*
X84582000Y-51308000D02*
X86106000Y-51308000D01*
X84328000Y-51054000D02*
X84582000Y-51308000D01*
X84328000Y-49885600D02*
X84328000Y-51054000D01*
X77470000Y-43180000D02*
X77622400Y-43180000D01*
X77622400Y-43180000D02*
X84328000Y-49885600D01*
X86360000Y-43180000D02*
X90170000Y-46990000D01*
X90170000Y-46990000D02*
X90170000Y-51599000D01*
X90170000Y-51599000D02*
X90529000Y-51958000D01*
X90529000Y-51958000D02*
X91004000Y-51958000D01*
X91004000Y-51308000D02*
X91004000Y-45284000D01*
X91004000Y-45284000D02*
X88900000Y-43180000D01*
X91954000Y-50358000D02*
X91954000Y-43694000D01*
X91954000Y-43694000D02*
X91440000Y-43180000D01*
X92604000Y-44556000D02*
X93980000Y-43180000D01*
X92604000Y-50358000D02*
X92604000Y-44556000D01*
X93254000Y-46446000D02*
X96520000Y-43180000D01*
X93254000Y-50358000D02*
X93254000Y-46446000D01*
X94554000Y-47686000D02*
X99060000Y-43180000D01*
X94554000Y-50358000D02*
X94554000Y-47686000D01*
X101600000Y-43180000D02*
X95504000Y-49276000D01*
X95504000Y-49276000D02*
X95504000Y-51308000D01*
X104140000Y-43180000D02*
X96266000Y-51054000D01*
X96266000Y-51054000D02*
X96266000Y-51671000D01*
X96266000Y-51671000D02*
X95979000Y-51958000D01*
X95979000Y-51958000D02*
X95504000Y-51958000D01*
D25*
G36*
X77595000Y-45595000D02*
X78760406Y-45595000D01*
X78761651Y-45591000D01*
X79323224Y-45591000D01*
X83822000Y-50089776D01*
X83822000Y-51181000D01*
X83831848Y-51229632D01*
X83858612Y-51269388D01*
X84457000Y-51867776D01*
X84457000Y-52578000D01*
X84466848Y-52626632D01*
X84493612Y-52666388D01*
X84747612Y-52920388D01*
X84788963Y-52947813D01*
X84836000Y-52957000D01*
X86054224Y-52957000D01*
X86779612Y-53682388D01*
X86820963Y-53709813D01*
X86868000Y-53719000D01*
X90358750Y-53719000D01*
X90447750Y-53808000D01*
X90879000Y-53808000D01*
X90879000Y-53789367D01*
X91129000Y-53789367D01*
X91129000Y-53808000D01*
X91149000Y-53808000D01*
X91149000Y-54008000D01*
X91129000Y-54008000D01*
X91129000Y-54389250D01*
X91222750Y-54483000D01*
X91263224Y-54483000D01*
X91379000Y-54598776D01*
X91379000Y-54639250D01*
X91472750Y-54733000D01*
X91556760Y-54733000D01*
X91567000Y-54735000D01*
X92072633Y-54735000D01*
X92072633Y-54983000D01*
X92054000Y-54983000D01*
X92054000Y-55414250D01*
X92077000Y-55437250D01*
X92077000Y-55701224D01*
X88303612Y-59474612D01*
X88276187Y-59515963D01*
X88267000Y-59563000D01*
X88267000Y-60654224D01*
X87832224Y-61089000D01*
X85344000Y-61089000D01*
X85295368Y-61098848D01*
X85255612Y-61125612D01*
X85038224Y-61343000D01*
X82093776Y-61343000D01*
X81913000Y-61162224D01*
X81913000Y-59908750D01*
X82006000Y-59908750D01*
X82006000Y-60979592D01*
X82063090Y-61117421D01*
X82168580Y-61222910D01*
X82306408Y-61280000D01*
X83347250Y-61280000D01*
X83441000Y-61186250D01*
X83441000Y-59815000D01*
X83691000Y-59815000D01*
X83691000Y-61186250D01*
X83784750Y-61280000D01*
X84825592Y-61280000D01*
X84963420Y-61222910D01*
X85068910Y-61117421D01*
X85126000Y-60979592D01*
X85126000Y-60210750D01*
X85693000Y-60210750D01*
X85693000Y-60566592D01*
X85750090Y-60704420D01*
X85855579Y-60809910D01*
X85993408Y-60867000D01*
X86649250Y-60867000D01*
X86743000Y-60773250D01*
X86743000Y-60117000D01*
X86993000Y-60117000D01*
X86993000Y-60773250D01*
X87086750Y-60867000D01*
X87742592Y-60867000D01*
X87880421Y-60809910D01*
X87985910Y-60704420D01*
X88043000Y-60566592D01*
X88043000Y-60210750D01*
X87949250Y-60117000D01*
X86993000Y-60117000D01*
X86743000Y-60117000D01*
X85786750Y-60117000D01*
X85693000Y-60210750D01*
X85126000Y-60210750D01*
X85126000Y-59908750D01*
X85032250Y-59815000D01*
X83691000Y-59815000D01*
X83441000Y-59815000D01*
X82099750Y-59815000D01*
X82006000Y-59908750D01*
X81913000Y-59908750D01*
X81913000Y-58400408D01*
X82006000Y-58400408D01*
X82006000Y-59471250D01*
X82099750Y-59565000D01*
X83441000Y-59565000D01*
X83441000Y-58193750D01*
X83691000Y-58193750D01*
X83691000Y-59565000D01*
X85032250Y-59565000D01*
X85126000Y-59471250D01*
X85126000Y-59417408D01*
X85693000Y-59417408D01*
X85693000Y-59773250D01*
X85786750Y-59867000D01*
X86743000Y-59867000D01*
X86743000Y-59210750D01*
X86993000Y-59210750D01*
X86993000Y-59867000D01*
X87949250Y-59867000D01*
X88043000Y-59773250D01*
X88043000Y-59417408D01*
X87985910Y-59279580D01*
X87880421Y-59174090D01*
X87742592Y-59117000D01*
X87086750Y-59117000D01*
X86993000Y-59210750D01*
X86743000Y-59210750D01*
X86649250Y-59117000D01*
X85993408Y-59117000D01*
X85855579Y-59174090D01*
X85750090Y-59279580D01*
X85693000Y-59417408D01*
X85126000Y-59417408D01*
X85126000Y-58400408D01*
X85068910Y-58262579D01*
X84963420Y-58157090D01*
X84825592Y-58100000D01*
X83784750Y-58100000D01*
X83691000Y-58193750D01*
X83441000Y-58193750D01*
X83347250Y-58100000D01*
X82306408Y-58100000D01*
X82168580Y-58157090D01*
X82063090Y-58262579D01*
X82006000Y-58400408D01*
X81913000Y-58400408D01*
X81913000Y-58166000D01*
X81903152Y-58117368D01*
X81876388Y-58077612D01*
X79881000Y-56082224D01*
X79881000Y-56003773D01*
X79885000Y-56002538D01*
X79885000Y-54989000D01*
X80135000Y-54989000D01*
X80135000Y-56002538D01*
X80326233Y-56061562D01*
X80760448Y-55849386D01*
X81080414Y-55487194D01*
X81207550Y-55180231D01*
X81175329Y-55076750D01*
X91379000Y-55076750D01*
X91379000Y-55207592D01*
X91436090Y-55345420D01*
X91541579Y-55450910D01*
X91679408Y-55508000D01*
X91760250Y-55508000D01*
X91854000Y-55414250D01*
X91854000Y-54983000D01*
X91472750Y-54983000D01*
X91379000Y-55076750D01*
X81175329Y-55076750D01*
X81148006Y-54989000D01*
X80135000Y-54989000D01*
X79885000Y-54989000D01*
X79881000Y-54989000D01*
X79881000Y-54739000D01*
X79885000Y-54739000D01*
X79885000Y-53725462D01*
X80135000Y-53725462D01*
X80135000Y-54739000D01*
X81148006Y-54739000D01*
X81207550Y-54547769D01*
X81080414Y-54240806D01*
X80957570Y-54101750D01*
X90354000Y-54101750D01*
X90354000Y-54182592D01*
X90411090Y-54320421D01*
X90516580Y-54425910D01*
X90654408Y-54483000D01*
X90785250Y-54483000D01*
X90879000Y-54389250D01*
X90879000Y-54008000D01*
X90447750Y-54008000D01*
X90354000Y-54101750D01*
X80957570Y-54101750D01*
X80760448Y-53878614D01*
X80326233Y-53666438D01*
X80135000Y-53725462D01*
X79885000Y-53725462D01*
X79881000Y-53724227D01*
X79881000Y-53463773D01*
X79885000Y-53462538D01*
X79885000Y-52449000D01*
X80135000Y-52449000D01*
X80135000Y-53462538D01*
X80326233Y-53521562D01*
X80760448Y-53309386D01*
X81080414Y-52947194D01*
X81207550Y-52640231D01*
X81148006Y-52449000D01*
X80135000Y-52449000D01*
X79885000Y-52449000D01*
X79881000Y-52449000D01*
X79881000Y-52199000D01*
X79885000Y-52199000D01*
X79885000Y-51185462D01*
X80135000Y-51185462D01*
X80135000Y-52199000D01*
X81148006Y-52199000D01*
X81207550Y-52007769D01*
X81080414Y-51700806D01*
X80760448Y-51338614D01*
X80326233Y-51126438D01*
X80135000Y-51185462D01*
X79885000Y-51185462D01*
X79881000Y-51184227D01*
X79881000Y-49530000D01*
X79871152Y-49481368D01*
X79844388Y-49441612D01*
X77341000Y-46938224D01*
X77341000Y-46867933D01*
X77345000Y-46866229D01*
X77345000Y-45845000D01*
X77595000Y-45845000D01*
X77595000Y-46866229D01*
X77789313Y-46948999D01*
X78246925Y-46791572D01*
X78609459Y-46471008D01*
X78819950Y-46036231D01*
X78760406Y-45845000D01*
X77595000Y-45845000D01*
X77345000Y-45845000D01*
X77341000Y-45845000D01*
X77341000Y-45595000D01*
X77345000Y-45595000D01*
X77345000Y-45591000D01*
X77595000Y-45591000D01*
X77595000Y-45595000D01*
X77595000Y-45595000D01*
G37*
X77595000Y-45595000D02*
X78760406Y-45595000D01*
X78761651Y-45591000D01*
X79323224Y-45591000D01*
X83822000Y-50089776D01*
X83822000Y-51181000D01*
X83831848Y-51229632D01*
X83858612Y-51269388D01*
X84457000Y-51867776D01*
X84457000Y-52578000D01*
X84466848Y-52626632D01*
X84493612Y-52666388D01*
X84747612Y-52920388D01*
X84788963Y-52947813D01*
X84836000Y-52957000D01*
X86054224Y-52957000D01*
X86779612Y-53682388D01*
X86820963Y-53709813D01*
X86868000Y-53719000D01*
X90358750Y-53719000D01*
X90447750Y-53808000D01*
X90879000Y-53808000D01*
X90879000Y-53789367D01*
X91129000Y-53789367D01*
X91129000Y-53808000D01*
X91149000Y-53808000D01*
X91149000Y-54008000D01*
X91129000Y-54008000D01*
X91129000Y-54389250D01*
X91222750Y-54483000D01*
X91263224Y-54483000D01*
X91379000Y-54598776D01*
X91379000Y-54639250D01*
X91472750Y-54733000D01*
X91556760Y-54733000D01*
X91567000Y-54735000D01*
X92072633Y-54735000D01*
X92072633Y-54983000D01*
X92054000Y-54983000D01*
X92054000Y-55414250D01*
X92077000Y-55437250D01*
X92077000Y-55701224D01*
X88303612Y-59474612D01*
X88276187Y-59515963D01*
X88267000Y-59563000D01*
X88267000Y-60654224D01*
X87832224Y-61089000D01*
X85344000Y-61089000D01*
X85295368Y-61098848D01*
X85255612Y-61125612D01*
X85038224Y-61343000D01*
X82093776Y-61343000D01*
X81913000Y-61162224D01*
X81913000Y-59908750D01*
X82006000Y-59908750D01*
X82006000Y-60979592D01*
X82063090Y-61117421D01*
X82168580Y-61222910D01*
X82306408Y-61280000D01*
X83347250Y-61280000D01*
X83441000Y-61186250D01*
X83441000Y-59815000D01*
X83691000Y-59815000D01*
X83691000Y-61186250D01*
X83784750Y-61280000D01*
X84825592Y-61280000D01*
X84963420Y-61222910D01*
X85068910Y-61117421D01*
X85126000Y-60979592D01*
X85126000Y-60210750D01*
X85693000Y-60210750D01*
X85693000Y-60566592D01*
X85750090Y-60704420D01*
X85855579Y-60809910D01*
X85993408Y-60867000D01*
X86649250Y-60867000D01*
X86743000Y-60773250D01*
X86743000Y-60117000D01*
X86993000Y-60117000D01*
X86993000Y-60773250D01*
X87086750Y-60867000D01*
X87742592Y-60867000D01*
X87880421Y-60809910D01*
X87985910Y-60704420D01*
X88043000Y-60566592D01*
X88043000Y-60210750D01*
X87949250Y-60117000D01*
X86993000Y-60117000D01*
X86743000Y-60117000D01*
X85786750Y-60117000D01*
X85693000Y-60210750D01*
X85126000Y-60210750D01*
X85126000Y-59908750D01*
X85032250Y-59815000D01*
X83691000Y-59815000D01*
X83441000Y-59815000D01*
X82099750Y-59815000D01*
X82006000Y-59908750D01*
X81913000Y-59908750D01*
X81913000Y-58400408D01*
X82006000Y-58400408D01*
X82006000Y-59471250D01*
X82099750Y-59565000D01*
X83441000Y-59565000D01*
X83441000Y-58193750D01*
X83691000Y-58193750D01*
X83691000Y-59565000D01*
X85032250Y-59565000D01*
X85126000Y-59471250D01*
X85126000Y-59417408D01*
X85693000Y-59417408D01*
X85693000Y-59773250D01*
X85786750Y-59867000D01*
X86743000Y-59867000D01*
X86743000Y-59210750D01*
X86993000Y-59210750D01*
X86993000Y-59867000D01*
X87949250Y-59867000D01*
X88043000Y-59773250D01*
X88043000Y-59417408D01*
X87985910Y-59279580D01*
X87880421Y-59174090D01*
X87742592Y-59117000D01*
X87086750Y-59117000D01*
X86993000Y-59210750D01*
X86743000Y-59210750D01*
X86649250Y-59117000D01*
X85993408Y-59117000D01*
X85855579Y-59174090D01*
X85750090Y-59279580D01*
X85693000Y-59417408D01*
X85126000Y-59417408D01*
X85126000Y-58400408D01*
X85068910Y-58262579D01*
X84963420Y-58157090D01*
X84825592Y-58100000D01*
X83784750Y-58100000D01*
X83691000Y-58193750D01*
X83441000Y-58193750D01*
X83347250Y-58100000D01*
X82306408Y-58100000D01*
X82168580Y-58157090D01*
X82063090Y-58262579D01*
X82006000Y-58400408D01*
X81913000Y-58400408D01*
X81913000Y-58166000D01*
X81903152Y-58117368D01*
X81876388Y-58077612D01*
X79881000Y-56082224D01*
X79881000Y-56003773D01*
X79885000Y-56002538D01*
X79885000Y-54989000D01*
X80135000Y-54989000D01*
X80135000Y-56002538D01*
X80326233Y-56061562D01*
X80760448Y-55849386D01*
X81080414Y-55487194D01*
X81207550Y-55180231D01*
X81175329Y-55076750D01*
X91379000Y-55076750D01*
X91379000Y-55207592D01*
X91436090Y-55345420D01*
X91541579Y-55450910D01*
X91679408Y-55508000D01*
X91760250Y-55508000D01*
X91854000Y-55414250D01*
X91854000Y-54983000D01*
X91472750Y-54983000D01*
X91379000Y-55076750D01*
X81175329Y-55076750D01*
X81148006Y-54989000D01*
X80135000Y-54989000D01*
X79885000Y-54989000D01*
X79881000Y-54989000D01*
X79881000Y-54739000D01*
X79885000Y-54739000D01*
X79885000Y-53725462D01*
X80135000Y-53725462D01*
X80135000Y-54739000D01*
X81148006Y-54739000D01*
X81207550Y-54547769D01*
X81080414Y-54240806D01*
X80957570Y-54101750D01*
X90354000Y-54101750D01*
X90354000Y-54182592D01*
X90411090Y-54320421D01*
X90516580Y-54425910D01*
X90654408Y-54483000D01*
X90785250Y-54483000D01*
X90879000Y-54389250D01*
X90879000Y-54008000D01*
X90447750Y-54008000D01*
X90354000Y-54101750D01*
X80957570Y-54101750D01*
X80760448Y-53878614D01*
X80326233Y-53666438D01*
X80135000Y-53725462D01*
X79885000Y-53725462D01*
X79881000Y-53724227D01*
X79881000Y-53463773D01*
X79885000Y-53462538D01*
X79885000Y-52449000D01*
X80135000Y-52449000D01*
X80135000Y-53462538D01*
X80326233Y-53521562D01*
X80760448Y-53309386D01*
X81080414Y-52947194D01*
X81207550Y-52640231D01*
X81148006Y-52449000D01*
X80135000Y-52449000D01*
X79885000Y-52449000D01*
X79881000Y-52449000D01*
X79881000Y-52199000D01*
X79885000Y-52199000D01*
X79885000Y-51185462D01*
X80135000Y-51185462D01*
X80135000Y-52199000D01*
X81148006Y-52199000D01*
X81207550Y-52007769D01*
X81080414Y-51700806D01*
X80760448Y-51338614D01*
X80326233Y-51126438D01*
X80135000Y-51185462D01*
X79885000Y-51185462D01*
X79881000Y-51184227D01*
X79881000Y-49530000D01*
X79871152Y-49481368D01*
X79844388Y-49441612D01*
X77341000Y-46938224D01*
X77341000Y-46867933D01*
X77345000Y-46866229D01*
X77345000Y-45845000D01*
X77595000Y-45845000D01*
X77595000Y-46866229D01*
X77789313Y-46948999D01*
X78246925Y-46791572D01*
X78609459Y-46471008D01*
X78819950Y-46036231D01*
X78760406Y-45845000D01*
X77595000Y-45845000D01*
X77345000Y-45845000D01*
X77341000Y-45845000D01*
X77341000Y-45595000D01*
X77345000Y-45595000D01*
X77345000Y-45591000D01*
X77595000Y-45591000D01*
X77595000Y-45595000D01*
G36*
X101729000Y-48644227D02*
X101725000Y-48645462D01*
X101725000Y-49659000D01*
X101729000Y-49659000D01*
X101729000Y-49909000D01*
X101725000Y-49909000D01*
X101725000Y-50922538D01*
X101729000Y-50923773D01*
X101729000Y-51184227D01*
X101725000Y-51185462D01*
X101725000Y-52199000D01*
X101729000Y-52199000D01*
X101729000Y-52449000D01*
X101725000Y-52449000D01*
X101725000Y-53462538D01*
X101729000Y-53463773D01*
X101729000Y-53724227D01*
X101725000Y-53725462D01*
X101725000Y-54739000D01*
X101729000Y-54739000D01*
X101729000Y-54989000D01*
X101725000Y-54989000D01*
X101725000Y-56002538D01*
X101729000Y-56003773D01*
X101729000Y-56264227D01*
X101725000Y-56265462D01*
X101725000Y-57279000D01*
X101729000Y-57279000D01*
X101729000Y-57529000D01*
X101725000Y-57529000D01*
X101725000Y-58542538D01*
X101729000Y-58543773D01*
X101729000Y-60190750D01*
X101725000Y-60194750D01*
X101725000Y-60851000D01*
X101729000Y-60851000D01*
X101729000Y-61089000D01*
X92327000Y-61089000D01*
X92327000Y-60851000D01*
X92331000Y-60851000D01*
X92331000Y-60194750D01*
X92581000Y-60194750D01*
X92581000Y-60851000D01*
X93362250Y-60851000D01*
X93456000Y-60757250D01*
X93456000Y-60401408D01*
X93742000Y-60401408D01*
X93742000Y-60757250D01*
X93835750Y-60851000D01*
X94617000Y-60851000D01*
X94617000Y-60194750D01*
X94867000Y-60194750D01*
X94867000Y-60851000D01*
X95648250Y-60851000D01*
X95742000Y-60757250D01*
X95742000Y-60401408D01*
X96028000Y-60401408D01*
X96028000Y-60757250D01*
X96121750Y-60851000D01*
X96903000Y-60851000D01*
X96903000Y-60194750D01*
X97153000Y-60194750D01*
X97153000Y-60851000D01*
X97934250Y-60851000D01*
X98028000Y-60757250D01*
X98028000Y-60401408D01*
X98314000Y-60401408D01*
X98314000Y-60757250D01*
X98407750Y-60851000D01*
X99189000Y-60851000D01*
X99189000Y-60194750D01*
X99439000Y-60194750D01*
X99439000Y-60851000D01*
X100220250Y-60851000D01*
X100314000Y-60757250D01*
X100314000Y-60401408D01*
X100600000Y-60401408D01*
X100600000Y-60757250D01*
X100693750Y-60851000D01*
X101475000Y-60851000D01*
X101475000Y-60194750D01*
X101381250Y-60101000D01*
X100900408Y-60101000D01*
X100762579Y-60158090D01*
X100657090Y-60263580D01*
X100600000Y-60401408D01*
X100314000Y-60401408D01*
X100256910Y-60263580D01*
X100151421Y-60158090D01*
X100013592Y-60101000D01*
X99532750Y-60101000D01*
X99439000Y-60194750D01*
X99189000Y-60194750D01*
X99095250Y-60101000D01*
X98614408Y-60101000D01*
X98476579Y-60158090D01*
X98371090Y-60263580D01*
X98314000Y-60401408D01*
X98028000Y-60401408D01*
X97970910Y-60263580D01*
X97865421Y-60158090D01*
X97727592Y-60101000D01*
X97246750Y-60101000D01*
X97153000Y-60194750D01*
X96903000Y-60194750D01*
X96809250Y-60101000D01*
X96328408Y-60101000D01*
X96190579Y-60158090D01*
X96085090Y-60263580D01*
X96028000Y-60401408D01*
X95742000Y-60401408D01*
X95684910Y-60263580D01*
X95579421Y-60158090D01*
X95441592Y-60101000D01*
X94960750Y-60101000D01*
X94867000Y-60194750D01*
X94617000Y-60194750D01*
X94523250Y-60101000D01*
X94042408Y-60101000D01*
X93904579Y-60158090D01*
X93799090Y-60263580D01*
X93742000Y-60401408D01*
X93456000Y-60401408D01*
X93398910Y-60263580D01*
X93293421Y-60158090D01*
X93155592Y-60101000D01*
X92674750Y-60101000D01*
X92581000Y-60194750D01*
X92331000Y-60194750D01*
X92327000Y-60190750D01*
X92327000Y-59995776D01*
X94449388Y-57873388D01*
X94476813Y-57832037D01*
X94486000Y-57785000D01*
X94486000Y-57720231D01*
X100402450Y-57720231D01*
X100529586Y-58027194D01*
X100849552Y-58389386D01*
X101283767Y-58601562D01*
X101475000Y-58542538D01*
X101475000Y-57529000D01*
X100461994Y-57529000D01*
X100402450Y-57720231D01*
X94486000Y-57720231D01*
X94486000Y-57087769D01*
X100402450Y-57087769D01*
X100461994Y-57279000D01*
X101475000Y-57279000D01*
X101475000Y-56265462D01*
X101283767Y-56206438D01*
X100849552Y-56418614D01*
X100529586Y-56780806D01*
X100402450Y-57087769D01*
X94486000Y-57087769D01*
X94486000Y-54983000D01*
X94654000Y-54983000D01*
X94654000Y-55414250D01*
X94747750Y-55508000D01*
X94828592Y-55508000D01*
X94966421Y-55450910D01*
X95071910Y-55345420D01*
X95129000Y-55207592D01*
X95129000Y-55180231D01*
X100402450Y-55180231D01*
X100529586Y-55487194D01*
X100849552Y-55849386D01*
X101283767Y-56061562D01*
X101475000Y-56002538D01*
X101475000Y-54989000D01*
X100461994Y-54989000D01*
X100402450Y-55180231D01*
X95129000Y-55180231D01*
X95129000Y-55076750D01*
X95035250Y-54983000D01*
X94654000Y-54983000D01*
X94486000Y-54983000D01*
X94486000Y-54735000D01*
X94998741Y-54735000D01*
X95008618Y-54733000D01*
X95035250Y-54733000D01*
X95042012Y-54726238D01*
X95047373Y-54725152D01*
X95087608Y-54697908D01*
X95236126Y-54547769D01*
X100402450Y-54547769D01*
X100461994Y-54739000D01*
X101475000Y-54739000D01*
X101475000Y-53725462D01*
X101283767Y-53666438D01*
X100849552Y-53878614D01*
X100529586Y-54240806D01*
X100402450Y-54547769D01*
X95236126Y-54547769D01*
X95338867Y-54443908D01*
X95366066Y-54402408D01*
X95366119Y-54402131D01*
X95379000Y-54389250D01*
X95379000Y-54008000D01*
X95629000Y-54008000D01*
X95629000Y-54389250D01*
X95722750Y-54483000D01*
X95853592Y-54483000D01*
X95991420Y-54425910D01*
X96096910Y-54320421D01*
X96154000Y-54182592D01*
X96154000Y-54101750D01*
X96060250Y-54008000D01*
X95629000Y-54008000D01*
X95379000Y-54008000D01*
X95375000Y-54008000D01*
X95375000Y-53846000D01*
X96012000Y-53846000D01*
X96060632Y-53836152D01*
X96100388Y-53809388D01*
X96227388Y-53682388D01*
X96254813Y-53641037D01*
X96264000Y-53594000D01*
X96264000Y-52975519D01*
X96254152Y-52926887D01*
X96232611Y-52892682D01*
X96154000Y-52803846D01*
X96154000Y-52801750D01*
X96137886Y-52785636D01*
X96105611Y-52749163D01*
X96088489Y-52736239D01*
X96060250Y-52708000D01*
X96016402Y-52708000D01*
X96012000Y-52707000D01*
X95375000Y-52707000D01*
X95375000Y-52640231D01*
X100402450Y-52640231D01*
X100529586Y-52947194D01*
X100849552Y-53309386D01*
X101283767Y-53521562D01*
X101475000Y-53462538D01*
X101475000Y-52449000D01*
X100461994Y-52449000D01*
X100402450Y-52640231D01*
X95375000Y-52640231D01*
X95375000Y-52576000D01*
X96012000Y-52576000D01*
X96060632Y-52566152D01*
X96100388Y-52539388D01*
X96632007Y-52007769D01*
X100402450Y-52007769D01*
X100461994Y-52199000D01*
X101475000Y-52199000D01*
X101475000Y-51185462D01*
X101283767Y-51126438D01*
X100849552Y-51338614D01*
X100529586Y-51700806D01*
X100402450Y-52007769D01*
X96632007Y-52007769D01*
X96735388Y-51904388D01*
X96762813Y-51863037D01*
X96772000Y-51816000D01*
X96772000Y-51232776D01*
X97904545Y-50100231D01*
X100402450Y-50100231D01*
X100529586Y-50407194D01*
X100849552Y-50769386D01*
X101283767Y-50981562D01*
X101475000Y-50922538D01*
X101475000Y-49909000D01*
X100461994Y-49909000D01*
X100402450Y-50100231D01*
X97904545Y-50100231D01*
X98537007Y-49467769D01*
X100402450Y-49467769D01*
X100461994Y-49659000D01*
X101475000Y-49659000D01*
X101475000Y-48645462D01*
X101283767Y-48586438D01*
X100849552Y-48798614D01*
X100529586Y-49160806D01*
X100402450Y-49467769D01*
X98537007Y-49467769D01*
X101729000Y-46275776D01*
X101729000Y-48644227D01*
X101729000Y-48644227D01*
G37*
X101729000Y-48644227D02*
X101725000Y-48645462D01*
X101725000Y-49659000D01*
X101729000Y-49659000D01*
X101729000Y-49909000D01*
X101725000Y-49909000D01*
X101725000Y-50922538D01*
X101729000Y-50923773D01*
X101729000Y-51184227D01*
X101725000Y-51185462D01*
X101725000Y-52199000D01*
X101729000Y-52199000D01*
X101729000Y-52449000D01*
X101725000Y-52449000D01*
X101725000Y-53462538D01*
X101729000Y-53463773D01*
X101729000Y-53724227D01*
X101725000Y-53725462D01*
X101725000Y-54739000D01*
X101729000Y-54739000D01*
X101729000Y-54989000D01*
X101725000Y-54989000D01*
X101725000Y-56002538D01*
X101729000Y-56003773D01*
X101729000Y-56264227D01*
X101725000Y-56265462D01*
X101725000Y-57279000D01*
X101729000Y-57279000D01*
X101729000Y-57529000D01*
X101725000Y-57529000D01*
X101725000Y-58542538D01*
X101729000Y-58543773D01*
X101729000Y-60190750D01*
X101725000Y-60194750D01*
X101725000Y-60851000D01*
X101729000Y-60851000D01*
X101729000Y-61089000D01*
X92327000Y-61089000D01*
X92327000Y-60851000D01*
X92331000Y-60851000D01*
X92331000Y-60194750D01*
X92581000Y-60194750D01*
X92581000Y-60851000D01*
X93362250Y-60851000D01*
X93456000Y-60757250D01*
X93456000Y-60401408D01*
X93742000Y-60401408D01*
X93742000Y-60757250D01*
X93835750Y-60851000D01*
X94617000Y-60851000D01*
X94617000Y-60194750D01*
X94867000Y-60194750D01*
X94867000Y-60851000D01*
X95648250Y-60851000D01*
X95742000Y-60757250D01*
X95742000Y-60401408D01*
X96028000Y-60401408D01*
X96028000Y-60757250D01*
X96121750Y-60851000D01*
X96903000Y-60851000D01*
X96903000Y-60194750D01*
X97153000Y-60194750D01*
X97153000Y-60851000D01*
X97934250Y-60851000D01*
X98028000Y-60757250D01*
X98028000Y-60401408D01*
X98314000Y-60401408D01*
X98314000Y-60757250D01*
X98407750Y-60851000D01*
X99189000Y-60851000D01*
X99189000Y-60194750D01*
X99439000Y-60194750D01*
X99439000Y-60851000D01*
X100220250Y-60851000D01*
X100314000Y-60757250D01*
X100314000Y-60401408D01*
X100600000Y-60401408D01*
X100600000Y-60757250D01*
X100693750Y-60851000D01*
X101475000Y-60851000D01*
X101475000Y-60194750D01*
X101381250Y-60101000D01*
X100900408Y-60101000D01*
X100762579Y-60158090D01*
X100657090Y-60263580D01*
X100600000Y-60401408D01*
X100314000Y-60401408D01*
X100256910Y-60263580D01*
X100151421Y-60158090D01*
X100013592Y-60101000D01*
X99532750Y-60101000D01*
X99439000Y-60194750D01*
X99189000Y-60194750D01*
X99095250Y-60101000D01*
X98614408Y-60101000D01*
X98476579Y-60158090D01*
X98371090Y-60263580D01*
X98314000Y-60401408D01*
X98028000Y-60401408D01*
X97970910Y-60263580D01*
X97865421Y-60158090D01*
X97727592Y-60101000D01*
X97246750Y-60101000D01*
X97153000Y-60194750D01*
X96903000Y-60194750D01*
X96809250Y-60101000D01*
X96328408Y-60101000D01*
X96190579Y-60158090D01*
X96085090Y-60263580D01*
X96028000Y-60401408D01*
X95742000Y-60401408D01*
X95684910Y-60263580D01*
X95579421Y-60158090D01*
X95441592Y-60101000D01*
X94960750Y-60101000D01*
X94867000Y-60194750D01*
X94617000Y-60194750D01*
X94523250Y-60101000D01*
X94042408Y-60101000D01*
X93904579Y-60158090D01*
X93799090Y-60263580D01*
X93742000Y-60401408D01*
X93456000Y-60401408D01*
X93398910Y-60263580D01*
X93293421Y-60158090D01*
X93155592Y-60101000D01*
X92674750Y-60101000D01*
X92581000Y-60194750D01*
X92331000Y-60194750D01*
X92327000Y-60190750D01*
X92327000Y-59995776D01*
X94449388Y-57873388D01*
X94476813Y-57832037D01*
X94486000Y-57785000D01*
X94486000Y-57720231D01*
X100402450Y-57720231D01*
X100529586Y-58027194D01*
X100849552Y-58389386D01*
X101283767Y-58601562D01*
X101475000Y-58542538D01*
X101475000Y-57529000D01*
X100461994Y-57529000D01*
X100402450Y-57720231D01*
X94486000Y-57720231D01*
X94486000Y-57087769D01*
X100402450Y-57087769D01*
X100461994Y-57279000D01*
X101475000Y-57279000D01*
X101475000Y-56265462D01*
X101283767Y-56206438D01*
X100849552Y-56418614D01*
X100529586Y-56780806D01*
X100402450Y-57087769D01*
X94486000Y-57087769D01*
X94486000Y-54983000D01*
X94654000Y-54983000D01*
X94654000Y-55414250D01*
X94747750Y-55508000D01*
X94828592Y-55508000D01*
X94966421Y-55450910D01*
X95071910Y-55345420D01*
X95129000Y-55207592D01*
X95129000Y-55180231D01*
X100402450Y-55180231D01*
X100529586Y-55487194D01*
X100849552Y-55849386D01*
X101283767Y-56061562D01*
X101475000Y-56002538D01*
X101475000Y-54989000D01*
X100461994Y-54989000D01*
X100402450Y-55180231D01*
X95129000Y-55180231D01*
X95129000Y-55076750D01*
X95035250Y-54983000D01*
X94654000Y-54983000D01*
X94486000Y-54983000D01*
X94486000Y-54735000D01*
X94998741Y-54735000D01*
X95008618Y-54733000D01*
X95035250Y-54733000D01*
X95042012Y-54726238D01*
X95047373Y-54725152D01*
X95087608Y-54697908D01*
X95236126Y-54547769D01*
X100402450Y-54547769D01*
X100461994Y-54739000D01*
X101475000Y-54739000D01*
X101475000Y-53725462D01*
X101283767Y-53666438D01*
X100849552Y-53878614D01*
X100529586Y-54240806D01*
X100402450Y-54547769D01*
X95236126Y-54547769D01*
X95338867Y-54443908D01*
X95366066Y-54402408D01*
X95366119Y-54402131D01*
X95379000Y-54389250D01*
X95379000Y-54008000D01*
X95629000Y-54008000D01*
X95629000Y-54389250D01*
X95722750Y-54483000D01*
X95853592Y-54483000D01*
X95991420Y-54425910D01*
X96096910Y-54320421D01*
X96154000Y-54182592D01*
X96154000Y-54101750D01*
X96060250Y-54008000D01*
X95629000Y-54008000D01*
X95379000Y-54008000D01*
X95375000Y-54008000D01*
X95375000Y-53846000D01*
X96012000Y-53846000D01*
X96060632Y-53836152D01*
X96100388Y-53809388D01*
X96227388Y-53682388D01*
X96254813Y-53641037D01*
X96264000Y-53594000D01*
X96264000Y-52975519D01*
X96254152Y-52926887D01*
X96232611Y-52892682D01*
X96154000Y-52803846D01*
X96154000Y-52801750D01*
X96137886Y-52785636D01*
X96105611Y-52749163D01*
X96088489Y-52736239D01*
X96060250Y-52708000D01*
X96016402Y-52708000D01*
X96012000Y-52707000D01*
X95375000Y-52707000D01*
X95375000Y-52640231D01*
X100402450Y-52640231D01*
X100529586Y-52947194D01*
X100849552Y-53309386D01*
X101283767Y-53521562D01*
X101475000Y-53462538D01*
X101475000Y-52449000D01*
X100461994Y-52449000D01*
X100402450Y-52640231D01*
X95375000Y-52640231D01*
X95375000Y-52576000D01*
X96012000Y-52576000D01*
X96060632Y-52566152D01*
X96100388Y-52539388D01*
X96632007Y-52007769D01*
X100402450Y-52007769D01*
X100461994Y-52199000D01*
X101475000Y-52199000D01*
X101475000Y-51185462D01*
X101283767Y-51126438D01*
X100849552Y-51338614D01*
X100529586Y-51700806D01*
X100402450Y-52007769D01*
X96632007Y-52007769D01*
X96735388Y-51904388D01*
X96762813Y-51863037D01*
X96772000Y-51816000D01*
X96772000Y-51232776D01*
X97904545Y-50100231D01*
X100402450Y-50100231D01*
X100529586Y-50407194D01*
X100849552Y-50769386D01*
X101283767Y-50981562D01*
X101475000Y-50922538D01*
X101475000Y-49909000D01*
X100461994Y-49909000D01*
X100402450Y-50100231D01*
X97904545Y-50100231D01*
X98537007Y-49467769D01*
X100402450Y-49467769D01*
X100461994Y-49659000D01*
X101475000Y-49659000D01*
X101475000Y-48645462D01*
X101283767Y-48586438D01*
X100849552Y-48798614D01*
X100529586Y-49160806D01*
X100402450Y-49467769D01*
X98537007Y-49467769D01*
X101729000Y-46275776D01*
X101729000Y-48644227D01*
G36*
X93580000Y-38100000D02*
X93601000Y-38205575D01*
X93601000Y-38354000D01*
X93610848Y-38402632D01*
X93638841Y-38443601D01*
X93680568Y-38470451D01*
X93726000Y-38479000D01*
X93874425Y-38479000D01*
X93980000Y-38500000D01*
X106280000Y-38500000D01*
X106280000Y-64370000D01*
X93980000Y-64370000D01*
X93874425Y-64391000D01*
X93601000Y-64391000D01*
X93601000Y-64664425D01*
X93580000Y-64770000D01*
X93580000Y-70720000D01*
X88030000Y-70720000D01*
X88030000Y-68411779D01*
X88447592Y-68411779D01*
X88805668Y-69278389D01*
X89468124Y-69942002D01*
X90334107Y-70301590D01*
X91271779Y-70302408D01*
X92138389Y-69944332D01*
X92802002Y-69281876D01*
X93161590Y-68415893D01*
X93162408Y-67478221D01*
X92804332Y-66611611D01*
X92141876Y-65947998D01*
X91275893Y-65588410D01*
X90338221Y-65587592D01*
X89471611Y-65945668D01*
X88807998Y-66608124D01*
X88448410Y-67474107D01*
X88447592Y-68411779D01*
X88030000Y-68411779D01*
X88030000Y-64770000D01*
X88009000Y-64664425D01*
X88009000Y-64516000D01*
X87999152Y-64467368D01*
X87971159Y-64426399D01*
X87929432Y-64399549D01*
X87884000Y-64391000D01*
X91313000Y-64391000D01*
X91313000Y-64516000D01*
X91438000Y-64516000D01*
X91438000Y-64391000D01*
X91313000Y-64391000D01*
X87884000Y-64391000D01*
X87735575Y-64391000D01*
X87630000Y-64370000D01*
X75330000Y-64370000D01*
X75330000Y-64262000D01*
X93601000Y-64262000D01*
X93601000Y-64387000D01*
X93726000Y-64387000D01*
X93726000Y-64262000D01*
X93601000Y-64262000D01*
X75330000Y-64262000D01*
X75330000Y-63210750D01*
X85693000Y-63210750D01*
X85693000Y-63566592D01*
X85750090Y-63704420D01*
X85855579Y-63809910D01*
X85993408Y-63867000D01*
X86649250Y-63867000D01*
X86743000Y-63773250D01*
X86743000Y-63117000D01*
X86993000Y-63117000D01*
X86993000Y-63773250D01*
X87086750Y-63867000D01*
X87742592Y-63867000D01*
X87880421Y-63809910D01*
X87985910Y-63704420D01*
X88043000Y-63566592D01*
X88043000Y-63210750D01*
X88027000Y-63194750D01*
X91456000Y-63194750D01*
X91456000Y-63550592D01*
X91513090Y-63688420D01*
X91618579Y-63793910D01*
X91756408Y-63851000D01*
X92237250Y-63851000D01*
X92331000Y-63757250D01*
X92331000Y-63101000D01*
X92581000Y-63101000D01*
X92581000Y-63757250D01*
X92674750Y-63851000D01*
X93155592Y-63851000D01*
X93293421Y-63793910D01*
X93398910Y-63688420D01*
X93456000Y-63550592D01*
X93456000Y-63194750D01*
X93742000Y-63194750D01*
X93742000Y-63550592D01*
X93799090Y-63688420D01*
X93904579Y-63793910D01*
X94042408Y-63851000D01*
X94523250Y-63851000D01*
X94617000Y-63757250D01*
X94617000Y-63101000D01*
X94867000Y-63101000D01*
X94867000Y-63757250D01*
X94960750Y-63851000D01*
X95441592Y-63851000D01*
X95579421Y-63793910D01*
X95684910Y-63688420D01*
X95742000Y-63550592D01*
X95742000Y-63194750D01*
X96028000Y-63194750D01*
X96028000Y-63550592D01*
X96085090Y-63688420D01*
X96190579Y-63793910D01*
X96328408Y-63851000D01*
X96809250Y-63851000D01*
X96903000Y-63757250D01*
X96903000Y-63101000D01*
X97153000Y-63101000D01*
X97153000Y-63757250D01*
X97246750Y-63851000D01*
X97727592Y-63851000D01*
X97865421Y-63793910D01*
X97970910Y-63688420D01*
X98028000Y-63550592D01*
X98028000Y-63194750D01*
X98314000Y-63194750D01*
X98314000Y-63550592D01*
X98371090Y-63688420D01*
X98476579Y-63793910D01*
X98614408Y-63851000D01*
X99095250Y-63851000D01*
X99189000Y-63757250D01*
X99189000Y-63101000D01*
X99439000Y-63101000D01*
X99439000Y-63757250D01*
X99532750Y-63851000D01*
X100013592Y-63851000D01*
X100151421Y-63793910D01*
X100256910Y-63688420D01*
X100314000Y-63550592D01*
X100314000Y-63194750D01*
X100600000Y-63194750D01*
X100600000Y-63550592D01*
X100657090Y-63688420D01*
X100762579Y-63793910D01*
X100900408Y-63851000D01*
X101381250Y-63851000D01*
X101475000Y-63757250D01*
X101475000Y-63101000D01*
X101725000Y-63101000D01*
X101725000Y-63757250D01*
X101818750Y-63851000D01*
X102299592Y-63851000D01*
X102437421Y-63793910D01*
X102542910Y-63688420D01*
X102600000Y-63550592D01*
X102600000Y-63194750D01*
X102506250Y-63101000D01*
X101725000Y-63101000D01*
X101475000Y-63101000D01*
X100693750Y-63101000D01*
X100600000Y-63194750D01*
X100314000Y-63194750D01*
X100220250Y-63101000D01*
X99439000Y-63101000D01*
X99189000Y-63101000D01*
X98407750Y-63101000D01*
X98314000Y-63194750D01*
X98028000Y-63194750D01*
X97934250Y-63101000D01*
X97153000Y-63101000D01*
X96903000Y-63101000D01*
X96121750Y-63101000D01*
X96028000Y-63194750D01*
X95742000Y-63194750D01*
X95648250Y-63101000D01*
X94867000Y-63101000D01*
X94617000Y-63101000D01*
X93835750Y-63101000D01*
X93742000Y-63194750D01*
X93456000Y-63194750D01*
X93362250Y-63101000D01*
X92581000Y-63101000D01*
X92331000Y-63101000D01*
X91549750Y-63101000D01*
X91456000Y-63194750D01*
X88027000Y-63194750D01*
X87949250Y-63117000D01*
X86993000Y-63117000D01*
X86743000Y-63117000D01*
X85786750Y-63117000D01*
X85693000Y-63210750D01*
X75330000Y-63210750D01*
X75330000Y-62417408D01*
X85693000Y-62417408D01*
X85693000Y-62773250D01*
X85786750Y-62867000D01*
X86743000Y-62867000D01*
X86743000Y-62210750D01*
X86993000Y-62210750D01*
X86993000Y-62867000D01*
X87949250Y-62867000D01*
X88043000Y-62773250D01*
X88043000Y-62417408D01*
X88036373Y-62401408D01*
X91456000Y-62401408D01*
X91456000Y-62757250D01*
X91549750Y-62851000D01*
X92331000Y-62851000D01*
X92331000Y-62194750D01*
X92581000Y-62194750D01*
X92581000Y-62851000D01*
X93362250Y-62851000D01*
X93456000Y-62757250D01*
X93456000Y-62401408D01*
X93742000Y-62401408D01*
X93742000Y-62757250D01*
X93835750Y-62851000D01*
X94617000Y-62851000D01*
X94617000Y-62194750D01*
X94867000Y-62194750D01*
X94867000Y-62851000D01*
X95648250Y-62851000D01*
X95742000Y-62757250D01*
X95742000Y-62401408D01*
X96028000Y-62401408D01*
X96028000Y-62757250D01*
X96121750Y-62851000D01*
X96903000Y-62851000D01*
X96903000Y-62194750D01*
X97153000Y-62194750D01*
X97153000Y-62851000D01*
X97934250Y-62851000D01*
X98028000Y-62757250D01*
X98028000Y-62401408D01*
X98314000Y-62401408D01*
X98314000Y-62757250D01*
X98407750Y-62851000D01*
X99189000Y-62851000D01*
X99189000Y-62194750D01*
X99439000Y-62194750D01*
X99439000Y-62851000D01*
X100220250Y-62851000D01*
X100314000Y-62757250D01*
X100314000Y-62401408D01*
X100600000Y-62401408D01*
X100600000Y-62757250D01*
X100693750Y-62851000D01*
X101475000Y-62851000D01*
X101475000Y-62194750D01*
X101725000Y-62194750D01*
X101725000Y-62851000D01*
X102506250Y-62851000D01*
X102600000Y-62757250D01*
X102600000Y-62401408D01*
X102542910Y-62263580D01*
X102437421Y-62158090D01*
X102299592Y-62101000D01*
X101818750Y-62101000D01*
X101725000Y-62194750D01*
X101475000Y-62194750D01*
X101381250Y-62101000D01*
X100900408Y-62101000D01*
X100762579Y-62158090D01*
X100657090Y-62263580D01*
X100600000Y-62401408D01*
X100314000Y-62401408D01*
X100256910Y-62263580D01*
X100151421Y-62158090D01*
X100013592Y-62101000D01*
X99532750Y-62101000D01*
X99439000Y-62194750D01*
X99189000Y-62194750D01*
X99095250Y-62101000D01*
X98614408Y-62101000D01*
X98476579Y-62158090D01*
X98371090Y-62263580D01*
X98314000Y-62401408D01*
X98028000Y-62401408D01*
X97970910Y-62263580D01*
X97865421Y-62158090D01*
X97727592Y-62101000D01*
X97246750Y-62101000D01*
X97153000Y-62194750D01*
X96903000Y-62194750D01*
X96809250Y-62101000D01*
X96328408Y-62101000D01*
X96190579Y-62158090D01*
X96085090Y-62263580D01*
X96028000Y-62401408D01*
X95742000Y-62401408D01*
X95684910Y-62263580D01*
X95579421Y-62158090D01*
X95441592Y-62101000D01*
X94960750Y-62101000D01*
X94867000Y-62194750D01*
X94617000Y-62194750D01*
X94523250Y-62101000D01*
X94042408Y-62101000D01*
X93904579Y-62158090D01*
X93799090Y-62263580D01*
X93742000Y-62401408D01*
X93456000Y-62401408D01*
X93398910Y-62263580D01*
X93293421Y-62158090D01*
X93155592Y-62101000D01*
X92674750Y-62101000D01*
X92581000Y-62194750D01*
X92331000Y-62194750D01*
X92237250Y-62101000D01*
X91756408Y-62101000D01*
X91618579Y-62158090D01*
X91513090Y-62263580D01*
X91456000Y-62401408D01*
X88036373Y-62401408D01*
X87985910Y-62279580D01*
X87880421Y-62174090D01*
X87742592Y-62117000D01*
X87086750Y-62117000D01*
X86993000Y-62210750D01*
X86743000Y-62210750D01*
X86649250Y-62117000D01*
X85993408Y-62117000D01*
X85855579Y-62174090D01*
X85750090Y-62279580D01*
X85693000Y-62417408D01*
X75330000Y-62417408D01*
X75330000Y-59908750D01*
X75766000Y-59908750D01*
X75766000Y-60979592D01*
X75823090Y-61117421D01*
X75928580Y-61222910D01*
X76066408Y-61280000D01*
X77107250Y-61280000D01*
X77201000Y-61186250D01*
X77201000Y-59815000D01*
X77451000Y-59815000D01*
X77451000Y-61186250D01*
X77544750Y-61280000D01*
X78585592Y-61280000D01*
X78723420Y-61222910D01*
X78828910Y-61117421D01*
X78886000Y-60979592D01*
X78886000Y-59908750D01*
X78792250Y-59815000D01*
X77451000Y-59815000D01*
X77201000Y-59815000D01*
X75859750Y-59815000D01*
X75766000Y-59908750D01*
X75330000Y-59908750D01*
X75330000Y-58400408D01*
X75766000Y-58400408D01*
X75766000Y-59471250D01*
X75859750Y-59565000D01*
X77201000Y-59565000D01*
X77201000Y-58193750D01*
X77451000Y-58193750D01*
X77451000Y-59565000D01*
X78792250Y-59565000D01*
X78886000Y-59471250D01*
X78886000Y-58400408D01*
X78828910Y-58262579D01*
X78723420Y-58157090D01*
X78585592Y-58100000D01*
X77544750Y-58100000D01*
X77451000Y-58193750D01*
X77201000Y-58193750D01*
X77107250Y-58100000D01*
X76066408Y-58100000D01*
X75928580Y-58157090D01*
X75823090Y-58262579D01*
X75766000Y-58400408D01*
X75330000Y-58400408D01*
X75330000Y-55082750D01*
X76231400Y-55082750D01*
X76231400Y-55802192D01*
X76288490Y-55940021D01*
X76393980Y-56045510D01*
X76531808Y-56102600D01*
X77251250Y-56102600D01*
X77345000Y-56008850D01*
X77345000Y-54989000D01*
X77595000Y-54989000D01*
X77595000Y-56008850D01*
X77688750Y-56102600D01*
X78408192Y-56102600D01*
X78546020Y-56045510D01*
X78651510Y-55940021D01*
X78708600Y-55802192D01*
X78708600Y-55082750D01*
X78614850Y-54989000D01*
X77595000Y-54989000D01*
X77345000Y-54989000D01*
X76325150Y-54989000D01*
X76231400Y-55082750D01*
X75330000Y-55082750D01*
X75330000Y-53925808D01*
X76231400Y-53925808D01*
X76231400Y-54645250D01*
X76325150Y-54739000D01*
X77345000Y-54739000D01*
X77345000Y-53719150D01*
X77595000Y-53719150D01*
X77595000Y-54739000D01*
X78614850Y-54739000D01*
X78708600Y-54645250D01*
X78708600Y-53925808D01*
X78651510Y-53787979D01*
X78546020Y-53682490D01*
X78408192Y-53625400D01*
X77688750Y-53625400D01*
X77595000Y-53719150D01*
X77345000Y-53719150D01*
X77251250Y-53625400D01*
X76531808Y-53625400D01*
X76393980Y-53682490D01*
X76288490Y-53787979D01*
X76231400Y-53925808D01*
X75330000Y-53925808D01*
X75330000Y-52640231D01*
X76272450Y-52640231D01*
X76399586Y-52947194D01*
X76719552Y-53309386D01*
X77153767Y-53521562D01*
X77345000Y-53462538D01*
X77345000Y-52449000D01*
X77595000Y-52449000D01*
X77595000Y-53462538D01*
X77786233Y-53521562D01*
X78220448Y-53309386D01*
X78540414Y-52947194D01*
X78667550Y-52640231D01*
X78608006Y-52449000D01*
X77595000Y-52449000D01*
X77345000Y-52449000D01*
X76331994Y-52449000D01*
X76272450Y-52640231D01*
X75330000Y-52640231D01*
X75330000Y-52007769D01*
X76272450Y-52007769D01*
X76331994Y-52199000D01*
X77345000Y-52199000D01*
X77345000Y-51185462D01*
X77595000Y-51185462D01*
X77595000Y-52199000D01*
X78608006Y-52199000D01*
X78667550Y-52007769D01*
X78540414Y-51700806D01*
X78220448Y-51338614D01*
X77786233Y-51126438D01*
X77595000Y-51185462D01*
X77345000Y-51185462D01*
X77153767Y-51126438D01*
X76719552Y-51338614D01*
X76399586Y-51700806D01*
X76272450Y-52007769D01*
X75330000Y-52007769D01*
X75330000Y-43180000D01*
X76102728Y-43180000D01*
X76193205Y-43634858D01*
X76450861Y-44020467D01*
X76836470Y-44278123D01*
X76837000Y-44278228D01*
X76837000Y-44621772D01*
X76836470Y-44621877D01*
X76450861Y-44879533D01*
X76193205Y-45265142D01*
X76102728Y-45720000D01*
X76193205Y-46174858D01*
X76450861Y-46560467D01*
X76836470Y-46818123D01*
X76837000Y-46818228D01*
X76837000Y-47117000D01*
X76846848Y-47165632D01*
X76873612Y-47205388D01*
X79377000Y-49708776D01*
X79377000Y-51329349D01*
X79146247Y-51483533D01*
X78888591Y-51869142D01*
X78798114Y-52324000D01*
X78888591Y-52778858D01*
X79146247Y-53164467D01*
X79377000Y-53318651D01*
X79377000Y-53869349D01*
X79146247Y-54023533D01*
X78888591Y-54409142D01*
X78798114Y-54864000D01*
X78888591Y-55318858D01*
X79146247Y-55704467D01*
X79377000Y-55858651D01*
X79377000Y-56261000D01*
X79386848Y-56309632D01*
X79413612Y-56349388D01*
X81409000Y-58344776D01*
X81409000Y-61341000D01*
X81418848Y-61389632D01*
X81445612Y-61429388D01*
X81826612Y-61810388D01*
X81867963Y-61837813D01*
X81915000Y-61847000D01*
X85217000Y-61847000D01*
X85265632Y-61837152D01*
X85305388Y-61810388D01*
X85522776Y-61593000D01*
X88011000Y-61593000D01*
X88059632Y-61583152D01*
X88099388Y-61556388D01*
X88353388Y-61302388D01*
X91224612Y-61302388D01*
X91438000Y-61515776D01*
X91438000Y-61214000D01*
X91313000Y-61214000D01*
X91224612Y-61302388D01*
X88353388Y-61302388D01*
X88734388Y-60921388D01*
X88761813Y-60880037D01*
X88771000Y-60833000D01*
X88771000Y-59741776D01*
X92544388Y-55968388D01*
X92571813Y-55927037D01*
X92581000Y-55880000D01*
X92581000Y-55076750D01*
X92679000Y-55076750D01*
X92679000Y-55207592D01*
X92704000Y-55267948D01*
X92704000Y-55414250D01*
X92797750Y-55508000D01*
X92878592Y-55508000D01*
X92929000Y-55487121D01*
X92979408Y-55508000D01*
X93060250Y-55508000D01*
X93154000Y-55414250D01*
X93154000Y-55267948D01*
X93179000Y-55207592D01*
X93179000Y-55076750D01*
X93329000Y-55076750D01*
X93329000Y-55207592D01*
X93354000Y-55267948D01*
X93354000Y-55414250D01*
X93447750Y-55508000D01*
X93528592Y-55508000D01*
X93579000Y-55487121D01*
X93629408Y-55508000D01*
X93710250Y-55508000D01*
X93804000Y-55414250D01*
X93804000Y-55267948D01*
X93829000Y-55207592D01*
X93829000Y-55076750D01*
X93804000Y-55051750D01*
X93804000Y-54983000D01*
X93354000Y-54983000D01*
X93354000Y-55051750D01*
X93329000Y-55076750D01*
X93179000Y-55076750D01*
X93154000Y-55051750D01*
X93154000Y-54983000D01*
X92704000Y-54983000D01*
X92704000Y-55051750D01*
X92679000Y-55076750D01*
X92581000Y-55076750D01*
X92581000Y-54735000D01*
X93982000Y-54735000D01*
X93982000Y-57606224D01*
X91478612Y-60109612D01*
X91451187Y-60150963D01*
X91442000Y-60198000D01*
X91442000Y-61519776D01*
X91528852Y-61606628D01*
X91593474Y-61707053D01*
X91702080Y-61781260D01*
X91703841Y-61781617D01*
X91732612Y-61810388D01*
X91773963Y-61837813D01*
X91821000Y-61847000D01*
X102235000Y-61847000D01*
X102283632Y-61837152D01*
X102323388Y-61810388D01*
X102355628Y-61778148D01*
X102456053Y-61713526D01*
X102530260Y-61604920D01*
X102530617Y-61603159D01*
X102577388Y-61556388D01*
X102604813Y-61515037D01*
X102614000Y-61468000D01*
X102614000Y-60452000D01*
X102604152Y-60403368D01*
X102577388Y-60363612D01*
X102469390Y-60255614D01*
X102462526Y-60244947D01*
X102450519Y-60236743D01*
X102233000Y-60019224D01*
X102233000Y-58398651D01*
X102463753Y-58244467D01*
X102721409Y-57858858D01*
X102748983Y-57720231D01*
X102942450Y-57720231D01*
X103069586Y-58027194D01*
X103389552Y-58389386D01*
X103823767Y-58601562D01*
X104015000Y-58542538D01*
X104015000Y-57529000D01*
X104265000Y-57529000D01*
X104265000Y-58542538D01*
X104456233Y-58601562D01*
X104890448Y-58389386D01*
X105210414Y-58027194D01*
X105337550Y-57720231D01*
X105278006Y-57529000D01*
X104265000Y-57529000D01*
X104015000Y-57529000D01*
X103001994Y-57529000D01*
X102942450Y-57720231D01*
X102748983Y-57720231D01*
X102811886Y-57404000D01*
X102748984Y-57087769D01*
X102942450Y-57087769D01*
X103001994Y-57279000D01*
X104015000Y-57279000D01*
X104015000Y-56265462D01*
X104265000Y-56265462D01*
X104265000Y-57279000D01*
X105278006Y-57279000D01*
X105337550Y-57087769D01*
X105210414Y-56780806D01*
X104890448Y-56418614D01*
X104456233Y-56206438D01*
X104265000Y-56265462D01*
X104015000Y-56265462D01*
X103823767Y-56206438D01*
X103389552Y-56418614D01*
X103069586Y-56780806D01*
X102942450Y-57087769D01*
X102748984Y-57087769D01*
X102721409Y-56949142D01*
X102463753Y-56563533D01*
X102233000Y-56409349D01*
X102233000Y-55858651D01*
X102463753Y-55704467D01*
X102721409Y-55318858D01*
X102748983Y-55180231D01*
X102942450Y-55180231D01*
X103069586Y-55487194D01*
X103389552Y-55849386D01*
X103823767Y-56061562D01*
X104015000Y-56002538D01*
X104015000Y-54989000D01*
X104265000Y-54989000D01*
X104265000Y-56002538D01*
X104456233Y-56061562D01*
X104890448Y-55849386D01*
X105210414Y-55487194D01*
X105337550Y-55180231D01*
X105278006Y-54989000D01*
X104265000Y-54989000D01*
X104015000Y-54989000D01*
X103001994Y-54989000D01*
X102942450Y-55180231D01*
X102748983Y-55180231D01*
X102811886Y-54864000D01*
X102748984Y-54547769D01*
X102942450Y-54547769D01*
X103001994Y-54739000D01*
X104015000Y-54739000D01*
X104015000Y-53725462D01*
X104265000Y-53725462D01*
X104265000Y-54739000D01*
X105278006Y-54739000D01*
X105337550Y-54547769D01*
X105210414Y-54240806D01*
X104890448Y-53878614D01*
X104456233Y-53666438D01*
X104265000Y-53725462D01*
X104015000Y-53725462D01*
X103823767Y-53666438D01*
X103389552Y-53878614D01*
X103069586Y-54240806D01*
X102942450Y-54547769D01*
X102748984Y-54547769D01*
X102721409Y-54409142D01*
X102463753Y-54023533D01*
X102233000Y-53869349D01*
X102233000Y-53318651D01*
X102463753Y-53164467D01*
X102721409Y-52778858D01*
X102748983Y-52640231D01*
X102942450Y-52640231D01*
X103069586Y-52947194D01*
X103389552Y-53309386D01*
X103823767Y-53521562D01*
X104015000Y-53462538D01*
X104015000Y-52449000D01*
X104265000Y-52449000D01*
X104265000Y-53462538D01*
X104456233Y-53521562D01*
X104890448Y-53309386D01*
X105210414Y-52947194D01*
X105337550Y-52640231D01*
X105278006Y-52449000D01*
X104265000Y-52449000D01*
X104015000Y-52449000D01*
X103001994Y-52449000D01*
X102942450Y-52640231D01*
X102748983Y-52640231D01*
X102811886Y-52324000D01*
X102748984Y-52007769D01*
X102942450Y-52007769D01*
X103001994Y-52199000D01*
X104015000Y-52199000D01*
X104015000Y-51185462D01*
X104265000Y-51185462D01*
X104265000Y-52199000D01*
X105278006Y-52199000D01*
X105337550Y-52007769D01*
X105210414Y-51700806D01*
X104890448Y-51338614D01*
X104456233Y-51126438D01*
X104265000Y-51185462D01*
X104015000Y-51185462D01*
X103823767Y-51126438D01*
X103389552Y-51338614D01*
X103069586Y-51700806D01*
X102942450Y-52007769D01*
X102748984Y-52007769D01*
X102721409Y-51869142D01*
X102463753Y-51483533D01*
X102233000Y-51329349D01*
X102233000Y-50778651D01*
X102463753Y-50624467D01*
X102721409Y-50238858D01*
X102768373Y-50002750D01*
X102901400Y-50002750D01*
X102901400Y-50722192D01*
X102958490Y-50860021D01*
X103063980Y-50965510D01*
X103201808Y-51022600D01*
X103921250Y-51022600D01*
X104015000Y-50928850D01*
X104015000Y-49909000D01*
X104265000Y-49909000D01*
X104265000Y-50928850D01*
X104358750Y-51022600D01*
X105078192Y-51022600D01*
X105216020Y-50965510D01*
X105321510Y-50860021D01*
X105378600Y-50722192D01*
X105378600Y-50002750D01*
X105284850Y-49909000D01*
X104265000Y-49909000D01*
X104015000Y-49909000D01*
X102995150Y-49909000D01*
X102901400Y-50002750D01*
X102768373Y-50002750D01*
X102811886Y-49784000D01*
X102721409Y-49329142D01*
X102463753Y-48943533D01*
X102317497Y-48845808D01*
X102901400Y-48845808D01*
X102901400Y-49565250D01*
X102995150Y-49659000D01*
X104015000Y-49659000D01*
X104015000Y-48639150D01*
X104265000Y-48639150D01*
X104265000Y-49659000D01*
X105284850Y-49659000D01*
X105378600Y-49565250D01*
X105378600Y-48845808D01*
X105321510Y-48707979D01*
X105216020Y-48602490D01*
X105078192Y-48545400D01*
X104358750Y-48545400D01*
X104265000Y-48639150D01*
X104015000Y-48639150D01*
X103921250Y-48545400D01*
X103201808Y-48545400D01*
X103063980Y-48602490D01*
X102958490Y-48707979D01*
X102901400Y-48845808D01*
X102317497Y-48845808D01*
X102233000Y-48789349D01*
X102233000Y-45688041D01*
X103645872Y-44275169D01*
X103685142Y-44301409D01*
X104140000Y-44391886D01*
X104594858Y-44301409D01*
X104980467Y-44043753D01*
X105238123Y-43658144D01*
X105328600Y-43203286D01*
X105328600Y-43156714D01*
X105238123Y-42701856D01*
X104980467Y-42316247D01*
X104594858Y-42058591D01*
X104140000Y-41968114D01*
X103685142Y-42058591D01*
X103299533Y-42316247D01*
X103041877Y-42701856D01*
X102951400Y-43156714D01*
X102951400Y-43203286D01*
X103041877Y-43658144D01*
X103049463Y-43669497D01*
X95965480Y-50753480D01*
X95929000Y-50808075D01*
X95929000Y-49452040D01*
X101105871Y-44275169D01*
X101145142Y-44301409D01*
X101600000Y-44391886D01*
X102054858Y-44301409D01*
X102440467Y-44043753D01*
X102698123Y-43658144D01*
X102788600Y-43203286D01*
X102788600Y-43156714D01*
X102698123Y-42701856D01*
X102440467Y-42316247D01*
X102054858Y-42058591D01*
X101600000Y-41968114D01*
X101145142Y-42058591D01*
X100759533Y-42316247D01*
X100501877Y-42701856D01*
X100411400Y-43156714D01*
X100411400Y-43203286D01*
X100501877Y-43658144D01*
X100509463Y-43669497D01*
X95203480Y-48975480D01*
X95111351Y-49113359D01*
X95111351Y-49113360D01*
X95079000Y-49276000D01*
X95079000Y-50049162D01*
X95062705Y-49962562D01*
X94991526Y-49851947D01*
X94979000Y-49843388D01*
X94979000Y-47862040D01*
X98565872Y-44275169D01*
X98605142Y-44301409D01*
X99060000Y-44391886D01*
X99514858Y-44301409D01*
X99900467Y-44043753D01*
X100158123Y-43658144D01*
X100248600Y-43203286D01*
X100248600Y-43156714D01*
X100158123Y-42701856D01*
X99900467Y-42316247D01*
X99514858Y-42058591D01*
X99060000Y-41968114D01*
X98605142Y-42058591D01*
X98219533Y-42316247D01*
X97961877Y-42701856D01*
X97871400Y-43156714D01*
X97871400Y-43203286D01*
X97961877Y-43658144D01*
X97969463Y-43669497D01*
X94253480Y-47385480D01*
X94161351Y-47523359D01*
X94161351Y-47523360D01*
X94129000Y-47686000D01*
X94129000Y-49708000D01*
X94097750Y-49708000D01*
X94004000Y-49801750D01*
X94004000Y-50233000D01*
X94022633Y-50233000D01*
X94022633Y-50483000D01*
X94004000Y-50483000D01*
X94004000Y-50503000D01*
X93804000Y-50503000D01*
X93804000Y-50483000D01*
X93785367Y-50483000D01*
X93785367Y-50233000D01*
X93804000Y-50233000D01*
X93804000Y-49801750D01*
X93710250Y-49708000D01*
X93679000Y-49708000D01*
X93679000Y-46622040D01*
X96025871Y-44275169D01*
X96065142Y-44301409D01*
X96520000Y-44391886D01*
X96974858Y-44301409D01*
X97360467Y-44043753D01*
X97618123Y-43658144D01*
X97708600Y-43203286D01*
X97708600Y-43156714D01*
X97618123Y-42701856D01*
X97360467Y-42316247D01*
X96974858Y-42058591D01*
X96520000Y-41968114D01*
X96065142Y-42058591D01*
X95679533Y-42316247D01*
X95421877Y-42701856D01*
X95331400Y-43156714D01*
X95331400Y-43203286D01*
X95421877Y-43658144D01*
X95429463Y-43669497D01*
X93029000Y-46069960D01*
X93029000Y-44732040D01*
X93485871Y-44275169D01*
X93525142Y-44301409D01*
X93980000Y-44391886D01*
X94434858Y-44301409D01*
X94820467Y-44043753D01*
X95078123Y-43658144D01*
X95168600Y-43203286D01*
X95168600Y-43156714D01*
X95078123Y-42701856D01*
X94820467Y-42316247D01*
X94434858Y-42058591D01*
X93980000Y-41968114D01*
X93525142Y-42058591D01*
X93139533Y-42316247D01*
X92881877Y-42701856D01*
X92791400Y-43156714D01*
X92791400Y-43203286D01*
X92881877Y-43658144D01*
X92889463Y-43669497D01*
X92379000Y-44179960D01*
X92379000Y-43896288D01*
X92538123Y-43658144D01*
X92628600Y-43203286D01*
X92628600Y-43156714D01*
X92538123Y-42701856D01*
X92280467Y-42316247D01*
X91894858Y-42058591D01*
X91440000Y-41968114D01*
X90985142Y-42058591D01*
X90599533Y-42316247D01*
X90341877Y-42701856D01*
X90251400Y-43156714D01*
X90251400Y-43203286D01*
X90341877Y-43658144D01*
X90599533Y-44043753D01*
X90985142Y-44301409D01*
X91440000Y-44391886D01*
X91529000Y-44374183D01*
X91529000Y-49841579D01*
X91522947Y-49845474D01*
X91448740Y-49954080D01*
X91429000Y-50051559D01*
X91429000Y-45284000D01*
X91396649Y-45121360D01*
X91366078Y-45075608D01*
X91304520Y-44983479D01*
X89990537Y-43669497D01*
X89998123Y-43658144D01*
X90088600Y-43203286D01*
X90088600Y-43156714D01*
X89998123Y-42701856D01*
X89740467Y-42316247D01*
X89354858Y-42058591D01*
X88900000Y-41968114D01*
X88445142Y-42058591D01*
X88059533Y-42316247D01*
X87801877Y-42701856D01*
X87711400Y-43156714D01*
X87711400Y-43203286D01*
X87801877Y-43658144D01*
X88059533Y-44043753D01*
X88445142Y-44301409D01*
X88900000Y-44391886D01*
X89354858Y-44301409D01*
X89394129Y-44275169D01*
X90579000Y-45460041D01*
X90579000Y-46909562D01*
X90562649Y-46827360D01*
X90562649Y-46827359D01*
X90470521Y-46689480D01*
X87450537Y-43669497D01*
X87458123Y-43658144D01*
X87548600Y-43203286D01*
X87548600Y-43156714D01*
X87458123Y-42701856D01*
X87200467Y-42316247D01*
X86814858Y-42058591D01*
X86360000Y-41968114D01*
X85905142Y-42058591D01*
X85519533Y-42316247D01*
X85261877Y-42701856D01*
X85171400Y-43156714D01*
X85171400Y-43203286D01*
X85261877Y-43658144D01*
X85519533Y-44043753D01*
X85905142Y-44301409D01*
X86360000Y-44391886D01*
X86814858Y-44301409D01*
X86854129Y-44275169D01*
X89745000Y-47166041D01*
X89745000Y-51599000D01*
X89771654Y-51732999D01*
X89777351Y-51761641D01*
X89869480Y-51899520D01*
X90152959Y-52183000D01*
X87665776Y-52183000D01*
X86194388Y-50711612D01*
X86153037Y-50684187D01*
X86106000Y-50675000D01*
X85199000Y-50675000D01*
X85199000Y-50445000D01*
X85219000Y-50445000D01*
X85219000Y-49888750D01*
X85469000Y-49888750D01*
X85469000Y-50445000D01*
X86000250Y-50445000D01*
X86094000Y-50351250D01*
X86094000Y-50095408D01*
X86036910Y-49957580D01*
X85931421Y-49852090D01*
X85793592Y-49795000D01*
X85562750Y-49795000D01*
X85469000Y-49888750D01*
X85219000Y-49888750D01*
X85125250Y-49795000D01*
X84961000Y-49795000D01*
X84961000Y-49784000D01*
X84951152Y-49735368D01*
X84924388Y-49695612D01*
X78766180Y-43537404D01*
X78837272Y-43180000D01*
X78746795Y-42725142D01*
X78489139Y-42339533D01*
X78103530Y-42081877D01*
X77648672Y-41991400D01*
X77291328Y-41991400D01*
X76836470Y-42081877D01*
X76450861Y-42339533D01*
X76193205Y-42725142D01*
X76102728Y-43180000D01*
X75330000Y-43180000D01*
X75330000Y-40858750D01*
X76079000Y-40858750D01*
X76079000Y-41578192D01*
X76136090Y-41716021D01*
X76241580Y-41821510D01*
X76379408Y-41878600D01*
X77251250Y-41878600D01*
X77345000Y-41784850D01*
X77345000Y-40765000D01*
X77595000Y-40765000D01*
X77595000Y-41784850D01*
X77688750Y-41878600D01*
X78560592Y-41878600D01*
X78698420Y-41821510D01*
X78803910Y-41716021D01*
X78861000Y-41578192D01*
X78861000Y-40858750D01*
X85121400Y-40858750D01*
X85121400Y-41578192D01*
X85178490Y-41716020D01*
X85283979Y-41821510D01*
X85421808Y-41878600D01*
X86141250Y-41878600D01*
X86235000Y-41784850D01*
X86235000Y-40765000D01*
X86485000Y-40765000D01*
X86485000Y-41784850D01*
X86578750Y-41878600D01*
X87298192Y-41878600D01*
X87436021Y-41821510D01*
X87541510Y-41716020D01*
X87598600Y-41578192D01*
X87598600Y-40956233D01*
X87702438Y-40956233D01*
X87914614Y-41390448D01*
X88276806Y-41710414D01*
X88583769Y-41837550D01*
X88775000Y-41778006D01*
X88775000Y-40765000D01*
X89025000Y-40765000D01*
X89025000Y-41778006D01*
X89216231Y-41837550D01*
X89523194Y-41710414D01*
X89885386Y-41390448D01*
X90097562Y-40956233D01*
X90242438Y-40956233D01*
X90454614Y-41390448D01*
X90816806Y-41710414D01*
X91123769Y-41837550D01*
X91315000Y-41778006D01*
X91315000Y-40765000D01*
X91565000Y-40765000D01*
X91565000Y-41778006D01*
X91756231Y-41837550D01*
X92063194Y-41710414D01*
X92425386Y-41390448D01*
X92637562Y-40956233D01*
X92782438Y-40956233D01*
X92994614Y-41390448D01*
X93356806Y-41710414D01*
X93663769Y-41837550D01*
X93855000Y-41778006D01*
X93855000Y-40765000D01*
X94105000Y-40765000D01*
X94105000Y-41778006D01*
X94296231Y-41837550D01*
X94603194Y-41710414D01*
X94965386Y-41390448D01*
X95177562Y-40956233D01*
X95322438Y-40956233D01*
X95534614Y-41390448D01*
X95896806Y-41710414D01*
X96203769Y-41837550D01*
X96395000Y-41778006D01*
X96395000Y-40765000D01*
X96645000Y-40765000D01*
X96645000Y-41778006D01*
X96836231Y-41837550D01*
X97143194Y-41710414D01*
X97505386Y-41390448D01*
X97717562Y-40956233D01*
X97862438Y-40956233D01*
X98074614Y-41390448D01*
X98436806Y-41710414D01*
X98743769Y-41837550D01*
X98935000Y-41778006D01*
X98935000Y-40765000D01*
X99185000Y-40765000D01*
X99185000Y-41778006D01*
X99376231Y-41837550D01*
X99683194Y-41710414D01*
X100045386Y-41390448D01*
X100257562Y-40956233D01*
X100402438Y-40956233D01*
X100614614Y-41390448D01*
X100976806Y-41710414D01*
X101283769Y-41837550D01*
X101475000Y-41778006D01*
X101475000Y-40765000D01*
X101725000Y-40765000D01*
X101725000Y-41778006D01*
X101916231Y-41837550D01*
X102223194Y-41710414D01*
X102585386Y-41390448D01*
X102797562Y-40956233D01*
X102942438Y-40956233D01*
X103154614Y-41390448D01*
X103516806Y-41710414D01*
X103823769Y-41837550D01*
X104015000Y-41778006D01*
X104015000Y-40765000D01*
X104265000Y-40765000D01*
X104265000Y-41778006D01*
X104456231Y-41837550D01*
X104763194Y-41710414D01*
X105125386Y-41390448D01*
X105337562Y-40956233D01*
X105278538Y-40765000D01*
X104265000Y-40765000D01*
X104015000Y-40765000D01*
X103001462Y-40765000D01*
X102942438Y-40956233D01*
X102797562Y-40956233D01*
X102738538Y-40765000D01*
X101725000Y-40765000D01*
X101475000Y-40765000D01*
X100461462Y-40765000D01*
X100402438Y-40956233D01*
X100257562Y-40956233D01*
X100198538Y-40765000D01*
X99185000Y-40765000D01*
X98935000Y-40765000D01*
X97921462Y-40765000D01*
X97862438Y-40956233D01*
X97717562Y-40956233D01*
X97658538Y-40765000D01*
X96645000Y-40765000D01*
X96395000Y-40765000D01*
X95381462Y-40765000D01*
X95322438Y-40956233D01*
X95177562Y-40956233D01*
X95118538Y-40765000D01*
X94105000Y-40765000D01*
X93855000Y-40765000D01*
X92841462Y-40765000D01*
X92782438Y-40956233D01*
X92637562Y-40956233D01*
X92578538Y-40765000D01*
X91565000Y-40765000D01*
X91315000Y-40765000D01*
X90301462Y-40765000D01*
X90242438Y-40956233D01*
X90097562Y-40956233D01*
X90038538Y-40765000D01*
X89025000Y-40765000D01*
X88775000Y-40765000D01*
X87761462Y-40765000D01*
X87702438Y-40956233D01*
X87598600Y-40956233D01*
X87598600Y-40858750D01*
X87504850Y-40765000D01*
X86485000Y-40765000D01*
X86235000Y-40765000D01*
X85215150Y-40765000D01*
X85121400Y-40858750D01*
X78861000Y-40858750D01*
X78767250Y-40765000D01*
X77595000Y-40765000D01*
X77345000Y-40765000D01*
X76172750Y-40765000D01*
X76079000Y-40858750D01*
X75330000Y-40858750D01*
X75330000Y-39701808D01*
X76079000Y-39701808D01*
X76079000Y-40421250D01*
X76172750Y-40515000D01*
X77345000Y-40515000D01*
X77345000Y-39495150D01*
X77595000Y-39495150D01*
X77595000Y-40515000D01*
X78767250Y-40515000D01*
X78861000Y-40421250D01*
X78861000Y-39701808D01*
X85121400Y-39701808D01*
X85121400Y-40421250D01*
X85215150Y-40515000D01*
X86235000Y-40515000D01*
X86235000Y-39495150D01*
X86485000Y-39495150D01*
X86485000Y-40515000D01*
X87504850Y-40515000D01*
X87598600Y-40421250D01*
X87598600Y-40323767D01*
X87702438Y-40323767D01*
X87761462Y-40515000D01*
X88775000Y-40515000D01*
X88775000Y-39501994D01*
X89025000Y-39501994D01*
X89025000Y-40515000D01*
X90038538Y-40515000D01*
X90097562Y-40323767D01*
X90242438Y-40323767D01*
X90301462Y-40515000D01*
X91315000Y-40515000D01*
X91315000Y-39501994D01*
X91565000Y-39501994D01*
X91565000Y-40515000D01*
X92578538Y-40515000D01*
X92637562Y-40323767D01*
X92782438Y-40323767D01*
X92841462Y-40515000D01*
X93855000Y-40515000D01*
X93855000Y-39501994D01*
X94105000Y-39501994D01*
X94105000Y-40515000D01*
X95118538Y-40515000D01*
X95177562Y-40323767D01*
X95322438Y-40323767D01*
X95381462Y-40515000D01*
X96395000Y-40515000D01*
X96395000Y-39501994D01*
X96645000Y-39501994D01*
X96645000Y-40515000D01*
X97658538Y-40515000D01*
X97717562Y-40323767D01*
X97862438Y-40323767D01*
X97921462Y-40515000D01*
X98935000Y-40515000D01*
X98935000Y-39501994D01*
X99185000Y-39501994D01*
X99185000Y-40515000D01*
X100198538Y-40515000D01*
X100257562Y-40323767D01*
X100402438Y-40323767D01*
X100461462Y-40515000D01*
X101475000Y-40515000D01*
X101475000Y-39501994D01*
X101725000Y-39501994D01*
X101725000Y-40515000D01*
X102738538Y-40515000D01*
X102797562Y-40323767D01*
X102942438Y-40323767D01*
X103001462Y-40515000D01*
X104015000Y-40515000D01*
X104015000Y-39501994D01*
X104265000Y-39501994D01*
X104265000Y-40515000D01*
X105278538Y-40515000D01*
X105337562Y-40323767D01*
X105125386Y-39889552D01*
X104763194Y-39569586D01*
X104456231Y-39442450D01*
X104265000Y-39501994D01*
X104015000Y-39501994D01*
X103823769Y-39442450D01*
X103516806Y-39569586D01*
X103154614Y-39889552D01*
X102942438Y-40323767D01*
X102797562Y-40323767D01*
X102585386Y-39889552D01*
X102223194Y-39569586D01*
X101916231Y-39442450D01*
X101725000Y-39501994D01*
X101475000Y-39501994D01*
X101283769Y-39442450D01*
X100976806Y-39569586D01*
X100614614Y-39889552D01*
X100402438Y-40323767D01*
X100257562Y-40323767D01*
X100045386Y-39889552D01*
X99683194Y-39569586D01*
X99376231Y-39442450D01*
X99185000Y-39501994D01*
X98935000Y-39501994D01*
X98743769Y-39442450D01*
X98436806Y-39569586D01*
X98074614Y-39889552D01*
X97862438Y-40323767D01*
X97717562Y-40323767D01*
X97505386Y-39889552D01*
X97143194Y-39569586D01*
X96836231Y-39442450D01*
X96645000Y-39501994D01*
X96395000Y-39501994D01*
X96203769Y-39442450D01*
X95896806Y-39569586D01*
X95534614Y-39889552D01*
X95322438Y-40323767D01*
X95177562Y-40323767D01*
X94965386Y-39889552D01*
X94603194Y-39569586D01*
X94296231Y-39442450D01*
X94105000Y-39501994D01*
X93855000Y-39501994D01*
X93663769Y-39442450D01*
X93356806Y-39569586D01*
X92994614Y-39889552D01*
X92782438Y-40323767D01*
X92637562Y-40323767D01*
X92425386Y-39889552D01*
X92063194Y-39569586D01*
X91756231Y-39442450D01*
X91565000Y-39501994D01*
X91315000Y-39501994D01*
X91123769Y-39442450D01*
X90816806Y-39569586D01*
X90454614Y-39889552D01*
X90242438Y-40323767D01*
X90097562Y-40323767D01*
X89885386Y-39889552D01*
X89523194Y-39569586D01*
X89216231Y-39442450D01*
X89025000Y-39501994D01*
X88775000Y-39501994D01*
X88583769Y-39442450D01*
X88276806Y-39569586D01*
X87914614Y-39889552D01*
X87702438Y-40323767D01*
X87598600Y-40323767D01*
X87598600Y-39701808D01*
X87541510Y-39563980D01*
X87436021Y-39458490D01*
X87298192Y-39401400D01*
X86578750Y-39401400D01*
X86485000Y-39495150D01*
X86235000Y-39495150D01*
X86141250Y-39401400D01*
X85421808Y-39401400D01*
X85283979Y-39458490D01*
X85178490Y-39563980D01*
X85121400Y-39701808D01*
X78861000Y-39701808D01*
X78803910Y-39563979D01*
X78698420Y-39458490D01*
X78560592Y-39401400D01*
X77688750Y-39401400D01*
X77595000Y-39495150D01*
X77345000Y-39495150D01*
X77251250Y-39401400D01*
X76379408Y-39401400D01*
X76241580Y-39458490D01*
X76136090Y-39563979D01*
X76079000Y-39701808D01*
X75330000Y-39701808D01*
X75330000Y-38500000D01*
X87630000Y-38500000D01*
X87735575Y-38479000D01*
X87884000Y-38479000D01*
X87932632Y-38469152D01*
X87973601Y-38441159D01*
X88000451Y-38399432D01*
X88009000Y-38354000D01*
X88009000Y-38205575D01*
X88030000Y-38100000D01*
X88030000Y-35391779D01*
X88447592Y-35391779D01*
X88805668Y-36258389D01*
X89468124Y-36922002D01*
X90334107Y-37281590D01*
X91271779Y-37282408D01*
X92138389Y-36924332D01*
X92802002Y-36261876D01*
X93161590Y-35395893D01*
X93162408Y-34458221D01*
X92804332Y-33591611D01*
X92141876Y-32927998D01*
X91275893Y-32568410D01*
X90338221Y-32567592D01*
X89471611Y-32925668D01*
X88807998Y-33588124D01*
X88448410Y-34454107D01*
X88447592Y-35391779D01*
X88030000Y-35391779D01*
X88030000Y-32150000D01*
X93580000Y-32150000D01*
X93580000Y-38100000D01*
X93580000Y-38100000D01*
G37*
X93580000Y-38100000D02*
X93601000Y-38205575D01*
X93601000Y-38354000D01*
X93610848Y-38402632D01*
X93638841Y-38443601D01*
X93680568Y-38470451D01*
X93726000Y-38479000D01*
X93874425Y-38479000D01*
X93980000Y-38500000D01*
X106280000Y-38500000D01*
X106280000Y-64370000D01*
X93980000Y-64370000D01*
X93874425Y-64391000D01*
X93601000Y-64391000D01*
X93601000Y-64664425D01*
X93580000Y-64770000D01*
X93580000Y-70720000D01*
X88030000Y-70720000D01*
X88030000Y-68411779D01*
X88447592Y-68411779D01*
X88805668Y-69278389D01*
X89468124Y-69942002D01*
X90334107Y-70301590D01*
X91271779Y-70302408D01*
X92138389Y-69944332D01*
X92802002Y-69281876D01*
X93161590Y-68415893D01*
X93162408Y-67478221D01*
X92804332Y-66611611D01*
X92141876Y-65947998D01*
X91275893Y-65588410D01*
X90338221Y-65587592D01*
X89471611Y-65945668D01*
X88807998Y-66608124D01*
X88448410Y-67474107D01*
X88447592Y-68411779D01*
X88030000Y-68411779D01*
X88030000Y-64770000D01*
X88009000Y-64664425D01*
X88009000Y-64516000D01*
X87999152Y-64467368D01*
X87971159Y-64426399D01*
X87929432Y-64399549D01*
X87884000Y-64391000D01*
X91313000Y-64391000D01*
X91313000Y-64516000D01*
X91438000Y-64516000D01*
X91438000Y-64391000D01*
X91313000Y-64391000D01*
X87884000Y-64391000D01*
X87735575Y-64391000D01*
X87630000Y-64370000D01*
X75330000Y-64370000D01*
X75330000Y-64262000D01*
X93601000Y-64262000D01*
X93601000Y-64387000D01*
X93726000Y-64387000D01*
X93726000Y-64262000D01*
X93601000Y-64262000D01*
X75330000Y-64262000D01*
X75330000Y-63210750D01*
X85693000Y-63210750D01*
X85693000Y-63566592D01*
X85750090Y-63704420D01*
X85855579Y-63809910D01*
X85993408Y-63867000D01*
X86649250Y-63867000D01*
X86743000Y-63773250D01*
X86743000Y-63117000D01*
X86993000Y-63117000D01*
X86993000Y-63773250D01*
X87086750Y-63867000D01*
X87742592Y-63867000D01*
X87880421Y-63809910D01*
X87985910Y-63704420D01*
X88043000Y-63566592D01*
X88043000Y-63210750D01*
X88027000Y-63194750D01*
X91456000Y-63194750D01*
X91456000Y-63550592D01*
X91513090Y-63688420D01*
X91618579Y-63793910D01*
X91756408Y-63851000D01*
X92237250Y-63851000D01*
X92331000Y-63757250D01*
X92331000Y-63101000D01*
X92581000Y-63101000D01*
X92581000Y-63757250D01*
X92674750Y-63851000D01*
X93155592Y-63851000D01*
X93293421Y-63793910D01*
X93398910Y-63688420D01*
X93456000Y-63550592D01*
X93456000Y-63194750D01*
X93742000Y-63194750D01*
X93742000Y-63550592D01*
X93799090Y-63688420D01*
X93904579Y-63793910D01*
X94042408Y-63851000D01*
X94523250Y-63851000D01*
X94617000Y-63757250D01*
X94617000Y-63101000D01*
X94867000Y-63101000D01*
X94867000Y-63757250D01*
X94960750Y-63851000D01*
X95441592Y-63851000D01*
X95579421Y-63793910D01*
X95684910Y-63688420D01*
X95742000Y-63550592D01*
X95742000Y-63194750D01*
X96028000Y-63194750D01*
X96028000Y-63550592D01*
X96085090Y-63688420D01*
X96190579Y-63793910D01*
X96328408Y-63851000D01*
X96809250Y-63851000D01*
X96903000Y-63757250D01*
X96903000Y-63101000D01*
X97153000Y-63101000D01*
X97153000Y-63757250D01*
X97246750Y-63851000D01*
X97727592Y-63851000D01*
X97865421Y-63793910D01*
X97970910Y-63688420D01*
X98028000Y-63550592D01*
X98028000Y-63194750D01*
X98314000Y-63194750D01*
X98314000Y-63550592D01*
X98371090Y-63688420D01*
X98476579Y-63793910D01*
X98614408Y-63851000D01*
X99095250Y-63851000D01*
X99189000Y-63757250D01*
X99189000Y-63101000D01*
X99439000Y-63101000D01*
X99439000Y-63757250D01*
X99532750Y-63851000D01*
X100013592Y-63851000D01*
X100151421Y-63793910D01*
X100256910Y-63688420D01*
X100314000Y-63550592D01*
X100314000Y-63194750D01*
X100600000Y-63194750D01*
X100600000Y-63550592D01*
X100657090Y-63688420D01*
X100762579Y-63793910D01*
X100900408Y-63851000D01*
X101381250Y-63851000D01*
X101475000Y-63757250D01*
X101475000Y-63101000D01*
X101725000Y-63101000D01*
X101725000Y-63757250D01*
X101818750Y-63851000D01*
X102299592Y-63851000D01*
X102437421Y-63793910D01*
X102542910Y-63688420D01*
X102600000Y-63550592D01*
X102600000Y-63194750D01*
X102506250Y-63101000D01*
X101725000Y-63101000D01*
X101475000Y-63101000D01*
X100693750Y-63101000D01*
X100600000Y-63194750D01*
X100314000Y-63194750D01*
X100220250Y-63101000D01*
X99439000Y-63101000D01*
X99189000Y-63101000D01*
X98407750Y-63101000D01*
X98314000Y-63194750D01*
X98028000Y-63194750D01*
X97934250Y-63101000D01*
X97153000Y-63101000D01*
X96903000Y-63101000D01*
X96121750Y-63101000D01*
X96028000Y-63194750D01*
X95742000Y-63194750D01*
X95648250Y-63101000D01*
X94867000Y-63101000D01*
X94617000Y-63101000D01*
X93835750Y-63101000D01*
X93742000Y-63194750D01*
X93456000Y-63194750D01*
X93362250Y-63101000D01*
X92581000Y-63101000D01*
X92331000Y-63101000D01*
X91549750Y-63101000D01*
X91456000Y-63194750D01*
X88027000Y-63194750D01*
X87949250Y-63117000D01*
X86993000Y-63117000D01*
X86743000Y-63117000D01*
X85786750Y-63117000D01*
X85693000Y-63210750D01*
X75330000Y-63210750D01*
X75330000Y-62417408D01*
X85693000Y-62417408D01*
X85693000Y-62773250D01*
X85786750Y-62867000D01*
X86743000Y-62867000D01*
X86743000Y-62210750D01*
X86993000Y-62210750D01*
X86993000Y-62867000D01*
X87949250Y-62867000D01*
X88043000Y-62773250D01*
X88043000Y-62417408D01*
X88036373Y-62401408D01*
X91456000Y-62401408D01*
X91456000Y-62757250D01*
X91549750Y-62851000D01*
X92331000Y-62851000D01*
X92331000Y-62194750D01*
X92581000Y-62194750D01*
X92581000Y-62851000D01*
X93362250Y-62851000D01*
X93456000Y-62757250D01*
X93456000Y-62401408D01*
X93742000Y-62401408D01*
X93742000Y-62757250D01*
X93835750Y-62851000D01*
X94617000Y-62851000D01*
X94617000Y-62194750D01*
X94867000Y-62194750D01*
X94867000Y-62851000D01*
X95648250Y-62851000D01*
X95742000Y-62757250D01*
X95742000Y-62401408D01*
X96028000Y-62401408D01*
X96028000Y-62757250D01*
X96121750Y-62851000D01*
X96903000Y-62851000D01*
X96903000Y-62194750D01*
X97153000Y-62194750D01*
X97153000Y-62851000D01*
X97934250Y-62851000D01*
X98028000Y-62757250D01*
X98028000Y-62401408D01*
X98314000Y-62401408D01*
X98314000Y-62757250D01*
X98407750Y-62851000D01*
X99189000Y-62851000D01*
X99189000Y-62194750D01*
X99439000Y-62194750D01*
X99439000Y-62851000D01*
X100220250Y-62851000D01*
X100314000Y-62757250D01*
X100314000Y-62401408D01*
X100600000Y-62401408D01*
X100600000Y-62757250D01*
X100693750Y-62851000D01*
X101475000Y-62851000D01*
X101475000Y-62194750D01*
X101725000Y-62194750D01*
X101725000Y-62851000D01*
X102506250Y-62851000D01*
X102600000Y-62757250D01*
X102600000Y-62401408D01*
X102542910Y-62263580D01*
X102437421Y-62158090D01*
X102299592Y-62101000D01*
X101818750Y-62101000D01*
X101725000Y-62194750D01*
X101475000Y-62194750D01*
X101381250Y-62101000D01*
X100900408Y-62101000D01*
X100762579Y-62158090D01*
X100657090Y-62263580D01*
X100600000Y-62401408D01*
X100314000Y-62401408D01*
X100256910Y-62263580D01*
X100151421Y-62158090D01*
X100013592Y-62101000D01*
X99532750Y-62101000D01*
X99439000Y-62194750D01*
X99189000Y-62194750D01*
X99095250Y-62101000D01*
X98614408Y-62101000D01*
X98476579Y-62158090D01*
X98371090Y-62263580D01*
X98314000Y-62401408D01*
X98028000Y-62401408D01*
X97970910Y-62263580D01*
X97865421Y-62158090D01*
X97727592Y-62101000D01*
X97246750Y-62101000D01*
X97153000Y-62194750D01*
X96903000Y-62194750D01*
X96809250Y-62101000D01*
X96328408Y-62101000D01*
X96190579Y-62158090D01*
X96085090Y-62263580D01*
X96028000Y-62401408D01*
X95742000Y-62401408D01*
X95684910Y-62263580D01*
X95579421Y-62158090D01*
X95441592Y-62101000D01*
X94960750Y-62101000D01*
X94867000Y-62194750D01*
X94617000Y-62194750D01*
X94523250Y-62101000D01*
X94042408Y-62101000D01*
X93904579Y-62158090D01*
X93799090Y-62263580D01*
X93742000Y-62401408D01*
X93456000Y-62401408D01*
X93398910Y-62263580D01*
X93293421Y-62158090D01*
X93155592Y-62101000D01*
X92674750Y-62101000D01*
X92581000Y-62194750D01*
X92331000Y-62194750D01*
X92237250Y-62101000D01*
X91756408Y-62101000D01*
X91618579Y-62158090D01*
X91513090Y-62263580D01*
X91456000Y-62401408D01*
X88036373Y-62401408D01*
X87985910Y-62279580D01*
X87880421Y-62174090D01*
X87742592Y-62117000D01*
X87086750Y-62117000D01*
X86993000Y-62210750D01*
X86743000Y-62210750D01*
X86649250Y-62117000D01*
X85993408Y-62117000D01*
X85855579Y-62174090D01*
X85750090Y-62279580D01*
X85693000Y-62417408D01*
X75330000Y-62417408D01*
X75330000Y-59908750D01*
X75766000Y-59908750D01*
X75766000Y-60979592D01*
X75823090Y-61117421D01*
X75928580Y-61222910D01*
X76066408Y-61280000D01*
X77107250Y-61280000D01*
X77201000Y-61186250D01*
X77201000Y-59815000D01*
X77451000Y-59815000D01*
X77451000Y-61186250D01*
X77544750Y-61280000D01*
X78585592Y-61280000D01*
X78723420Y-61222910D01*
X78828910Y-61117421D01*
X78886000Y-60979592D01*
X78886000Y-59908750D01*
X78792250Y-59815000D01*
X77451000Y-59815000D01*
X77201000Y-59815000D01*
X75859750Y-59815000D01*
X75766000Y-59908750D01*
X75330000Y-59908750D01*
X75330000Y-58400408D01*
X75766000Y-58400408D01*
X75766000Y-59471250D01*
X75859750Y-59565000D01*
X77201000Y-59565000D01*
X77201000Y-58193750D01*
X77451000Y-58193750D01*
X77451000Y-59565000D01*
X78792250Y-59565000D01*
X78886000Y-59471250D01*
X78886000Y-58400408D01*
X78828910Y-58262579D01*
X78723420Y-58157090D01*
X78585592Y-58100000D01*
X77544750Y-58100000D01*
X77451000Y-58193750D01*
X77201000Y-58193750D01*
X77107250Y-58100000D01*
X76066408Y-58100000D01*
X75928580Y-58157090D01*
X75823090Y-58262579D01*
X75766000Y-58400408D01*
X75330000Y-58400408D01*
X75330000Y-55082750D01*
X76231400Y-55082750D01*
X76231400Y-55802192D01*
X76288490Y-55940021D01*
X76393980Y-56045510D01*
X76531808Y-56102600D01*
X77251250Y-56102600D01*
X77345000Y-56008850D01*
X77345000Y-54989000D01*
X77595000Y-54989000D01*
X77595000Y-56008850D01*
X77688750Y-56102600D01*
X78408192Y-56102600D01*
X78546020Y-56045510D01*
X78651510Y-55940021D01*
X78708600Y-55802192D01*
X78708600Y-55082750D01*
X78614850Y-54989000D01*
X77595000Y-54989000D01*
X77345000Y-54989000D01*
X76325150Y-54989000D01*
X76231400Y-55082750D01*
X75330000Y-55082750D01*
X75330000Y-53925808D01*
X76231400Y-53925808D01*
X76231400Y-54645250D01*
X76325150Y-54739000D01*
X77345000Y-54739000D01*
X77345000Y-53719150D01*
X77595000Y-53719150D01*
X77595000Y-54739000D01*
X78614850Y-54739000D01*
X78708600Y-54645250D01*
X78708600Y-53925808D01*
X78651510Y-53787979D01*
X78546020Y-53682490D01*
X78408192Y-53625400D01*
X77688750Y-53625400D01*
X77595000Y-53719150D01*
X77345000Y-53719150D01*
X77251250Y-53625400D01*
X76531808Y-53625400D01*
X76393980Y-53682490D01*
X76288490Y-53787979D01*
X76231400Y-53925808D01*
X75330000Y-53925808D01*
X75330000Y-52640231D01*
X76272450Y-52640231D01*
X76399586Y-52947194D01*
X76719552Y-53309386D01*
X77153767Y-53521562D01*
X77345000Y-53462538D01*
X77345000Y-52449000D01*
X77595000Y-52449000D01*
X77595000Y-53462538D01*
X77786233Y-53521562D01*
X78220448Y-53309386D01*
X78540414Y-52947194D01*
X78667550Y-52640231D01*
X78608006Y-52449000D01*
X77595000Y-52449000D01*
X77345000Y-52449000D01*
X76331994Y-52449000D01*
X76272450Y-52640231D01*
X75330000Y-52640231D01*
X75330000Y-52007769D01*
X76272450Y-52007769D01*
X76331994Y-52199000D01*
X77345000Y-52199000D01*
X77345000Y-51185462D01*
X77595000Y-51185462D01*
X77595000Y-52199000D01*
X78608006Y-52199000D01*
X78667550Y-52007769D01*
X78540414Y-51700806D01*
X78220448Y-51338614D01*
X77786233Y-51126438D01*
X77595000Y-51185462D01*
X77345000Y-51185462D01*
X77153767Y-51126438D01*
X76719552Y-51338614D01*
X76399586Y-51700806D01*
X76272450Y-52007769D01*
X75330000Y-52007769D01*
X75330000Y-43180000D01*
X76102728Y-43180000D01*
X76193205Y-43634858D01*
X76450861Y-44020467D01*
X76836470Y-44278123D01*
X76837000Y-44278228D01*
X76837000Y-44621772D01*
X76836470Y-44621877D01*
X76450861Y-44879533D01*
X76193205Y-45265142D01*
X76102728Y-45720000D01*
X76193205Y-46174858D01*
X76450861Y-46560467D01*
X76836470Y-46818123D01*
X76837000Y-46818228D01*
X76837000Y-47117000D01*
X76846848Y-47165632D01*
X76873612Y-47205388D01*
X79377000Y-49708776D01*
X79377000Y-51329349D01*
X79146247Y-51483533D01*
X78888591Y-51869142D01*
X78798114Y-52324000D01*
X78888591Y-52778858D01*
X79146247Y-53164467D01*
X79377000Y-53318651D01*
X79377000Y-53869349D01*
X79146247Y-54023533D01*
X78888591Y-54409142D01*
X78798114Y-54864000D01*
X78888591Y-55318858D01*
X79146247Y-55704467D01*
X79377000Y-55858651D01*
X79377000Y-56261000D01*
X79386848Y-56309632D01*
X79413612Y-56349388D01*
X81409000Y-58344776D01*
X81409000Y-61341000D01*
X81418848Y-61389632D01*
X81445612Y-61429388D01*
X81826612Y-61810388D01*
X81867963Y-61837813D01*
X81915000Y-61847000D01*
X85217000Y-61847000D01*
X85265632Y-61837152D01*
X85305388Y-61810388D01*
X85522776Y-61593000D01*
X88011000Y-61593000D01*
X88059632Y-61583152D01*
X88099388Y-61556388D01*
X88353388Y-61302388D01*
X91224612Y-61302388D01*
X91438000Y-61515776D01*
X91438000Y-61214000D01*
X91313000Y-61214000D01*
X91224612Y-61302388D01*
X88353388Y-61302388D01*
X88734388Y-60921388D01*
X88761813Y-60880037D01*
X88771000Y-60833000D01*
X88771000Y-59741776D01*
X92544388Y-55968388D01*
X92571813Y-55927037D01*
X92581000Y-55880000D01*
X92581000Y-55076750D01*
X92679000Y-55076750D01*
X92679000Y-55207592D01*
X92704000Y-55267948D01*
X92704000Y-55414250D01*
X92797750Y-55508000D01*
X92878592Y-55508000D01*
X92929000Y-55487121D01*
X92979408Y-55508000D01*
X93060250Y-55508000D01*
X93154000Y-55414250D01*
X93154000Y-55267948D01*
X93179000Y-55207592D01*
X93179000Y-55076750D01*
X93329000Y-55076750D01*
X93329000Y-55207592D01*
X93354000Y-55267948D01*
X93354000Y-55414250D01*
X93447750Y-55508000D01*
X93528592Y-55508000D01*
X93579000Y-55487121D01*
X93629408Y-55508000D01*
X93710250Y-55508000D01*
X93804000Y-55414250D01*
X93804000Y-55267948D01*
X93829000Y-55207592D01*
X93829000Y-55076750D01*
X93804000Y-55051750D01*
X93804000Y-54983000D01*
X93354000Y-54983000D01*
X93354000Y-55051750D01*
X93329000Y-55076750D01*
X93179000Y-55076750D01*
X93154000Y-55051750D01*
X93154000Y-54983000D01*
X92704000Y-54983000D01*
X92704000Y-55051750D01*
X92679000Y-55076750D01*
X92581000Y-55076750D01*
X92581000Y-54735000D01*
X93982000Y-54735000D01*
X93982000Y-57606224D01*
X91478612Y-60109612D01*
X91451187Y-60150963D01*
X91442000Y-60198000D01*
X91442000Y-61519776D01*
X91528852Y-61606628D01*
X91593474Y-61707053D01*
X91702080Y-61781260D01*
X91703841Y-61781617D01*
X91732612Y-61810388D01*
X91773963Y-61837813D01*
X91821000Y-61847000D01*
X102235000Y-61847000D01*
X102283632Y-61837152D01*
X102323388Y-61810388D01*
X102355628Y-61778148D01*
X102456053Y-61713526D01*
X102530260Y-61604920D01*
X102530617Y-61603159D01*
X102577388Y-61556388D01*
X102604813Y-61515037D01*
X102614000Y-61468000D01*
X102614000Y-60452000D01*
X102604152Y-60403368D01*
X102577388Y-60363612D01*
X102469390Y-60255614D01*
X102462526Y-60244947D01*
X102450519Y-60236743D01*
X102233000Y-60019224D01*
X102233000Y-58398651D01*
X102463753Y-58244467D01*
X102721409Y-57858858D01*
X102748983Y-57720231D01*
X102942450Y-57720231D01*
X103069586Y-58027194D01*
X103389552Y-58389386D01*
X103823767Y-58601562D01*
X104015000Y-58542538D01*
X104015000Y-57529000D01*
X104265000Y-57529000D01*
X104265000Y-58542538D01*
X104456233Y-58601562D01*
X104890448Y-58389386D01*
X105210414Y-58027194D01*
X105337550Y-57720231D01*
X105278006Y-57529000D01*
X104265000Y-57529000D01*
X104015000Y-57529000D01*
X103001994Y-57529000D01*
X102942450Y-57720231D01*
X102748983Y-57720231D01*
X102811886Y-57404000D01*
X102748984Y-57087769D01*
X102942450Y-57087769D01*
X103001994Y-57279000D01*
X104015000Y-57279000D01*
X104015000Y-56265462D01*
X104265000Y-56265462D01*
X104265000Y-57279000D01*
X105278006Y-57279000D01*
X105337550Y-57087769D01*
X105210414Y-56780806D01*
X104890448Y-56418614D01*
X104456233Y-56206438D01*
X104265000Y-56265462D01*
X104015000Y-56265462D01*
X103823767Y-56206438D01*
X103389552Y-56418614D01*
X103069586Y-56780806D01*
X102942450Y-57087769D01*
X102748984Y-57087769D01*
X102721409Y-56949142D01*
X102463753Y-56563533D01*
X102233000Y-56409349D01*
X102233000Y-55858651D01*
X102463753Y-55704467D01*
X102721409Y-55318858D01*
X102748983Y-55180231D01*
X102942450Y-55180231D01*
X103069586Y-55487194D01*
X103389552Y-55849386D01*
X103823767Y-56061562D01*
X104015000Y-56002538D01*
X104015000Y-54989000D01*
X104265000Y-54989000D01*
X104265000Y-56002538D01*
X104456233Y-56061562D01*
X104890448Y-55849386D01*
X105210414Y-55487194D01*
X105337550Y-55180231D01*
X105278006Y-54989000D01*
X104265000Y-54989000D01*
X104015000Y-54989000D01*
X103001994Y-54989000D01*
X102942450Y-55180231D01*
X102748983Y-55180231D01*
X102811886Y-54864000D01*
X102748984Y-54547769D01*
X102942450Y-54547769D01*
X103001994Y-54739000D01*
X104015000Y-54739000D01*
X104015000Y-53725462D01*
X104265000Y-53725462D01*
X104265000Y-54739000D01*
X105278006Y-54739000D01*
X105337550Y-54547769D01*
X105210414Y-54240806D01*
X104890448Y-53878614D01*
X104456233Y-53666438D01*
X104265000Y-53725462D01*
X104015000Y-53725462D01*
X103823767Y-53666438D01*
X103389552Y-53878614D01*
X103069586Y-54240806D01*
X102942450Y-54547769D01*
X102748984Y-54547769D01*
X102721409Y-54409142D01*
X102463753Y-54023533D01*
X102233000Y-53869349D01*
X102233000Y-53318651D01*
X102463753Y-53164467D01*
X102721409Y-52778858D01*
X102748983Y-52640231D01*
X102942450Y-52640231D01*
X103069586Y-52947194D01*
X103389552Y-53309386D01*
X103823767Y-53521562D01*
X104015000Y-53462538D01*
X104015000Y-52449000D01*
X104265000Y-52449000D01*
X104265000Y-53462538D01*
X104456233Y-53521562D01*
X104890448Y-53309386D01*
X105210414Y-52947194D01*
X105337550Y-52640231D01*
X105278006Y-52449000D01*
X104265000Y-52449000D01*
X104015000Y-52449000D01*
X103001994Y-52449000D01*
X102942450Y-52640231D01*
X102748983Y-52640231D01*
X102811886Y-52324000D01*
X102748984Y-52007769D01*
X102942450Y-52007769D01*
X103001994Y-52199000D01*
X104015000Y-52199000D01*
X104015000Y-51185462D01*
X104265000Y-51185462D01*
X104265000Y-52199000D01*
X105278006Y-52199000D01*
X105337550Y-52007769D01*
X105210414Y-51700806D01*
X104890448Y-51338614D01*
X104456233Y-51126438D01*
X104265000Y-51185462D01*
X104015000Y-51185462D01*
X103823767Y-51126438D01*
X103389552Y-51338614D01*
X103069586Y-51700806D01*
X102942450Y-52007769D01*
X102748984Y-52007769D01*
X102721409Y-51869142D01*
X102463753Y-51483533D01*
X102233000Y-51329349D01*
X102233000Y-50778651D01*
X102463753Y-50624467D01*
X102721409Y-50238858D01*
X102768373Y-50002750D01*
X102901400Y-50002750D01*
X102901400Y-50722192D01*
X102958490Y-50860021D01*
X103063980Y-50965510D01*
X103201808Y-51022600D01*
X103921250Y-51022600D01*
X104015000Y-50928850D01*
X104015000Y-49909000D01*
X104265000Y-49909000D01*
X104265000Y-50928850D01*
X104358750Y-51022600D01*
X105078192Y-51022600D01*
X105216020Y-50965510D01*
X105321510Y-50860021D01*
X105378600Y-50722192D01*
X105378600Y-50002750D01*
X105284850Y-49909000D01*
X104265000Y-49909000D01*
X104015000Y-49909000D01*
X102995150Y-49909000D01*
X102901400Y-50002750D01*
X102768373Y-50002750D01*
X102811886Y-49784000D01*
X102721409Y-49329142D01*
X102463753Y-48943533D01*
X102317497Y-48845808D01*
X102901400Y-48845808D01*
X102901400Y-49565250D01*
X102995150Y-49659000D01*
X104015000Y-49659000D01*
X104015000Y-48639150D01*
X104265000Y-48639150D01*
X104265000Y-49659000D01*
X105284850Y-49659000D01*
X105378600Y-49565250D01*
X105378600Y-48845808D01*
X105321510Y-48707979D01*
X105216020Y-48602490D01*
X105078192Y-48545400D01*
X104358750Y-48545400D01*
X104265000Y-48639150D01*
X104015000Y-48639150D01*
X103921250Y-48545400D01*
X103201808Y-48545400D01*
X103063980Y-48602490D01*
X102958490Y-48707979D01*
X102901400Y-48845808D01*
X102317497Y-48845808D01*
X102233000Y-48789349D01*
X102233000Y-45688041D01*
X103645872Y-44275169D01*
X103685142Y-44301409D01*
X104140000Y-44391886D01*
X104594858Y-44301409D01*
X104980467Y-44043753D01*
X105238123Y-43658144D01*
X105328600Y-43203286D01*
X105328600Y-43156714D01*
X105238123Y-42701856D01*
X104980467Y-42316247D01*
X104594858Y-42058591D01*
X104140000Y-41968114D01*
X103685142Y-42058591D01*
X103299533Y-42316247D01*
X103041877Y-42701856D01*
X102951400Y-43156714D01*
X102951400Y-43203286D01*
X103041877Y-43658144D01*
X103049463Y-43669497D01*
X95965480Y-50753480D01*
X95929000Y-50808075D01*
X95929000Y-49452040D01*
X101105871Y-44275169D01*
X101145142Y-44301409D01*
X101600000Y-44391886D01*
X102054858Y-44301409D01*
X102440467Y-44043753D01*
X102698123Y-43658144D01*
X102788600Y-43203286D01*
X102788600Y-43156714D01*
X102698123Y-42701856D01*
X102440467Y-42316247D01*
X102054858Y-42058591D01*
X101600000Y-41968114D01*
X101145142Y-42058591D01*
X100759533Y-42316247D01*
X100501877Y-42701856D01*
X100411400Y-43156714D01*
X100411400Y-43203286D01*
X100501877Y-43658144D01*
X100509463Y-43669497D01*
X95203480Y-48975480D01*
X95111351Y-49113359D01*
X95111351Y-49113360D01*
X95079000Y-49276000D01*
X95079000Y-50049162D01*
X95062705Y-49962562D01*
X94991526Y-49851947D01*
X94979000Y-49843388D01*
X94979000Y-47862040D01*
X98565872Y-44275169D01*
X98605142Y-44301409D01*
X99060000Y-44391886D01*
X99514858Y-44301409D01*
X99900467Y-44043753D01*
X100158123Y-43658144D01*
X100248600Y-43203286D01*
X100248600Y-43156714D01*
X100158123Y-42701856D01*
X99900467Y-42316247D01*
X99514858Y-42058591D01*
X99060000Y-41968114D01*
X98605142Y-42058591D01*
X98219533Y-42316247D01*
X97961877Y-42701856D01*
X97871400Y-43156714D01*
X97871400Y-43203286D01*
X97961877Y-43658144D01*
X97969463Y-43669497D01*
X94253480Y-47385480D01*
X94161351Y-47523359D01*
X94161351Y-47523360D01*
X94129000Y-47686000D01*
X94129000Y-49708000D01*
X94097750Y-49708000D01*
X94004000Y-49801750D01*
X94004000Y-50233000D01*
X94022633Y-50233000D01*
X94022633Y-50483000D01*
X94004000Y-50483000D01*
X94004000Y-50503000D01*
X93804000Y-50503000D01*
X93804000Y-50483000D01*
X93785367Y-50483000D01*
X93785367Y-50233000D01*
X93804000Y-50233000D01*
X93804000Y-49801750D01*
X93710250Y-49708000D01*
X93679000Y-49708000D01*
X93679000Y-46622040D01*
X96025871Y-44275169D01*
X96065142Y-44301409D01*
X96520000Y-44391886D01*
X96974858Y-44301409D01*
X97360467Y-44043753D01*
X97618123Y-43658144D01*
X97708600Y-43203286D01*
X97708600Y-43156714D01*
X97618123Y-42701856D01*
X97360467Y-42316247D01*
X96974858Y-42058591D01*
X96520000Y-41968114D01*
X96065142Y-42058591D01*
X95679533Y-42316247D01*
X95421877Y-42701856D01*
X95331400Y-43156714D01*
X95331400Y-43203286D01*
X95421877Y-43658144D01*
X95429463Y-43669497D01*
X93029000Y-46069960D01*
X93029000Y-44732040D01*
X93485871Y-44275169D01*
X93525142Y-44301409D01*
X93980000Y-44391886D01*
X94434858Y-44301409D01*
X94820467Y-44043753D01*
X95078123Y-43658144D01*
X95168600Y-43203286D01*
X95168600Y-43156714D01*
X95078123Y-42701856D01*
X94820467Y-42316247D01*
X94434858Y-42058591D01*
X93980000Y-41968114D01*
X93525142Y-42058591D01*
X93139533Y-42316247D01*
X92881877Y-42701856D01*
X92791400Y-43156714D01*
X92791400Y-43203286D01*
X92881877Y-43658144D01*
X92889463Y-43669497D01*
X92379000Y-44179960D01*
X92379000Y-43896288D01*
X92538123Y-43658144D01*
X92628600Y-43203286D01*
X92628600Y-43156714D01*
X92538123Y-42701856D01*
X92280467Y-42316247D01*
X91894858Y-42058591D01*
X91440000Y-41968114D01*
X90985142Y-42058591D01*
X90599533Y-42316247D01*
X90341877Y-42701856D01*
X90251400Y-43156714D01*
X90251400Y-43203286D01*
X90341877Y-43658144D01*
X90599533Y-44043753D01*
X90985142Y-44301409D01*
X91440000Y-44391886D01*
X91529000Y-44374183D01*
X91529000Y-49841579D01*
X91522947Y-49845474D01*
X91448740Y-49954080D01*
X91429000Y-50051559D01*
X91429000Y-45284000D01*
X91396649Y-45121360D01*
X91366078Y-45075608D01*
X91304520Y-44983479D01*
X89990537Y-43669497D01*
X89998123Y-43658144D01*
X90088600Y-43203286D01*
X90088600Y-43156714D01*
X89998123Y-42701856D01*
X89740467Y-42316247D01*
X89354858Y-42058591D01*
X88900000Y-41968114D01*
X88445142Y-42058591D01*
X88059533Y-42316247D01*
X87801877Y-42701856D01*
X87711400Y-43156714D01*
X87711400Y-43203286D01*
X87801877Y-43658144D01*
X88059533Y-44043753D01*
X88445142Y-44301409D01*
X88900000Y-44391886D01*
X89354858Y-44301409D01*
X89394129Y-44275169D01*
X90579000Y-45460041D01*
X90579000Y-46909562D01*
X90562649Y-46827360D01*
X90562649Y-46827359D01*
X90470521Y-46689480D01*
X87450537Y-43669497D01*
X87458123Y-43658144D01*
X87548600Y-43203286D01*
X87548600Y-43156714D01*
X87458123Y-42701856D01*
X87200467Y-42316247D01*
X86814858Y-42058591D01*
X86360000Y-41968114D01*
X85905142Y-42058591D01*
X85519533Y-42316247D01*
X85261877Y-42701856D01*
X85171400Y-43156714D01*
X85171400Y-43203286D01*
X85261877Y-43658144D01*
X85519533Y-44043753D01*
X85905142Y-44301409D01*
X86360000Y-44391886D01*
X86814858Y-44301409D01*
X86854129Y-44275169D01*
X89745000Y-47166041D01*
X89745000Y-51599000D01*
X89771654Y-51732999D01*
X89777351Y-51761641D01*
X89869480Y-51899520D01*
X90152959Y-52183000D01*
X87665776Y-52183000D01*
X86194388Y-50711612D01*
X86153037Y-50684187D01*
X86106000Y-50675000D01*
X85199000Y-50675000D01*
X85199000Y-50445000D01*
X85219000Y-50445000D01*
X85219000Y-49888750D01*
X85469000Y-49888750D01*
X85469000Y-50445000D01*
X86000250Y-50445000D01*
X86094000Y-50351250D01*
X86094000Y-50095408D01*
X86036910Y-49957580D01*
X85931421Y-49852090D01*
X85793592Y-49795000D01*
X85562750Y-49795000D01*
X85469000Y-49888750D01*
X85219000Y-49888750D01*
X85125250Y-49795000D01*
X84961000Y-49795000D01*
X84961000Y-49784000D01*
X84951152Y-49735368D01*
X84924388Y-49695612D01*
X78766180Y-43537404D01*
X78837272Y-43180000D01*
X78746795Y-42725142D01*
X78489139Y-42339533D01*
X78103530Y-42081877D01*
X77648672Y-41991400D01*
X77291328Y-41991400D01*
X76836470Y-42081877D01*
X76450861Y-42339533D01*
X76193205Y-42725142D01*
X76102728Y-43180000D01*
X75330000Y-43180000D01*
X75330000Y-40858750D01*
X76079000Y-40858750D01*
X76079000Y-41578192D01*
X76136090Y-41716021D01*
X76241580Y-41821510D01*
X76379408Y-41878600D01*
X77251250Y-41878600D01*
X77345000Y-41784850D01*
X77345000Y-40765000D01*
X77595000Y-40765000D01*
X77595000Y-41784850D01*
X77688750Y-41878600D01*
X78560592Y-41878600D01*
X78698420Y-41821510D01*
X78803910Y-41716021D01*
X78861000Y-41578192D01*
X78861000Y-40858750D01*
X85121400Y-40858750D01*
X85121400Y-41578192D01*
X85178490Y-41716020D01*
X85283979Y-41821510D01*
X85421808Y-41878600D01*
X86141250Y-41878600D01*
X86235000Y-41784850D01*
X86235000Y-40765000D01*
X86485000Y-40765000D01*
X86485000Y-41784850D01*
X86578750Y-41878600D01*
X87298192Y-41878600D01*
X87436021Y-41821510D01*
X87541510Y-41716020D01*
X87598600Y-41578192D01*
X87598600Y-40956233D01*
X87702438Y-40956233D01*
X87914614Y-41390448D01*
X88276806Y-41710414D01*
X88583769Y-41837550D01*
X88775000Y-41778006D01*
X88775000Y-40765000D01*
X89025000Y-40765000D01*
X89025000Y-41778006D01*
X89216231Y-41837550D01*
X89523194Y-41710414D01*
X89885386Y-41390448D01*
X90097562Y-40956233D01*
X90242438Y-40956233D01*
X90454614Y-41390448D01*
X90816806Y-41710414D01*
X91123769Y-41837550D01*
X91315000Y-41778006D01*
X91315000Y-40765000D01*
X91565000Y-40765000D01*
X91565000Y-41778006D01*
X91756231Y-41837550D01*
X92063194Y-41710414D01*
X92425386Y-41390448D01*
X92637562Y-40956233D01*
X92782438Y-40956233D01*
X92994614Y-41390448D01*
X93356806Y-41710414D01*
X93663769Y-41837550D01*
X93855000Y-41778006D01*
X93855000Y-40765000D01*
X94105000Y-40765000D01*
X94105000Y-41778006D01*
X94296231Y-41837550D01*
X94603194Y-41710414D01*
X94965386Y-41390448D01*
X95177562Y-40956233D01*
X95322438Y-40956233D01*
X95534614Y-41390448D01*
X95896806Y-41710414D01*
X96203769Y-41837550D01*
X96395000Y-41778006D01*
X96395000Y-40765000D01*
X96645000Y-40765000D01*
X96645000Y-41778006D01*
X96836231Y-41837550D01*
X97143194Y-41710414D01*
X97505386Y-41390448D01*
X97717562Y-40956233D01*
X97862438Y-40956233D01*
X98074614Y-41390448D01*
X98436806Y-41710414D01*
X98743769Y-41837550D01*
X98935000Y-41778006D01*
X98935000Y-40765000D01*
X99185000Y-40765000D01*
X99185000Y-41778006D01*
X99376231Y-41837550D01*
X99683194Y-41710414D01*
X100045386Y-41390448D01*
X100257562Y-40956233D01*
X100402438Y-40956233D01*
X100614614Y-41390448D01*
X100976806Y-41710414D01*
X101283769Y-41837550D01*
X101475000Y-41778006D01*
X101475000Y-40765000D01*
X101725000Y-40765000D01*
X101725000Y-41778006D01*
X101916231Y-41837550D01*
X102223194Y-41710414D01*
X102585386Y-41390448D01*
X102797562Y-40956233D01*
X102942438Y-40956233D01*
X103154614Y-41390448D01*
X103516806Y-41710414D01*
X103823769Y-41837550D01*
X104015000Y-41778006D01*
X104015000Y-40765000D01*
X104265000Y-40765000D01*
X104265000Y-41778006D01*
X104456231Y-41837550D01*
X104763194Y-41710414D01*
X105125386Y-41390448D01*
X105337562Y-40956233D01*
X105278538Y-40765000D01*
X104265000Y-40765000D01*
X104015000Y-40765000D01*
X103001462Y-40765000D01*
X102942438Y-40956233D01*
X102797562Y-40956233D01*
X102738538Y-40765000D01*
X101725000Y-40765000D01*
X101475000Y-40765000D01*
X100461462Y-40765000D01*
X100402438Y-40956233D01*
X100257562Y-40956233D01*
X100198538Y-40765000D01*
X99185000Y-40765000D01*
X98935000Y-40765000D01*
X97921462Y-40765000D01*
X97862438Y-40956233D01*
X97717562Y-40956233D01*
X97658538Y-40765000D01*
X96645000Y-40765000D01*
X96395000Y-40765000D01*
X95381462Y-40765000D01*
X95322438Y-40956233D01*
X95177562Y-40956233D01*
X95118538Y-40765000D01*
X94105000Y-40765000D01*
X93855000Y-40765000D01*
X92841462Y-40765000D01*
X92782438Y-40956233D01*
X92637562Y-40956233D01*
X92578538Y-40765000D01*
X91565000Y-40765000D01*
X91315000Y-40765000D01*
X90301462Y-40765000D01*
X90242438Y-40956233D01*
X90097562Y-40956233D01*
X90038538Y-40765000D01*
X89025000Y-40765000D01*
X88775000Y-40765000D01*
X87761462Y-40765000D01*
X87702438Y-40956233D01*
X87598600Y-40956233D01*
X87598600Y-40858750D01*
X87504850Y-40765000D01*
X86485000Y-40765000D01*
X86235000Y-40765000D01*
X85215150Y-40765000D01*
X85121400Y-40858750D01*
X78861000Y-40858750D01*
X78767250Y-40765000D01*
X77595000Y-40765000D01*
X77345000Y-40765000D01*
X76172750Y-40765000D01*
X76079000Y-40858750D01*
X75330000Y-40858750D01*
X75330000Y-39701808D01*
X76079000Y-39701808D01*
X76079000Y-40421250D01*
X76172750Y-40515000D01*
X77345000Y-40515000D01*
X77345000Y-39495150D01*
X77595000Y-39495150D01*
X77595000Y-40515000D01*
X78767250Y-40515000D01*
X78861000Y-40421250D01*
X78861000Y-39701808D01*
X85121400Y-39701808D01*
X85121400Y-40421250D01*
X85215150Y-40515000D01*
X86235000Y-40515000D01*
X86235000Y-39495150D01*
X86485000Y-39495150D01*
X86485000Y-40515000D01*
X87504850Y-40515000D01*
X87598600Y-40421250D01*
X87598600Y-40323767D01*
X87702438Y-40323767D01*
X87761462Y-40515000D01*
X88775000Y-40515000D01*
X88775000Y-39501994D01*
X89025000Y-39501994D01*
X89025000Y-40515000D01*
X90038538Y-40515000D01*
X90097562Y-40323767D01*
X90242438Y-40323767D01*
X90301462Y-40515000D01*
X91315000Y-40515000D01*
X91315000Y-39501994D01*
X91565000Y-39501994D01*
X91565000Y-40515000D01*
X92578538Y-40515000D01*
X92637562Y-40323767D01*
X92782438Y-40323767D01*
X92841462Y-40515000D01*
X93855000Y-40515000D01*
X93855000Y-39501994D01*
X94105000Y-39501994D01*
X94105000Y-40515000D01*
X95118538Y-40515000D01*
X95177562Y-40323767D01*
X95322438Y-40323767D01*
X95381462Y-40515000D01*
X96395000Y-40515000D01*
X96395000Y-39501994D01*
X96645000Y-39501994D01*
X96645000Y-40515000D01*
X97658538Y-40515000D01*
X97717562Y-40323767D01*
X97862438Y-40323767D01*
X97921462Y-40515000D01*
X98935000Y-40515000D01*
X98935000Y-39501994D01*
X99185000Y-39501994D01*
X99185000Y-40515000D01*
X100198538Y-40515000D01*
X100257562Y-40323767D01*
X100402438Y-40323767D01*
X100461462Y-40515000D01*
X101475000Y-40515000D01*
X101475000Y-39501994D01*
X101725000Y-39501994D01*
X101725000Y-40515000D01*
X102738538Y-40515000D01*
X102797562Y-40323767D01*
X102942438Y-40323767D01*
X103001462Y-40515000D01*
X104015000Y-40515000D01*
X104015000Y-39501994D01*
X104265000Y-39501994D01*
X104265000Y-40515000D01*
X105278538Y-40515000D01*
X105337562Y-40323767D01*
X105125386Y-39889552D01*
X104763194Y-39569586D01*
X104456231Y-39442450D01*
X104265000Y-39501994D01*
X104015000Y-39501994D01*
X103823769Y-39442450D01*
X103516806Y-39569586D01*
X103154614Y-39889552D01*
X102942438Y-40323767D01*
X102797562Y-40323767D01*
X102585386Y-39889552D01*
X102223194Y-39569586D01*
X101916231Y-39442450D01*
X101725000Y-39501994D01*
X101475000Y-39501994D01*
X101283769Y-39442450D01*
X100976806Y-39569586D01*
X100614614Y-39889552D01*
X100402438Y-40323767D01*
X100257562Y-40323767D01*
X100045386Y-39889552D01*
X99683194Y-39569586D01*
X99376231Y-39442450D01*
X99185000Y-39501994D01*
X98935000Y-39501994D01*
X98743769Y-39442450D01*
X98436806Y-39569586D01*
X98074614Y-39889552D01*
X97862438Y-40323767D01*
X97717562Y-40323767D01*
X97505386Y-39889552D01*
X97143194Y-39569586D01*
X96836231Y-39442450D01*
X96645000Y-39501994D01*
X96395000Y-39501994D01*
X96203769Y-39442450D01*
X95896806Y-39569586D01*
X95534614Y-39889552D01*
X95322438Y-40323767D01*
X95177562Y-40323767D01*
X94965386Y-39889552D01*
X94603194Y-39569586D01*
X94296231Y-39442450D01*
X94105000Y-39501994D01*
X93855000Y-39501994D01*
X93663769Y-39442450D01*
X93356806Y-39569586D01*
X92994614Y-39889552D01*
X92782438Y-40323767D01*
X92637562Y-40323767D01*
X92425386Y-39889552D01*
X92063194Y-39569586D01*
X91756231Y-39442450D01*
X91565000Y-39501994D01*
X91315000Y-39501994D01*
X91123769Y-39442450D01*
X90816806Y-39569586D01*
X90454614Y-39889552D01*
X90242438Y-40323767D01*
X90097562Y-40323767D01*
X89885386Y-39889552D01*
X89523194Y-39569586D01*
X89216231Y-39442450D01*
X89025000Y-39501994D01*
X88775000Y-39501994D01*
X88583769Y-39442450D01*
X88276806Y-39569586D01*
X87914614Y-39889552D01*
X87702438Y-40323767D01*
X87598600Y-40323767D01*
X87598600Y-39701808D01*
X87541510Y-39563980D01*
X87436021Y-39458490D01*
X87298192Y-39401400D01*
X86578750Y-39401400D01*
X86485000Y-39495150D01*
X86235000Y-39495150D01*
X86141250Y-39401400D01*
X85421808Y-39401400D01*
X85283979Y-39458490D01*
X85178490Y-39563980D01*
X85121400Y-39701808D01*
X78861000Y-39701808D01*
X78803910Y-39563979D01*
X78698420Y-39458490D01*
X78560592Y-39401400D01*
X77688750Y-39401400D01*
X77595000Y-39495150D01*
X77345000Y-39495150D01*
X77251250Y-39401400D01*
X76379408Y-39401400D01*
X76241580Y-39458490D01*
X76136090Y-39563979D01*
X76079000Y-39701808D01*
X75330000Y-39701808D01*
X75330000Y-38500000D01*
X87630000Y-38500000D01*
X87735575Y-38479000D01*
X87884000Y-38479000D01*
X87932632Y-38469152D01*
X87973601Y-38441159D01*
X88000451Y-38399432D01*
X88009000Y-38354000D01*
X88009000Y-38205575D01*
X88030000Y-38100000D01*
X88030000Y-35391779D01*
X88447592Y-35391779D01*
X88805668Y-36258389D01*
X89468124Y-36922002D01*
X90334107Y-37281590D01*
X91271779Y-37282408D01*
X92138389Y-36924332D01*
X92802002Y-36261876D01*
X93161590Y-35395893D01*
X93162408Y-34458221D01*
X92804332Y-33591611D01*
X92141876Y-32927998D01*
X91275893Y-32568410D01*
X90338221Y-32567592D01*
X89471611Y-32925668D01*
X88807998Y-33588124D01*
X88448410Y-34454107D01*
X88447592Y-35391779D01*
X88030000Y-35391779D01*
X88030000Y-32150000D01*
X93580000Y-32150000D01*
X93580000Y-38100000D01*
G36*
X92541500Y-51645500D02*
X93966500Y-51645500D01*
X93966500Y-51625500D01*
X94216500Y-51625500D01*
X94216500Y-51645500D01*
X94236500Y-51645500D01*
X94236500Y-51895500D01*
X94216500Y-51895500D01*
X94216500Y-51915500D01*
X93966500Y-51915500D01*
X93966500Y-51895500D01*
X92541500Y-51895500D01*
X92541500Y-51915500D01*
X92291500Y-51915500D01*
X92291500Y-51895500D01*
X92271500Y-51895500D01*
X92271500Y-51645500D01*
X92291500Y-51645500D01*
X92291500Y-51625500D01*
X92541500Y-51625500D01*
X92541500Y-51645500D01*
X92541500Y-51645500D01*
G37*
X92541500Y-51645500D02*
X93966500Y-51645500D01*
X93966500Y-51625500D01*
X94216500Y-51625500D01*
X94216500Y-51645500D01*
X94236500Y-51645500D01*
X94236500Y-51895500D01*
X94216500Y-51895500D01*
X94216500Y-51915500D01*
X93966500Y-51915500D01*
X93966500Y-51895500D01*
X92541500Y-51895500D01*
X92541500Y-51915500D01*
X92291500Y-51915500D01*
X92291500Y-51895500D01*
X92271500Y-51895500D01*
X92271500Y-51645500D01*
X92291500Y-51645500D01*
X92291500Y-51625500D01*
X92541500Y-51625500D01*
X92541500Y-51645500D01*
M02*
