G04 #@! TF.FileFunction,Legend,Bot*
%FSLAX46Y46*%
G04 Gerber Fmt 4.6, Leading zero omitted, Abs format (unit mm)*
G04 Created by KiCad (PCBNEW 4.0.1-stable) date 6/22/2016 1:27:22 PM*
%MOMM*%
G01*
G04 APERTURE LIST*
%ADD10C,0.100000*%
%ADD11C,0.200000*%
%ADD12C,0.150000*%
G04 APERTURE END LIST*
D10*
D11*
X105765619Y-62401810D02*
X105651333Y-62439905D01*
X105460857Y-62439905D01*
X105384667Y-62401810D01*
X105346571Y-62363714D01*
X105308476Y-62287524D01*
X105308476Y-62211333D01*
X105346571Y-62135143D01*
X105384667Y-62097048D01*
X105460857Y-62058952D01*
X105613238Y-62020857D01*
X105689429Y-61982762D01*
X105727524Y-61944667D01*
X105765619Y-61868476D01*
X105765619Y-61792286D01*
X105727524Y-61716095D01*
X105689429Y-61678000D01*
X105613238Y-61639905D01*
X105422762Y-61639905D01*
X105308476Y-61678000D01*
X104965619Y-62439905D02*
X104965619Y-61906571D01*
X104965619Y-61639905D02*
X105003714Y-61678000D01*
X104965619Y-61716095D01*
X104927524Y-61678000D01*
X104965619Y-61639905D01*
X104965619Y-61716095D01*
X104584667Y-61906571D02*
X104584667Y-62439905D01*
X104584667Y-61982762D02*
X104546572Y-61944667D01*
X104470381Y-61906571D01*
X104356095Y-61906571D01*
X104279905Y-61944667D01*
X104241810Y-62020857D01*
X104241810Y-62439905D01*
X103518000Y-61906571D02*
X103518000Y-62554190D01*
X103556095Y-62630381D01*
X103594190Y-62668476D01*
X103670381Y-62706571D01*
X103784666Y-62706571D01*
X103860857Y-62668476D01*
X103518000Y-62401810D02*
X103594190Y-62439905D01*
X103746571Y-62439905D01*
X103822762Y-62401810D01*
X103860857Y-62363714D01*
X103898952Y-62287524D01*
X103898952Y-62058952D01*
X103860857Y-61982762D01*
X103822762Y-61944667D01*
X103746571Y-61906571D01*
X103594190Y-61906571D01*
X103518000Y-61944667D01*
X103022761Y-62439905D02*
X103098952Y-62401810D01*
X103137047Y-62325619D01*
X103137047Y-61639905D01*
X102413237Y-62401810D02*
X102489427Y-62439905D01*
X102641808Y-62439905D01*
X102717999Y-62401810D01*
X102756094Y-62325619D01*
X102756094Y-62020857D01*
X102717999Y-61944667D01*
X102641808Y-61906571D01*
X102489427Y-61906571D01*
X102413237Y-61944667D01*
X102375142Y-62020857D01*
X102375142Y-62097048D01*
X102756094Y-62173238D01*
X101422761Y-62439905D02*
X101422761Y-61639905D01*
X101117999Y-61639905D01*
X101041808Y-61678000D01*
X101003713Y-61716095D01*
X100965618Y-61792286D01*
X100965618Y-61906571D01*
X101003713Y-61982762D01*
X101041808Y-62020857D01*
X101117999Y-62058952D01*
X101422761Y-62058952D01*
X100508475Y-62439905D02*
X100584666Y-62401810D01*
X100622761Y-62363714D01*
X100660856Y-62287524D01*
X100660856Y-62058952D01*
X100622761Y-61982762D01*
X100584666Y-61944667D01*
X100508475Y-61906571D01*
X100394189Y-61906571D01*
X100317999Y-61944667D01*
X100279904Y-61982762D01*
X100241808Y-62058952D01*
X100241808Y-62287524D01*
X100279904Y-62363714D01*
X100317999Y-62401810D01*
X100394189Y-62439905D01*
X100508475Y-62439905D01*
X99975141Y-61906571D02*
X99822760Y-62439905D01*
X99670379Y-62058952D01*
X99517998Y-62439905D01*
X99365617Y-61906571D01*
X98756094Y-62401810D02*
X98832284Y-62439905D01*
X98984665Y-62439905D01*
X99060856Y-62401810D01*
X99098951Y-62325619D01*
X99098951Y-62020857D01*
X99060856Y-61944667D01*
X98984665Y-61906571D01*
X98832284Y-61906571D01*
X98756094Y-61944667D01*
X98717999Y-62020857D01*
X98717999Y-62097048D01*
X99098951Y-62173238D01*
X98375142Y-62439905D02*
X98375142Y-61906571D01*
X98375142Y-62058952D02*
X98337047Y-61982762D01*
X98298951Y-61944667D01*
X98222761Y-61906571D01*
X98146570Y-61906571D01*
X97308475Y-62401810D02*
X97194189Y-62439905D01*
X97003713Y-62439905D01*
X96927523Y-62401810D01*
X96889427Y-62363714D01*
X96851332Y-62287524D01*
X96851332Y-62211333D01*
X96889427Y-62135143D01*
X96927523Y-62097048D01*
X97003713Y-62058952D01*
X97156094Y-62020857D01*
X97232285Y-61982762D01*
X97270380Y-61944667D01*
X97308475Y-61868476D01*
X97308475Y-61792286D01*
X97270380Y-61716095D01*
X97232285Y-61678000D01*
X97156094Y-61639905D01*
X96965618Y-61639905D01*
X96851332Y-61678000D01*
X96165618Y-61906571D02*
X96165618Y-62439905D01*
X96508475Y-61906571D02*
X96508475Y-62325619D01*
X96470380Y-62401810D01*
X96394189Y-62439905D01*
X96279903Y-62439905D01*
X96203713Y-62401810D01*
X96165618Y-62363714D01*
X95784665Y-61906571D02*
X95784665Y-62706571D01*
X95784665Y-61944667D02*
X95708474Y-61906571D01*
X95556093Y-61906571D01*
X95479903Y-61944667D01*
X95441808Y-61982762D01*
X95403712Y-62058952D01*
X95403712Y-62287524D01*
X95441808Y-62363714D01*
X95479903Y-62401810D01*
X95556093Y-62439905D01*
X95708474Y-62439905D01*
X95784665Y-62401810D01*
X95060855Y-61906571D02*
X95060855Y-62706571D01*
X95060855Y-61944667D02*
X94984664Y-61906571D01*
X94832283Y-61906571D01*
X94756093Y-61944667D01*
X94717998Y-61982762D01*
X94679902Y-62058952D01*
X94679902Y-62287524D01*
X94717998Y-62363714D01*
X94756093Y-62401810D01*
X94832283Y-62439905D01*
X94984664Y-62439905D01*
X95060855Y-62401810D01*
X94222759Y-62439905D02*
X94298950Y-62401810D01*
X94337045Y-62325619D01*
X94337045Y-61639905D01*
X93994187Y-61906571D02*
X93803711Y-62439905D01*
X93613235Y-61906571D02*
X93803711Y-62439905D01*
X93879902Y-62630381D01*
X93917997Y-62668476D01*
X93994187Y-62706571D01*
X105346571Y-63759905D02*
X105727524Y-63759905D01*
X105727524Y-62959905D01*
X104965619Y-63759905D02*
X105041810Y-63721810D01*
X105079905Y-63683714D01*
X105118000Y-63607524D01*
X105118000Y-63378952D01*
X105079905Y-63302762D01*
X105041810Y-63264667D01*
X104965619Y-63226571D01*
X104851333Y-63226571D01*
X104775143Y-63264667D01*
X104737048Y-63302762D01*
X104698952Y-63378952D01*
X104698952Y-63607524D01*
X104737048Y-63683714D01*
X104775143Y-63721810D01*
X104851333Y-63759905D01*
X104965619Y-63759905D01*
X104432285Y-63226571D02*
X104279904Y-63759905D01*
X104127523Y-63378952D01*
X103975142Y-63759905D01*
X103822761Y-63226571D01*
X102908476Y-63759905D02*
X102908476Y-62959905D01*
X102718000Y-62959905D01*
X102603714Y-62998000D01*
X102527523Y-63074190D01*
X102489428Y-63150381D01*
X102451333Y-63302762D01*
X102451333Y-63417048D01*
X102489428Y-63569429D01*
X102527523Y-63645619D01*
X102603714Y-63721810D01*
X102718000Y-63759905D01*
X102908476Y-63759905D01*
X102108476Y-63759905D02*
X102108476Y-63226571D01*
X102108476Y-63378952D02*
X102070381Y-63302762D01*
X102032285Y-63264667D01*
X101956095Y-63226571D01*
X101879904Y-63226571D01*
X101498952Y-63759905D02*
X101575143Y-63721810D01*
X101613238Y-63683714D01*
X101651333Y-63607524D01*
X101651333Y-63378952D01*
X101613238Y-63302762D01*
X101575143Y-63264667D01*
X101498952Y-63226571D01*
X101384666Y-63226571D01*
X101308476Y-63264667D01*
X101270381Y-63302762D01*
X101232285Y-63378952D01*
X101232285Y-63607524D01*
X101270381Y-63683714D01*
X101308476Y-63721810D01*
X101384666Y-63759905D01*
X101498952Y-63759905D01*
X100889428Y-63226571D02*
X100889428Y-64026571D01*
X100889428Y-63264667D02*
X100813237Y-63226571D01*
X100660856Y-63226571D01*
X100584666Y-63264667D01*
X100546571Y-63302762D01*
X100508475Y-63378952D01*
X100508475Y-63607524D01*
X100546571Y-63683714D01*
X100584666Y-63721810D01*
X100660856Y-63759905D01*
X100813237Y-63759905D01*
X100889428Y-63721810D01*
X100051332Y-63759905D02*
X100127523Y-63721810D01*
X100165618Y-63683714D01*
X100203713Y-63607524D01*
X100203713Y-63378952D01*
X100165618Y-63302762D01*
X100127523Y-63264667D01*
X100051332Y-63226571D01*
X99937046Y-63226571D01*
X99860856Y-63264667D01*
X99822761Y-63302762D01*
X99784665Y-63378952D01*
X99784665Y-63607524D01*
X99822761Y-63683714D01*
X99860856Y-63721810D01*
X99937046Y-63759905D01*
X100051332Y-63759905D01*
X99098951Y-63226571D02*
X99098951Y-63759905D01*
X99441808Y-63226571D02*
X99441808Y-63645619D01*
X99403713Y-63721810D01*
X99327522Y-63759905D01*
X99213236Y-63759905D01*
X99137046Y-63721810D01*
X99098951Y-63683714D01*
X98832284Y-63226571D02*
X98527522Y-63226571D01*
X98717998Y-62959905D02*
X98717998Y-63645619D01*
X98679903Y-63721810D01*
X98603712Y-63759905D01*
X98527522Y-63759905D01*
X97689426Y-63531333D02*
X97308474Y-63531333D01*
X97765617Y-63759905D02*
X97498950Y-62959905D01*
X97232283Y-63759905D01*
X96622760Y-63759905D02*
X96622760Y-62959905D01*
X96622760Y-63721810D02*
X96698950Y-63759905D01*
X96851331Y-63759905D01*
X96927522Y-63721810D01*
X96965617Y-63683714D01*
X97003712Y-63607524D01*
X97003712Y-63378952D01*
X96965617Y-63302762D01*
X96927522Y-63264667D01*
X96851331Y-63226571D01*
X96698950Y-63226571D01*
X96622760Y-63264667D01*
X96241807Y-63226571D02*
X96241807Y-63912286D01*
X96279902Y-63988476D01*
X96356093Y-64026571D01*
X96394188Y-64026571D01*
X96241807Y-62959905D02*
X96279902Y-62998000D01*
X96241807Y-63036095D01*
X96203712Y-62998000D01*
X96241807Y-62959905D01*
X96241807Y-63036095D01*
X95517998Y-63226571D02*
X95517998Y-63759905D01*
X95860855Y-63226571D02*
X95860855Y-63645619D01*
X95822760Y-63721810D01*
X95746569Y-63759905D01*
X95632283Y-63759905D01*
X95556093Y-63721810D01*
X95517998Y-63683714D01*
X95175140Y-63721810D02*
X95098950Y-63759905D01*
X94946569Y-63759905D01*
X94870378Y-63721810D01*
X94832283Y-63645619D01*
X94832283Y-63607524D01*
X94870378Y-63531333D01*
X94946569Y-63493238D01*
X95060854Y-63493238D01*
X95137045Y-63455143D01*
X95175140Y-63378952D01*
X95175140Y-63340857D01*
X95137045Y-63264667D01*
X95060854Y-63226571D01*
X94946569Y-63226571D01*
X94870378Y-63264667D01*
X94603712Y-63226571D02*
X94298950Y-63226571D01*
X94489426Y-62959905D02*
X94489426Y-63645619D01*
X94451331Y-63721810D01*
X94375140Y-63759905D01*
X94298950Y-63759905D01*
X93689426Y-63759905D02*
X93689426Y-63340857D01*
X93727521Y-63264667D01*
X93803711Y-63226571D01*
X93956092Y-63226571D01*
X94032283Y-63264667D01*
X93689426Y-63721810D02*
X93765616Y-63759905D01*
X93956092Y-63759905D01*
X94032283Y-63721810D01*
X94070378Y-63645619D01*
X94070378Y-63569429D01*
X94032283Y-63493238D01*
X93956092Y-63455143D01*
X93765616Y-63455143D01*
X93689426Y-63417048D01*
X93308473Y-63759905D02*
X93308473Y-62959905D01*
X93308473Y-63264667D02*
X93232282Y-63226571D01*
X93079901Y-63226571D01*
X93003711Y-63264667D01*
X92965616Y-63302762D01*
X92927520Y-63378952D01*
X92927520Y-63607524D01*
X92965616Y-63683714D01*
X93003711Y-63721810D01*
X93079901Y-63759905D01*
X93232282Y-63759905D01*
X93308473Y-63721810D01*
X92470377Y-63759905D02*
X92546568Y-63721810D01*
X92584663Y-63645619D01*
X92584663Y-62959905D01*
X91860853Y-63721810D02*
X91937043Y-63759905D01*
X92089424Y-63759905D01*
X92165615Y-63721810D01*
X92203710Y-63645619D01*
X92203710Y-63340857D01*
X92165615Y-63264667D01*
X92089424Y-63226571D01*
X91937043Y-63226571D01*
X91860853Y-63264667D01*
X91822758Y-63340857D01*
X91822758Y-63417048D01*
X92203710Y-63493238D01*
X80600476Y-43122857D02*
X80333809Y-43122857D01*
X80219523Y-43541905D02*
X80600476Y-43541905D01*
X80600476Y-42741905D01*
X80219523Y-42741905D01*
X79876666Y-43541905D02*
X79876666Y-42741905D01*
X79419523Y-43541905D01*
X79419523Y-42741905D01*
X82130095Y-62439905D02*
X82130095Y-61639905D01*
X81672952Y-62439905D01*
X81672952Y-61639905D01*
X81292000Y-62020857D02*
X81025333Y-62020857D01*
X80911047Y-62439905D02*
X81292000Y-62439905D01*
X81292000Y-61639905D01*
X80911047Y-61639905D01*
X80606285Y-62401810D02*
X80491999Y-62439905D01*
X80301523Y-62439905D01*
X80225333Y-62401810D01*
X80187237Y-62363714D01*
X80149142Y-62287524D01*
X80149142Y-62211333D01*
X80187237Y-62135143D01*
X80225333Y-62097048D01*
X80301523Y-62058952D01*
X80453904Y-62020857D01*
X80530095Y-61982762D01*
X80568190Y-61944667D01*
X80606285Y-61868476D01*
X80606285Y-61792286D01*
X80568190Y-61716095D01*
X80530095Y-61678000D01*
X80453904Y-61639905D01*
X80263428Y-61639905D01*
X80149142Y-61678000D01*
X79806285Y-62439905D02*
X79806285Y-61639905D01*
X79806285Y-62020857D02*
X79349142Y-62020857D01*
X79349142Y-62439905D02*
X79349142Y-61639905D01*
X78472952Y-62058952D02*
X78511047Y-62020857D01*
X78587237Y-61982762D01*
X78663428Y-61982762D01*
X78739618Y-62020857D01*
X78777714Y-62058952D01*
X78815809Y-62135143D01*
X78815809Y-62211333D01*
X78777714Y-62287524D01*
X78739618Y-62325619D01*
X78663428Y-62363714D01*
X78587237Y-62363714D01*
X78511047Y-62325619D01*
X78472952Y-62287524D01*
X78472952Y-61982762D02*
X78472952Y-62287524D01*
X78434856Y-62325619D01*
X78396761Y-62325619D01*
X78320571Y-62287524D01*
X78282476Y-62211333D01*
X78282476Y-62020857D01*
X78358666Y-61906571D01*
X78472952Y-61830381D01*
X78625333Y-61792286D01*
X78777714Y-61830381D01*
X78891999Y-61906571D01*
X78968190Y-62020857D01*
X79006285Y-62173238D01*
X78968190Y-62325619D01*
X78891999Y-62439905D01*
X78777714Y-62516095D01*
X78625333Y-62554190D01*
X78472952Y-62516095D01*
X78358666Y-62439905D01*
X77939619Y-62439905D02*
X77939619Y-61639905D01*
X77482476Y-62439905D01*
X77482476Y-61639905D01*
X76872952Y-61639905D02*
X76872952Y-62211333D01*
X76911048Y-62325619D01*
X76987238Y-62401810D01*
X77101524Y-62439905D01*
X77177714Y-62439905D01*
X76492000Y-62439905D02*
X76492000Y-61639905D01*
X76225334Y-61639905D02*
X75768191Y-61639905D01*
X75996762Y-62439905D02*
X75996762Y-61639905D01*
X83120573Y-62998000D02*
X83196764Y-62959905D01*
X83311049Y-62959905D01*
X83425335Y-62998000D01*
X83501526Y-63074190D01*
X83539621Y-63150381D01*
X83577716Y-63302762D01*
X83577716Y-63417048D01*
X83539621Y-63569429D01*
X83501526Y-63645619D01*
X83425335Y-63721810D01*
X83311049Y-63759905D01*
X83234859Y-63759905D01*
X83120573Y-63721810D01*
X83082478Y-63683714D01*
X83082478Y-63417048D01*
X83234859Y-63417048D01*
X82739621Y-63759905D02*
X82739621Y-62959905D01*
X82434859Y-62959905D01*
X82358668Y-62998000D01*
X82320573Y-63036095D01*
X82282478Y-63112286D01*
X82282478Y-63226571D01*
X82320573Y-63302762D01*
X82358668Y-63340857D01*
X82434859Y-63378952D01*
X82739621Y-63378952D01*
X81558668Y-63759905D02*
X81939621Y-63759905D01*
X81939621Y-62959905D01*
X81368192Y-63226571D02*
X81177716Y-63759905D01*
X80987240Y-63226571D01*
X80758668Y-62959905D02*
X80263430Y-62959905D01*
X80530097Y-63264667D01*
X80415811Y-63264667D01*
X80339621Y-63302762D01*
X80301525Y-63340857D01*
X80263430Y-63417048D01*
X80263430Y-63607524D01*
X80301525Y-63683714D01*
X80339621Y-63721810D01*
X80415811Y-63759905D01*
X80644383Y-63759905D01*
X80720573Y-63721810D01*
X80758668Y-63683714D01*
X79272954Y-63150381D02*
X79349144Y-63112286D01*
X79501525Y-63112286D01*
X79577716Y-63150381D01*
X79653906Y-63226571D01*
X79692001Y-63302762D01*
X79692001Y-63455143D01*
X79653906Y-63531333D01*
X79577716Y-63607524D01*
X79501525Y-63645619D01*
X79349144Y-63645619D01*
X79272954Y-63607524D01*
X79425335Y-62845619D02*
X79615811Y-62883714D01*
X79806287Y-62998000D01*
X79920573Y-63188476D01*
X79958668Y-63378952D01*
X79920573Y-63569429D01*
X79806287Y-63759905D01*
X79615811Y-63874190D01*
X79425335Y-63912286D01*
X79234859Y-63874190D01*
X79044382Y-63759905D01*
X78930097Y-63569429D01*
X78892001Y-63378952D01*
X78930097Y-63188476D01*
X79044382Y-62998000D01*
X79234859Y-62883714D01*
X79425335Y-62845619D01*
X78587239Y-63036095D02*
X78549144Y-62998000D01*
X78472953Y-62959905D01*
X78282477Y-62959905D01*
X78206287Y-62998000D01*
X78168191Y-63036095D01*
X78130096Y-63112286D01*
X78130096Y-63188476D01*
X78168191Y-63302762D01*
X78625334Y-63759905D01*
X78130096Y-63759905D01*
X77634858Y-62959905D02*
X77558667Y-62959905D01*
X77482477Y-62998000D01*
X77444382Y-63036095D01*
X77406286Y-63112286D01*
X77368191Y-63264667D01*
X77368191Y-63455143D01*
X77406286Y-63607524D01*
X77444382Y-63683714D01*
X77482477Y-63721810D01*
X77558667Y-63759905D01*
X77634858Y-63759905D01*
X77711048Y-63721810D01*
X77749144Y-63683714D01*
X77787239Y-63607524D01*
X77825334Y-63455143D01*
X77825334Y-63264667D01*
X77787239Y-63112286D01*
X77749144Y-63036095D01*
X77711048Y-62998000D01*
X77634858Y-62959905D01*
X76606286Y-63759905D02*
X77063429Y-63759905D01*
X76834858Y-63759905D02*
X76834858Y-62959905D01*
X76911048Y-63074190D01*
X76987239Y-63150381D01*
X77063429Y-63188476D01*
X75920572Y-62959905D02*
X76072953Y-62959905D01*
X76149143Y-62998000D01*
X76187238Y-63036095D01*
X76263429Y-63150381D01*
X76301524Y-63302762D01*
X76301524Y-63607524D01*
X76263429Y-63683714D01*
X76225334Y-63721810D01*
X76149143Y-63759905D01*
X75996762Y-63759905D01*
X75920572Y-63721810D01*
X75882476Y-63683714D01*
X75844381Y-63607524D01*
X75844381Y-63417048D01*
X75882476Y-63340857D01*
X75920572Y-63302762D01*
X75996762Y-63264667D01*
X76149143Y-63264667D01*
X76225334Y-63302762D01*
X76263429Y-63340857D01*
X76301524Y-63417048D01*
X96430953Y-46424905D02*
X96164286Y-47224905D01*
X95897619Y-46424905D01*
X95288096Y-47224905D02*
X95288096Y-46805857D01*
X95326191Y-46729667D01*
X95402381Y-46691571D01*
X95554762Y-46691571D01*
X95630953Y-46729667D01*
X95288096Y-47186810D02*
X95364286Y-47224905D01*
X95554762Y-47224905D01*
X95630953Y-47186810D01*
X95669048Y-47110619D01*
X95669048Y-47034429D01*
X95630953Y-46958238D01*
X95554762Y-46920143D01*
X95364286Y-46920143D01*
X95288096Y-46882048D01*
X94564286Y-47224905D02*
X94564286Y-46424905D01*
X94564286Y-47186810D02*
X94640476Y-47224905D01*
X94792857Y-47224905D01*
X94869048Y-47186810D01*
X94907143Y-47148714D01*
X94945238Y-47072524D01*
X94945238Y-46843952D01*
X94907143Y-46767762D01*
X94869048Y-46729667D01*
X94792857Y-46691571D01*
X94640476Y-46691571D01*
X94564286Y-46729667D01*
X94183333Y-46691571D02*
X94183333Y-47377286D01*
X94221428Y-47453476D01*
X94297619Y-47491571D01*
X94335714Y-47491571D01*
X94183333Y-46424905D02*
X94221428Y-46463000D01*
X94183333Y-46501095D01*
X94145238Y-46463000D01*
X94183333Y-46424905D01*
X94183333Y-46501095D01*
X80448095Y-45281905D02*
X80295714Y-45281905D01*
X80219523Y-45320000D01*
X80143333Y-45396190D01*
X80105238Y-45548571D01*
X80105238Y-45815238D01*
X80143333Y-45967619D01*
X80219523Y-46043810D01*
X80295714Y-46081905D01*
X80448095Y-46081905D01*
X80524285Y-46043810D01*
X80600476Y-45967619D01*
X80638571Y-45815238D01*
X80638571Y-45548571D01*
X80600476Y-45396190D01*
X80524285Y-45320000D01*
X80448095Y-45281905D01*
X79762381Y-45548571D02*
X79762381Y-46081905D01*
X79762381Y-45624762D02*
X79724286Y-45586667D01*
X79648095Y-45548571D01*
X79533809Y-45548571D01*
X79457619Y-45586667D01*
X79419524Y-45662857D01*
X79419524Y-46081905D01*
X80797333Y-40201905D02*
X80644952Y-40201905D01*
X80568761Y-40240000D01*
X80492571Y-40316190D01*
X80454476Y-40468571D01*
X80454476Y-40735238D01*
X80492571Y-40887619D01*
X80568761Y-40963810D01*
X80644952Y-41001905D01*
X80797333Y-41001905D01*
X80873523Y-40963810D01*
X80949714Y-40887619D01*
X80987809Y-40735238D01*
X80987809Y-40468571D01*
X80949714Y-40316190D01*
X80873523Y-40240000D01*
X80797333Y-40201905D01*
X80225905Y-40468571D02*
X79921143Y-40468571D01*
X80111619Y-41001905D02*
X80111619Y-40316190D01*
X80073524Y-40240000D01*
X79997333Y-40201905D01*
X79921143Y-40201905D01*
X79768762Y-40468571D02*
X79464000Y-40468571D01*
X79654476Y-41001905D02*
X79654476Y-40316190D01*
X79616381Y-40240000D01*
X79540190Y-40201905D01*
X79464000Y-40201905D01*
X77850952Y-57181762D02*
X77089048Y-57181762D01*
X77698571Y-57410333D02*
X77241428Y-57410333D01*
X77470000Y-56838905D02*
X77470000Y-57181762D01*
X77393809Y-57638905D02*
X77546190Y-57638905D01*
X80390952Y-57221429D02*
X79629047Y-57221429D01*
X80009999Y-57602381D02*
X80009999Y-56840476D01*
X86708953Y-53155905D02*
X86442286Y-53955905D01*
X86175619Y-53155905D01*
X85908953Y-53955905D02*
X85908953Y-53422571D01*
X85908953Y-53155905D02*
X85947048Y-53194000D01*
X85908953Y-53232095D01*
X85870858Y-53194000D01*
X85908953Y-53155905D01*
X85908953Y-53232095D01*
X85528001Y-53422571D02*
X85528001Y-53955905D01*
X85528001Y-53498762D02*
X85489906Y-53460667D01*
X85413715Y-53422571D01*
X85299429Y-53422571D01*
X85223239Y-53460667D01*
X85185144Y-53536857D01*
X85185144Y-53955905D01*
X84194667Y-53917810D02*
X84804191Y-53917810D01*
X84194667Y-53765429D02*
X84804191Y-53536857D01*
X84194667Y-53308286D01*
X83889905Y-53155905D02*
X83394667Y-53155905D01*
X83661334Y-53460667D01*
X83547048Y-53460667D01*
X83470858Y-53498762D01*
X83432762Y-53536857D01*
X83394667Y-53613048D01*
X83394667Y-53803524D01*
X83432762Y-53879714D01*
X83470858Y-53917810D01*
X83547048Y-53955905D01*
X83775620Y-53955905D01*
X83851810Y-53917810D01*
X83889905Y-53879714D01*
X82708953Y-53155905D02*
X82861334Y-53155905D01*
X82937524Y-53194000D01*
X82975619Y-53232095D01*
X83051810Y-53346381D01*
X83089905Y-53498762D01*
X83089905Y-53803524D01*
X83051810Y-53879714D01*
X83013715Y-53917810D01*
X82937524Y-53955905D01*
X82785143Y-53955905D01*
X82708953Y-53917810D01*
X82670857Y-53879714D01*
X82632762Y-53803524D01*
X82632762Y-53613048D01*
X82670857Y-53536857D01*
X82708953Y-53498762D01*
X82785143Y-53460667D01*
X82937524Y-53460667D01*
X83013715Y-53498762D01*
X83051810Y-53536857D01*
X83089905Y-53613048D01*
X82366095Y-53422571D02*
X82175619Y-53955905D01*
X81985143Y-53422571D01*
X104520952Y-59721762D02*
X103759048Y-59721762D01*
X104368571Y-59950333D02*
X103911428Y-59950333D01*
X104140000Y-59378905D02*
X104140000Y-59721762D01*
X104063809Y-60178905D02*
X104216190Y-60178905D01*
X101980952Y-59761429D02*
X101219047Y-59761429D01*
X101599999Y-60142381D02*
X101599999Y-59380476D01*
X99745810Y-52495905D02*
X99479143Y-53295905D01*
X99212476Y-52495905D01*
X98831524Y-53295905D02*
X98907715Y-53257810D01*
X98945810Y-53219714D01*
X98983905Y-53143524D01*
X98983905Y-52914952D01*
X98945810Y-52838762D01*
X98907715Y-52800667D01*
X98831524Y-52762571D01*
X98717238Y-52762571D01*
X98641048Y-52800667D01*
X98602953Y-52838762D01*
X98564857Y-52914952D01*
X98564857Y-53143524D01*
X98602953Y-53219714D01*
X98641048Y-53257810D01*
X98717238Y-53295905D01*
X98831524Y-53295905D01*
X97879143Y-52762571D02*
X97879143Y-53295905D01*
X98222000Y-52762571D02*
X98222000Y-53181619D01*
X98183905Y-53257810D01*
X98107714Y-53295905D01*
X97993428Y-53295905D01*
X97917238Y-53257810D01*
X97879143Y-53219714D01*
X97612476Y-52762571D02*
X97307714Y-52762571D01*
X97498190Y-52495905D02*
X97498190Y-53181619D01*
X97460095Y-53257810D01*
X97383904Y-53295905D01*
X97307714Y-53295905D01*
X97041047Y-52876857D02*
X96431523Y-52876857D01*
X96431523Y-53105429D02*
X97041047Y-53105429D01*
X99745810Y-53815905D02*
X99479143Y-54615905D01*
X99212476Y-53815905D01*
X98602953Y-54615905D02*
X98602953Y-54196857D01*
X98641048Y-54120667D01*
X98717238Y-54082571D01*
X98869619Y-54082571D01*
X98945810Y-54120667D01*
X98602953Y-54577810D02*
X98679143Y-54615905D01*
X98869619Y-54615905D01*
X98945810Y-54577810D01*
X98983905Y-54501619D01*
X98983905Y-54425429D01*
X98945810Y-54349238D01*
X98869619Y-54311143D01*
X98679143Y-54311143D01*
X98602953Y-54273048D01*
X97879143Y-54615905D02*
X97879143Y-53815905D01*
X97879143Y-54577810D02*
X97955333Y-54615905D01*
X98107714Y-54615905D01*
X98183905Y-54577810D01*
X98222000Y-54539714D01*
X98260095Y-54463524D01*
X98260095Y-54234952D01*
X98222000Y-54158762D01*
X98183905Y-54120667D01*
X98107714Y-54082571D01*
X97955333Y-54082571D01*
X97879143Y-54120667D01*
X97498190Y-54082571D02*
X97498190Y-54768286D01*
X97536285Y-54844476D01*
X97612476Y-54882571D01*
X97650571Y-54882571D01*
X97498190Y-53815905D02*
X97536285Y-53854000D01*
X97498190Y-53892095D01*
X97460095Y-53854000D01*
X97498190Y-53815905D01*
X97498190Y-53892095D01*
X97117238Y-54311143D02*
X96507714Y-54311143D01*
X96812476Y-54615905D02*
X96812476Y-54006381D01*
X95707714Y-54615905D02*
X96164857Y-54615905D01*
X95936286Y-54615905D02*
X95936286Y-53815905D01*
X96012476Y-53930190D01*
X96088667Y-54006381D01*
X96164857Y-54044476D01*
X95364857Y-54539714D02*
X95326762Y-54577810D01*
X95364857Y-54615905D01*
X95402952Y-54577810D01*
X95364857Y-54539714D01*
X95364857Y-54615905D01*
X94641048Y-53815905D02*
X94793429Y-53815905D01*
X94869619Y-53854000D01*
X94907714Y-53892095D01*
X94983905Y-54006381D01*
X95022000Y-54158762D01*
X95022000Y-54463524D01*
X94983905Y-54539714D01*
X94945810Y-54577810D01*
X94869619Y-54615905D01*
X94717238Y-54615905D01*
X94641048Y-54577810D01*
X94602952Y-54539714D01*
X94564857Y-54463524D01*
X94564857Y-54273048D01*
X94602952Y-54196857D01*
X94641048Y-54158762D01*
X94717238Y-54120667D01*
X94869619Y-54120667D01*
X94945810Y-54158762D01*
X94983905Y-54196857D01*
X95022000Y-54273048D01*
X104469049Y-45027905D02*
X104621430Y-45027905D01*
X104697620Y-45066000D01*
X104735715Y-45104095D01*
X104811906Y-45218381D01*
X104850001Y-45370762D01*
X104850001Y-45675524D01*
X104811906Y-45751714D01*
X104773811Y-45789810D01*
X104697620Y-45827905D01*
X104545239Y-45827905D01*
X104469049Y-45789810D01*
X104430953Y-45751714D01*
X104392858Y-45675524D01*
X104392858Y-45485048D01*
X104430953Y-45408857D01*
X104469049Y-45370762D01*
X104545239Y-45332667D01*
X104697620Y-45332667D01*
X104773811Y-45370762D01*
X104811906Y-45408857D01*
X104850001Y-45485048D01*
X104050001Y-45751714D02*
X104011906Y-45789810D01*
X104050001Y-45827905D01*
X104088096Y-45789810D01*
X104050001Y-45751714D01*
X104050001Y-45827905D01*
X103326192Y-45294571D02*
X103326192Y-45827905D01*
X103516668Y-44989810D02*
X103707144Y-45561238D01*
X103211906Y-45561238D01*
X101954763Y-45027905D02*
X102107144Y-45027905D01*
X102183334Y-45066000D01*
X102221429Y-45104095D01*
X102297620Y-45218381D01*
X102335715Y-45370762D01*
X102335715Y-45675524D01*
X102297620Y-45751714D01*
X102259525Y-45789810D01*
X102183334Y-45827905D01*
X102030953Y-45827905D01*
X101954763Y-45789810D01*
X101916667Y-45751714D01*
X101878572Y-45675524D01*
X101878572Y-45485048D01*
X101916667Y-45408857D01*
X101954763Y-45370762D01*
X102030953Y-45332667D01*
X102183334Y-45332667D01*
X102259525Y-45370762D01*
X102297620Y-45408857D01*
X102335715Y-45485048D01*
X101535715Y-45751714D02*
X101497620Y-45789810D01*
X101535715Y-45827905D01*
X101573810Y-45789810D01*
X101535715Y-45751714D01*
X101535715Y-45827905D01*
X100811906Y-45294571D02*
X100811906Y-45827905D01*
X101002382Y-44989810D02*
X101192858Y-45561238D01*
X100697620Y-45561238D01*
X99859524Y-45027905D02*
X99364286Y-45027905D01*
X99630953Y-45332667D01*
X99516667Y-45332667D01*
X99440477Y-45370762D01*
X99402381Y-45408857D01*
X99364286Y-45485048D01*
X99364286Y-45675524D01*
X99402381Y-45751714D01*
X99440477Y-45789810D01*
X99516667Y-45827905D01*
X99745239Y-45827905D01*
X99821429Y-45789810D01*
X99859524Y-45751714D01*
X99021429Y-45751714D02*
X98983334Y-45789810D01*
X99021429Y-45827905D01*
X99059524Y-45789810D01*
X99021429Y-45751714D01*
X99021429Y-45827905D01*
X98678572Y-45104095D02*
X98640477Y-45066000D01*
X98564286Y-45027905D01*
X98373810Y-45027905D01*
X98297620Y-45066000D01*
X98259524Y-45104095D01*
X98221429Y-45180286D01*
X98221429Y-45256476D01*
X98259524Y-45370762D01*
X98716667Y-45827905D01*
X98221429Y-45827905D01*
X96850000Y-45827905D02*
X97307143Y-45827905D01*
X97078572Y-45827905D02*
X97078572Y-45027905D01*
X97154762Y-45142190D01*
X97230953Y-45218381D01*
X97307143Y-45256476D01*
X96507143Y-45751714D02*
X96469048Y-45789810D01*
X96507143Y-45827905D01*
X96545238Y-45789810D01*
X96507143Y-45751714D01*
X96507143Y-45827905D01*
X95783334Y-45027905D02*
X95935715Y-45027905D01*
X96011905Y-45066000D01*
X96050000Y-45104095D01*
X96126191Y-45218381D01*
X96164286Y-45370762D01*
X96164286Y-45675524D01*
X96126191Y-45751714D01*
X96088096Y-45789810D01*
X96011905Y-45827905D01*
X95859524Y-45827905D01*
X95783334Y-45789810D01*
X95745238Y-45751714D01*
X95707143Y-45675524D01*
X95707143Y-45485048D01*
X95745238Y-45408857D01*
X95783334Y-45370762D01*
X95859524Y-45332667D01*
X96011905Y-45332667D01*
X96088096Y-45370762D01*
X96126191Y-45408857D01*
X96164286Y-45485048D01*
X94602381Y-45027905D02*
X94526190Y-45027905D01*
X94450000Y-45066000D01*
X94411905Y-45104095D01*
X94373809Y-45180286D01*
X94335714Y-45332667D01*
X94335714Y-45523143D01*
X94373809Y-45675524D01*
X94411905Y-45751714D01*
X94450000Y-45789810D01*
X94526190Y-45827905D01*
X94602381Y-45827905D01*
X94678571Y-45789810D01*
X94716667Y-45751714D01*
X94754762Y-45675524D01*
X94792857Y-45523143D01*
X94792857Y-45332667D01*
X94754762Y-45180286D01*
X94716667Y-45104095D01*
X94678571Y-45066000D01*
X94602381Y-45027905D01*
X93992857Y-45751714D02*
X93954762Y-45789810D01*
X93992857Y-45827905D01*
X94030952Y-45789810D01*
X93992857Y-45751714D01*
X93992857Y-45827905D01*
X93497619Y-45370762D02*
X93573810Y-45332667D01*
X93611905Y-45294571D01*
X93650000Y-45218381D01*
X93650000Y-45180286D01*
X93611905Y-45104095D01*
X93573810Y-45066000D01*
X93497619Y-45027905D01*
X93345238Y-45027905D01*
X93269048Y-45066000D01*
X93230952Y-45104095D01*
X93192857Y-45180286D01*
X93192857Y-45218381D01*
X93230952Y-45294571D01*
X93269048Y-45332667D01*
X93345238Y-45370762D01*
X93497619Y-45370762D01*
X93573810Y-45408857D01*
X93611905Y-45446952D01*
X93650000Y-45523143D01*
X93650000Y-45675524D01*
X93611905Y-45751714D01*
X93573810Y-45789810D01*
X93497619Y-45827905D01*
X93345238Y-45827905D01*
X93269048Y-45789810D01*
X93230952Y-45751714D01*
X93192857Y-45675524D01*
X93192857Y-45523143D01*
X93230952Y-45446952D01*
X93269048Y-45408857D01*
X93345238Y-45370762D01*
X92088095Y-45027905D02*
X92011904Y-45027905D01*
X91935714Y-45066000D01*
X91897619Y-45104095D01*
X91859523Y-45180286D01*
X91821428Y-45332667D01*
X91821428Y-45523143D01*
X91859523Y-45675524D01*
X91897619Y-45751714D01*
X91935714Y-45789810D01*
X92011904Y-45827905D01*
X92088095Y-45827905D01*
X92164285Y-45789810D01*
X92202381Y-45751714D01*
X92240476Y-45675524D01*
X92278571Y-45523143D01*
X92278571Y-45332667D01*
X92240476Y-45180286D01*
X92202381Y-45104095D01*
X92164285Y-45066000D01*
X92088095Y-45027905D01*
X91478571Y-45751714D02*
X91440476Y-45789810D01*
X91478571Y-45827905D01*
X91516666Y-45789810D01*
X91478571Y-45751714D01*
X91478571Y-45827905D01*
X90754762Y-45294571D02*
X90754762Y-45827905D01*
X90945238Y-44989810D02*
X91135714Y-45561238D01*
X90640476Y-45561238D01*
X89573809Y-45027905D02*
X89497618Y-45027905D01*
X89421428Y-45066000D01*
X89383333Y-45104095D01*
X89345237Y-45180286D01*
X89307142Y-45332667D01*
X89307142Y-45523143D01*
X89345237Y-45675524D01*
X89383333Y-45751714D01*
X89421428Y-45789810D01*
X89497618Y-45827905D01*
X89573809Y-45827905D01*
X89649999Y-45789810D01*
X89688095Y-45751714D01*
X89726190Y-45675524D01*
X89764285Y-45523143D01*
X89764285Y-45332667D01*
X89726190Y-45180286D01*
X89688095Y-45104095D01*
X89649999Y-45066000D01*
X89573809Y-45027905D01*
X88964285Y-45751714D02*
X88926190Y-45789810D01*
X88964285Y-45827905D01*
X89002380Y-45789810D01*
X88964285Y-45751714D01*
X88964285Y-45827905D01*
X88621428Y-45104095D02*
X88583333Y-45066000D01*
X88507142Y-45027905D01*
X88316666Y-45027905D01*
X88240476Y-45066000D01*
X88202380Y-45104095D01*
X88164285Y-45180286D01*
X88164285Y-45256476D01*
X88202380Y-45370762D01*
X88659523Y-45827905D01*
X88164285Y-45827905D01*
X87059523Y-45027905D02*
X86983332Y-45027905D01*
X86907142Y-45066000D01*
X86869047Y-45104095D01*
X86830951Y-45180286D01*
X86792856Y-45332667D01*
X86792856Y-45523143D01*
X86830951Y-45675524D01*
X86869047Y-45751714D01*
X86907142Y-45789810D01*
X86983332Y-45827905D01*
X87059523Y-45827905D01*
X87135713Y-45789810D01*
X87173809Y-45751714D01*
X87211904Y-45675524D01*
X87249999Y-45523143D01*
X87249999Y-45332667D01*
X87211904Y-45180286D01*
X87173809Y-45104095D01*
X87135713Y-45066000D01*
X87059523Y-45027905D01*
X86449999Y-45751714D02*
X86411904Y-45789810D01*
X86449999Y-45827905D01*
X86488094Y-45789810D01*
X86449999Y-45751714D01*
X86449999Y-45827905D01*
X85649999Y-45827905D02*
X86107142Y-45827905D01*
X85878571Y-45827905D02*
X85878571Y-45027905D01*
X85954761Y-45142190D01*
X86030952Y-45218381D01*
X86107142Y-45256476D01*
D12*
X105410000Y-44450000D02*
X85090000Y-44450000D01*
X87630000Y-39370000D02*
X105410000Y-39370000D01*
X105410000Y-44450000D02*
X105410000Y-39370000D01*
X85090000Y-44450000D02*
X85090000Y-41910000D01*
X84810000Y-40640000D02*
X84810000Y-39090000D01*
X85090000Y-41910000D02*
X87630000Y-41910000D01*
X87630000Y-41910000D02*
X87630000Y-39370000D01*
X84810000Y-39090000D02*
X86360000Y-39090000D01*
X75920000Y-54864000D02*
X75920000Y-56414000D01*
X77470000Y-56414000D02*
X75920000Y-56414000D01*
X76200000Y-53594000D02*
X78740000Y-53594000D01*
X78740000Y-53594000D02*
X78740000Y-56134000D01*
X78740000Y-56134000D02*
X81280000Y-56134000D01*
X81280000Y-56134000D02*
X81280000Y-51054000D01*
X81280000Y-51054000D02*
X76200000Y-51054000D01*
X76200000Y-51054000D02*
X76200000Y-53594000D01*
X105410000Y-51054000D02*
X105410000Y-58674000D01*
X105410000Y-58674000D02*
X100330000Y-58674000D01*
X100330000Y-58674000D02*
X100330000Y-48514000D01*
X100330000Y-48514000D02*
X102870000Y-48514000D01*
X104140000Y-48234000D02*
X105690000Y-48234000D01*
X102870000Y-48514000D02*
X102870000Y-51054000D01*
X102870000Y-51054000D02*
X105410000Y-51054000D01*
X105690000Y-48234000D02*
X105690000Y-49784000D01*
X78740000Y-41910000D02*
X78740000Y-46990000D01*
X78740000Y-46990000D02*
X76200000Y-46990000D01*
X76200000Y-46990000D02*
X76200000Y-41910000D01*
X75920000Y-39090000D02*
X75920000Y-40640000D01*
X76200000Y-41910000D02*
X78740000Y-41910000D01*
X79020000Y-40640000D02*
X79020000Y-39090000D01*
X79020000Y-39090000D02*
X75920000Y-39090000D01*
M02*
