G04 #@! TF.FileFunction,Copper,L2,Bot,Signal*
%FSLAX46Y46*%
G04 Gerber Fmt 4.6, Leading zero omitted, Abs format (unit mm)*
G04 Created by KiCad (PCBNEW 4.0.2-stable) date Saturday, June 18, 2016 'PMt' 05:02:25 PM*
%MOMM*%
G01*
G04 APERTURE LIST*
%ADD10C,0.100000*%
%ADD11R,1.727200X1.727200*%
%ADD12O,1.727200X1.727200*%
%ADD13R,2.032000X1.727200*%
%ADD14O,2.032000X1.727200*%
%ADD15C,4.064000*%
%ADD16C,0.400000*%
%ADD17C,0.200000*%
G04 APERTURE END LIST*
D10*
D11*
X100330000Y-36830000D03*
D12*
X97790000Y-36830000D03*
X100330000Y-39370000D03*
X97790000Y-39370000D03*
X100330000Y-41910000D03*
X97790000Y-41910000D03*
X100330000Y-44450000D03*
X97790000Y-44450000D03*
D11*
X73660000Y-44450000D03*
D12*
X76200000Y-44450000D03*
X73660000Y-41910000D03*
X76200000Y-41910000D03*
D13*
X73660000Y-29210000D03*
D14*
X73660000Y-31750000D03*
X73660000Y-34290000D03*
D11*
X82550000Y-29210000D03*
D12*
X82550000Y-31750000D03*
X85090000Y-29210000D03*
X85090000Y-31750000D03*
X87630000Y-29210000D03*
X87630000Y-31750000D03*
X90170000Y-29210000D03*
X90170000Y-31750000D03*
X92710000Y-29210000D03*
X92710000Y-31750000D03*
X95250000Y-29210000D03*
X95250000Y-31750000D03*
X97790000Y-29210000D03*
X97790000Y-31750000D03*
X100330000Y-29210000D03*
X100330000Y-31750000D03*
D15*
X86995000Y-23495000D03*
X86995000Y-50165000D03*
D16*
X85090000Y-37338000D03*
X92202000Y-38862000D03*
X91694000Y-38862000D03*
X91186000Y-38862000D03*
X90678000Y-38862000D03*
X92202000Y-36830000D03*
X91694000Y-36830000D03*
X91186000Y-36830000D03*
X90678000Y-36830000D03*
X91694000Y-38354000D03*
X91694000Y-37846000D03*
X91694000Y-37338000D03*
X91186000Y-37846000D03*
X92202000Y-37846000D03*
X92202000Y-38354000D03*
X91186000Y-38354000D03*
X90678000Y-38354000D03*
X90678000Y-37846000D03*
X92202000Y-37338000D03*
X91186000Y-37338000D03*
X90678000Y-37338000D03*
D17*
G36*
X89795000Y-26670000D02*
X89816000Y-26775575D01*
X89816000Y-26924000D01*
X89823879Y-26962906D01*
X89846273Y-26995681D01*
X89879654Y-27017161D01*
X89916000Y-27024000D01*
X90064425Y-27024000D01*
X90170000Y-27045000D01*
X102495000Y-27045000D01*
X102495000Y-46615000D01*
X90170000Y-46615000D01*
X90064425Y-46636000D01*
X89916000Y-46636000D01*
X89877094Y-46643879D01*
X89844319Y-46666273D01*
X89822839Y-46699654D01*
X89816000Y-46736000D01*
X89816000Y-46884425D01*
X89795000Y-46990000D01*
X89795000Y-52965000D01*
X84195000Y-52965000D01*
X84195000Y-50626828D01*
X84662596Y-50626828D01*
X85016873Y-51484246D01*
X85672303Y-52140821D01*
X86529101Y-52496595D01*
X87456828Y-52497404D01*
X88314246Y-52143127D01*
X88970821Y-51487697D01*
X89326595Y-50630899D01*
X89327404Y-49703172D01*
X88973127Y-48845754D01*
X88317697Y-48189179D01*
X87460899Y-47833405D01*
X86533172Y-47832596D01*
X85675754Y-48186873D01*
X85019179Y-48842303D01*
X84663405Y-49699101D01*
X84662596Y-50626828D01*
X84195000Y-50626828D01*
X84195000Y-46990000D01*
X84174000Y-46884425D01*
X84174000Y-46736000D01*
X84166121Y-46697094D01*
X84143727Y-46664319D01*
X84110346Y-46642839D01*
X84074000Y-46636000D01*
X83925575Y-46636000D01*
X83820000Y-46615000D01*
X71495000Y-46615000D01*
X71495000Y-44625000D01*
X72496400Y-44625000D01*
X72496400Y-45373273D01*
X72542072Y-45483536D01*
X72626463Y-45567928D01*
X72736726Y-45613600D01*
X73485000Y-45613600D01*
X73560000Y-45538600D01*
X73560000Y-44550000D01*
X73760000Y-44550000D01*
X73760000Y-45538600D01*
X73835000Y-45613600D01*
X74583274Y-45613600D01*
X74693537Y-45567928D01*
X74777928Y-45483536D01*
X74823600Y-45373273D01*
X74823600Y-44625000D01*
X74748600Y-44550000D01*
X73760000Y-44550000D01*
X73560000Y-44550000D01*
X72571400Y-44550000D01*
X72496400Y-44625000D01*
X71495000Y-44625000D01*
X71495000Y-44450000D01*
X75013604Y-44450000D01*
X75102178Y-44895290D01*
X75354415Y-45272789D01*
X75731914Y-45525026D01*
X76177204Y-45613600D01*
X76222796Y-45613600D01*
X76668086Y-45525026D01*
X77045585Y-45272789D01*
X77297822Y-44895290D01*
X77386396Y-44450000D01*
X96603604Y-44450000D01*
X96692178Y-44895290D01*
X96944415Y-45272789D01*
X97321914Y-45525026D01*
X97767204Y-45613600D01*
X97812796Y-45613600D01*
X98258086Y-45525026D01*
X98635585Y-45272789D01*
X98887822Y-44895290D01*
X98920675Y-44730123D01*
X99200621Y-44730123D01*
X99333324Y-45050522D01*
X99639001Y-45386221D01*
X100049876Y-45579389D01*
X100230000Y-45534305D01*
X100230000Y-44550000D01*
X100430000Y-44550000D01*
X100430000Y-45534305D01*
X100610124Y-45579389D01*
X101020999Y-45386221D01*
X101326676Y-45050522D01*
X101459379Y-44730123D01*
X101413997Y-44550000D01*
X100430000Y-44550000D01*
X100230000Y-44550000D01*
X99246003Y-44550000D01*
X99200621Y-44730123D01*
X98920675Y-44730123D01*
X98976396Y-44450000D01*
X98920676Y-44169877D01*
X99200621Y-44169877D01*
X99246003Y-44350000D01*
X100230000Y-44350000D01*
X100230000Y-43365695D01*
X100430000Y-43365695D01*
X100430000Y-44350000D01*
X101413997Y-44350000D01*
X101459379Y-44169877D01*
X101326676Y-43849478D01*
X101020999Y-43513779D01*
X100610124Y-43320611D01*
X100430000Y-43365695D01*
X100230000Y-43365695D01*
X100049876Y-43320611D01*
X99639001Y-43513779D01*
X99333324Y-43849478D01*
X99200621Y-44169877D01*
X98920676Y-44169877D01*
X98887822Y-44004710D01*
X98635585Y-43627211D01*
X98258086Y-43374974D01*
X97812796Y-43286400D01*
X97767204Y-43286400D01*
X97321914Y-43374974D01*
X96944415Y-43627211D01*
X96692178Y-44004710D01*
X96603604Y-44450000D01*
X77386396Y-44450000D01*
X77297822Y-44004710D01*
X77045585Y-43627211D01*
X76668086Y-43374974D01*
X76222796Y-43286400D01*
X76177204Y-43286400D01*
X75731914Y-43374974D01*
X75354415Y-43627211D01*
X75102178Y-44004710D01*
X75013604Y-44450000D01*
X71495000Y-44450000D01*
X71495000Y-43526727D01*
X72496400Y-43526727D01*
X72496400Y-44275000D01*
X72571400Y-44350000D01*
X73560000Y-44350000D01*
X73560000Y-43361400D01*
X73760000Y-43361400D01*
X73760000Y-44350000D01*
X74748600Y-44350000D01*
X74823600Y-44275000D01*
X74823600Y-43526727D01*
X74777928Y-43416464D01*
X74693537Y-43332072D01*
X74583274Y-43286400D01*
X73835000Y-43286400D01*
X73760000Y-43361400D01*
X73560000Y-43361400D01*
X73485000Y-43286400D01*
X72736726Y-43286400D01*
X72626463Y-43332072D01*
X72542072Y-43416464D01*
X72496400Y-43526727D01*
X71495000Y-43526727D01*
X71495000Y-42190123D01*
X72530621Y-42190123D01*
X72663324Y-42510522D01*
X72969001Y-42846221D01*
X73379876Y-43039389D01*
X73560000Y-42994305D01*
X73560000Y-42010000D01*
X73760000Y-42010000D01*
X73760000Y-42994305D01*
X73940124Y-43039389D01*
X74350999Y-42846221D01*
X74656676Y-42510522D01*
X74789379Y-42190123D01*
X74743997Y-42010000D01*
X73760000Y-42010000D01*
X73560000Y-42010000D01*
X72576003Y-42010000D01*
X72530621Y-42190123D01*
X71495000Y-42190123D01*
X71495000Y-41910000D01*
X75013604Y-41910000D01*
X75102178Y-42355290D01*
X75354415Y-42732789D01*
X75731914Y-42985026D01*
X76177204Y-43073600D01*
X76222796Y-43073600D01*
X76668086Y-42985026D01*
X77045585Y-42732789D01*
X77297822Y-42355290D01*
X77386396Y-41910000D01*
X96603604Y-41910000D01*
X96692178Y-42355290D01*
X96944415Y-42732789D01*
X97321914Y-42985026D01*
X97767204Y-43073600D01*
X97812796Y-43073600D01*
X98258086Y-42985026D01*
X98635585Y-42732789D01*
X98887822Y-42355290D01*
X98920675Y-42190123D01*
X99200621Y-42190123D01*
X99333324Y-42510522D01*
X99639001Y-42846221D01*
X100049876Y-43039389D01*
X100230000Y-42994305D01*
X100230000Y-42010000D01*
X100430000Y-42010000D01*
X100430000Y-42994305D01*
X100610124Y-43039389D01*
X101020999Y-42846221D01*
X101326676Y-42510522D01*
X101459379Y-42190123D01*
X101413997Y-42010000D01*
X100430000Y-42010000D01*
X100230000Y-42010000D01*
X99246003Y-42010000D01*
X99200621Y-42190123D01*
X98920675Y-42190123D01*
X98976396Y-41910000D01*
X98920676Y-41629877D01*
X99200621Y-41629877D01*
X99246003Y-41810000D01*
X100230000Y-41810000D01*
X100230000Y-40825695D01*
X100430000Y-40825695D01*
X100430000Y-41810000D01*
X101413997Y-41810000D01*
X101459379Y-41629877D01*
X101326676Y-41309478D01*
X101020999Y-40973779D01*
X100610124Y-40780611D01*
X100430000Y-40825695D01*
X100230000Y-40825695D01*
X100049876Y-40780611D01*
X99639001Y-40973779D01*
X99333324Y-41309478D01*
X99200621Y-41629877D01*
X98920676Y-41629877D01*
X98887822Y-41464710D01*
X98635585Y-41087211D01*
X98258086Y-40834974D01*
X97812796Y-40746400D01*
X97767204Y-40746400D01*
X97321914Y-40834974D01*
X96944415Y-41087211D01*
X96692178Y-41464710D01*
X96603604Y-41910000D01*
X77386396Y-41910000D01*
X77297822Y-41464710D01*
X77045585Y-41087211D01*
X76668086Y-40834974D01*
X76222796Y-40746400D01*
X76177204Y-40746400D01*
X75731914Y-40834974D01*
X75354415Y-41087211D01*
X75102178Y-41464710D01*
X75013604Y-41910000D01*
X71495000Y-41910000D01*
X71495000Y-41629877D01*
X72530621Y-41629877D01*
X72576003Y-41810000D01*
X73560000Y-41810000D01*
X73560000Y-40825695D01*
X73760000Y-40825695D01*
X73760000Y-41810000D01*
X74743997Y-41810000D01*
X74789379Y-41629877D01*
X74656676Y-41309478D01*
X74350999Y-40973779D01*
X73940124Y-40780611D01*
X73760000Y-40825695D01*
X73560000Y-40825695D01*
X73379876Y-40780611D01*
X72969001Y-40973779D01*
X72663324Y-41309478D01*
X72530621Y-41629877D01*
X71495000Y-41629877D01*
X71495000Y-39370000D01*
X96603604Y-39370000D01*
X96692178Y-39815290D01*
X96944415Y-40192789D01*
X97321914Y-40445026D01*
X97767204Y-40533600D01*
X97812796Y-40533600D01*
X98258086Y-40445026D01*
X98635585Y-40192789D01*
X98887822Y-39815290D01*
X98920675Y-39650123D01*
X99200621Y-39650123D01*
X99333324Y-39970522D01*
X99639001Y-40306221D01*
X100049876Y-40499389D01*
X100230000Y-40454305D01*
X100230000Y-39470000D01*
X100430000Y-39470000D01*
X100430000Y-40454305D01*
X100610124Y-40499389D01*
X101020999Y-40306221D01*
X101326676Y-39970522D01*
X101459379Y-39650123D01*
X101413997Y-39470000D01*
X100430000Y-39470000D01*
X100230000Y-39470000D01*
X99246003Y-39470000D01*
X99200621Y-39650123D01*
X98920675Y-39650123D01*
X98976396Y-39370000D01*
X98920676Y-39089877D01*
X99200621Y-39089877D01*
X99246003Y-39270000D01*
X100230000Y-39270000D01*
X100230000Y-38285695D01*
X100430000Y-38285695D01*
X100430000Y-39270000D01*
X101413997Y-39270000D01*
X101459379Y-39089877D01*
X101326676Y-38769478D01*
X101020999Y-38433779D01*
X100610124Y-38240611D01*
X100430000Y-38285695D01*
X100230000Y-38285695D01*
X100049876Y-38240611D01*
X99639001Y-38433779D01*
X99333324Y-38769478D01*
X99200621Y-39089877D01*
X98920676Y-39089877D01*
X98887822Y-38924710D01*
X98635585Y-38547211D01*
X98258086Y-38294974D01*
X97812796Y-38206400D01*
X97767204Y-38206400D01*
X97321914Y-38294974D01*
X96944415Y-38547211D01*
X96692178Y-38924710D01*
X96603604Y-39370000D01*
X71495000Y-39370000D01*
X71495000Y-36830000D01*
X96603604Y-36830000D01*
X96692178Y-37275290D01*
X96944415Y-37652789D01*
X97321914Y-37905026D01*
X97767204Y-37993600D01*
X97812796Y-37993600D01*
X98258086Y-37905026D01*
X98635585Y-37652789D01*
X98887822Y-37275290D01*
X98941586Y-37005000D01*
X99166400Y-37005000D01*
X99166400Y-37753273D01*
X99212072Y-37863536D01*
X99296463Y-37947928D01*
X99406726Y-37993600D01*
X100155000Y-37993600D01*
X100230000Y-37918600D01*
X100230000Y-36930000D01*
X100430000Y-36930000D01*
X100430000Y-37918600D01*
X100505000Y-37993600D01*
X101253274Y-37993600D01*
X101363537Y-37947928D01*
X101447928Y-37863536D01*
X101493600Y-37753273D01*
X101493600Y-37005000D01*
X101418600Y-36930000D01*
X100430000Y-36930000D01*
X100230000Y-36930000D01*
X99241400Y-36930000D01*
X99166400Y-37005000D01*
X98941586Y-37005000D01*
X98976396Y-36830000D01*
X98887822Y-36384710D01*
X98635585Y-36007211D01*
X98485201Y-35906727D01*
X99166400Y-35906727D01*
X99166400Y-36655000D01*
X99241400Y-36730000D01*
X100230000Y-36730000D01*
X100230000Y-35741400D01*
X100430000Y-35741400D01*
X100430000Y-36730000D01*
X101418600Y-36730000D01*
X101493600Y-36655000D01*
X101493600Y-35906727D01*
X101447928Y-35796464D01*
X101363537Y-35712072D01*
X101253274Y-35666400D01*
X100505000Y-35666400D01*
X100430000Y-35741400D01*
X100230000Y-35741400D01*
X100155000Y-35666400D01*
X99406726Y-35666400D01*
X99296463Y-35712072D01*
X99212072Y-35796464D01*
X99166400Y-35906727D01*
X98485201Y-35906727D01*
X98258086Y-35754974D01*
X97812796Y-35666400D01*
X97767204Y-35666400D01*
X97321914Y-35754974D01*
X96944415Y-36007211D01*
X96692178Y-36384710D01*
X96603604Y-36830000D01*
X71495000Y-36830000D01*
X71495000Y-34290000D01*
X72318218Y-34290000D01*
X72406792Y-34735290D01*
X72659029Y-35112789D01*
X73036528Y-35365026D01*
X73481818Y-35453600D01*
X73838182Y-35453600D01*
X74283472Y-35365026D01*
X74660971Y-35112789D01*
X74913208Y-34735290D01*
X75001782Y-34290000D01*
X74913208Y-33844710D01*
X74660971Y-33467211D01*
X74283472Y-33214974D01*
X73838182Y-33126400D01*
X73481818Y-33126400D01*
X73036528Y-33214974D01*
X72659029Y-33467211D01*
X72406792Y-33844710D01*
X72318218Y-34290000D01*
X71495000Y-34290000D01*
X71495000Y-31750000D01*
X72318218Y-31750000D01*
X72406792Y-32195290D01*
X72659029Y-32572789D01*
X73036528Y-32825026D01*
X73481818Y-32913600D01*
X73838182Y-32913600D01*
X74283472Y-32825026D01*
X74660971Y-32572789D01*
X74913208Y-32195290D01*
X75001782Y-31750000D01*
X74997248Y-31727204D01*
X81386400Y-31727204D01*
X81386400Y-31772796D01*
X81474974Y-32218086D01*
X81727211Y-32595585D01*
X82104710Y-32847822D01*
X82550000Y-32936396D01*
X82995290Y-32847822D01*
X83372789Y-32595585D01*
X83625026Y-32218086D01*
X83713600Y-31772796D01*
X83713600Y-31727204D01*
X83926400Y-31727204D01*
X83926400Y-31772796D01*
X84014974Y-32218086D01*
X84267211Y-32595585D01*
X84644710Y-32847822D01*
X85090000Y-32936396D01*
X85535290Y-32847822D01*
X85912789Y-32595585D01*
X86165026Y-32218086D01*
X86253600Y-31772796D01*
X86253600Y-31727204D01*
X86466400Y-31727204D01*
X86466400Y-31772796D01*
X86554974Y-32218086D01*
X86807211Y-32595585D01*
X87184710Y-32847822D01*
X87630000Y-32936396D01*
X88075290Y-32847822D01*
X88452789Y-32595585D01*
X88705026Y-32218086D01*
X88793600Y-31772796D01*
X88793600Y-31727204D01*
X89006400Y-31727204D01*
X89006400Y-31772796D01*
X89094974Y-32218086D01*
X89347211Y-32595585D01*
X89724710Y-32847822D01*
X90170000Y-32936396D01*
X90615290Y-32847822D01*
X90992789Y-32595585D01*
X91245026Y-32218086D01*
X91333600Y-31772796D01*
X91333600Y-31727204D01*
X91546400Y-31727204D01*
X91546400Y-31772796D01*
X91634974Y-32218086D01*
X91887211Y-32595585D01*
X92264710Y-32847822D01*
X92710000Y-32936396D01*
X93155290Y-32847822D01*
X93532789Y-32595585D01*
X93785026Y-32218086D01*
X93873600Y-31772796D01*
X93873600Y-31727204D01*
X94086400Y-31727204D01*
X94086400Y-31772796D01*
X94174974Y-32218086D01*
X94427211Y-32595585D01*
X94804710Y-32847822D01*
X95250000Y-32936396D01*
X95695290Y-32847822D01*
X96072789Y-32595585D01*
X96325026Y-32218086D01*
X96413600Y-31772796D01*
X96413600Y-31727204D01*
X96626400Y-31727204D01*
X96626400Y-31772796D01*
X96714974Y-32218086D01*
X96967211Y-32595585D01*
X97344710Y-32847822D01*
X97790000Y-32936396D01*
X98235290Y-32847822D01*
X98612789Y-32595585D01*
X98865026Y-32218086D01*
X98953600Y-31772796D01*
X98953600Y-31727204D01*
X99166400Y-31727204D01*
X99166400Y-31772796D01*
X99254974Y-32218086D01*
X99507211Y-32595585D01*
X99884710Y-32847822D01*
X100330000Y-32936396D01*
X100775290Y-32847822D01*
X101152789Y-32595585D01*
X101405026Y-32218086D01*
X101493600Y-31772796D01*
X101493600Y-31727204D01*
X101405026Y-31281914D01*
X101152789Y-30904415D01*
X100775290Y-30652178D01*
X100330000Y-30563604D01*
X99884710Y-30652178D01*
X99507211Y-30904415D01*
X99254974Y-31281914D01*
X99166400Y-31727204D01*
X98953600Y-31727204D01*
X98865026Y-31281914D01*
X98612789Y-30904415D01*
X98235290Y-30652178D01*
X97790000Y-30563604D01*
X97344710Y-30652178D01*
X96967211Y-30904415D01*
X96714974Y-31281914D01*
X96626400Y-31727204D01*
X96413600Y-31727204D01*
X96325026Y-31281914D01*
X96072789Y-30904415D01*
X95695290Y-30652178D01*
X95250000Y-30563604D01*
X94804710Y-30652178D01*
X94427211Y-30904415D01*
X94174974Y-31281914D01*
X94086400Y-31727204D01*
X93873600Y-31727204D01*
X93785026Y-31281914D01*
X93532789Y-30904415D01*
X93155290Y-30652178D01*
X92710000Y-30563604D01*
X92264710Y-30652178D01*
X91887211Y-30904415D01*
X91634974Y-31281914D01*
X91546400Y-31727204D01*
X91333600Y-31727204D01*
X91245026Y-31281914D01*
X90992789Y-30904415D01*
X90615290Y-30652178D01*
X90170000Y-30563604D01*
X89724710Y-30652178D01*
X89347211Y-30904415D01*
X89094974Y-31281914D01*
X89006400Y-31727204D01*
X88793600Y-31727204D01*
X88705026Y-31281914D01*
X88452789Y-30904415D01*
X88075290Y-30652178D01*
X87630000Y-30563604D01*
X87184710Y-30652178D01*
X86807211Y-30904415D01*
X86554974Y-31281914D01*
X86466400Y-31727204D01*
X86253600Y-31727204D01*
X86165026Y-31281914D01*
X85912789Y-30904415D01*
X85535290Y-30652178D01*
X85090000Y-30563604D01*
X84644710Y-30652178D01*
X84267211Y-30904415D01*
X84014974Y-31281914D01*
X83926400Y-31727204D01*
X83713600Y-31727204D01*
X83625026Y-31281914D01*
X83372789Y-30904415D01*
X82995290Y-30652178D01*
X82550000Y-30563604D01*
X82104710Y-30652178D01*
X81727211Y-30904415D01*
X81474974Y-31281914D01*
X81386400Y-31727204D01*
X74997248Y-31727204D01*
X74913208Y-31304710D01*
X74660971Y-30927211D01*
X74283472Y-30674974D01*
X73838182Y-30586400D01*
X73481818Y-30586400D01*
X73036528Y-30674974D01*
X72659029Y-30927211D01*
X72406792Y-31304710D01*
X72318218Y-31750000D01*
X71495000Y-31750000D01*
X71495000Y-29385000D01*
X72344000Y-29385000D01*
X72344000Y-30133273D01*
X72389672Y-30243536D01*
X72474063Y-30327928D01*
X72584326Y-30373600D01*
X73485000Y-30373600D01*
X73560000Y-30298600D01*
X73560000Y-29310000D01*
X73760000Y-29310000D01*
X73760000Y-30298600D01*
X73835000Y-30373600D01*
X74735674Y-30373600D01*
X74845937Y-30327928D01*
X74930328Y-30243536D01*
X74976000Y-30133273D01*
X74976000Y-29385000D01*
X81386400Y-29385000D01*
X81386400Y-30133274D01*
X81432072Y-30243537D01*
X81516464Y-30327928D01*
X81626727Y-30373600D01*
X82375000Y-30373600D01*
X82450000Y-30298600D01*
X82450000Y-29310000D01*
X82650000Y-29310000D01*
X82650000Y-30298600D01*
X82725000Y-30373600D01*
X83473273Y-30373600D01*
X83583536Y-30327928D01*
X83667928Y-30243537D01*
X83713600Y-30133274D01*
X83713600Y-29490124D01*
X83960611Y-29490124D01*
X84153779Y-29900999D01*
X84489478Y-30206676D01*
X84809877Y-30339379D01*
X84990000Y-30293997D01*
X84990000Y-29310000D01*
X85190000Y-29310000D01*
X85190000Y-30293997D01*
X85370123Y-30339379D01*
X85690522Y-30206676D01*
X86026221Y-29900999D01*
X86219389Y-29490124D01*
X86500611Y-29490124D01*
X86693779Y-29900999D01*
X87029478Y-30206676D01*
X87349877Y-30339379D01*
X87530000Y-30293997D01*
X87530000Y-29310000D01*
X87730000Y-29310000D01*
X87730000Y-30293997D01*
X87910123Y-30339379D01*
X88230522Y-30206676D01*
X88566221Y-29900999D01*
X88759389Y-29490124D01*
X89040611Y-29490124D01*
X89233779Y-29900999D01*
X89569478Y-30206676D01*
X89889877Y-30339379D01*
X90070000Y-30293997D01*
X90070000Y-29310000D01*
X90270000Y-29310000D01*
X90270000Y-30293997D01*
X90450123Y-30339379D01*
X90770522Y-30206676D01*
X91106221Y-29900999D01*
X91299389Y-29490124D01*
X91580611Y-29490124D01*
X91773779Y-29900999D01*
X92109478Y-30206676D01*
X92429877Y-30339379D01*
X92610000Y-30293997D01*
X92610000Y-29310000D01*
X92810000Y-29310000D01*
X92810000Y-30293997D01*
X92990123Y-30339379D01*
X93310522Y-30206676D01*
X93646221Y-29900999D01*
X93839389Y-29490124D01*
X94120611Y-29490124D01*
X94313779Y-29900999D01*
X94649478Y-30206676D01*
X94969877Y-30339379D01*
X95150000Y-30293997D01*
X95150000Y-29310000D01*
X95350000Y-29310000D01*
X95350000Y-30293997D01*
X95530123Y-30339379D01*
X95850522Y-30206676D01*
X96186221Y-29900999D01*
X96379389Y-29490124D01*
X96660611Y-29490124D01*
X96853779Y-29900999D01*
X97189478Y-30206676D01*
X97509877Y-30339379D01*
X97690000Y-30293997D01*
X97690000Y-29310000D01*
X97890000Y-29310000D01*
X97890000Y-30293997D01*
X98070123Y-30339379D01*
X98390522Y-30206676D01*
X98726221Y-29900999D01*
X98919389Y-29490124D01*
X99200611Y-29490124D01*
X99393779Y-29900999D01*
X99729478Y-30206676D01*
X100049877Y-30339379D01*
X100230000Y-30293997D01*
X100230000Y-29310000D01*
X100430000Y-29310000D01*
X100430000Y-30293997D01*
X100610123Y-30339379D01*
X100930522Y-30206676D01*
X101266221Y-29900999D01*
X101459389Y-29490124D01*
X101414305Y-29310000D01*
X100430000Y-29310000D01*
X100230000Y-29310000D01*
X99245695Y-29310000D01*
X99200611Y-29490124D01*
X98919389Y-29490124D01*
X98874305Y-29310000D01*
X97890000Y-29310000D01*
X97690000Y-29310000D01*
X96705695Y-29310000D01*
X96660611Y-29490124D01*
X96379389Y-29490124D01*
X96334305Y-29310000D01*
X95350000Y-29310000D01*
X95150000Y-29310000D01*
X94165695Y-29310000D01*
X94120611Y-29490124D01*
X93839389Y-29490124D01*
X93794305Y-29310000D01*
X92810000Y-29310000D01*
X92610000Y-29310000D01*
X91625695Y-29310000D01*
X91580611Y-29490124D01*
X91299389Y-29490124D01*
X91254305Y-29310000D01*
X90270000Y-29310000D01*
X90070000Y-29310000D01*
X89085695Y-29310000D01*
X89040611Y-29490124D01*
X88759389Y-29490124D01*
X88714305Y-29310000D01*
X87730000Y-29310000D01*
X87530000Y-29310000D01*
X86545695Y-29310000D01*
X86500611Y-29490124D01*
X86219389Y-29490124D01*
X86174305Y-29310000D01*
X85190000Y-29310000D01*
X84990000Y-29310000D01*
X84005695Y-29310000D01*
X83960611Y-29490124D01*
X83713600Y-29490124D01*
X83713600Y-29385000D01*
X83638600Y-29310000D01*
X82650000Y-29310000D01*
X82450000Y-29310000D01*
X81461400Y-29310000D01*
X81386400Y-29385000D01*
X74976000Y-29385000D01*
X74901000Y-29310000D01*
X73760000Y-29310000D01*
X73560000Y-29310000D01*
X72419000Y-29310000D01*
X72344000Y-29385000D01*
X71495000Y-29385000D01*
X71495000Y-28286727D01*
X72344000Y-28286727D01*
X72344000Y-29035000D01*
X72419000Y-29110000D01*
X73560000Y-29110000D01*
X73560000Y-28121400D01*
X73760000Y-28121400D01*
X73760000Y-29110000D01*
X74901000Y-29110000D01*
X74976000Y-29035000D01*
X74976000Y-28286727D01*
X74976000Y-28286726D01*
X81386400Y-28286726D01*
X81386400Y-29035000D01*
X81461400Y-29110000D01*
X82450000Y-29110000D01*
X82450000Y-28121400D01*
X82650000Y-28121400D01*
X82650000Y-29110000D01*
X83638600Y-29110000D01*
X83713600Y-29035000D01*
X83713600Y-28929876D01*
X83960611Y-28929876D01*
X84005695Y-29110000D01*
X84990000Y-29110000D01*
X84990000Y-28126003D01*
X85190000Y-28126003D01*
X85190000Y-29110000D01*
X86174305Y-29110000D01*
X86219389Y-28929876D01*
X86500611Y-28929876D01*
X86545695Y-29110000D01*
X87530000Y-29110000D01*
X87530000Y-28126003D01*
X87730000Y-28126003D01*
X87730000Y-29110000D01*
X88714305Y-29110000D01*
X88759389Y-28929876D01*
X89040611Y-28929876D01*
X89085695Y-29110000D01*
X90070000Y-29110000D01*
X90070000Y-28126003D01*
X90270000Y-28126003D01*
X90270000Y-29110000D01*
X91254305Y-29110000D01*
X91299389Y-28929876D01*
X91580611Y-28929876D01*
X91625695Y-29110000D01*
X92610000Y-29110000D01*
X92610000Y-28126003D01*
X92810000Y-28126003D01*
X92810000Y-29110000D01*
X93794305Y-29110000D01*
X93839389Y-28929876D01*
X94120611Y-28929876D01*
X94165695Y-29110000D01*
X95150000Y-29110000D01*
X95150000Y-28126003D01*
X95350000Y-28126003D01*
X95350000Y-29110000D01*
X96334305Y-29110000D01*
X96379389Y-28929876D01*
X96660611Y-28929876D01*
X96705695Y-29110000D01*
X97690000Y-29110000D01*
X97690000Y-28126003D01*
X97890000Y-28126003D01*
X97890000Y-29110000D01*
X98874305Y-29110000D01*
X98919389Y-28929876D01*
X99200611Y-28929876D01*
X99245695Y-29110000D01*
X100230000Y-29110000D01*
X100230000Y-28126003D01*
X100430000Y-28126003D01*
X100430000Y-29110000D01*
X101414305Y-29110000D01*
X101459389Y-28929876D01*
X101266221Y-28519001D01*
X100930522Y-28213324D01*
X100610123Y-28080621D01*
X100430000Y-28126003D01*
X100230000Y-28126003D01*
X100049877Y-28080621D01*
X99729478Y-28213324D01*
X99393779Y-28519001D01*
X99200611Y-28929876D01*
X98919389Y-28929876D01*
X98726221Y-28519001D01*
X98390522Y-28213324D01*
X98070123Y-28080621D01*
X97890000Y-28126003D01*
X97690000Y-28126003D01*
X97509877Y-28080621D01*
X97189478Y-28213324D01*
X96853779Y-28519001D01*
X96660611Y-28929876D01*
X96379389Y-28929876D01*
X96186221Y-28519001D01*
X95850522Y-28213324D01*
X95530123Y-28080621D01*
X95350000Y-28126003D01*
X95150000Y-28126003D01*
X94969877Y-28080621D01*
X94649478Y-28213324D01*
X94313779Y-28519001D01*
X94120611Y-28929876D01*
X93839389Y-28929876D01*
X93646221Y-28519001D01*
X93310522Y-28213324D01*
X92990123Y-28080621D01*
X92810000Y-28126003D01*
X92610000Y-28126003D01*
X92429877Y-28080621D01*
X92109478Y-28213324D01*
X91773779Y-28519001D01*
X91580611Y-28929876D01*
X91299389Y-28929876D01*
X91106221Y-28519001D01*
X90770522Y-28213324D01*
X90450123Y-28080621D01*
X90270000Y-28126003D01*
X90070000Y-28126003D01*
X89889877Y-28080621D01*
X89569478Y-28213324D01*
X89233779Y-28519001D01*
X89040611Y-28929876D01*
X88759389Y-28929876D01*
X88566221Y-28519001D01*
X88230522Y-28213324D01*
X87910123Y-28080621D01*
X87730000Y-28126003D01*
X87530000Y-28126003D01*
X87349877Y-28080621D01*
X87029478Y-28213324D01*
X86693779Y-28519001D01*
X86500611Y-28929876D01*
X86219389Y-28929876D01*
X86026221Y-28519001D01*
X85690522Y-28213324D01*
X85370123Y-28080621D01*
X85190000Y-28126003D01*
X84990000Y-28126003D01*
X84809877Y-28080621D01*
X84489478Y-28213324D01*
X84153779Y-28519001D01*
X83960611Y-28929876D01*
X83713600Y-28929876D01*
X83713600Y-28286726D01*
X83667928Y-28176463D01*
X83583536Y-28092072D01*
X83473273Y-28046400D01*
X82725000Y-28046400D01*
X82650000Y-28121400D01*
X82450000Y-28121400D01*
X82375000Y-28046400D01*
X81626727Y-28046400D01*
X81516464Y-28092072D01*
X81432072Y-28176463D01*
X81386400Y-28286726D01*
X74976000Y-28286726D01*
X74930328Y-28176464D01*
X74845937Y-28092072D01*
X74735674Y-28046400D01*
X73835000Y-28046400D01*
X73760000Y-28121400D01*
X73560000Y-28121400D01*
X73485000Y-28046400D01*
X72584326Y-28046400D01*
X72474063Y-28092072D01*
X72389672Y-28176464D01*
X72344000Y-28286727D01*
X71495000Y-28286727D01*
X71495000Y-27045000D01*
X83820000Y-27045000D01*
X83925575Y-27024000D01*
X84074000Y-27024000D01*
X84112906Y-27016121D01*
X84145681Y-26993727D01*
X84167161Y-26960346D01*
X84174000Y-26924000D01*
X84174000Y-26775575D01*
X84195000Y-26670000D01*
X84195000Y-23956828D01*
X84662596Y-23956828D01*
X85016873Y-24814246D01*
X85672303Y-25470821D01*
X86529101Y-25826595D01*
X87456828Y-25827404D01*
X88314246Y-25473127D01*
X88970821Y-24817697D01*
X89326595Y-23960899D01*
X89327404Y-23033172D01*
X88973127Y-22175754D01*
X88317697Y-21519179D01*
X87460899Y-21163405D01*
X86533172Y-21162596D01*
X85675754Y-21516873D01*
X85019179Y-22172303D01*
X84663405Y-23029101D01*
X84662596Y-23956828D01*
X84195000Y-23956828D01*
X84195000Y-20695000D01*
X89795000Y-20695000D01*
X89795000Y-26670000D01*
X89795000Y-26670000D01*
G37*
X89795000Y-26670000D02*
X89816000Y-26775575D01*
X89816000Y-26924000D01*
X89823879Y-26962906D01*
X89846273Y-26995681D01*
X89879654Y-27017161D01*
X89916000Y-27024000D01*
X90064425Y-27024000D01*
X90170000Y-27045000D01*
X102495000Y-27045000D01*
X102495000Y-46615000D01*
X90170000Y-46615000D01*
X90064425Y-46636000D01*
X89916000Y-46636000D01*
X89877094Y-46643879D01*
X89844319Y-46666273D01*
X89822839Y-46699654D01*
X89816000Y-46736000D01*
X89816000Y-46884425D01*
X89795000Y-46990000D01*
X89795000Y-52965000D01*
X84195000Y-52965000D01*
X84195000Y-50626828D01*
X84662596Y-50626828D01*
X85016873Y-51484246D01*
X85672303Y-52140821D01*
X86529101Y-52496595D01*
X87456828Y-52497404D01*
X88314246Y-52143127D01*
X88970821Y-51487697D01*
X89326595Y-50630899D01*
X89327404Y-49703172D01*
X88973127Y-48845754D01*
X88317697Y-48189179D01*
X87460899Y-47833405D01*
X86533172Y-47832596D01*
X85675754Y-48186873D01*
X85019179Y-48842303D01*
X84663405Y-49699101D01*
X84662596Y-50626828D01*
X84195000Y-50626828D01*
X84195000Y-46990000D01*
X84174000Y-46884425D01*
X84174000Y-46736000D01*
X84166121Y-46697094D01*
X84143727Y-46664319D01*
X84110346Y-46642839D01*
X84074000Y-46636000D01*
X83925575Y-46636000D01*
X83820000Y-46615000D01*
X71495000Y-46615000D01*
X71495000Y-44625000D01*
X72496400Y-44625000D01*
X72496400Y-45373273D01*
X72542072Y-45483536D01*
X72626463Y-45567928D01*
X72736726Y-45613600D01*
X73485000Y-45613600D01*
X73560000Y-45538600D01*
X73560000Y-44550000D01*
X73760000Y-44550000D01*
X73760000Y-45538600D01*
X73835000Y-45613600D01*
X74583274Y-45613600D01*
X74693537Y-45567928D01*
X74777928Y-45483536D01*
X74823600Y-45373273D01*
X74823600Y-44625000D01*
X74748600Y-44550000D01*
X73760000Y-44550000D01*
X73560000Y-44550000D01*
X72571400Y-44550000D01*
X72496400Y-44625000D01*
X71495000Y-44625000D01*
X71495000Y-44450000D01*
X75013604Y-44450000D01*
X75102178Y-44895290D01*
X75354415Y-45272789D01*
X75731914Y-45525026D01*
X76177204Y-45613600D01*
X76222796Y-45613600D01*
X76668086Y-45525026D01*
X77045585Y-45272789D01*
X77297822Y-44895290D01*
X77386396Y-44450000D01*
X96603604Y-44450000D01*
X96692178Y-44895290D01*
X96944415Y-45272789D01*
X97321914Y-45525026D01*
X97767204Y-45613600D01*
X97812796Y-45613600D01*
X98258086Y-45525026D01*
X98635585Y-45272789D01*
X98887822Y-44895290D01*
X98920675Y-44730123D01*
X99200621Y-44730123D01*
X99333324Y-45050522D01*
X99639001Y-45386221D01*
X100049876Y-45579389D01*
X100230000Y-45534305D01*
X100230000Y-44550000D01*
X100430000Y-44550000D01*
X100430000Y-45534305D01*
X100610124Y-45579389D01*
X101020999Y-45386221D01*
X101326676Y-45050522D01*
X101459379Y-44730123D01*
X101413997Y-44550000D01*
X100430000Y-44550000D01*
X100230000Y-44550000D01*
X99246003Y-44550000D01*
X99200621Y-44730123D01*
X98920675Y-44730123D01*
X98976396Y-44450000D01*
X98920676Y-44169877D01*
X99200621Y-44169877D01*
X99246003Y-44350000D01*
X100230000Y-44350000D01*
X100230000Y-43365695D01*
X100430000Y-43365695D01*
X100430000Y-44350000D01*
X101413997Y-44350000D01*
X101459379Y-44169877D01*
X101326676Y-43849478D01*
X101020999Y-43513779D01*
X100610124Y-43320611D01*
X100430000Y-43365695D01*
X100230000Y-43365695D01*
X100049876Y-43320611D01*
X99639001Y-43513779D01*
X99333324Y-43849478D01*
X99200621Y-44169877D01*
X98920676Y-44169877D01*
X98887822Y-44004710D01*
X98635585Y-43627211D01*
X98258086Y-43374974D01*
X97812796Y-43286400D01*
X97767204Y-43286400D01*
X97321914Y-43374974D01*
X96944415Y-43627211D01*
X96692178Y-44004710D01*
X96603604Y-44450000D01*
X77386396Y-44450000D01*
X77297822Y-44004710D01*
X77045585Y-43627211D01*
X76668086Y-43374974D01*
X76222796Y-43286400D01*
X76177204Y-43286400D01*
X75731914Y-43374974D01*
X75354415Y-43627211D01*
X75102178Y-44004710D01*
X75013604Y-44450000D01*
X71495000Y-44450000D01*
X71495000Y-43526727D01*
X72496400Y-43526727D01*
X72496400Y-44275000D01*
X72571400Y-44350000D01*
X73560000Y-44350000D01*
X73560000Y-43361400D01*
X73760000Y-43361400D01*
X73760000Y-44350000D01*
X74748600Y-44350000D01*
X74823600Y-44275000D01*
X74823600Y-43526727D01*
X74777928Y-43416464D01*
X74693537Y-43332072D01*
X74583274Y-43286400D01*
X73835000Y-43286400D01*
X73760000Y-43361400D01*
X73560000Y-43361400D01*
X73485000Y-43286400D01*
X72736726Y-43286400D01*
X72626463Y-43332072D01*
X72542072Y-43416464D01*
X72496400Y-43526727D01*
X71495000Y-43526727D01*
X71495000Y-42190123D01*
X72530621Y-42190123D01*
X72663324Y-42510522D01*
X72969001Y-42846221D01*
X73379876Y-43039389D01*
X73560000Y-42994305D01*
X73560000Y-42010000D01*
X73760000Y-42010000D01*
X73760000Y-42994305D01*
X73940124Y-43039389D01*
X74350999Y-42846221D01*
X74656676Y-42510522D01*
X74789379Y-42190123D01*
X74743997Y-42010000D01*
X73760000Y-42010000D01*
X73560000Y-42010000D01*
X72576003Y-42010000D01*
X72530621Y-42190123D01*
X71495000Y-42190123D01*
X71495000Y-41910000D01*
X75013604Y-41910000D01*
X75102178Y-42355290D01*
X75354415Y-42732789D01*
X75731914Y-42985026D01*
X76177204Y-43073600D01*
X76222796Y-43073600D01*
X76668086Y-42985026D01*
X77045585Y-42732789D01*
X77297822Y-42355290D01*
X77386396Y-41910000D01*
X96603604Y-41910000D01*
X96692178Y-42355290D01*
X96944415Y-42732789D01*
X97321914Y-42985026D01*
X97767204Y-43073600D01*
X97812796Y-43073600D01*
X98258086Y-42985026D01*
X98635585Y-42732789D01*
X98887822Y-42355290D01*
X98920675Y-42190123D01*
X99200621Y-42190123D01*
X99333324Y-42510522D01*
X99639001Y-42846221D01*
X100049876Y-43039389D01*
X100230000Y-42994305D01*
X100230000Y-42010000D01*
X100430000Y-42010000D01*
X100430000Y-42994305D01*
X100610124Y-43039389D01*
X101020999Y-42846221D01*
X101326676Y-42510522D01*
X101459379Y-42190123D01*
X101413997Y-42010000D01*
X100430000Y-42010000D01*
X100230000Y-42010000D01*
X99246003Y-42010000D01*
X99200621Y-42190123D01*
X98920675Y-42190123D01*
X98976396Y-41910000D01*
X98920676Y-41629877D01*
X99200621Y-41629877D01*
X99246003Y-41810000D01*
X100230000Y-41810000D01*
X100230000Y-40825695D01*
X100430000Y-40825695D01*
X100430000Y-41810000D01*
X101413997Y-41810000D01*
X101459379Y-41629877D01*
X101326676Y-41309478D01*
X101020999Y-40973779D01*
X100610124Y-40780611D01*
X100430000Y-40825695D01*
X100230000Y-40825695D01*
X100049876Y-40780611D01*
X99639001Y-40973779D01*
X99333324Y-41309478D01*
X99200621Y-41629877D01*
X98920676Y-41629877D01*
X98887822Y-41464710D01*
X98635585Y-41087211D01*
X98258086Y-40834974D01*
X97812796Y-40746400D01*
X97767204Y-40746400D01*
X97321914Y-40834974D01*
X96944415Y-41087211D01*
X96692178Y-41464710D01*
X96603604Y-41910000D01*
X77386396Y-41910000D01*
X77297822Y-41464710D01*
X77045585Y-41087211D01*
X76668086Y-40834974D01*
X76222796Y-40746400D01*
X76177204Y-40746400D01*
X75731914Y-40834974D01*
X75354415Y-41087211D01*
X75102178Y-41464710D01*
X75013604Y-41910000D01*
X71495000Y-41910000D01*
X71495000Y-41629877D01*
X72530621Y-41629877D01*
X72576003Y-41810000D01*
X73560000Y-41810000D01*
X73560000Y-40825695D01*
X73760000Y-40825695D01*
X73760000Y-41810000D01*
X74743997Y-41810000D01*
X74789379Y-41629877D01*
X74656676Y-41309478D01*
X74350999Y-40973779D01*
X73940124Y-40780611D01*
X73760000Y-40825695D01*
X73560000Y-40825695D01*
X73379876Y-40780611D01*
X72969001Y-40973779D01*
X72663324Y-41309478D01*
X72530621Y-41629877D01*
X71495000Y-41629877D01*
X71495000Y-39370000D01*
X96603604Y-39370000D01*
X96692178Y-39815290D01*
X96944415Y-40192789D01*
X97321914Y-40445026D01*
X97767204Y-40533600D01*
X97812796Y-40533600D01*
X98258086Y-40445026D01*
X98635585Y-40192789D01*
X98887822Y-39815290D01*
X98920675Y-39650123D01*
X99200621Y-39650123D01*
X99333324Y-39970522D01*
X99639001Y-40306221D01*
X100049876Y-40499389D01*
X100230000Y-40454305D01*
X100230000Y-39470000D01*
X100430000Y-39470000D01*
X100430000Y-40454305D01*
X100610124Y-40499389D01*
X101020999Y-40306221D01*
X101326676Y-39970522D01*
X101459379Y-39650123D01*
X101413997Y-39470000D01*
X100430000Y-39470000D01*
X100230000Y-39470000D01*
X99246003Y-39470000D01*
X99200621Y-39650123D01*
X98920675Y-39650123D01*
X98976396Y-39370000D01*
X98920676Y-39089877D01*
X99200621Y-39089877D01*
X99246003Y-39270000D01*
X100230000Y-39270000D01*
X100230000Y-38285695D01*
X100430000Y-38285695D01*
X100430000Y-39270000D01*
X101413997Y-39270000D01*
X101459379Y-39089877D01*
X101326676Y-38769478D01*
X101020999Y-38433779D01*
X100610124Y-38240611D01*
X100430000Y-38285695D01*
X100230000Y-38285695D01*
X100049876Y-38240611D01*
X99639001Y-38433779D01*
X99333324Y-38769478D01*
X99200621Y-39089877D01*
X98920676Y-39089877D01*
X98887822Y-38924710D01*
X98635585Y-38547211D01*
X98258086Y-38294974D01*
X97812796Y-38206400D01*
X97767204Y-38206400D01*
X97321914Y-38294974D01*
X96944415Y-38547211D01*
X96692178Y-38924710D01*
X96603604Y-39370000D01*
X71495000Y-39370000D01*
X71495000Y-36830000D01*
X96603604Y-36830000D01*
X96692178Y-37275290D01*
X96944415Y-37652789D01*
X97321914Y-37905026D01*
X97767204Y-37993600D01*
X97812796Y-37993600D01*
X98258086Y-37905026D01*
X98635585Y-37652789D01*
X98887822Y-37275290D01*
X98941586Y-37005000D01*
X99166400Y-37005000D01*
X99166400Y-37753273D01*
X99212072Y-37863536D01*
X99296463Y-37947928D01*
X99406726Y-37993600D01*
X100155000Y-37993600D01*
X100230000Y-37918600D01*
X100230000Y-36930000D01*
X100430000Y-36930000D01*
X100430000Y-37918600D01*
X100505000Y-37993600D01*
X101253274Y-37993600D01*
X101363537Y-37947928D01*
X101447928Y-37863536D01*
X101493600Y-37753273D01*
X101493600Y-37005000D01*
X101418600Y-36930000D01*
X100430000Y-36930000D01*
X100230000Y-36930000D01*
X99241400Y-36930000D01*
X99166400Y-37005000D01*
X98941586Y-37005000D01*
X98976396Y-36830000D01*
X98887822Y-36384710D01*
X98635585Y-36007211D01*
X98485201Y-35906727D01*
X99166400Y-35906727D01*
X99166400Y-36655000D01*
X99241400Y-36730000D01*
X100230000Y-36730000D01*
X100230000Y-35741400D01*
X100430000Y-35741400D01*
X100430000Y-36730000D01*
X101418600Y-36730000D01*
X101493600Y-36655000D01*
X101493600Y-35906727D01*
X101447928Y-35796464D01*
X101363537Y-35712072D01*
X101253274Y-35666400D01*
X100505000Y-35666400D01*
X100430000Y-35741400D01*
X100230000Y-35741400D01*
X100155000Y-35666400D01*
X99406726Y-35666400D01*
X99296463Y-35712072D01*
X99212072Y-35796464D01*
X99166400Y-35906727D01*
X98485201Y-35906727D01*
X98258086Y-35754974D01*
X97812796Y-35666400D01*
X97767204Y-35666400D01*
X97321914Y-35754974D01*
X96944415Y-36007211D01*
X96692178Y-36384710D01*
X96603604Y-36830000D01*
X71495000Y-36830000D01*
X71495000Y-34290000D01*
X72318218Y-34290000D01*
X72406792Y-34735290D01*
X72659029Y-35112789D01*
X73036528Y-35365026D01*
X73481818Y-35453600D01*
X73838182Y-35453600D01*
X74283472Y-35365026D01*
X74660971Y-35112789D01*
X74913208Y-34735290D01*
X75001782Y-34290000D01*
X74913208Y-33844710D01*
X74660971Y-33467211D01*
X74283472Y-33214974D01*
X73838182Y-33126400D01*
X73481818Y-33126400D01*
X73036528Y-33214974D01*
X72659029Y-33467211D01*
X72406792Y-33844710D01*
X72318218Y-34290000D01*
X71495000Y-34290000D01*
X71495000Y-31750000D01*
X72318218Y-31750000D01*
X72406792Y-32195290D01*
X72659029Y-32572789D01*
X73036528Y-32825026D01*
X73481818Y-32913600D01*
X73838182Y-32913600D01*
X74283472Y-32825026D01*
X74660971Y-32572789D01*
X74913208Y-32195290D01*
X75001782Y-31750000D01*
X74997248Y-31727204D01*
X81386400Y-31727204D01*
X81386400Y-31772796D01*
X81474974Y-32218086D01*
X81727211Y-32595585D01*
X82104710Y-32847822D01*
X82550000Y-32936396D01*
X82995290Y-32847822D01*
X83372789Y-32595585D01*
X83625026Y-32218086D01*
X83713600Y-31772796D01*
X83713600Y-31727204D01*
X83926400Y-31727204D01*
X83926400Y-31772796D01*
X84014974Y-32218086D01*
X84267211Y-32595585D01*
X84644710Y-32847822D01*
X85090000Y-32936396D01*
X85535290Y-32847822D01*
X85912789Y-32595585D01*
X86165026Y-32218086D01*
X86253600Y-31772796D01*
X86253600Y-31727204D01*
X86466400Y-31727204D01*
X86466400Y-31772796D01*
X86554974Y-32218086D01*
X86807211Y-32595585D01*
X87184710Y-32847822D01*
X87630000Y-32936396D01*
X88075290Y-32847822D01*
X88452789Y-32595585D01*
X88705026Y-32218086D01*
X88793600Y-31772796D01*
X88793600Y-31727204D01*
X89006400Y-31727204D01*
X89006400Y-31772796D01*
X89094974Y-32218086D01*
X89347211Y-32595585D01*
X89724710Y-32847822D01*
X90170000Y-32936396D01*
X90615290Y-32847822D01*
X90992789Y-32595585D01*
X91245026Y-32218086D01*
X91333600Y-31772796D01*
X91333600Y-31727204D01*
X91546400Y-31727204D01*
X91546400Y-31772796D01*
X91634974Y-32218086D01*
X91887211Y-32595585D01*
X92264710Y-32847822D01*
X92710000Y-32936396D01*
X93155290Y-32847822D01*
X93532789Y-32595585D01*
X93785026Y-32218086D01*
X93873600Y-31772796D01*
X93873600Y-31727204D01*
X94086400Y-31727204D01*
X94086400Y-31772796D01*
X94174974Y-32218086D01*
X94427211Y-32595585D01*
X94804710Y-32847822D01*
X95250000Y-32936396D01*
X95695290Y-32847822D01*
X96072789Y-32595585D01*
X96325026Y-32218086D01*
X96413600Y-31772796D01*
X96413600Y-31727204D01*
X96626400Y-31727204D01*
X96626400Y-31772796D01*
X96714974Y-32218086D01*
X96967211Y-32595585D01*
X97344710Y-32847822D01*
X97790000Y-32936396D01*
X98235290Y-32847822D01*
X98612789Y-32595585D01*
X98865026Y-32218086D01*
X98953600Y-31772796D01*
X98953600Y-31727204D01*
X99166400Y-31727204D01*
X99166400Y-31772796D01*
X99254974Y-32218086D01*
X99507211Y-32595585D01*
X99884710Y-32847822D01*
X100330000Y-32936396D01*
X100775290Y-32847822D01*
X101152789Y-32595585D01*
X101405026Y-32218086D01*
X101493600Y-31772796D01*
X101493600Y-31727204D01*
X101405026Y-31281914D01*
X101152789Y-30904415D01*
X100775290Y-30652178D01*
X100330000Y-30563604D01*
X99884710Y-30652178D01*
X99507211Y-30904415D01*
X99254974Y-31281914D01*
X99166400Y-31727204D01*
X98953600Y-31727204D01*
X98865026Y-31281914D01*
X98612789Y-30904415D01*
X98235290Y-30652178D01*
X97790000Y-30563604D01*
X97344710Y-30652178D01*
X96967211Y-30904415D01*
X96714974Y-31281914D01*
X96626400Y-31727204D01*
X96413600Y-31727204D01*
X96325026Y-31281914D01*
X96072789Y-30904415D01*
X95695290Y-30652178D01*
X95250000Y-30563604D01*
X94804710Y-30652178D01*
X94427211Y-30904415D01*
X94174974Y-31281914D01*
X94086400Y-31727204D01*
X93873600Y-31727204D01*
X93785026Y-31281914D01*
X93532789Y-30904415D01*
X93155290Y-30652178D01*
X92710000Y-30563604D01*
X92264710Y-30652178D01*
X91887211Y-30904415D01*
X91634974Y-31281914D01*
X91546400Y-31727204D01*
X91333600Y-31727204D01*
X91245026Y-31281914D01*
X90992789Y-30904415D01*
X90615290Y-30652178D01*
X90170000Y-30563604D01*
X89724710Y-30652178D01*
X89347211Y-30904415D01*
X89094974Y-31281914D01*
X89006400Y-31727204D01*
X88793600Y-31727204D01*
X88705026Y-31281914D01*
X88452789Y-30904415D01*
X88075290Y-30652178D01*
X87630000Y-30563604D01*
X87184710Y-30652178D01*
X86807211Y-30904415D01*
X86554974Y-31281914D01*
X86466400Y-31727204D01*
X86253600Y-31727204D01*
X86165026Y-31281914D01*
X85912789Y-30904415D01*
X85535290Y-30652178D01*
X85090000Y-30563604D01*
X84644710Y-30652178D01*
X84267211Y-30904415D01*
X84014974Y-31281914D01*
X83926400Y-31727204D01*
X83713600Y-31727204D01*
X83625026Y-31281914D01*
X83372789Y-30904415D01*
X82995290Y-30652178D01*
X82550000Y-30563604D01*
X82104710Y-30652178D01*
X81727211Y-30904415D01*
X81474974Y-31281914D01*
X81386400Y-31727204D01*
X74997248Y-31727204D01*
X74913208Y-31304710D01*
X74660971Y-30927211D01*
X74283472Y-30674974D01*
X73838182Y-30586400D01*
X73481818Y-30586400D01*
X73036528Y-30674974D01*
X72659029Y-30927211D01*
X72406792Y-31304710D01*
X72318218Y-31750000D01*
X71495000Y-31750000D01*
X71495000Y-29385000D01*
X72344000Y-29385000D01*
X72344000Y-30133273D01*
X72389672Y-30243536D01*
X72474063Y-30327928D01*
X72584326Y-30373600D01*
X73485000Y-30373600D01*
X73560000Y-30298600D01*
X73560000Y-29310000D01*
X73760000Y-29310000D01*
X73760000Y-30298600D01*
X73835000Y-30373600D01*
X74735674Y-30373600D01*
X74845937Y-30327928D01*
X74930328Y-30243536D01*
X74976000Y-30133273D01*
X74976000Y-29385000D01*
X81386400Y-29385000D01*
X81386400Y-30133274D01*
X81432072Y-30243537D01*
X81516464Y-30327928D01*
X81626727Y-30373600D01*
X82375000Y-30373600D01*
X82450000Y-30298600D01*
X82450000Y-29310000D01*
X82650000Y-29310000D01*
X82650000Y-30298600D01*
X82725000Y-30373600D01*
X83473273Y-30373600D01*
X83583536Y-30327928D01*
X83667928Y-30243537D01*
X83713600Y-30133274D01*
X83713600Y-29490124D01*
X83960611Y-29490124D01*
X84153779Y-29900999D01*
X84489478Y-30206676D01*
X84809877Y-30339379D01*
X84990000Y-30293997D01*
X84990000Y-29310000D01*
X85190000Y-29310000D01*
X85190000Y-30293997D01*
X85370123Y-30339379D01*
X85690522Y-30206676D01*
X86026221Y-29900999D01*
X86219389Y-29490124D01*
X86500611Y-29490124D01*
X86693779Y-29900999D01*
X87029478Y-30206676D01*
X87349877Y-30339379D01*
X87530000Y-30293997D01*
X87530000Y-29310000D01*
X87730000Y-29310000D01*
X87730000Y-30293997D01*
X87910123Y-30339379D01*
X88230522Y-30206676D01*
X88566221Y-29900999D01*
X88759389Y-29490124D01*
X89040611Y-29490124D01*
X89233779Y-29900999D01*
X89569478Y-30206676D01*
X89889877Y-30339379D01*
X90070000Y-30293997D01*
X90070000Y-29310000D01*
X90270000Y-29310000D01*
X90270000Y-30293997D01*
X90450123Y-30339379D01*
X90770522Y-30206676D01*
X91106221Y-29900999D01*
X91299389Y-29490124D01*
X91580611Y-29490124D01*
X91773779Y-29900999D01*
X92109478Y-30206676D01*
X92429877Y-30339379D01*
X92610000Y-30293997D01*
X92610000Y-29310000D01*
X92810000Y-29310000D01*
X92810000Y-30293997D01*
X92990123Y-30339379D01*
X93310522Y-30206676D01*
X93646221Y-29900999D01*
X93839389Y-29490124D01*
X94120611Y-29490124D01*
X94313779Y-29900999D01*
X94649478Y-30206676D01*
X94969877Y-30339379D01*
X95150000Y-30293997D01*
X95150000Y-29310000D01*
X95350000Y-29310000D01*
X95350000Y-30293997D01*
X95530123Y-30339379D01*
X95850522Y-30206676D01*
X96186221Y-29900999D01*
X96379389Y-29490124D01*
X96660611Y-29490124D01*
X96853779Y-29900999D01*
X97189478Y-30206676D01*
X97509877Y-30339379D01*
X97690000Y-30293997D01*
X97690000Y-29310000D01*
X97890000Y-29310000D01*
X97890000Y-30293997D01*
X98070123Y-30339379D01*
X98390522Y-30206676D01*
X98726221Y-29900999D01*
X98919389Y-29490124D01*
X99200611Y-29490124D01*
X99393779Y-29900999D01*
X99729478Y-30206676D01*
X100049877Y-30339379D01*
X100230000Y-30293997D01*
X100230000Y-29310000D01*
X100430000Y-29310000D01*
X100430000Y-30293997D01*
X100610123Y-30339379D01*
X100930522Y-30206676D01*
X101266221Y-29900999D01*
X101459389Y-29490124D01*
X101414305Y-29310000D01*
X100430000Y-29310000D01*
X100230000Y-29310000D01*
X99245695Y-29310000D01*
X99200611Y-29490124D01*
X98919389Y-29490124D01*
X98874305Y-29310000D01*
X97890000Y-29310000D01*
X97690000Y-29310000D01*
X96705695Y-29310000D01*
X96660611Y-29490124D01*
X96379389Y-29490124D01*
X96334305Y-29310000D01*
X95350000Y-29310000D01*
X95150000Y-29310000D01*
X94165695Y-29310000D01*
X94120611Y-29490124D01*
X93839389Y-29490124D01*
X93794305Y-29310000D01*
X92810000Y-29310000D01*
X92610000Y-29310000D01*
X91625695Y-29310000D01*
X91580611Y-29490124D01*
X91299389Y-29490124D01*
X91254305Y-29310000D01*
X90270000Y-29310000D01*
X90070000Y-29310000D01*
X89085695Y-29310000D01*
X89040611Y-29490124D01*
X88759389Y-29490124D01*
X88714305Y-29310000D01*
X87730000Y-29310000D01*
X87530000Y-29310000D01*
X86545695Y-29310000D01*
X86500611Y-29490124D01*
X86219389Y-29490124D01*
X86174305Y-29310000D01*
X85190000Y-29310000D01*
X84990000Y-29310000D01*
X84005695Y-29310000D01*
X83960611Y-29490124D01*
X83713600Y-29490124D01*
X83713600Y-29385000D01*
X83638600Y-29310000D01*
X82650000Y-29310000D01*
X82450000Y-29310000D01*
X81461400Y-29310000D01*
X81386400Y-29385000D01*
X74976000Y-29385000D01*
X74901000Y-29310000D01*
X73760000Y-29310000D01*
X73560000Y-29310000D01*
X72419000Y-29310000D01*
X72344000Y-29385000D01*
X71495000Y-29385000D01*
X71495000Y-28286727D01*
X72344000Y-28286727D01*
X72344000Y-29035000D01*
X72419000Y-29110000D01*
X73560000Y-29110000D01*
X73560000Y-28121400D01*
X73760000Y-28121400D01*
X73760000Y-29110000D01*
X74901000Y-29110000D01*
X74976000Y-29035000D01*
X74976000Y-28286727D01*
X74976000Y-28286726D01*
X81386400Y-28286726D01*
X81386400Y-29035000D01*
X81461400Y-29110000D01*
X82450000Y-29110000D01*
X82450000Y-28121400D01*
X82650000Y-28121400D01*
X82650000Y-29110000D01*
X83638600Y-29110000D01*
X83713600Y-29035000D01*
X83713600Y-28929876D01*
X83960611Y-28929876D01*
X84005695Y-29110000D01*
X84990000Y-29110000D01*
X84990000Y-28126003D01*
X85190000Y-28126003D01*
X85190000Y-29110000D01*
X86174305Y-29110000D01*
X86219389Y-28929876D01*
X86500611Y-28929876D01*
X86545695Y-29110000D01*
X87530000Y-29110000D01*
X87530000Y-28126003D01*
X87730000Y-28126003D01*
X87730000Y-29110000D01*
X88714305Y-29110000D01*
X88759389Y-28929876D01*
X89040611Y-28929876D01*
X89085695Y-29110000D01*
X90070000Y-29110000D01*
X90070000Y-28126003D01*
X90270000Y-28126003D01*
X90270000Y-29110000D01*
X91254305Y-29110000D01*
X91299389Y-28929876D01*
X91580611Y-28929876D01*
X91625695Y-29110000D01*
X92610000Y-29110000D01*
X92610000Y-28126003D01*
X92810000Y-28126003D01*
X92810000Y-29110000D01*
X93794305Y-29110000D01*
X93839389Y-28929876D01*
X94120611Y-28929876D01*
X94165695Y-29110000D01*
X95150000Y-29110000D01*
X95150000Y-28126003D01*
X95350000Y-28126003D01*
X95350000Y-29110000D01*
X96334305Y-29110000D01*
X96379389Y-28929876D01*
X96660611Y-28929876D01*
X96705695Y-29110000D01*
X97690000Y-29110000D01*
X97690000Y-28126003D01*
X97890000Y-28126003D01*
X97890000Y-29110000D01*
X98874305Y-29110000D01*
X98919389Y-28929876D01*
X99200611Y-28929876D01*
X99245695Y-29110000D01*
X100230000Y-29110000D01*
X100230000Y-28126003D01*
X100430000Y-28126003D01*
X100430000Y-29110000D01*
X101414305Y-29110000D01*
X101459389Y-28929876D01*
X101266221Y-28519001D01*
X100930522Y-28213324D01*
X100610123Y-28080621D01*
X100430000Y-28126003D01*
X100230000Y-28126003D01*
X100049877Y-28080621D01*
X99729478Y-28213324D01*
X99393779Y-28519001D01*
X99200611Y-28929876D01*
X98919389Y-28929876D01*
X98726221Y-28519001D01*
X98390522Y-28213324D01*
X98070123Y-28080621D01*
X97890000Y-28126003D01*
X97690000Y-28126003D01*
X97509877Y-28080621D01*
X97189478Y-28213324D01*
X96853779Y-28519001D01*
X96660611Y-28929876D01*
X96379389Y-28929876D01*
X96186221Y-28519001D01*
X95850522Y-28213324D01*
X95530123Y-28080621D01*
X95350000Y-28126003D01*
X95150000Y-28126003D01*
X94969877Y-28080621D01*
X94649478Y-28213324D01*
X94313779Y-28519001D01*
X94120611Y-28929876D01*
X93839389Y-28929876D01*
X93646221Y-28519001D01*
X93310522Y-28213324D01*
X92990123Y-28080621D01*
X92810000Y-28126003D01*
X92610000Y-28126003D01*
X92429877Y-28080621D01*
X92109478Y-28213324D01*
X91773779Y-28519001D01*
X91580611Y-28929876D01*
X91299389Y-28929876D01*
X91106221Y-28519001D01*
X90770522Y-28213324D01*
X90450123Y-28080621D01*
X90270000Y-28126003D01*
X90070000Y-28126003D01*
X89889877Y-28080621D01*
X89569478Y-28213324D01*
X89233779Y-28519001D01*
X89040611Y-28929876D01*
X88759389Y-28929876D01*
X88566221Y-28519001D01*
X88230522Y-28213324D01*
X87910123Y-28080621D01*
X87730000Y-28126003D01*
X87530000Y-28126003D01*
X87349877Y-28080621D01*
X87029478Y-28213324D01*
X86693779Y-28519001D01*
X86500611Y-28929876D01*
X86219389Y-28929876D01*
X86026221Y-28519001D01*
X85690522Y-28213324D01*
X85370123Y-28080621D01*
X85190000Y-28126003D01*
X84990000Y-28126003D01*
X84809877Y-28080621D01*
X84489478Y-28213324D01*
X84153779Y-28519001D01*
X83960611Y-28929876D01*
X83713600Y-28929876D01*
X83713600Y-28286726D01*
X83667928Y-28176463D01*
X83583536Y-28092072D01*
X83473273Y-28046400D01*
X82725000Y-28046400D01*
X82650000Y-28121400D01*
X82450000Y-28121400D01*
X82375000Y-28046400D01*
X81626727Y-28046400D01*
X81516464Y-28092072D01*
X81432072Y-28176463D01*
X81386400Y-28286726D01*
X74976000Y-28286726D01*
X74930328Y-28176464D01*
X74845937Y-28092072D01*
X74735674Y-28046400D01*
X73835000Y-28046400D01*
X73760000Y-28121400D01*
X73560000Y-28121400D01*
X73485000Y-28046400D01*
X72584326Y-28046400D01*
X72474063Y-28092072D01*
X72389672Y-28176464D01*
X72344000Y-28286727D01*
X71495000Y-28286727D01*
X71495000Y-27045000D01*
X83820000Y-27045000D01*
X83925575Y-27024000D01*
X84074000Y-27024000D01*
X84112906Y-27016121D01*
X84145681Y-26993727D01*
X84167161Y-26960346D01*
X84174000Y-26924000D01*
X84174000Y-26775575D01*
X84195000Y-26670000D01*
X84195000Y-23956828D01*
X84662596Y-23956828D01*
X85016873Y-24814246D01*
X85672303Y-25470821D01*
X86529101Y-25826595D01*
X87456828Y-25827404D01*
X88314246Y-25473127D01*
X88970821Y-24817697D01*
X89326595Y-23960899D01*
X89327404Y-23033172D01*
X88973127Y-22175754D01*
X88317697Y-21519179D01*
X87460899Y-21163405D01*
X86533172Y-21162596D01*
X85675754Y-21516873D01*
X85019179Y-22172303D01*
X84663405Y-23029101D01*
X84662596Y-23956828D01*
X84195000Y-23956828D01*
X84195000Y-20695000D01*
X89795000Y-20695000D01*
X89795000Y-26670000D01*
M02*
