G04 #@! TF.FileFunction,Copper,L1,Top,Signal*
%FSLAX46Y46*%
G04 Gerber Fmt 4.6, Leading zero omitted, Abs format (unit mm)*
G04 Created by KiCad (PCBNEW 4.0.2-stable) date Saturday, June 18, 2016 'PMt' 05:02:24 PM*
%MOMM*%
G01*
G04 APERTURE LIST*
%ADD10C,0.100000*%
%ADD11R,2.370000X2.430000*%
%ADD12R,0.550000X0.400000*%
%ADD13R,0.400000X0.550000*%
%ADD14R,1.675000X1.675000*%
%ADD15R,1.600000X1.000000*%
%ADD16R,1.727200X1.727200*%
%ADD17O,1.727200X1.727200*%
%ADD18R,0.750000X0.800000*%
%ADD19R,1.250000X1.000000*%
%ADD20R,2.032000X1.727200*%
%ADD21O,2.032000X1.727200*%
%ADD22C,4.064000*%
%ADD23C,0.400000*%
%ADD24C,0.200000*%
G04 APERTURE END LIST*
D10*
D11*
X83257000Y-37465000D03*
X77017000Y-37465000D03*
D12*
X93687900Y-39103300D03*
X93687900Y-38453300D03*
X93687900Y-37803300D03*
X93687900Y-37153300D03*
X93687900Y-36503300D03*
D13*
X92737900Y-35553300D03*
X92087900Y-35553300D03*
X91437900Y-35553300D03*
X90787900Y-35553300D03*
X90137900Y-35553300D03*
D12*
X89187900Y-36503300D03*
X89187900Y-37153300D03*
X89187900Y-37803300D03*
X89187900Y-38453300D03*
X89187900Y-39103300D03*
D13*
X90137900Y-40053300D03*
X90787900Y-40053300D03*
X91437900Y-40053300D03*
X92087900Y-40053300D03*
X92737900Y-40053300D03*
D14*
X90600400Y-36965800D03*
X90600400Y-38640800D03*
X92275400Y-36965800D03*
X92275400Y-38640800D03*
D15*
X79629000Y-42442000D03*
X79629000Y-45442000D03*
D16*
X100330000Y-36830000D03*
D17*
X97790000Y-36830000D03*
X100330000Y-39370000D03*
X97790000Y-39370000D03*
X100330000Y-41910000D03*
X97790000Y-41910000D03*
X100330000Y-44450000D03*
X97790000Y-44450000D03*
D18*
X86106000Y-38850000D03*
X86106000Y-37350000D03*
D19*
X85471000Y-43450000D03*
X85471000Y-45450000D03*
X87757000Y-43450000D03*
X87757000Y-45450000D03*
X90043000Y-43450000D03*
X90043000Y-45450000D03*
X92329000Y-43450000D03*
X92329000Y-45450000D03*
X94615000Y-43450000D03*
X94615000Y-45450000D03*
D16*
X73660000Y-44450000D03*
D17*
X76200000Y-44450000D03*
X73660000Y-41910000D03*
X76200000Y-41910000D03*
D20*
X73660000Y-29210000D03*
D21*
X73660000Y-31750000D03*
X73660000Y-34290000D03*
D16*
X82550000Y-29210000D03*
D17*
X82550000Y-31750000D03*
X85090000Y-29210000D03*
X85090000Y-31750000D03*
X87630000Y-29210000D03*
X87630000Y-31750000D03*
X90170000Y-29210000D03*
X90170000Y-31750000D03*
X92710000Y-29210000D03*
X92710000Y-31750000D03*
X95250000Y-29210000D03*
X95250000Y-31750000D03*
X97790000Y-29210000D03*
X97790000Y-31750000D03*
X100330000Y-29210000D03*
X100330000Y-31750000D03*
D22*
X86995000Y-23495000D03*
X86995000Y-50165000D03*
D23*
X85090000Y-37338000D03*
X92202000Y-38862000D03*
X91694000Y-38862000D03*
X91186000Y-38862000D03*
X90678000Y-38862000D03*
X92202000Y-36830000D03*
X91694000Y-36830000D03*
X91186000Y-36830000D03*
X90678000Y-36830000D03*
X91694000Y-38354000D03*
X91694000Y-37846000D03*
X91694000Y-37338000D03*
X91186000Y-37846000D03*
X92202000Y-37846000D03*
X92202000Y-38354000D03*
X91186000Y-38354000D03*
X90678000Y-38354000D03*
X90678000Y-37846000D03*
X92202000Y-37338000D03*
X91186000Y-37338000D03*
X90678000Y-37338000D03*
D24*
X89187900Y-38453300D02*
X86502700Y-38453300D01*
X86502700Y-38453300D02*
X86106000Y-38850000D01*
X85090000Y-34290000D02*
X76200000Y-34290000D01*
X88610000Y-37810000D02*
X85090000Y-34290000D01*
X89190000Y-37810000D02*
X88610000Y-37810000D01*
X73660000Y-31750000D02*
X76200000Y-34290000D01*
X85090000Y-33655000D02*
X84455000Y-33655000D01*
X84455000Y-33655000D02*
X82550000Y-31750000D01*
X88595000Y-37160000D02*
X85090000Y-33655000D01*
X89190000Y-37160000D02*
X88595000Y-37160000D01*
X85090000Y-33020000D02*
X85090000Y-31750000D01*
X88580000Y-36510000D02*
X85090000Y-33020000D01*
X89190000Y-36510000D02*
X88580000Y-36510000D01*
X90140000Y-35560000D02*
X90140000Y-35485000D01*
X90140000Y-35485000D02*
X87630000Y-32975000D01*
X87630000Y-32975000D02*
X87630000Y-31750000D01*
X90170000Y-34465000D02*
X90170000Y-31750000D01*
X90790000Y-35560000D02*
X90790000Y-35085000D01*
X90790000Y-35085000D02*
X90170000Y-34465000D01*
X92710000Y-33815000D02*
X92710000Y-31750000D01*
X91440000Y-35560000D02*
X91440000Y-35085000D01*
X91440000Y-35085000D02*
X92710000Y-33815000D01*
X92740000Y-35560000D02*
X92740000Y-35485000D01*
X92740000Y-35485000D02*
X95250000Y-32975000D01*
X95250000Y-32975000D02*
X95250000Y-31750000D01*
X93690000Y-36510000D02*
X93690000Y-35850000D01*
X93690000Y-35850000D02*
X97790000Y-31750000D01*
X98305000Y-33020000D02*
X99060000Y-33020000D01*
X99060000Y-33020000D02*
X100330000Y-31750000D01*
X93690000Y-37160000D02*
X94165000Y-37160000D01*
X94165000Y-37160000D02*
X98305000Y-33020000D01*
G36*
X98960000Y-36363422D02*
X98960000Y-44916578D01*
X98256578Y-45620000D01*
X97323422Y-45620000D01*
X96433545Y-44730123D01*
X96660621Y-44730123D01*
X96793324Y-45050522D01*
X97099001Y-45386221D01*
X97509876Y-45579389D01*
X97690000Y-45534305D01*
X97690000Y-44550000D01*
X97890000Y-44550000D01*
X97890000Y-45534305D01*
X98070124Y-45579389D01*
X98480999Y-45386221D01*
X98786676Y-45050522D01*
X98919379Y-44730123D01*
X98873997Y-44550000D01*
X97890000Y-44550000D01*
X97690000Y-44550000D01*
X96706003Y-44550000D01*
X96660621Y-44730123D01*
X96433545Y-44730123D01*
X96082711Y-44379289D01*
X96049629Y-44357350D01*
X96012000Y-44350000D01*
X84877422Y-44350000D01*
X84771125Y-44243703D01*
X84786327Y-44250000D01*
X85296000Y-44250000D01*
X85371000Y-44175000D01*
X85371000Y-43550000D01*
X85571000Y-43550000D01*
X85571000Y-44175000D01*
X85646000Y-44250000D01*
X86155673Y-44250000D01*
X86265936Y-44204328D01*
X86350328Y-44119937D01*
X86396000Y-44009674D01*
X86396000Y-43625000D01*
X86832000Y-43625000D01*
X86832000Y-44009674D01*
X86877672Y-44119937D01*
X86962064Y-44204328D01*
X87072327Y-44250000D01*
X87582000Y-44250000D01*
X87657000Y-44175000D01*
X87657000Y-43550000D01*
X87857000Y-43550000D01*
X87857000Y-44175000D01*
X87932000Y-44250000D01*
X88441673Y-44250000D01*
X88551936Y-44204328D01*
X88636328Y-44119937D01*
X88682000Y-44009674D01*
X88682000Y-43625000D01*
X89118000Y-43625000D01*
X89118000Y-44009674D01*
X89163672Y-44119937D01*
X89248064Y-44204328D01*
X89358327Y-44250000D01*
X89868000Y-44250000D01*
X89943000Y-44175000D01*
X89943000Y-43550000D01*
X90143000Y-43550000D01*
X90143000Y-44175000D01*
X90218000Y-44250000D01*
X90727673Y-44250000D01*
X90837936Y-44204328D01*
X90922328Y-44119937D01*
X90968000Y-44009674D01*
X90968000Y-43625000D01*
X91404000Y-43625000D01*
X91404000Y-44009674D01*
X91449672Y-44119937D01*
X91534064Y-44204328D01*
X91644327Y-44250000D01*
X92154000Y-44250000D01*
X92229000Y-44175000D01*
X92229000Y-43550000D01*
X92429000Y-43550000D01*
X92429000Y-44175000D01*
X92504000Y-44250000D01*
X93013673Y-44250000D01*
X93123936Y-44204328D01*
X93208328Y-44119937D01*
X93254000Y-44009674D01*
X93254000Y-43625000D01*
X93690000Y-43625000D01*
X93690000Y-44009674D01*
X93735672Y-44119937D01*
X93820064Y-44204328D01*
X93930327Y-44250000D01*
X94440000Y-44250000D01*
X94515000Y-44175000D01*
X94515000Y-43550000D01*
X94715000Y-43550000D01*
X94715000Y-44175000D01*
X94790000Y-44250000D01*
X95299673Y-44250000D01*
X95409936Y-44204328D01*
X95444387Y-44169877D01*
X96660621Y-44169877D01*
X96706003Y-44350000D01*
X97690000Y-44350000D01*
X97690000Y-43365695D01*
X97890000Y-43365695D01*
X97890000Y-44350000D01*
X98873997Y-44350000D01*
X98919379Y-44169877D01*
X98786676Y-43849478D01*
X98480999Y-43513779D01*
X98070124Y-43320611D01*
X97890000Y-43365695D01*
X97690000Y-43365695D01*
X97509876Y-43320611D01*
X97099001Y-43513779D01*
X96793324Y-43849478D01*
X96660621Y-44169877D01*
X95444387Y-44169877D01*
X95494328Y-44119937D01*
X95540000Y-44009674D01*
X95540000Y-43625000D01*
X95465000Y-43550000D01*
X94715000Y-43550000D01*
X94515000Y-43550000D01*
X93765000Y-43550000D01*
X93690000Y-43625000D01*
X93254000Y-43625000D01*
X93179000Y-43550000D01*
X92429000Y-43550000D01*
X92229000Y-43550000D01*
X91479000Y-43550000D01*
X91404000Y-43625000D01*
X90968000Y-43625000D01*
X90893000Y-43550000D01*
X90143000Y-43550000D01*
X89943000Y-43550000D01*
X89193000Y-43550000D01*
X89118000Y-43625000D01*
X88682000Y-43625000D01*
X88607000Y-43550000D01*
X87857000Y-43550000D01*
X87657000Y-43550000D01*
X86907000Y-43550000D01*
X86832000Y-43625000D01*
X86396000Y-43625000D01*
X86321000Y-43550000D01*
X85571000Y-43550000D01*
X85371000Y-43550000D01*
X84621000Y-43550000D01*
X84546000Y-43625000D01*
X84546000Y-44009674D01*
X84552296Y-44024874D01*
X84428000Y-43900578D01*
X84428000Y-42967422D01*
X84574923Y-42820499D01*
X84546000Y-42890326D01*
X84546000Y-43275000D01*
X84621000Y-43350000D01*
X85371000Y-43350000D01*
X85371000Y-42725000D01*
X85571000Y-42725000D01*
X85571000Y-43350000D01*
X86321000Y-43350000D01*
X86396000Y-43275000D01*
X86396000Y-42890326D01*
X86832000Y-42890326D01*
X86832000Y-43275000D01*
X86907000Y-43350000D01*
X87657000Y-43350000D01*
X87657000Y-42725000D01*
X87857000Y-42725000D01*
X87857000Y-43350000D01*
X88607000Y-43350000D01*
X88682000Y-43275000D01*
X88682000Y-42890326D01*
X89118000Y-42890326D01*
X89118000Y-43275000D01*
X89193000Y-43350000D01*
X89943000Y-43350000D01*
X89943000Y-42725000D01*
X90143000Y-42725000D01*
X90143000Y-43350000D01*
X90893000Y-43350000D01*
X90968000Y-43275000D01*
X90968000Y-42890326D01*
X91404000Y-42890326D01*
X91404000Y-43275000D01*
X91479000Y-43350000D01*
X92229000Y-43350000D01*
X92229000Y-42725000D01*
X92429000Y-42725000D01*
X92429000Y-43350000D01*
X93179000Y-43350000D01*
X93254000Y-43275000D01*
X93254000Y-42890326D01*
X93690000Y-42890326D01*
X93690000Y-43275000D01*
X93765000Y-43350000D01*
X94515000Y-43350000D01*
X94515000Y-42725000D01*
X94715000Y-42725000D01*
X94715000Y-43350000D01*
X95465000Y-43350000D01*
X95540000Y-43275000D01*
X95540000Y-42890326D01*
X95494328Y-42780063D01*
X95409936Y-42695672D01*
X95299673Y-42650000D01*
X94790000Y-42650000D01*
X94715000Y-42725000D01*
X94515000Y-42725000D01*
X94440000Y-42650000D01*
X93930327Y-42650000D01*
X93820064Y-42695672D01*
X93735672Y-42780063D01*
X93690000Y-42890326D01*
X93254000Y-42890326D01*
X93208328Y-42780063D01*
X93123936Y-42695672D01*
X93013673Y-42650000D01*
X92504000Y-42650000D01*
X92429000Y-42725000D01*
X92229000Y-42725000D01*
X92154000Y-42650000D01*
X91644327Y-42650000D01*
X91534064Y-42695672D01*
X91449672Y-42780063D01*
X91404000Y-42890326D01*
X90968000Y-42890326D01*
X90922328Y-42780063D01*
X90837936Y-42695672D01*
X90727673Y-42650000D01*
X90218000Y-42650000D01*
X90143000Y-42725000D01*
X89943000Y-42725000D01*
X89868000Y-42650000D01*
X89358327Y-42650000D01*
X89248064Y-42695672D01*
X89163672Y-42780063D01*
X89118000Y-42890326D01*
X88682000Y-42890326D01*
X88636328Y-42780063D01*
X88551936Y-42695672D01*
X88441673Y-42650000D01*
X87932000Y-42650000D01*
X87857000Y-42725000D01*
X87657000Y-42725000D01*
X87582000Y-42650000D01*
X87072327Y-42650000D01*
X86962064Y-42695672D01*
X86877672Y-42780063D01*
X86832000Y-42890326D01*
X86396000Y-42890326D01*
X86350328Y-42780063D01*
X86265936Y-42695672D01*
X86155673Y-42650000D01*
X85646000Y-42650000D01*
X85571000Y-42725000D01*
X85371000Y-42725000D01*
X85296000Y-42650000D01*
X84786327Y-42650000D01*
X84716498Y-42678924D01*
X85205299Y-42190123D01*
X96660621Y-42190123D01*
X96793324Y-42510522D01*
X97099001Y-42846221D01*
X97509876Y-43039389D01*
X97690000Y-42994305D01*
X97690000Y-42010000D01*
X97890000Y-42010000D01*
X97890000Y-42994305D01*
X98070124Y-43039389D01*
X98480999Y-42846221D01*
X98786676Y-42510522D01*
X98919379Y-42190123D01*
X98873997Y-42010000D01*
X97890000Y-42010000D01*
X97690000Y-42010000D01*
X96706003Y-42010000D01*
X96660621Y-42190123D01*
X85205299Y-42190123D01*
X85385422Y-42010000D01*
X89662000Y-42010000D01*
X89700906Y-42002121D01*
X89732711Y-41980711D01*
X90083545Y-41629877D01*
X96660621Y-41629877D01*
X96706003Y-41810000D01*
X97690000Y-41810000D01*
X97690000Y-40825695D01*
X97890000Y-40825695D01*
X97890000Y-41810000D01*
X98873997Y-41810000D01*
X98919379Y-41629877D01*
X98786676Y-41309478D01*
X98480999Y-40973779D01*
X98070124Y-40780611D01*
X97890000Y-40825695D01*
X97690000Y-40825695D01*
X97509876Y-40780611D01*
X97099001Y-40973779D01*
X96793324Y-41309478D01*
X96660621Y-41629877D01*
X90083545Y-41629877D01*
X90973422Y-40740000D01*
X92202000Y-40740000D01*
X92240906Y-40732121D01*
X92272711Y-40710711D01*
X92363463Y-40619959D01*
X92399073Y-40613258D01*
X92415850Y-40602463D01*
X92478227Y-40628300D01*
X92562900Y-40628300D01*
X92637900Y-40553300D01*
X92637900Y-40153300D01*
X92837900Y-40153300D01*
X92837900Y-40553300D01*
X92912900Y-40628300D01*
X92997573Y-40628300D01*
X93107836Y-40582628D01*
X93192228Y-40498237D01*
X93237900Y-40387974D01*
X93237900Y-40228300D01*
X93162900Y-40153300D01*
X92837900Y-40153300D01*
X92637900Y-40153300D01*
X92617900Y-40153300D01*
X92617900Y-39953300D01*
X92637900Y-39953300D01*
X92637900Y-39933300D01*
X92837900Y-39933300D01*
X92837900Y-39953300D01*
X93162900Y-39953300D01*
X93237900Y-39878300D01*
X93237900Y-39754361D01*
X93326179Y-39697555D01*
X93358587Y-39650123D01*
X96660621Y-39650123D01*
X96793324Y-39970522D01*
X97099001Y-40306221D01*
X97509876Y-40499389D01*
X97690000Y-40454305D01*
X97690000Y-39470000D01*
X97890000Y-39470000D01*
X97890000Y-40454305D01*
X98070124Y-40499389D01*
X98480999Y-40306221D01*
X98786676Y-39970522D01*
X98919379Y-39650123D01*
X98873997Y-39470000D01*
X97890000Y-39470000D01*
X97690000Y-39470000D01*
X96706003Y-39470000D01*
X96660621Y-39650123D01*
X93358587Y-39650123D01*
X93390580Y-39603300D01*
X93512900Y-39603300D01*
X93587900Y-39528300D01*
X93587900Y-39203300D01*
X93787900Y-39203300D01*
X93787900Y-39528300D01*
X93862900Y-39603300D01*
X94022574Y-39603300D01*
X94132837Y-39557628D01*
X94217228Y-39473236D01*
X94262900Y-39362973D01*
X94262900Y-39278300D01*
X94187900Y-39203300D01*
X93787900Y-39203300D01*
X93587900Y-39203300D01*
X93567900Y-39203300D01*
X93567900Y-39089877D01*
X96660621Y-39089877D01*
X96706003Y-39270000D01*
X97690000Y-39270000D01*
X97690000Y-38285695D01*
X97890000Y-38285695D01*
X97890000Y-39270000D01*
X98873997Y-39270000D01*
X98919379Y-39089877D01*
X98786676Y-38769478D01*
X98480999Y-38433779D01*
X98070124Y-38240611D01*
X97890000Y-38285695D01*
X97690000Y-38285695D01*
X97509876Y-38240611D01*
X97099001Y-38433779D01*
X96793324Y-38769478D01*
X96660621Y-39089877D01*
X93567900Y-39089877D01*
X93567900Y-39003300D01*
X93587900Y-39003300D01*
X93587900Y-38983300D01*
X93787900Y-38983300D01*
X93787900Y-39003300D01*
X94187900Y-39003300D01*
X94229200Y-38962000D01*
X94234000Y-38962000D01*
X94272906Y-38954121D01*
X94305681Y-38931727D01*
X94327161Y-38898346D01*
X94334000Y-38862000D01*
X94334000Y-38100000D01*
X94326121Y-38061094D01*
X94303727Y-38028319D01*
X94270346Y-38006839D01*
X94262900Y-38005438D01*
X94262900Y-37978300D01*
X94187900Y-37903300D01*
X93787900Y-37903300D01*
X93787900Y-37923300D01*
X93587900Y-37923300D01*
X93587900Y-37903300D01*
X93572000Y-37903300D01*
X93572000Y-37703300D01*
X93587900Y-37703300D01*
X93587900Y-37692000D01*
X93787900Y-37692000D01*
X93787900Y-37703300D01*
X94187900Y-37703300D01*
X94199200Y-37692000D01*
X94234000Y-37692000D01*
X94272906Y-37684121D01*
X94304711Y-37662711D01*
X94857299Y-37110123D01*
X96660621Y-37110123D01*
X96793324Y-37430522D01*
X97099001Y-37766221D01*
X97509876Y-37959389D01*
X97690000Y-37914305D01*
X97690000Y-36930000D01*
X97890000Y-36930000D01*
X97890000Y-37914305D01*
X98070124Y-37959389D01*
X98480999Y-37766221D01*
X98786676Y-37430522D01*
X98919379Y-37110123D01*
X98873997Y-36930000D01*
X97890000Y-36930000D01*
X97690000Y-36930000D01*
X96706003Y-36930000D01*
X96660621Y-37110123D01*
X94857299Y-37110123D01*
X95417545Y-36549877D01*
X96660621Y-36549877D01*
X96706003Y-36730000D01*
X97690000Y-36730000D01*
X97690000Y-35745695D01*
X97890000Y-35745695D01*
X97890000Y-36730000D01*
X98873997Y-36730000D01*
X98919379Y-36549877D01*
X98786676Y-36229478D01*
X98480999Y-35893779D01*
X98070124Y-35700611D01*
X97890000Y-35745695D01*
X97690000Y-35745695D01*
X97509876Y-35700611D01*
X97099001Y-35893779D01*
X96793324Y-36229478D01*
X96660621Y-36549877D01*
X95417545Y-36549877D01*
X96307422Y-35660000D01*
X98256578Y-35660000D01*
X98960000Y-36363422D01*
X98960000Y-36363422D01*
G37*
X98960000Y-36363422D02*
X98960000Y-44916578D01*
X98256578Y-45620000D01*
X97323422Y-45620000D01*
X96433545Y-44730123D01*
X96660621Y-44730123D01*
X96793324Y-45050522D01*
X97099001Y-45386221D01*
X97509876Y-45579389D01*
X97690000Y-45534305D01*
X97690000Y-44550000D01*
X97890000Y-44550000D01*
X97890000Y-45534305D01*
X98070124Y-45579389D01*
X98480999Y-45386221D01*
X98786676Y-45050522D01*
X98919379Y-44730123D01*
X98873997Y-44550000D01*
X97890000Y-44550000D01*
X97690000Y-44550000D01*
X96706003Y-44550000D01*
X96660621Y-44730123D01*
X96433545Y-44730123D01*
X96082711Y-44379289D01*
X96049629Y-44357350D01*
X96012000Y-44350000D01*
X84877422Y-44350000D01*
X84771125Y-44243703D01*
X84786327Y-44250000D01*
X85296000Y-44250000D01*
X85371000Y-44175000D01*
X85371000Y-43550000D01*
X85571000Y-43550000D01*
X85571000Y-44175000D01*
X85646000Y-44250000D01*
X86155673Y-44250000D01*
X86265936Y-44204328D01*
X86350328Y-44119937D01*
X86396000Y-44009674D01*
X86396000Y-43625000D01*
X86832000Y-43625000D01*
X86832000Y-44009674D01*
X86877672Y-44119937D01*
X86962064Y-44204328D01*
X87072327Y-44250000D01*
X87582000Y-44250000D01*
X87657000Y-44175000D01*
X87657000Y-43550000D01*
X87857000Y-43550000D01*
X87857000Y-44175000D01*
X87932000Y-44250000D01*
X88441673Y-44250000D01*
X88551936Y-44204328D01*
X88636328Y-44119937D01*
X88682000Y-44009674D01*
X88682000Y-43625000D01*
X89118000Y-43625000D01*
X89118000Y-44009674D01*
X89163672Y-44119937D01*
X89248064Y-44204328D01*
X89358327Y-44250000D01*
X89868000Y-44250000D01*
X89943000Y-44175000D01*
X89943000Y-43550000D01*
X90143000Y-43550000D01*
X90143000Y-44175000D01*
X90218000Y-44250000D01*
X90727673Y-44250000D01*
X90837936Y-44204328D01*
X90922328Y-44119937D01*
X90968000Y-44009674D01*
X90968000Y-43625000D01*
X91404000Y-43625000D01*
X91404000Y-44009674D01*
X91449672Y-44119937D01*
X91534064Y-44204328D01*
X91644327Y-44250000D01*
X92154000Y-44250000D01*
X92229000Y-44175000D01*
X92229000Y-43550000D01*
X92429000Y-43550000D01*
X92429000Y-44175000D01*
X92504000Y-44250000D01*
X93013673Y-44250000D01*
X93123936Y-44204328D01*
X93208328Y-44119937D01*
X93254000Y-44009674D01*
X93254000Y-43625000D01*
X93690000Y-43625000D01*
X93690000Y-44009674D01*
X93735672Y-44119937D01*
X93820064Y-44204328D01*
X93930327Y-44250000D01*
X94440000Y-44250000D01*
X94515000Y-44175000D01*
X94515000Y-43550000D01*
X94715000Y-43550000D01*
X94715000Y-44175000D01*
X94790000Y-44250000D01*
X95299673Y-44250000D01*
X95409936Y-44204328D01*
X95444387Y-44169877D01*
X96660621Y-44169877D01*
X96706003Y-44350000D01*
X97690000Y-44350000D01*
X97690000Y-43365695D01*
X97890000Y-43365695D01*
X97890000Y-44350000D01*
X98873997Y-44350000D01*
X98919379Y-44169877D01*
X98786676Y-43849478D01*
X98480999Y-43513779D01*
X98070124Y-43320611D01*
X97890000Y-43365695D01*
X97690000Y-43365695D01*
X97509876Y-43320611D01*
X97099001Y-43513779D01*
X96793324Y-43849478D01*
X96660621Y-44169877D01*
X95444387Y-44169877D01*
X95494328Y-44119937D01*
X95540000Y-44009674D01*
X95540000Y-43625000D01*
X95465000Y-43550000D01*
X94715000Y-43550000D01*
X94515000Y-43550000D01*
X93765000Y-43550000D01*
X93690000Y-43625000D01*
X93254000Y-43625000D01*
X93179000Y-43550000D01*
X92429000Y-43550000D01*
X92229000Y-43550000D01*
X91479000Y-43550000D01*
X91404000Y-43625000D01*
X90968000Y-43625000D01*
X90893000Y-43550000D01*
X90143000Y-43550000D01*
X89943000Y-43550000D01*
X89193000Y-43550000D01*
X89118000Y-43625000D01*
X88682000Y-43625000D01*
X88607000Y-43550000D01*
X87857000Y-43550000D01*
X87657000Y-43550000D01*
X86907000Y-43550000D01*
X86832000Y-43625000D01*
X86396000Y-43625000D01*
X86321000Y-43550000D01*
X85571000Y-43550000D01*
X85371000Y-43550000D01*
X84621000Y-43550000D01*
X84546000Y-43625000D01*
X84546000Y-44009674D01*
X84552296Y-44024874D01*
X84428000Y-43900578D01*
X84428000Y-42967422D01*
X84574923Y-42820499D01*
X84546000Y-42890326D01*
X84546000Y-43275000D01*
X84621000Y-43350000D01*
X85371000Y-43350000D01*
X85371000Y-42725000D01*
X85571000Y-42725000D01*
X85571000Y-43350000D01*
X86321000Y-43350000D01*
X86396000Y-43275000D01*
X86396000Y-42890326D01*
X86832000Y-42890326D01*
X86832000Y-43275000D01*
X86907000Y-43350000D01*
X87657000Y-43350000D01*
X87657000Y-42725000D01*
X87857000Y-42725000D01*
X87857000Y-43350000D01*
X88607000Y-43350000D01*
X88682000Y-43275000D01*
X88682000Y-42890326D01*
X89118000Y-42890326D01*
X89118000Y-43275000D01*
X89193000Y-43350000D01*
X89943000Y-43350000D01*
X89943000Y-42725000D01*
X90143000Y-42725000D01*
X90143000Y-43350000D01*
X90893000Y-43350000D01*
X90968000Y-43275000D01*
X90968000Y-42890326D01*
X91404000Y-42890326D01*
X91404000Y-43275000D01*
X91479000Y-43350000D01*
X92229000Y-43350000D01*
X92229000Y-42725000D01*
X92429000Y-42725000D01*
X92429000Y-43350000D01*
X93179000Y-43350000D01*
X93254000Y-43275000D01*
X93254000Y-42890326D01*
X93690000Y-42890326D01*
X93690000Y-43275000D01*
X93765000Y-43350000D01*
X94515000Y-43350000D01*
X94515000Y-42725000D01*
X94715000Y-42725000D01*
X94715000Y-43350000D01*
X95465000Y-43350000D01*
X95540000Y-43275000D01*
X95540000Y-42890326D01*
X95494328Y-42780063D01*
X95409936Y-42695672D01*
X95299673Y-42650000D01*
X94790000Y-42650000D01*
X94715000Y-42725000D01*
X94515000Y-42725000D01*
X94440000Y-42650000D01*
X93930327Y-42650000D01*
X93820064Y-42695672D01*
X93735672Y-42780063D01*
X93690000Y-42890326D01*
X93254000Y-42890326D01*
X93208328Y-42780063D01*
X93123936Y-42695672D01*
X93013673Y-42650000D01*
X92504000Y-42650000D01*
X92429000Y-42725000D01*
X92229000Y-42725000D01*
X92154000Y-42650000D01*
X91644327Y-42650000D01*
X91534064Y-42695672D01*
X91449672Y-42780063D01*
X91404000Y-42890326D01*
X90968000Y-42890326D01*
X90922328Y-42780063D01*
X90837936Y-42695672D01*
X90727673Y-42650000D01*
X90218000Y-42650000D01*
X90143000Y-42725000D01*
X89943000Y-42725000D01*
X89868000Y-42650000D01*
X89358327Y-42650000D01*
X89248064Y-42695672D01*
X89163672Y-42780063D01*
X89118000Y-42890326D01*
X88682000Y-42890326D01*
X88636328Y-42780063D01*
X88551936Y-42695672D01*
X88441673Y-42650000D01*
X87932000Y-42650000D01*
X87857000Y-42725000D01*
X87657000Y-42725000D01*
X87582000Y-42650000D01*
X87072327Y-42650000D01*
X86962064Y-42695672D01*
X86877672Y-42780063D01*
X86832000Y-42890326D01*
X86396000Y-42890326D01*
X86350328Y-42780063D01*
X86265936Y-42695672D01*
X86155673Y-42650000D01*
X85646000Y-42650000D01*
X85571000Y-42725000D01*
X85371000Y-42725000D01*
X85296000Y-42650000D01*
X84786327Y-42650000D01*
X84716498Y-42678924D01*
X85205299Y-42190123D01*
X96660621Y-42190123D01*
X96793324Y-42510522D01*
X97099001Y-42846221D01*
X97509876Y-43039389D01*
X97690000Y-42994305D01*
X97690000Y-42010000D01*
X97890000Y-42010000D01*
X97890000Y-42994305D01*
X98070124Y-43039389D01*
X98480999Y-42846221D01*
X98786676Y-42510522D01*
X98919379Y-42190123D01*
X98873997Y-42010000D01*
X97890000Y-42010000D01*
X97690000Y-42010000D01*
X96706003Y-42010000D01*
X96660621Y-42190123D01*
X85205299Y-42190123D01*
X85385422Y-42010000D01*
X89662000Y-42010000D01*
X89700906Y-42002121D01*
X89732711Y-41980711D01*
X90083545Y-41629877D01*
X96660621Y-41629877D01*
X96706003Y-41810000D01*
X97690000Y-41810000D01*
X97690000Y-40825695D01*
X97890000Y-40825695D01*
X97890000Y-41810000D01*
X98873997Y-41810000D01*
X98919379Y-41629877D01*
X98786676Y-41309478D01*
X98480999Y-40973779D01*
X98070124Y-40780611D01*
X97890000Y-40825695D01*
X97690000Y-40825695D01*
X97509876Y-40780611D01*
X97099001Y-40973779D01*
X96793324Y-41309478D01*
X96660621Y-41629877D01*
X90083545Y-41629877D01*
X90973422Y-40740000D01*
X92202000Y-40740000D01*
X92240906Y-40732121D01*
X92272711Y-40710711D01*
X92363463Y-40619959D01*
X92399073Y-40613258D01*
X92415850Y-40602463D01*
X92478227Y-40628300D01*
X92562900Y-40628300D01*
X92637900Y-40553300D01*
X92637900Y-40153300D01*
X92837900Y-40153300D01*
X92837900Y-40553300D01*
X92912900Y-40628300D01*
X92997573Y-40628300D01*
X93107836Y-40582628D01*
X93192228Y-40498237D01*
X93237900Y-40387974D01*
X93237900Y-40228300D01*
X93162900Y-40153300D01*
X92837900Y-40153300D01*
X92637900Y-40153300D01*
X92617900Y-40153300D01*
X92617900Y-39953300D01*
X92637900Y-39953300D01*
X92637900Y-39933300D01*
X92837900Y-39933300D01*
X92837900Y-39953300D01*
X93162900Y-39953300D01*
X93237900Y-39878300D01*
X93237900Y-39754361D01*
X93326179Y-39697555D01*
X93358587Y-39650123D01*
X96660621Y-39650123D01*
X96793324Y-39970522D01*
X97099001Y-40306221D01*
X97509876Y-40499389D01*
X97690000Y-40454305D01*
X97690000Y-39470000D01*
X97890000Y-39470000D01*
X97890000Y-40454305D01*
X98070124Y-40499389D01*
X98480999Y-40306221D01*
X98786676Y-39970522D01*
X98919379Y-39650123D01*
X98873997Y-39470000D01*
X97890000Y-39470000D01*
X97690000Y-39470000D01*
X96706003Y-39470000D01*
X96660621Y-39650123D01*
X93358587Y-39650123D01*
X93390580Y-39603300D01*
X93512900Y-39603300D01*
X93587900Y-39528300D01*
X93587900Y-39203300D01*
X93787900Y-39203300D01*
X93787900Y-39528300D01*
X93862900Y-39603300D01*
X94022574Y-39603300D01*
X94132837Y-39557628D01*
X94217228Y-39473236D01*
X94262900Y-39362973D01*
X94262900Y-39278300D01*
X94187900Y-39203300D01*
X93787900Y-39203300D01*
X93587900Y-39203300D01*
X93567900Y-39203300D01*
X93567900Y-39089877D01*
X96660621Y-39089877D01*
X96706003Y-39270000D01*
X97690000Y-39270000D01*
X97690000Y-38285695D01*
X97890000Y-38285695D01*
X97890000Y-39270000D01*
X98873997Y-39270000D01*
X98919379Y-39089877D01*
X98786676Y-38769478D01*
X98480999Y-38433779D01*
X98070124Y-38240611D01*
X97890000Y-38285695D01*
X97690000Y-38285695D01*
X97509876Y-38240611D01*
X97099001Y-38433779D01*
X96793324Y-38769478D01*
X96660621Y-39089877D01*
X93567900Y-39089877D01*
X93567900Y-39003300D01*
X93587900Y-39003300D01*
X93587900Y-38983300D01*
X93787900Y-38983300D01*
X93787900Y-39003300D01*
X94187900Y-39003300D01*
X94229200Y-38962000D01*
X94234000Y-38962000D01*
X94272906Y-38954121D01*
X94305681Y-38931727D01*
X94327161Y-38898346D01*
X94334000Y-38862000D01*
X94334000Y-38100000D01*
X94326121Y-38061094D01*
X94303727Y-38028319D01*
X94270346Y-38006839D01*
X94262900Y-38005438D01*
X94262900Y-37978300D01*
X94187900Y-37903300D01*
X93787900Y-37903300D01*
X93787900Y-37923300D01*
X93587900Y-37923300D01*
X93587900Y-37903300D01*
X93572000Y-37903300D01*
X93572000Y-37703300D01*
X93587900Y-37703300D01*
X93587900Y-37692000D01*
X93787900Y-37692000D01*
X93787900Y-37703300D01*
X94187900Y-37703300D01*
X94199200Y-37692000D01*
X94234000Y-37692000D01*
X94272906Y-37684121D01*
X94304711Y-37662711D01*
X94857299Y-37110123D01*
X96660621Y-37110123D01*
X96793324Y-37430522D01*
X97099001Y-37766221D01*
X97509876Y-37959389D01*
X97690000Y-37914305D01*
X97690000Y-36930000D01*
X97890000Y-36930000D01*
X97890000Y-37914305D01*
X98070124Y-37959389D01*
X98480999Y-37766221D01*
X98786676Y-37430522D01*
X98919379Y-37110123D01*
X98873997Y-36930000D01*
X97890000Y-36930000D01*
X97690000Y-36930000D01*
X96706003Y-36930000D01*
X96660621Y-37110123D01*
X94857299Y-37110123D01*
X95417545Y-36549877D01*
X96660621Y-36549877D01*
X96706003Y-36730000D01*
X97690000Y-36730000D01*
X97690000Y-35745695D01*
X97890000Y-35745695D01*
X97890000Y-36730000D01*
X98873997Y-36730000D01*
X98919379Y-36549877D01*
X98786676Y-36229478D01*
X98480999Y-35893779D01*
X98070124Y-35700611D01*
X97890000Y-35745695D01*
X97690000Y-35745695D01*
X97509876Y-35700611D01*
X97099001Y-35893779D01*
X96793324Y-36229478D01*
X96660621Y-36549877D01*
X95417545Y-36549877D01*
X96307422Y-35660000D01*
X98256578Y-35660000D01*
X98960000Y-36363422D01*
G36*
X89795000Y-26670000D02*
X89816000Y-26775575D01*
X89816000Y-26924000D01*
X89823879Y-26962906D01*
X89846273Y-26995681D01*
X89879654Y-27017161D01*
X89916000Y-27024000D01*
X90064425Y-27024000D01*
X90170000Y-27045000D01*
X102495000Y-27045000D01*
X102495000Y-46615000D01*
X90170000Y-46615000D01*
X90064425Y-46636000D01*
X89916000Y-46636000D01*
X89877094Y-46643879D01*
X89844319Y-46666273D01*
X89822839Y-46699654D01*
X89816000Y-46736000D01*
X89816000Y-46884425D01*
X89795000Y-46990000D01*
X89795000Y-52965000D01*
X84195000Y-52965000D01*
X84195000Y-50626828D01*
X84662596Y-50626828D01*
X85016873Y-51484246D01*
X85672303Y-52140821D01*
X86529101Y-52496595D01*
X87456828Y-52497404D01*
X88314246Y-52143127D01*
X88970821Y-51487697D01*
X89326595Y-50630899D01*
X89327404Y-49703172D01*
X88973127Y-48845754D01*
X88317697Y-48189179D01*
X87460899Y-47833405D01*
X86533172Y-47832596D01*
X85675754Y-48186873D01*
X85019179Y-48842303D01*
X84663405Y-49699101D01*
X84662596Y-50626828D01*
X84195000Y-50626828D01*
X84195000Y-46990000D01*
X84174000Y-46884425D01*
X84174000Y-46736000D01*
X84166121Y-46697094D01*
X84143727Y-46664319D01*
X84110346Y-46642839D01*
X84074000Y-46636000D01*
X83925575Y-46636000D01*
X83820000Y-46615000D01*
X71495000Y-46615000D01*
X71495000Y-44625000D01*
X72496400Y-44625000D01*
X72496400Y-45373273D01*
X72542072Y-45483536D01*
X72626463Y-45567928D01*
X72736726Y-45613600D01*
X73485000Y-45613600D01*
X73560000Y-45538600D01*
X73560000Y-44550000D01*
X73760000Y-44550000D01*
X73760000Y-45538600D01*
X73835000Y-45613600D01*
X74583274Y-45613600D01*
X74693537Y-45567928D01*
X74777928Y-45483536D01*
X74823600Y-45373273D01*
X74823600Y-44625000D01*
X74748600Y-44550000D01*
X73760000Y-44550000D01*
X73560000Y-44550000D01*
X72571400Y-44550000D01*
X72496400Y-44625000D01*
X71495000Y-44625000D01*
X71495000Y-43526727D01*
X72496400Y-43526727D01*
X72496400Y-44275000D01*
X72571400Y-44350000D01*
X73560000Y-44350000D01*
X73560000Y-43361400D01*
X73760000Y-43361400D01*
X73760000Y-44350000D01*
X74748600Y-44350000D01*
X74823600Y-44275000D01*
X74823600Y-43526727D01*
X74777928Y-43416464D01*
X74693537Y-43332072D01*
X74583274Y-43286400D01*
X73835000Y-43286400D01*
X73760000Y-43361400D01*
X73560000Y-43361400D01*
X73485000Y-43286400D01*
X72736726Y-43286400D01*
X72626463Y-43332072D01*
X72542072Y-43416464D01*
X72496400Y-43526727D01*
X71495000Y-43526727D01*
X71495000Y-42190123D01*
X72530621Y-42190123D01*
X72663324Y-42510522D01*
X72969001Y-42846221D01*
X73379876Y-43039389D01*
X73560000Y-42994305D01*
X73560000Y-42010000D01*
X73760000Y-42010000D01*
X73760000Y-42994305D01*
X73940124Y-43039389D01*
X74350999Y-42846221D01*
X74656676Y-42510522D01*
X74789379Y-42190123D01*
X74743997Y-42010000D01*
X73760000Y-42010000D01*
X73560000Y-42010000D01*
X72576003Y-42010000D01*
X72530621Y-42190123D01*
X71495000Y-42190123D01*
X71495000Y-41629877D01*
X72530621Y-41629877D01*
X72576003Y-41810000D01*
X73560000Y-41810000D01*
X73560000Y-40825695D01*
X73760000Y-40825695D01*
X73760000Y-41810000D01*
X74743997Y-41810000D01*
X74789379Y-41629877D01*
X74656676Y-41309478D01*
X74350999Y-40973779D01*
X73940124Y-40780611D01*
X73760000Y-40825695D01*
X73560000Y-40825695D01*
X73379876Y-40780611D01*
X72969001Y-40973779D01*
X72663324Y-41309478D01*
X72530621Y-41629877D01*
X71495000Y-41629877D01*
X71495000Y-40406422D01*
X71669422Y-40232000D01*
X74380578Y-40232000D01*
X74830000Y-40681422D01*
X74830000Y-45212000D01*
X74837879Y-45250906D01*
X74859289Y-45282711D01*
X75367289Y-45790711D01*
X75400371Y-45812650D01*
X75438000Y-45820000D01*
X76962000Y-45820000D01*
X77000906Y-45812121D01*
X77032711Y-45790711D01*
X77206422Y-45617000D01*
X78529000Y-45617000D01*
X78529000Y-46001674D01*
X78574672Y-46111937D01*
X78659064Y-46196328D01*
X78769327Y-46242000D01*
X79454000Y-46242000D01*
X79529000Y-46167000D01*
X79529000Y-45542000D01*
X79729000Y-45542000D01*
X79729000Y-46167000D01*
X79804000Y-46242000D01*
X80488673Y-46242000D01*
X80598936Y-46196328D01*
X80683328Y-46111937D01*
X80729000Y-46001674D01*
X80729000Y-45625000D01*
X84546000Y-45625000D01*
X84546000Y-46009674D01*
X84591672Y-46119937D01*
X84676064Y-46204328D01*
X84786327Y-46250000D01*
X85296000Y-46250000D01*
X85371000Y-46175000D01*
X85371000Y-45550000D01*
X85571000Y-45550000D01*
X85571000Y-46175000D01*
X85646000Y-46250000D01*
X86155673Y-46250000D01*
X86265936Y-46204328D01*
X86350328Y-46119937D01*
X86396000Y-46009674D01*
X86396000Y-45625000D01*
X86832000Y-45625000D01*
X86832000Y-46009674D01*
X86877672Y-46119937D01*
X86962064Y-46204328D01*
X87072327Y-46250000D01*
X87582000Y-46250000D01*
X87657000Y-46175000D01*
X87657000Y-45550000D01*
X87857000Y-45550000D01*
X87857000Y-46175000D01*
X87932000Y-46250000D01*
X88441673Y-46250000D01*
X88551936Y-46204328D01*
X88636328Y-46119937D01*
X88682000Y-46009674D01*
X88682000Y-45625000D01*
X89118000Y-45625000D01*
X89118000Y-46009674D01*
X89163672Y-46119937D01*
X89248064Y-46204328D01*
X89358327Y-46250000D01*
X89868000Y-46250000D01*
X89943000Y-46175000D01*
X89943000Y-45550000D01*
X90143000Y-45550000D01*
X90143000Y-46175000D01*
X90218000Y-46250000D01*
X90727673Y-46250000D01*
X90837936Y-46204328D01*
X90922328Y-46119937D01*
X90968000Y-46009674D01*
X90968000Y-45625000D01*
X91404000Y-45625000D01*
X91404000Y-46009674D01*
X91449672Y-46119937D01*
X91534064Y-46204328D01*
X91644327Y-46250000D01*
X92154000Y-46250000D01*
X92229000Y-46175000D01*
X92229000Y-45550000D01*
X92429000Y-45550000D01*
X92429000Y-46175000D01*
X92504000Y-46250000D01*
X93013673Y-46250000D01*
X93123936Y-46204328D01*
X93208328Y-46119937D01*
X93254000Y-46009674D01*
X93254000Y-45625000D01*
X93690000Y-45625000D01*
X93690000Y-46009674D01*
X93735672Y-46119937D01*
X93820064Y-46204328D01*
X93930327Y-46250000D01*
X94440000Y-46250000D01*
X94515000Y-46175000D01*
X94515000Y-45550000D01*
X94715000Y-45550000D01*
X94715000Y-46175000D01*
X94790000Y-46250000D01*
X95299673Y-46250000D01*
X95409936Y-46204328D01*
X95494328Y-46119937D01*
X95540000Y-46009674D01*
X95540000Y-45625000D01*
X95465000Y-45550000D01*
X94715000Y-45550000D01*
X94515000Y-45550000D01*
X93765000Y-45550000D01*
X93690000Y-45625000D01*
X93254000Y-45625000D01*
X93179000Y-45550000D01*
X92429000Y-45550000D01*
X92229000Y-45550000D01*
X91479000Y-45550000D01*
X91404000Y-45625000D01*
X90968000Y-45625000D01*
X90893000Y-45550000D01*
X90143000Y-45550000D01*
X89943000Y-45550000D01*
X89193000Y-45550000D01*
X89118000Y-45625000D01*
X88682000Y-45625000D01*
X88607000Y-45550000D01*
X87857000Y-45550000D01*
X87657000Y-45550000D01*
X86907000Y-45550000D01*
X86832000Y-45625000D01*
X86396000Y-45625000D01*
X86321000Y-45550000D01*
X85571000Y-45550000D01*
X85371000Y-45550000D01*
X84621000Y-45550000D01*
X84546000Y-45625000D01*
X80729000Y-45625000D01*
X80729000Y-45617000D01*
X80654000Y-45542000D01*
X79729000Y-45542000D01*
X79529000Y-45542000D01*
X78604000Y-45542000D01*
X78529000Y-45617000D01*
X77206422Y-45617000D01*
X77941096Y-44882326D01*
X78529000Y-44882326D01*
X78529000Y-45267000D01*
X78604000Y-45342000D01*
X79529000Y-45342000D01*
X79529000Y-44717000D01*
X79729000Y-44717000D01*
X79729000Y-45342000D01*
X80654000Y-45342000D01*
X80729000Y-45267000D01*
X80729000Y-44882326D01*
X80683328Y-44772063D01*
X80598936Y-44687672D01*
X80488673Y-44642000D01*
X79804000Y-44642000D01*
X79729000Y-44717000D01*
X79529000Y-44717000D01*
X79454000Y-44642000D01*
X78769327Y-44642000D01*
X78659064Y-44687672D01*
X78574672Y-44772063D01*
X78529000Y-44882326D01*
X77941096Y-44882326D01*
X78527422Y-44296000D01*
X84032578Y-44296000D01*
X84511289Y-44774711D01*
X84544371Y-44796650D01*
X84581775Y-44803956D01*
X84546000Y-44890326D01*
X84546000Y-45275000D01*
X84621000Y-45350000D01*
X85371000Y-45350000D01*
X85371000Y-45330000D01*
X85571000Y-45330000D01*
X85571000Y-45350000D01*
X86321000Y-45350000D01*
X86396000Y-45275000D01*
X86396000Y-44890326D01*
X86360243Y-44804000D01*
X86867757Y-44804000D01*
X86832000Y-44890326D01*
X86832000Y-45275000D01*
X86907000Y-45350000D01*
X87657000Y-45350000D01*
X87657000Y-45330000D01*
X87857000Y-45330000D01*
X87857000Y-45350000D01*
X88607000Y-45350000D01*
X88682000Y-45275000D01*
X88682000Y-44890326D01*
X88646243Y-44804000D01*
X89153757Y-44804000D01*
X89118000Y-44890326D01*
X89118000Y-45275000D01*
X89193000Y-45350000D01*
X89943000Y-45350000D01*
X89943000Y-45330000D01*
X90143000Y-45330000D01*
X90143000Y-45350000D01*
X90893000Y-45350000D01*
X90968000Y-45275000D01*
X90968000Y-44890326D01*
X90932243Y-44804000D01*
X91439757Y-44804000D01*
X91404000Y-44890326D01*
X91404000Y-45275000D01*
X91479000Y-45350000D01*
X92229000Y-45350000D01*
X92229000Y-45330000D01*
X92429000Y-45330000D01*
X92429000Y-45350000D01*
X93179000Y-45350000D01*
X93254000Y-45275000D01*
X93254000Y-44890326D01*
X93218243Y-44804000D01*
X93725757Y-44804000D01*
X93690000Y-44890326D01*
X93690000Y-45275000D01*
X93765000Y-45350000D01*
X94515000Y-45350000D01*
X94515000Y-45330000D01*
X94715000Y-45330000D01*
X94715000Y-45350000D01*
X95465000Y-45350000D01*
X95540000Y-45275000D01*
X95540000Y-44890326D01*
X95504243Y-44804000D01*
X95716578Y-44804000D01*
X96957289Y-46044711D01*
X96990371Y-46066650D01*
X97028000Y-46074000D01*
X98552000Y-46074000D01*
X98590906Y-46066121D01*
X98622711Y-46044711D01*
X99384711Y-45282711D01*
X99406650Y-45249629D01*
X99414000Y-45212000D01*
X99414000Y-45139122D01*
X99639001Y-45386221D01*
X100049876Y-45579389D01*
X100230000Y-45534305D01*
X100230000Y-44550000D01*
X100430000Y-44550000D01*
X100430000Y-45534305D01*
X100610124Y-45579389D01*
X101020999Y-45386221D01*
X101326676Y-45050522D01*
X101459379Y-44730123D01*
X101413997Y-44550000D01*
X100430000Y-44550000D01*
X100230000Y-44550000D01*
X100210000Y-44550000D01*
X100210000Y-44350000D01*
X100230000Y-44350000D01*
X100230000Y-43365695D01*
X100430000Y-43365695D01*
X100430000Y-44350000D01*
X101413997Y-44350000D01*
X101459379Y-44169877D01*
X101326676Y-43849478D01*
X101020999Y-43513779D01*
X100610124Y-43320611D01*
X100430000Y-43365695D01*
X100230000Y-43365695D01*
X100049876Y-43320611D01*
X99639001Y-43513779D01*
X99414000Y-43760878D01*
X99414000Y-42599122D01*
X99639001Y-42846221D01*
X100049876Y-43039389D01*
X100230000Y-42994305D01*
X100230000Y-42010000D01*
X100430000Y-42010000D01*
X100430000Y-42994305D01*
X100610124Y-43039389D01*
X101020999Y-42846221D01*
X101326676Y-42510522D01*
X101459379Y-42190123D01*
X101413997Y-42010000D01*
X100430000Y-42010000D01*
X100230000Y-42010000D01*
X100210000Y-42010000D01*
X100210000Y-41810000D01*
X100230000Y-41810000D01*
X100230000Y-40825695D01*
X100430000Y-40825695D01*
X100430000Y-41810000D01*
X101413997Y-41810000D01*
X101459379Y-41629877D01*
X101326676Y-41309478D01*
X101020999Y-40973779D01*
X100610124Y-40780611D01*
X100430000Y-40825695D01*
X100230000Y-40825695D01*
X100049876Y-40780611D01*
X99639001Y-40973779D01*
X99414000Y-41220878D01*
X99414000Y-40059122D01*
X99639001Y-40306221D01*
X100049876Y-40499389D01*
X100230000Y-40454305D01*
X100230000Y-39470000D01*
X100430000Y-39470000D01*
X100430000Y-40454305D01*
X100610124Y-40499389D01*
X101020999Y-40306221D01*
X101326676Y-39970522D01*
X101459379Y-39650123D01*
X101413997Y-39470000D01*
X100430000Y-39470000D01*
X100230000Y-39470000D01*
X100210000Y-39470000D01*
X100210000Y-39270000D01*
X100230000Y-39270000D01*
X100230000Y-38285695D01*
X100430000Y-38285695D01*
X100430000Y-39270000D01*
X101413997Y-39270000D01*
X101459379Y-39089877D01*
X101326676Y-38769478D01*
X101020999Y-38433779D01*
X100610124Y-38240611D01*
X100430000Y-38285695D01*
X100230000Y-38285695D01*
X100049876Y-38240611D01*
X99639001Y-38433779D01*
X99414000Y-38680878D01*
X99414000Y-37993600D01*
X100155000Y-37993600D01*
X100230000Y-37918600D01*
X100230000Y-36930000D01*
X100430000Y-36930000D01*
X100430000Y-37918600D01*
X100505000Y-37993600D01*
X101253274Y-37993600D01*
X101363537Y-37947928D01*
X101447928Y-37863536D01*
X101493600Y-37753273D01*
X101493600Y-37005000D01*
X101418600Y-36930000D01*
X100430000Y-36930000D01*
X100230000Y-36930000D01*
X100210000Y-36930000D01*
X100210000Y-36730000D01*
X100230000Y-36730000D01*
X100230000Y-35741400D01*
X100430000Y-35741400D01*
X100430000Y-36730000D01*
X101418600Y-36730000D01*
X101493600Y-36655000D01*
X101493600Y-35906727D01*
X101447928Y-35796464D01*
X101363537Y-35712072D01*
X101253274Y-35666400D01*
X100505000Y-35666400D01*
X100430000Y-35741400D01*
X100230000Y-35741400D01*
X100155000Y-35666400D01*
X99406726Y-35666400D01*
X99296463Y-35712072D01*
X99212072Y-35796464D01*
X99203817Y-35816395D01*
X98622711Y-35235289D01*
X98589629Y-35213350D01*
X98552000Y-35206000D01*
X96761422Y-35206000D01*
X98339422Y-33628000D01*
X99060000Y-33628000D01*
X99098906Y-33620121D01*
X99130711Y-33598711D01*
X99609422Y-33120000D01*
X100838000Y-33120000D01*
X100876906Y-33112121D01*
X100908711Y-33090711D01*
X101670711Y-32328711D01*
X101692650Y-32295629D01*
X101700000Y-32258000D01*
X101700000Y-31242000D01*
X101692121Y-31203094D01*
X101670711Y-31171289D01*
X100908711Y-30409289D01*
X100875629Y-30387350D01*
X100838000Y-30380000D01*
X81788000Y-30380000D01*
X81749094Y-30387879D01*
X81717289Y-30409289D01*
X81209289Y-30917289D01*
X81187350Y-30950371D01*
X81180000Y-30988000D01*
X81180000Y-32512000D01*
X81187879Y-32550906D01*
X81209289Y-32582711D01*
X81717289Y-33090711D01*
X81750371Y-33112650D01*
X81788000Y-33120000D01*
X83270578Y-33120000D01*
X84040578Y-33890000D01*
X76449422Y-33890000D01*
X75284000Y-32724578D01*
X75284000Y-31242000D01*
X75276121Y-31203094D01*
X75254711Y-31171289D01*
X74492711Y-30409289D01*
X74459629Y-30387350D01*
X74422000Y-30380000D01*
X72898000Y-30380000D01*
X72859094Y-30387879D01*
X72827289Y-30409289D01*
X72065289Y-31171289D01*
X72043350Y-31204371D01*
X72036000Y-31242000D01*
X72036000Y-32470578D01*
X71840578Y-32666000D01*
X71669422Y-32666000D01*
X71495000Y-32491578D01*
X71495000Y-29385000D01*
X72344000Y-29385000D01*
X72344000Y-30133273D01*
X72389672Y-30243536D01*
X72474063Y-30327928D01*
X72584326Y-30373600D01*
X73485000Y-30373600D01*
X73560000Y-30298600D01*
X73560000Y-29310000D01*
X73760000Y-29310000D01*
X73760000Y-30298600D01*
X73835000Y-30373600D01*
X74735674Y-30373600D01*
X74845937Y-30327928D01*
X74930328Y-30243536D01*
X74976000Y-30133273D01*
X74976000Y-29385000D01*
X81386400Y-29385000D01*
X81386400Y-30133274D01*
X81432072Y-30243537D01*
X81516464Y-30327928D01*
X81626727Y-30373600D01*
X82375000Y-30373600D01*
X82450000Y-30298600D01*
X82450000Y-29310000D01*
X82650000Y-29310000D01*
X82650000Y-30298600D01*
X82725000Y-30373600D01*
X83473273Y-30373600D01*
X83583536Y-30327928D01*
X83667928Y-30243537D01*
X83713600Y-30133274D01*
X83713600Y-29490124D01*
X83960611Y-29490124D01*
X84153779Y-29900999D01*
X84489478Y-30206676D01*
X84809877Y-30339379D01*
X84990000Y-30293997D01*
X84990000Y-29310000D01*
X85190000Y-29310000D01*
X85190000Y-30293997D01*
X85370123Y-30339379D01*
X85690522Y-30206676D01*
X86026221Y-29900999D01*
X86219389Y-29490124D01*
X86500611Y-29490124D01*
X86693779Y-29900999D01*
X87029478Y-30206676D01*
X87349877Y-30339379D01*
X87530000Y-30293997D01*
X87530000Y-29310000D01*
X87730000Y-29310000D01*
X87730000Y-30293997D01*
X87910123Y-30339379D01*
X88230522Y-30206676D01*
X88566221Y-29900999D01*
X88759389Y-29490124D01*
X89040611Y-29490124D01*
X89233779Y-29900999D01*
X89569478Y-30206676D01*
X89889877Y-30339379D01*
X90070000Y-30293997D01*
X90070000Y-29310000D01*
X90270000Y-29310000D01*
X90270000Y-30293997D01*
X90450123Y-30339379D01*
X90770522Y-30206676D01*
X91106221Y-29900999D01*
X91299389Y-29490124D01*
X91580611Y-29490124D01*
X91773779Y-29900999D01*
X92109478Y-30206676D01*
X92429877Y-30339379D01*
X92610000Y-30293997D01*
X92610000Y-29310000D01*
X92810000Y-29310000D01*
X92810000Y-30293997D01*
X92990123Y-30339379D01*
X93310522Y-30206676D01*
X93646221Y-29900999D01*
X93839389Y-29490124D01*
X94120611Y-29490124D01*
X94313779Y-29900999D01*
X94649478Y-30206676D01*
X94969877Y-30339379D01*
X95150000Y-30293997D01*
X95150000Y-29310000D01*
X95350000Y-29310000D01*
X95350000Y-30293997D01*
X95530123Y-30339379D01*
X95850522Y-30206676D01*
X96186221Y-29900999D01*
X96379389Y-29490124D01*
X96660611Y-29490124D01*
X96853779Y-29900999D01*
X97189478Y-30206676D01*
X97509877Y-30339379D01*
X97690000Y-30293997D01*
X97690000Y-29310000D01*
X97890000Y-29310000D01*
X97890000Y-30293997D01*
X98070123Y-30339379D01*
X98390522Y-30206676D01*
X98726221Y-29900999D01*
X98919389Y-29490124D01*
X99200611Y-29490124D01*
X99393779Y-29900999D01*
X99729478Y-30206676D01*
X100049877Y-30339379D01*
X100230000Y-30293997D01*
X100230000Y-29310000D01*
X100430000Y-29310000D01*
X100430000Y-30293997D01*
X100610123Y-30339379D01*
X100930522Y-30206676D01*
X101266221Y-29900999D01*
X101459389Y-29490124D01*
X101414305Y-29310000D01*
X100430000Y-29310000D01*
X100230000Y-29310000D01*
X99245695Y-29310000D01*
X99200611Y-29490124D01*
X98919389Y-29490124D01*
X98874305Y-29310000D01*
X97890000Y-29310000D01*
X97690000Y-29310000D01*
X96705695Y-29310000D01*
X96660611Y-29490124D01*
X96379389Y-29490124D01*
X96334305Y-29310000D01*
X95350000Y-29310000D01*
X95150000Y-29310000D01*
X94165695Y-29310000D01*
X94120611Y-29490124D01*
X93839389Y-29490124D01*
X93794305Y-29310000D01*
X92810000Y-29310000D01*
X92610000Y-29310000D01*
X91625695Y-29310000D01*
X91580611Y-29490124D01*
X91299389Y-29490124D01*
X91254305Y-29310000D01*
X90270000Y-29310000D01*
X90070000Y-29310000D01*
X89085695Y-29310000D01*
X89040611Y-29490124D01*
X88759389Y-29490124D01*
X88714305Y-29310000D01*
X87730000Y-29310000D01*
X87530000Y-29310000D01*
X86545695Y-29310000D01*
X86500611Y-29490124D01*
X86219389Y-29490124D01*
X86174305Y-29310000D01*
X85190000Y-29310000D01*
X84990000Y-29310000D01*
X84005695Y-29310000D01*
X83960611Y-29490124D01*
X83713600Y-29490124D01*
X83713600Y-29385000D01*
X83638600Y-29310000D01*
X82650000Y-29310000D01*
X82450000Y-29310000D01*
X81461400Y-29310000D01*
X81386400Y-29385000D01*
X74976000Y-29385000D01*
X74901000Y-29310000D01*
X73760000Y-29310000D01*
X73560000Y-29310000D01*
X72419000Y-29310000D01*
X72344000Y-29385000D01*
X71495000Y-29385000D01*
X71495000Y-28286727D01*
X72344000Y-28286727D01*
X72344000Y-29035000D01*
X72419000Y-29110000D01*
X73560000Y-29110000D01*
X73560000Y-28121400D01*
X73760000Y-28121400D01*
X73760000Y-29110000D01*
X74901000Y-29110000D01*
X74976000Y-29035000D01*
X74976000Y-28286727D01*
X74976000Y-28286726D01*
X81386400Y-28286726D01*
X81386400Y-29035000D01*
X81461400Y-29110000D01*
X82450000Y-29110000D01*
X82450000Y-28121400D01*
X82650000Y-28121400D01*
X82650000Y-29110000D01*
X83638600Y-29110000D01*
X83713600Y-29035000D01*
X83713600Y-28929876D01*
X83960611Y-28929876D01*
X84005695Y-29110000D01*
X84990000Y-29110000D01*
X84990000Y-28126003D01*
X85190000Y-28126003D01*
X85190000Y-29110000D01*
X86174305Y-29110000D01*
X86219389Y-28929876D01*
X86500611Y-28929876D01*
X86545695Y-29110000D01*
X87530000Y-29110000D01*
X87530000Y-28126003D01*
X87730000Y-28126003D01*
X87730000Y-29110000D01*
X88714305Y-29110000D01*
X88759389Y-28929876D01*
X89040611Y-28929876D01*
X89085695Y-29110000D01*
X90070000Y-29110000D01*
X90070000Y-28126003D01*
X90270000Y-28126003D01*
X90270000Y-29110000D01*
X91254305Y-29110000D01*
X91299389Y-28929876D01*
X91580611Y-28929876D01*
X91625695Y-29110000D01*
X92610000Y-29110000D01*
X92610000Y-28126003D01*
X92810000Y-28126003D01*
X92810000Y-29110000D01*
X93794305Y-29110000D01*
X93839389Y-28929876D01*
X94120611Y-28929876D01*
X94165695Y-29110000D01*
X95150000Y-29110000D01*
X95150000Y-28126003D01*
X95350000Y-28126003D01*
X95350000Y-29110000D01*
X96334305Y-29110000D01*
X96379389Y-28929876D01*
X96660611Y-28929876D01*
X96705695Y-29110000D01*
X97690000Y-29110000D01*
X97690000Y-28126003D01*
X97890000Y-28126003D01*
X97890000Y-29110000D01*
X98874305Y-29110000D01*
X98919389Y-28929876D01*
X99200611Y-28929876D01*
X99245695Y-29110000D01*
X100230000Y-29110000D01*
X100230000Y-28126003D01*
X100430000Y-28126003D01*
X100430000Y-29110000D01*
X101414305Y-29110000D01*
X101459389Y-28929876D01*
X101266221Y-28519001D01*
X100930522Y-28213324D01*
X100610123Y-28080621D01*
X100430000Y-28126003D01*
X100230000Y-28126003D01*
X100049877Y-28080621D01*
X99729478Y-28213324D01*
X99393779Y-28519001D01*
X99200611Y-28929876D01*
X98919389Y-28929876D01*
X98726221Y-28519001D01*
X98390522Y-28213324D01*
X98070123Y-28080621D01*
X97890000Y-28126003D01*
X97690000Y-28126003D01*
X97509877Y-28080621D01*
X97189478Y-28213324D01*
X96853779Y-28519001D01*
X96660611Y-28929876D01*
X96379389Y-28929876D01*
X96186221Y-28519001D01*
X95850522Y-28213324D01*
X95530123Y-28080621D01*
X95350000Y-28126003D01*
X95150000Y-28126003D01*
X94969877Y-28080621D01*
X94649478Y-28213324D01*
X94313779Y-28519001D01*
X94120611Y-28929876D01*
X93839389Y-28929876D01*
X93646221Y-28519001D01*
X93310522Y-28213324D01*
X92990123Y-28080621D01*
X92810000Y-28126003D01*
X92610000Y-28126003D01*
X92429877Y-28080621D01*
X92109478Y-28213324D01*
X91773779Y-28519001D01*
X91580611Y-28929876D01*
X91299389Y-28929876D01*
X91106221Y-28519001D01*
X90770522Y-28213324D01*
X90450123Y-28080621D01*
X90270000Y-28126003D01*
X90070000Y-28126003D01*
X89889877Y-28080621D01*
X89569478Y-28213324D01*
X89233779Y-28519001D01*
X89040611Y-28929876D01*
X88759389Y-28929876D01*
X88566221Y-28519001D01*
X88230522Y-28213324D01*
X87910123Y-28080621D01*
X87730000Y-28126003D01*
X87530000Y-28126003D01*
X87349877Y-28080621D01*
X87029478Y-28213324D01*
X86693779Y-28519001D01*
X86500611Y-28929876D01*
X86219389Y-28929876D01*
X86026221Y-28519001D01*
X85690522Y-28213324D01*
X85370123Y-28080621D01*
X85190000Y-28126003D01*
X84990000Y-28126003D01*
X84809877Y-28080621D01*
X84489478Y-28213324D01*
X84153779Y-28519001D01*
X83960611Y-28929876D01*
X83713600Y-28929876D01*
X83713600Y-28286726D01*
X83667928Y-28176463D01*
X83583536Y-28092072D01*
X83473273Y-28046400D01*
X82725000Y-28046400D01*
X82650000Y-28121400D01*
X82450000Y-28121400D01*
X82375000Y-28046400D01*
X81626727Y-28046400D01*
X81516464Y-28092072D01*
X81432072Y-28176463D01*
X81386400Y-28286726D01*
X74976000Y-28286726D01*
X74930328Y-28176464D01*
X74845937Y-28092072D01*
X74735674Y-28046400D01*
X73835000Y-28046400D01*
X73760000Y-28121400D01*
X73560000Y-28121400D01*
X73485000Y-28046400D01*
X72584326Y-28046400D01*
X72474063Y-28092072D01*
X72389672Y-28176464D01*
X72344000Y-28286727D01*
X71495000Y-28286727D01*
X71495000Y-27045000D01*
X83820000Y-27045000D01*
X83925575Y-27024000D01*
X84074000Y-27024000D01*
X84112906Y-27016121D01*
X84145681Y-26993727D01*
X84167161Y-26960346D01*
X84174000Y-26924000D01*
X84174000Y-26775575D01*
X84195000Y-26670000D01*
X84195000Y-23956828D01*
X84662596Y-23956828D01*
X85016873Y-24814246D01*
X85672303Y-25470821D01*
X86529101Y-25826595D01*
X87456828Y-25827404D01*
X88314246Y-25473127D01*
X88970821Y-24817697D01*
X89326595Y-23960899D01*
X89327404Y-23033172D01*
X88973127Y-22175754D01*
X88317697Y-21519179D01*
X87460899Y-21163405D01*
X86533172Y-21162596D01*
X85675754Y-21516873D01*
X85019179Y-22172303D01*
X84663405Y-23029101D01*
X84662596Y-23956828D01*
X84195000Y-23956828D01*
X84195000Y-20695000D01*
X89795000Y-20695000D01*
X89795000Y-26670000D01*
X89795000Y-26670000D01*
G37*
X89795000Y-26670000D02*
X89816000Y-26775575D01*
X89816000Y-26924000D01*
X89823879Y-26962906D01*
X89846273Y-26995681D01*
X89879654Y-27017161D01*
X89916000Y-27024000D01*
X90064425Y-27024000D01*
X90170000Y-27045000D01*
X102495000Y-27045000D01*
X102495000Y-46615000D01*
X90170000Y-46615000D01*
X90064425Y-46636000D01*
X89916000Y-46636000D01*
X89877094Y-46643879D01*
X89844319Y-46666273D01*
X89822839Y-46699654D01*
X89816000Y-46736000D01*
X89816000Y-46884425D01*
X89795000Y-46990000D01*
X89795000Y-52965000D01*
X84195000Y-52965000D01*
X84195000Y-50626828D01*
X84662596Y-50626828D01*
X85016873Y-51484246D01*
X85672303Y-52140821D01*
X86529101Y-52496595D01*
X87456828Y-52497404D01*
X88314246Y-52143127D01*
X88970821Y-51487697D01*
X89326595Y-50630899D01*
X89327404Y-49703172D01*
X88973127Y-48845754D01*
X88317697Y-48189179D01*
X87460899Y-47833405D01*
X86533172Y-47832596D01*
X85675754Y-48186873D01*
X85019179Y-48842303D01*
X84663405Y-49699101D01*
X84662596Y-50626828D01*
X84195000Y-50626828D01*
X84195000Y-46990000D01*
X84174000Y-46884425D01*
X84174000Y-46736000D01*
X84166121Y-46697094D01*
X84143727Y-46664319D01*
X84110346Y-46642839D01*
X84074000Y-46636000D01*
X83925575Y-46636000D01*
X83820000Y-46615000D01*
X71495000Y-46615000D01*
X71495000Y-44625000D01*
X72496400Y-44625000D01*
X72496400Y-45373273D01*
X72542072Y-45483536D01*
X72626463Y-45567928D01*
X72736726Y-45613600D01*
X73485000Y-45613600D01*
X73560000Y-45538600D01*
X73560000Y-44550000D01*
X73760000Y-44550000D01*
X73760000Y-45538600D01*
X73835000Y-45613600D01*
X74583274Y-45613600D01*
X74693537Y-45567928D01*
X74777928Y-45483536D01*
X74823600Y-45373273D01*
X74823600Y-44625000D01*
X74748600Y-44550000D01*
X73760000Y-44550000D01*
X73560000Y-44550000D01*
X72571400Y-44550000D01*
X72496400Y-44625000D01*
X71495000Y-44625000D01*
X71495000Y-43526727D01*
X72496400Y-43526727D01*
X72496400Y-44275000D01*
X72571400Y-44350000D01*
X73560000Y-44350000D01*
X73560000Y-43361400D01*
X73760000Y-43361400D01*
X73760000Y-44350000D01*
X74748600Y-44350000D01*
X74823600Y-44275000D01*
X74823600Y-43526727D01*
X74777928Y-43416464D01*
X74693537Y-43332072D01*
X74583274Y-43286400D01*
X73835000Y-43286400D01*
X73760000Y-43361400D01*
X73560000Y-43361400D01*
X73485000Y-43286400D01*
X72736726Y-43286400D01*
X72626463Y-43332072D01*
X72542072Y-43416464D01*
X72496400Y-43526727D01*
X71495000Y-43526727D01*
X71495000Y-42190123D01*
X72530621Y-42190123D01*
X72663324Y-42510522D01*
X72969001Y-42846221D01*
X73379876Y-43039389D01*
X73560000Y-42994305D01*
X73560000Y-42010000D01*
X73760000Y-42010000D01*
X73760000Y-42994305D01*
X73940124Y-43039389D01*
X74350999Y-42846221D01*
X74656676Y-42510522D01*
X74789379Y-42190123D01*
X74743997Y-42010000D01*
X73760000Y-42010000D01*
X73560000Y-42010000D01*
X72576003Y-42010000D01*
X72530621Y-42190123D01*
X71495000Y-42190123D01*
X71495000Y-41629877D01*
X72530621Y-41629877D01*
X72576003Y-41810000D01*
X73560000Y-41810000D01*
X73560000Y-40825695D01*
X73760000Y-40825695D01*
X73760000Y-41810000D01*
X74743997Y-41810000D01*
X74789379Y-41629877D01*
X74656676Y-41309478D01*
X74350999Y-40973779D01*
X73940124Y-40780611D01*
X73760000Y-40825695D01*
X73560000Y-40825695D01*
X73379876Y-40780611D01*
X72969001Y-40973779D01*
X72663324Y-41309478D01*
X72530621Y-41629877D01*
X71495000Y-41629877D01*
X71495000Y-40406422D01*
X71669422Y-40232000D01*
X74380578Y-40232000D01*
X74830000Y-40681422D01*
X74830000Y-45212000D01*
X74837879Y-45250906D01*
X74859289Y-45282711D01*
X75367289Y-45790711D01*
X75400371Y-45812650D01*
X75438000Y-45820000D01*
X76962000Y-45820000D01*
X77000906Y-45812121D01*
X77032711Y-45790711D01*
X77206422Y-45617000D01*
X78529000Y-45617000D01*
X78529000Y-46001674D01*
X78574672Y-46111937D01*
X78659064Y-46196328D01*
X78769327Y-46242000D01*
X79454000Y-46242000D01*
X79529000Y-46167000D01*
X79529000Y-45542000D01*
X79729000Y-45542000D01*
X79729000Y-46167000D01*
X79804000Y-46242000D01*
X80488673Y-46242000D01*
X80598936Y-46196328D01*
X80683328Y-46111937D01*
X80729000Y-46001674D01*
X80729000Y-45625000D01*
X84546000Y-45625000D01*
X84546000Y-46009674D01*
X84591672Y-46119937D01*
X84676064Y-46204328D01*
X84786327Y-46250000D01*
X85296000Y-46250000D01*
X85371000Y-46175000D01*
X85371000Y-45550000D01*
X85571000Y-45550000D01*
X85571000Y-46175000D01*
X85646000Y-46250000D01*
X86155673Y-46250000D01*
X86265936Y-46204328D01*
X86350328Y-46119937D01*
X86396000Y-46009674D01*
X86396000Y-45625000D01*
X86832000Y-45625000D01*
X86832000Y-46009674D01*
X86877672Y-46119937D01*
X86962064Y-46204328D01*
X87072327Y-46250000D01*
X87582000Y-46250000D01*
X87657000Y-46175000D01*
X87657000Y-45550000D01*
X87857000Y-45550000D01*
X87857000Y-46175000D01*
X87932000Y-46250000D01*
X88441673Y-46250000D01*
X88551936Y-46204328D01*
X88636328Y-46119937D01*
X88682000Y-46009674D01*
X88682000Y-45625000D01*
X89118000Y-45625000D01*
X89118000Y-46009674D01*
X89163672Y-46119937D01*
X89248064Y-46204328D01*
X89358327Y-46250000D01*
X89868000Y-46250000D01*
X89943000Y-46175000D01*
X89943000Y-45550000D01*
X90143000Y-45550000D01*
X90143000Y-46175000D01*
X90218000Y-46250000D01*
X90727673Y-46250000D01*
X90837936Y-46204328D01*
X90922328Y-46119937D01*
X90968000Y-46009674D01*
X90968000Y-45625000D01*
X91404000Y-45625000D01*
X91404000Y-46009674D01*
X91449672Y-46119937D01*
X91534064Y-46204328D01*
X91644327Y-46250000D01*
X92154000Y-46250000D01*
X92229000Y-46175000D01*
X92229000Y-45550000D01*
X92429000Y-45550000D01*
X92429000Y-46175000D01*
X92504000Y-46250000D01*
X93013673Y-46250000D01*
X93123936Y-46204328D01*
X93208328Y-46119937D01*
X93254000Y-46009674D01*
X93254000Y-45625000D01*
X93690000Y-45625000D01*
X93690000Y-46009674D01*
X93735672Y-46119937D01*
X93820064Y-46204328D01*
X93930327Y-46250000D01*
X94440000Y-46250000D01*
X94515000Y-46175000D01*
X94515000Y-45550000D01*
X94715000Y-45550000D01*
X94715000Y-46175000D01*
X94790000Y-46250000D01*
X95299673Y-46250000D01*
X95409936Y-46204328D01*
X95494328Y-46119937D01*
X95540000Y-46009674D01*
X95540000Y-45625000D01*
X95465000Y-45550000D01*
X94715000Y-45550000D01*
X94515000Y-45550000D01*
X93765000Y-45550000D01*
X93690000Y-45625000D01*
X93254000Y-45625000D01*
X93179000Y-45550000D01*
X92429000Y-45550000D01*
X92229000Y-45550000D01*
X91479000Y-45550000D01*
X91404000Y-45625000D01*
X90968000Y-45625000D01*
X90893000Y-45550000D01*
X90143000Y-45550000D01*
X89943000Y-45550000D01*
X89193000Y-45550000D01*
X89118000Y-45625000D01*
X88682000Y-45625000D01*
X88607000Y-45550000D01*
X87857000Y-45550000D01*
X87657000Y-45550000D01*
X86907000Y-45550000D01*
X86832000Y-45625000D01*
X86396000Y-45625000D01*
X86321000Y-45550000D01*
X85571000Y-45550000D01*
X85371000Y-45550000D01*
X84621000Y-45550000D01*
X84546000Y-45625000D01*
X80729000Y-45625000D01*
X80729000Y-45617000D01*
X80654000Y-45542000D01*
X79729000Y-45542000D01*
X79529000Y-45542000D01*
X78604000Y-45542000D01*
X78529000Y-45617000D01*
X77206422Y-45617000D01*
X77941096Y-44882326D01*
X78529000Y-44882326D01*
X78529000Y-45267000D01*
X78604000Y-45342000D01*
X79529000Y-45342000D01*
X79529000Y-44717000D01*
X79729000Y-44717000D01*
X79729000Y-45342000D01*
X80654000Y-45342000D01*
X80729000Y-45267000D01*
X80729000Y-44882326D01*
X80683328Y-44772063D01*
X80598936Y-44687672D01*
X80488673Y-44642000D01*
X79804000Y-44642000D01*
X79729000Y-44717000D01*
X79529000Y-44717000D01*
X79454000Y-44642000D01*
X78769327Y-44642000D01*
X78659064Y-44687672D01*
X78574672Y-44772063D01*
X78529000Y-44882326D01*
X77941096Y-44882326D01*
X78527422Y-44296000D01*
X84032578Y-44296000D01*
X84511289Y-44774711D01*
X84544371Y-44796650D01*
X84581775Y-44803956D01*
X84546000Y-44890326D01*
X84546000Y-45275000D01*
X84621000Y-45350000D01*
X85371000Y-45350000D01*
X85371000Y-45330000D01*
X85571000Y-45330000D01*
X85571000Y-45350000D01*
X86321000Y-45350000D01*
X86396000Y-45275000D01*
X86396000Y-44890326D01*
X86360243Y-44804000D01*
X86867757Y-44804000D01*
X86832000Y-44890326D01*
X86832000Y-45275000D01*
X86907000Y-45350000D01*
X87657000Y-45350000D01*
X87657000Y-45330000D01*
X87857000Y-45330000D01*
X87857000Y-45350000D01*
X88607000Y-45350000D01*
X88682000Y-45275000D01*
X88682000Y-44890326D01*
X88646243Y-44804000D01*
X89153757Y-44804000D01*
X89118000Y-44890326D01*
X89118000Y-45275000D01*
X89193000Y-45350000D01*
X89943000Y-45350000D01*
X89943000Y-45330000D01*
X90143000Y-45330000D01*
X90143000Y-45350000D01*
X90893000Y-45350000D01*
X90968000Y-45275000D01*
X90968000Y-44890326D01*
X90932243Y-44804000D01*
X91439757Y-44804000D01*
X91404000Y-44890326D01*
X91404000Y-45275000D01*
X91479000Y-45350000D01*
X92229000Y-45350000D01*
X92229000Y-45330000D01*
X92429000Y-45330000D01*
X92429000Y-45350000D01*
X93179000Y-45350000D01*
X93254000Y-45275000D01*
X93254000Y-44890326D01*
X93218243Y-44804000D01*
X93725757Y-44804000D01*
X93690000Y-44890326D01*
X93690000Y-45275000D01*
X93765000Y-45350000D01*
X94515000Y-45350000D01*
X94515000Y-45330000D01*
X94715000Y-45330000D01*
X94715000Y-45350000D01*
X95465000Y-45350000D01*
X95540000Y-45275000D01*
X95540000Y-44890326D01*
X95504243Y-44804000D01*
X95716578Y-44804000D01*
X96957289Y-46044711D01*
X96990371Y-46066650D01*
X97028000Y-46074000D01*
X98552000Y-46074000D01*
X98590906Y-46066121D01*
X98622711Y-46044711D01*
X99384711Y-45282711D01*
X99406650Y-45249629D01*
X99414000Y-45212000D01*
X99414000Y-45139122D01*
X99639001Y-45386221D01*
X100049876Y-45579389D01*
X100230000Y-45534305D01*
X100230000Y-44550000D01*
X100430000Y-44550000D01*
X100430000Y-45534305D01*
X100610124Y-45579389D01*
X101020999Y-45386221D01*
X101326676Y-45050522D01*
X101459379Y-44730123D01*
X101413997Y-44550000D01*
X100430000Y-44550000D01*
X100230000Y-44550000D01*
X100210000Y-44550000D01*
X100210000Y-44350000D01*
X100230000Y-44350000D01*
X100230000Y-43365695D01*
X100430000Y-43365695D01*
X100430000Y-44350000D01*
X101413997Y-44350000D01*
X101459379Y-44169877D01*
X101326676Y-43849478D01*
X101020999Y-43513779D01*
X100610124Y-43320611D01*
X100430000Y-43365695D01*
X100230000Y-43365695D01*
X100049876Y-43320611D01*
X99639001Y-43513779D01*
X99414000Y-43760878D01*
X99414000Y-42599122D01*
X99639001Y-42846221D01*
X100049876Y-43039389D01*
X100230000Y-42994305D01*
X100230000Y-42010000D01*
X100430000Y-42010000D01*
X100430000Y-42994305D01*
X100610124Y-43039389D01*
X101020999Y-42846221D01*
X101326676Y-42510522D01*
X101459379Y-42190123D01*
X101413997Y-42010000D01*
X100430000Y-42010000D01*
X100230000Y-42010000D01*
X100210000Y-42010000D01*
X100210000Y-41810000D01*
X100230000Y-41810000D01*
X100230000Y-40825695D01*
X100430000Y-40825695D01*
X100430000Y-41810000D01*
X101413997Y-41810000D01*
X101459379Y-41629877D01*
X101326676Y-41309478D01*
X101020999Y-40973779D01*
X100610124Y-40780611D01*
X100430000Y-40825695D01*
X100230000Y-40825695D01*
X100049876Y-40780611D01*
X99639001Y-40973779D01*
X99414000Y-41220878D01*
X99414000Y-40059122D01*
X99639001Y-40306221D01*
X100049876Y-40499389D01*
X100230000Y-40454305D01*
X100230000Y-39470000D01*
X100430000Y-39470000D01*
X100430000Y-40454305D01*
X100610124Y-40499389D01*
X101020999Y-40306221D01*
X101326676Y-39970522D01*
X101459379Y-39650123D01*
X101413997Y-39470000D01*
X100430000Y-39470000D01*
X100230000Y-39470000D01*
X100210000Y-39470000D01*
X100210000Y-39270000D01*
X100230000Y-39270000D01*
X100230000Y-38285695D01*
X100430000Y-38285695D01*
X100430000Y-39270000D01*
X101413997Y-39270000D01*
X101459379Y-39089877D01*
X101326676Y-38769478D01*
X101020999Y-38433779D01*
X100610124Y-38240611D01*
X100430000Y-38285695D01*
X100230000Y-38285695D01*
X100049876Y-38240611D01*
X99639001Y-38433779D01*
X99414000Y-38680878D01*
X99414000Y-37993600D01*
X100155000Y-37993600D01*
X100230000Y-37918600D01*
X100230000Y-36930000D01*
X100430000Y-36930000D01*
X100430000Y-37918600D01*
X100505000Y-37993600D01*
X101253274Y-37993600D01*
X101363537Y-37947928D01*
X101447928Y-37863536D01*
X101493600Y-37753273D01*
X101493600Y-37005000D01*
X101418600Y-36930000D01*
X100430000Y-36930000D01*
X100230000Y-36930000D01*
X100210000Y-36930000D01*
X100210000Y-36730000D01*
X100230000Y-36730000D01*
X100230000Y-35741400D01*
X100430000Y-35741400D01*
X100430000Y-36730000D01*
X101418600Y-36730000D01*
X101493600Y-36655000D01*
X101493600Y-35906727D01*
X101447928Y-35796464D01*
X101363537Y-35712072D01*
X101253274Y-35666400D01*
X100505000Y-35666400D01*
X100430000Y-35741400D01*
X100230000Y-35741400D01*
X100155000Y-35666400D01*
X99406726Y-35666400D01*
X99296463Y-35712072D01*
X99212072Y-35796464D01*
X99203817Y-35816395D01*
X98622711Y-35235289D01*
X98589629Y-35213350D01*
X98552000Y-35206000D01*
X96761422Y-35206000D01*
X98339422Y-33628000D01*
X99060000Y-33628000D01*
X99098906Y-33620121D01*
X99130711Y-33598711D01*
X99609422Y-33120000D01*
X100838000Y-33120000D01*
X100876906Y-33112121D01*
X100908711Y-33090711D01*
X101670711Y-32328711D01*
X101692650Y-32295629D01*
X101700000Y-32258000D01*
X101700000Y-31242000D01*
X101692121Y-31203094D01*
X101670711Y-31171289D01*
X100908711Y-30409289D01*
X100875629Y-30387350D01*
X100838000Y-30380000D01*
X81788000Y-30380000D01*
X81749094Y-30387879D01*
X81717289Y-30409289D01*
X81209289Y-30917289D01*
X81187350Y-30950371D01*
X81180000Y-30988000D01*
X81180000Y-32512000D01*
X81187879Y-32550906D01*
X81209289Y-32582711D01*
X81717289Y-33090711D01*
X81750371Y-33112650D01*
X81788000Y-33120000D01*
X83270578Y-33120000D01*
X84040578Y-33890000D01*
X76449422Y-33890000D01*
X75284000Y-32724578D01*
X75284000Y-31242000D01*
X75276121Y-31203094D01*
X75254711Y-31171289D01*
X74492711Y-30409289D01*
X74459629Y-30387350D01*
X74422000Y-30380000D01*
X72898000Y-30380000D01*
X72859094Y-30387879D01*
X72827289Y-30409289D01*
X72065289Y-31171289D01*
X72043350Y-31204371D01*
X72036000Y-31242000D01*
X72036000Y-32470578D01*
X71840578Y-32666000D01*
X71669422Y-32666000D01*
X71495000Y-32491578D01*
X71495000Y-29385000D01*
X72344000Y-29385000D01*
X72344000Y-30133273D01*
X72389672Y-30243536D01*
X72474063Y-30327928D01*
X72584326Y-30373600D01*
X73485000Y-30373600D01*
X73560000Y-30298600D01*
X73560000Y-29310000D01*
X73760000Y-29310000D01*
X73760000Y-30298600D01*
X73835000Y-30373600D01*
X74735674Y-30373600D01*
X74845937Y-30327928D01*
X74930328Y-30243536D01*
X74976000Y-30133273D01*
X74976000Y-29385000D01*
X81386400Y-29385000D01*
X81386400Y-30133274D01*
X81432072Y-30243537D01*
X81516464Y-30327928D01*
X81626727Y-30373600D01*
X82375000Y-30373600D01*
X82450000Y-30298600D01*
X82450000Y-29310000D01*
X82650000Y-29310000D01*
X82650000Y-30298600D01*
X82725000Y-30373600D01*
X83473273Y-30373600D01*
X83583536Y-30327928D01*
X83667928Y-30243537D01*
X83713600Y-30133274D01*
X83713600Y-29490124D01*
X83960611Y-29490124D01*
X84153779Y-29900999D01*
X84489478Y-30206676D01*
X84809877Y-30339379D01*
X84990000Y-30293997D01*
X84990000Y-29310000D01*
X85190000Y-29310000D01*
X85190000Y-30293997D01*
X85370123Y-30339379D01*
X85690522Y-30206676D01*
X86026221Y-29900999D01*
X86219389Y-29490124D01*
X86500611Y-29490124D01*
X86693779Y-29900999D01*
X87029478Y-30206676D01*
X87349877Y-30339379D01*
X87530000Y-30293997D01*
X87530000Y-29310000D01*
X87730000Y-29310000D01*
X87730000Y-30293997D01*
X87910123Y-30339379D01*
X88230522Y-30206676D01*
X88566221Y-29900999D01*
X88759389Y-29490124D01*
X89040611Y-29490124D01*
X89233779Y-29900999D01*
X89569478Y-30206676D01*
X89889877Y-30339379D01*
X90070000Y-30293997D01*
X90070000Y-29310000D01*
X90270000Y-29310000D01*
X90270000Y-30293997D01*
X90450123Y-30339379D01*
X90770522Y-30206676D01*
X91106221Y-29900999D01*
X91299389Y-29490124D01*
X91580611Y-29490124D01*
X91773779Y-29900999D01*
X92109478Y-30206676D01*
X92429877Y-30339379D01*
X92610000Y-30293997D01*
X92610000Y-29310000D01*
X92810000Y-29310000D01*
X92810000Y-30293997D01*
X92990123Y-30339379D01*
X93310522Y-30206676D01*
X93646221Y-29900999D01*
X93839389Y-29490124D01*
X94120611Y-29490124D01*
X94313779Y-29900999D01*
X94649478Y-30206676D01*
X94969877Y-30339379D01*
X95150000Y-30293997D01*
X95150000Y-29310000D01*
X95350000Y-29310000D01*
X95350000Y-30293997D01*
X95530123Y-30339379D01*
X95850522Y-30206676D01*
X96186221Y-29900999D01*
X96379389Y-29490124D01*
X96660611Y-29490124D01*
X96853779Y-29900999D01*
X97189478Y-30206676D01*
X97509877Y-30339379D01*
X97690000Y-30293997D01*
X97690000Y-29310000D01*
X97890000Y-29310000D01*
X97890000Y-30293997D01*
X98070123Y-30339379D01*
X98390522Y-30206676D01*
X98726221Y-29900999D01*
X98919389Y-29490124D01*
X99200611Y-29490124D01*
X99393779Y-29900999D01*
X99729478Y-30206676D01*
X100049877Y-30339379D01*
X100230000Y-30293997D01*
X100230000Y-29310000D01*
X100430000Y-29310000D01*
X100430000Y-30293997D01*
X100610123Y-30339379D01*
X100930522Y-30206676D01*
X101266221Y-29900999D01*
X101459389Y-29490124D01*
X101414305Y-29310000D01*
X100430000Y-29310000D01*
X100230000Y-29310000D01*
X99245695Y-29310000D01*
X99200611Y-29490124D01*
X98919389Y-29490124D01*
X98874305Y-29310000D01*
X97890000Y-29310000D01*
X97690000Y-29310000D01*
X96705695Y-29310000D01*
X96660611Y-29490124D01*
X96379389Y-29490124D01*
X96334305Y-29310000D01*
X95350000Y-29310000D01*
X95150000Y-29310000D01*
X94165695Y-29310000D01*
X94120611Y-29490124D01*
X93839389Y-29490124D01*
X93794305Y-29310000D01*
X92810000Y-29310000D01*
X92610000Y-29310000D01*
X91625695Y-29310000D01*
X91580611Y-29490124D01*
X91299389Y-29490124D01*
X91254305Y-29310000D01*
X90270000Y-29310000D01*
X90070000Y-29310000D01*
X89085695Y-29310000D01*
X89040611Y-29490124D01*
X88759389Y-29490124D01*
X88714305Y-29310000D01*
X87730000Y-29310000D01*
X87530000Y-29310000D01*
X86545695Y-29310000D01*
X86500611Y-29490124D01*
X86219389Y-29490124D01*
X86174305Y-29310000D01*
X85190000Y-29310000D01*
X84990000Y-29310000D01*
X84005695Y-29310000D01*
X83960611Y-29490124D01*
X83713600Y-29490124D01*
X83713600Y-29385000D01*
X83638600Y-29310000D01*
X82650000Y-29310000D01*
X82450000Y-29310000D01*
X81461400Y-29310000D01*
X81386400Y-29385000D01*
X74976000Y-29385000D01*
X74901000Y-29310000D01*
X73760000Y-29310000D01*
X73560000Y-29310000D01*
X72419000Y-29310000D01*
X72344000Y-29385000D01*
X71495000Y-29385000D01*
X71495000Y-28286727D01*
X72344000Y-28286727D01*
X72344000Y-29035000D01*
X72419000Y-29110000D01*
X73560000Y-29110000D01*
X73560000Y-28121400D01*
X73760000Y-28121400D01*
X73760000Y-29110000D01*
X74901000Y-29110000D01*
X74976000Y-29035000D01*
X74976000Y-28286727D01*
X74976000Y-28286726D01*
X81386400Y-28286726D01*
X81386400Y-29035000D01*
X81461400Y-29110000D01*
X82450000Y-29110000D01*
X82450000Y-28121400D01*
X82650000Y-28121400D01*
X82650000Y-29110000D01*
X83638600Y-29110000D01*
X83713600Y-29035000D01*
X83713600Y-28929876D01*
X83960611Y-28929876D01*
X84005695Y-29110000D01*
X84990000Y-29110000D01*
X84990000Y-28126003D01*
X85190000Y-28126003D01*
X85190000Y-29110000D01*
X86174305Y-29110000D01*
X86219389Y-28929876D01*
X86500611Y-28929876D01*
X86545695Y-29110000D01*
X87530000Y-29110000D01*
X87530000Y-28126003D01*
X87730000Y-28126003D01*
X87730000Y-29110000D01*
X88714305Y-29110000D01*
X88759389Y-28929876D01*
X89040611Y-28929876D01*
X89085695Y-29110000D01*
X90070000Y-29110000D01*
X90070000Y-28126003D01*
X90270000Y-28126003D01*
X90270000Y-29110000D01*
X91254305Y-29110000D01*
X91299389Y-28929876D01*
X91580611Y-28929876D01*
X91625695Y-29110000D01*
X92610000Y-29110000D01*
X92610000Y-28126003D01*
X92810000Y-28126003D01*
X92810000Y-29110000D01*
X93794305Y-29110000D01*
X93839389Y-28929876D01*
X94120611Y-28929876D01*
X94165695Y-29110000D01*
X95150000Y-29110000D01*
X95150000Y-28126003D01*
X95350000Y-28126003D01*
X95350000Y-29110000D01*
X96334305Y-29110000D01*
X96379389Y-28929876D01*
X96660611Y-28929876D01*
X96705695Y-29110000D01*
X97690000Y-29110000D01*
X97690000Y-28126003D01*
X97890000Y-28126003D01*
X97890000Y-29110000D01*
X98874305Y-29110000D01*
X98919389Y-28929876D01*
X99200611Y-28929876D01*
X99245695Y-29110000D01*
X100230000Y-29110000D01*
X100230000Y-28126003D01*
X100430000Y-28126003D01*
X100430000Y-29110000D01*
X101414305Y-29110000D01*
X101459389Y-28929876D01*
X101266221Y-28519001D01*
X100930522Y-28213324D01*
X100610123Y-28080621D01*
X100430000Y-28126003D01*
X100230000Y-28126003D01*
X100049877Y-28080621D01*
X99729478Y-28213324D01*
X99393779Y-28519001D01*
X99200611Y-28929876D01*
X98919389Y-28929876D01*
X98726221Y-28519001D01*
X98390522Y-28213324D01*
X98070123Y-28080621D01*
X97890000Y-28126003D01*
X97690000Y-28126003D01*
X97509877Y-28080621D01*
X97189478Y-28213324D01*
X96853779Y-28519001D01*
X96660611Y-28929876D01*
X96379389Y-28929876D01*
X96186221Y-28519001D01*
X95850522Y-28213324D01*
X95530123Y-28080621D01*
X95350000Y-28126003D01*
X95150000Y-28126003D01*
X94969877Y-28080621D01*
X94649478Y-28213324D01*
X94313779Y-28519001D01*
X94120611Y-28929876D01*
X93839389Y-28929876D01*
X93646221Y-28519001D01*
X93310522Y-28213324D01*
X92990123Y-28080621D01*
X92810000Y-28126003D01*
X92610000Y-28126003D01*
X92429877Y-28080621D01*
X92109478Y-28213324D01*
X91773779Y-28519001D01*
X91580611Y-28929876D01*
X91299389Y-28929876D01*
X91106221Y-28519001D01*
X90770522Y-28213324D01*
X90450123Y-28080621D01*
X90270000Y-28126003D01*
X90070000Y-28126003D01*
X89889877Y-28080621D01*
X89569478Y-28213324D01*
X89233779Y-28519001D01*
X89040611Y-28929876D01*
X88759389Y-28929876D01*
X88566221Y-28519001D01*
X88230522Y-28213324D01*
X87910123Y-28080621D01*
X87730000Y-28126003D01*
X87530000Y-28126003D01*
X87349877Y-28080621D01*
X87029478Y-28213324D01*
X86693779Y-28519001D01*
X86500611Y-28929876D01*
X86219389Y-28929876D01*
X86026221Y-28519001D01*
X85690522Y-28213324D01*
X85370123Y-28080621D01*
X85190000Y-28126003D01*
X84990000Y-28126003D01*
X84809877Y-28080621D01*
X84489478Y-28213324D01*
X84153779Y-28519001D01*
X83960611Y-28929876D01*
X83713600Y-28929876D01*
X83713600Y-28286726D01*
X83667928Y-28176463D01*
X83583536Y-28092072D01*
X83473273Y-28046400D01*
X82725000Y-28046400D01*
X82650000Y-28121400D01*
X82450000Y-28121400D01*
X82375000Y-28046400D01*
X81626727Y-28046400D01*
X81516464Y-28092072D01*
X81432072Y-28176463D01*
X81386400Y-28286726D01*
X74976000Y-28286726D01*
X74930328Y-28176464D01*
X74845937Y-28092072D01*
X74735674Y-28046400D01*
X73835000Y-28046400D01*
X73760000Y-28121400D01*
X73560000Y-28121400D01*
X73485000Y-28046400D01*
X72584326Y-28046400D01*
X72474063Y-28092072D01*
X72389672Y-28176464D01*
X72344000Y-28286727D01*
X71495000Y-28286727D01*
X71495000Y-27045000D01*
X83820000Y-27045000D01*
X83925575Y-27024000D01*
X84074000Y-27024000D01*
X84112906Y-27016121D01*
X84145681Y-26993727D01*
X84167161Y-26960346D01*
X84174000Y-26924000D01*
X84174000Y-26775575D01*
X84195000Y-26670000D01*
X84195000Y-23956828D01*
X84662596Y-23956828D01*
X85016873Y-24814246D01*
X85672303Y-25470821D01*
X86529101Y-25826595D01*
X87456828Y-25827404D01*
X88314246Y-25473127D01*
X88970821Y-24817697D01*
X89326595Y-23960899D01*
X89327404Y-23033172D01*
X88973127Y-22175754D01*
X88317697Y-21519179D01*
X87460899Y-21163405D01*
X86533172Y-21162596D01*
X85675754Y-21516873D01*
X85019179Y-22172303D01*
X84663405Y-23029101D01*
X84662596Y-23956828D01*
X84195000Y-23956828D01*
X84195000Y-20695000D01*
X89795000Y-20695000D01*
X89795000Y-26670000D01*
G36*
X76129289Y-34868711D02*
X76162371Y-34890650D01*
X76200000Y-34898000D01*
X79736432Y-34898000D01*
X80164000Y-35346058D01*
X80164000Y-38862000D01*
X80171879Y-38900906D01*
X80195000Y-38934381D01*
X80727887Y-39442381D01*
X80761483Y-39463523D01*
X80796887Y-39470000D01*
X85521582Y-39470000D01*
X85611997Y-39531778D01*
X85731000Y-39555877D01*
X86481000Y-39555877D01*
X86592173Y-39534958D01*
X86694279Y-39469255D01*
X86762778Y-39369003D01*
X86764393Y-39361029D01*
X86847122Y-39278300D01*
X88612900Y-39278300D01*
X88612900Y-39362973D01*
X88658572Y-39473236D01*
X88742963Y-39557628D01*
X88853226Y-39603300D01*
X89012900Y-39603300D01*
X89087900Y-39528300D01*
X89087900Y-39203300D01*
X88687900Y-39203300D01*
X88612900Y-39278300D01*
X86847122Y-39278300D01*
X87163422Y-38962000D01*
X88646600Y-38962000D01*
X88687900Y-39003300D01*
X89087900Y-39003300D01*
X89087900Y-38983300D01*
X89287900Y-38983300D01*
X89287900Y-39003300D01*
X89307900Y-39003300D01*
X89307900Y-39203300D01*
X89287900Y-39203300D01*
X89287900Y-39528300D01*
X89362900Y-39603300D01*
X89486839Y-39603300D01*
X89543645Y-39691579D01*
X89637900Y-39755980D01*
X89637900Y-39878300D01*
X89712900Y-39953300D01*
X90037900Y-39953300D01*
X90037900Y-39933300D01*
X90237900Y-39933300D01*
X90237900Y-39953300D01*
X90257900Y-39953300D01*
X90257900Y-40153300D01*
X90237900Y-40153300D01*
X90237900Y-40553300D01*
X90303589Y-40618989D01*
X89366578Y-41556000D01*
X85090000Y-41556000D01*
X85051094Y-41563879D01*
X85019289Y-41585289D01*
X84003289Y-42601289D01*
X83981350Y-42634371D01*
X83974000Y-42672000D01*
X83974000Y-43646578D01*
X83778578Y-43842000D01*
X78232000Y-43842000D01*
X78193094Y-43849879D01*
X78161289Y-43871289D01*
X77323961Y-44708617D01*
X77283997Y-44550000D01*
X76300000Y-44550000D01*
X76300000Y-44570000D01*
X76100000Y-44570000D01*
X76100000Y-44550000D01*
X76080000Y-44550000D01*
X76080000Y-44350000D01*
X76100000Y-44350000D01*
X76100000Y-43365695D01*
X76300000Y-43365695D01*
X76300000Y-44350000D01*
X77283997Y-44350000D01*
X77329379Y-44169877D01*
X77196676Y-43849478D01*
X76890999Y-43513779D01*
X76480124Y-43320611D01*
X76300000Y-43365695D01*
X76100000Y-43365695D01*
X75919876Y-43320611D01*
X75509001Y-43513779D01*
X75284000Y-43760878D01*
X75284000Y-42599122D01*
X75509001Y-42846221D01*
X75919876Y-43039389D01*
X76100000Y-42994305D01*
X76100000Y-42010000D01*
X76300000Y-42010000D01*
X76300000Y-42994305D01*
X76480124Y-43039389D01*
X76890999Y-42846221D01*
X77099720Y-42617000D01*
X78529000Y-42617000D01*
X78529000Y-43001674D01*
X78574672Y-43111937D01*
X78659064Y-43196328D01*
X78769327Y-43242000D01*
X79454000Y-43242000D01*
X79529000Y-43167000D01*
X79529000Y-42542000D01*
X79729000Y-42542000D01*
X79729000Y-43167000D01*
X79804000Y-43242000D01*
X80488673Y-43242000D01*
X80598936Y-43196328D01*
X80683328Y-43111937D01*
X80729000Y-43001674D01*
X80729000Y-42617000D01*
X80654000Y-42542000D01*
X79729000Y-42542000D01*
X79529000Y-42542000D01*
X78604000Y-42542000D01*
X78529000Y-42617000D01*
X77099720Y-42617000D01*
X77196676Y-42510522D01*
X77329379Y-42190123D01*
X77283997Y-42010000D01*
X76300000Y-42010000D01*
X76100000Y-42010000D01*
X76080000Y-42010000D01*
X76080000Y-41882326D01*
X78529000Y-41882326D01*
X78529000Y-42267000D01*
X78604000Y-42342000D01*
X79529000Y-42342000D01*
X79529000Y-41717000D01*
X79729000Y-41717000D01*
X79729000Y-42342000D01*
X80654000Y-42342000D01*
X80729000Y-42267000D01*
X80729000Y-41882326D01*
X80683328Y-41772063D01*
X80598936Y-41687672D01*
X80488673Y-41642000D01*
X79804000Y-41642000D01*
X79729000Y-41717000D01*
X79529000Y-41717000D01*
X79454000Y-41642000D01*
X78769327Y-41642000D01*
X78659064Y-41687672D01*
X78574672Y-41772063D01*
X78529000Y-41882326D01*
X76080000Y-41882326D01*
X76080000Y-41810000D01*
X76100000Y-41810000D01*
X76100000Y-40825695D01*
X76300000Y-40825695D01*
X76300000Y-41810000D01*
X77283997Y-41810000D01*
X77329379Y-41629877D01*
X77196676Y-41309478D01*
X76890999Y-40973779D01*
X76480124Y-40780611D01*
X76300000Y-40825695D01*
X76100000Y-40825695D01*
X75919876Y-40780611D01*
X75509001Y-40973779D01*
X75284000Y-41220878D01*
X75284000Y-40422252D01*
X75276121Y-40383346D01*
X75257103Y-40354018D01*
X75139759Y-40228300D01*
X89637900Y-40228300D01*
X89637900Y-40387974D01*
X89683572Y-40498237D01*
X89767964Y-40582628D01*
X89878227Y-40628300D01*
X89962900Y-40628300D01*
X90037900Y-40553300D01*
X90037900Y-40153300D01*
X89712900Y-40153300D01*
X89637900Y-40228300D01*
X75139759Y-40228300D01*
X74749103Y-39809766D01*
X74716797Y-39786700D01*
X74676000Y-39778000D01*
X71669422Y-39778000D01*
X71495000Y-39603578D01*
X71495000Y-37640000D01*
X75532000Y-37640000D01*
X75532000Y-38739673D01*
X75577672Y-38849936D01*
X75662063Y-38934328D01*
X75772326Y-38980000D01*
X76842000Y-38980000D01*
X76917000Y-38905000D01*
X76917000Y-37565000D01*
X77117000Y-37565000D01*
X77117000Y-38905000D01*
X77192000Y-38980000D01*
X78261674Y-38980000D01*
X78371937Y-38934328D01*
X78456328Y-38849936D01*
X78502000Y-38739673D01*
X78502000Y-37640000D01*
X78427000Y-37565000D01*
X77117000Y-37565000D01*
X76917000Y-37565000D01*
X75607000Y-37565000D01*
X75532000Y-37640000D01*
X71495000Y-37640000D01*
X71495000Y-36190327D01*
X75532000Y-36190327D01*
X75532000Y-37290000D01*
X75607000Y-37365000D01*
X76917000Y-37365000D01*
X76917000Y-36025000D01*
X77117000Y-36025000D01*
X77117000Y-37365000D01*
X78427000Y-37365000D01*
X78502000Y-37290000D01*
X78502000Y-36190327D01*
X78456328Y-36080064D01*
X78371937Y-35995672D01*
X78261674Y-35950000D01*
X77192000Y-35950000D01*
X77117000Y-36025000D01*
X76917000Y-36025000D01*
X76842000Y-35950000D01*
X75772326Y-35950000D01*
X75662063Y-35995672D01*
X75577672Y-36080064D01*
X75532000Y-36190327D01*
X71495000Y-36190327D01*
X71495000Y-34570123D01*
X72378221Y-34570123D01*
X72386201Y-34613114D01*
X72595213Y-35017659D01*
X72943127Y-35311425D01*
X73376977Y-35449688D01*
X73560000Y-35380844D01*
X73560000Y-34390000D01*
X73760000Y-34390000D01*
X73760000Y-35380844D01*
X73943023Y-35449688D01*
X74376873Y-35311425D01*
X74724787Y-35017659D01*
X74933799Y-34613114D01*
X74941779Y-34570123D01*
X74896397Y-34390000D01*
X73760000Y-34390000D01*
X73560000Y-34390000D01*
X72423603Y-34390000D01*
X72378221Y-34570123D01*
X71495000Y-34570123D01*
X71495000Y-34009877D01*
X72378221Y-34009877D01*
X72423603Y-34190000D01*
X73560000Y-34190000D01*
X73560000Y-33199156D01*
X73760000Y-33199156D01*
X73760000Y-34190000D01*
X74896397Y-34190000D01*
X74941779Y-34009877D01*
X74933799Y-33966886D01*
X74724787Y-33562341D01*
X74376873Y-33268575D01*
X73943023Y-33130312D01*
X73760000Y-33199156D01*
X73560000Y-33199156D01*
X73376977Y-33130312D01*
X72943127Y-33268575D01*
X72595213Y-33562341D01*
X72386201Y-33966886D01*
X72378221Y-34009877D01*
X71495000Y-34009877D01*
X71495000Y-33294422D01*
X71669422Y-33120000D01*
X74380578Y-33120000D01*
X76129289Y-34868711D01*
X76129289Y-34868711D01*
G37*
X76129289Y-34868711D02*
X76162371Y-34890650D01*
X76200000Y-34898000D01*
X79736432Y-34898000D01*
X80164000Y-35346058D01*
X80164000Y-38862000D01*
X80171879Y-38900906D01*
X80195000Y-38934381D01*
X80727887Y-39442381D01*
X80761483Y-39463523D01*
X80796887Y-39470000D01*
X85521582Y-39470000D01*
X85611997Y-39531778D01*
X85731000Y-39555877D01*
X86481000Y-39555877D01*
X86592173Y-39534958D01*
X86694279Y-39469255D01*
X86762778Y-39369003D01*
X86764393Y-39361029D01*
X86847122Y-39278300D01*
X88612900Y-39278300D01*
X88612900Y-39362973D01*
X88658572Y-39473236D01*
X88742963Y-39557628D01*
X88853226Y-39603300D01*
X89012900Y-39603300D01*
X89087900Y-39528300D01*
X89087900Y-39203300D01*
X88687900Y-39203300D01*
X88612900Y-39278300D01*
X86847122Y-39278300D01*
X87163422Y-38962000D01*
X88646600Y-38962000D01*
X88687900Y-39003300D01*
X89087900Y-39003300D01*
X89087900Y-38983300D01*
X89287900Y-38983300D01*
X89287900Y-39003300D01*
X89307900Y-39003300D01*
X89307900Y-39203300D01*
X89287900Y-39203300D01*
X89287900Y-39528300D01*
X89362900Y-39603300D01*
X89486839Y-39603300D01*
X89543645Y-39691579D01*
X89637900Y-39755980D01*
X89637900Y-39878300D01*
X89712900Y-39953300D01*
X90037900Y-39953300D01*
X90037900Y-39933300D01*
X90237900Y-39933300D01*
X90237900Y-39953300D01*
X90257900Y-39953300D01*
X90257900Y-40153300D01*
X90237900Y-40153300D01*
X90237900Y-40553300D01*
X90303589Y-40618989D01*
X89366578Y-41556000D01*
X85090000Y-41556000D01*
X85051094Y-41563879D01*
X85019289Y-41585289D01*
X84003289Y-42601289D01*
X83981350Y-42634371D01*
X83974000Y-42672000D01*
X83974000Y-43646578D01*
X83778578Y-43842000D01*
X78232000Y-43842000D01*
X78193094Y-43849879D01*
X78161289Y-43871289D01*
X77323961Y-44708617D01*
X77283997Y-44550000D01*
X76300000Y-44550000D01*
X76300000Y-44570000D01*
X76100000Y-44570000D01*
X76100000Y-44550000D01*
X76080000Y-44550000D01*
X76080000Y-44350000D01*
X76100000Y-44350000D01*
X76100000Y-43365695D01*
X76300000Y-43365695D01*
X76300000Y-44350000D01*
X77283997Y-44350000D01*
X77329379Y-44169877D01*
X77196676Y-43849478D01*
X76890999Y-43513779D01*
X76480124Y-43320611D01*
X76300000Y-43365695D01*
X76100000Y-43365695D01*
X75919876Y-43320611D01*
X75509001Y-43513779D01*
X75284000Y-43760878D01*
X75284000Y-42599122D01*
X75509001Y-42846221D01*
X75919876Y-43039389D01*
X76100000Y-42994305D01*
X76100000Y-42010000D01*
X76300000Y-42010000D01*
X76300000Y-42994305D01*
X76480124Y-43039389D01*
X76890999Y-42846221D01*
X77099720Y-42617000D01*
X78529000Y-42617000D01*
X78529000Y-43001674D01*
X78574672Y-43111937D01*
X78659064Y-43196328D01*
X78769327Y-43242000D01*
X79454000Y-43242000D01*
X79529000Y-43167000D01*
X79529000Y-42542000D01*
X79729000Y-42542000D01*
X79729000Y-43167000D01*
X79804000Y-43242000D01*
X80488673Y-43242000D01*
X80598936Y-43196328D01*
X80683328Y-43111937D01*
X80729000Y-43001674D01*
X80729000Y-42617000D01*
X80654000Y-42542000D01*
X79729000Y-42542000D01*
X79529000Y-42542000D01*
X78604000Y-42542000D01*
X78529000Y-42617000D01*
X77099720Y-42617000D01*
X77196676Y-42510522D01*
X77329379Y-42190123D01*
X77283997Y-42010000D01*
X76300000Y-42010000D01*
X76100000Y-42010000D01*
X76080000Y-42010000D01*
X76080000Y-41882326D01*
X78529000Y-41882326D01*
X78529000Y-42267000D01*
X78604000Y-42342000D01*
X79529000Y-42342000D01*
X79529000Y-41717000D01*
X79729000Y-41717000D01*
X79729000Y-42342000D01*
X80654000Y-42342000D01*
X80729000Y-42267000D01*
X80729000Y-41882326D01*
X80683328Y-41772063D01*
X80598936Y-41687672D01*
X80488673Y-41642000D01*
X79804000Y-41642000D01*
X79729000Y-41717000D01*
X79529000Y-41717000D01*
X79454000Y-41642000D01*
X78769327Y-41642000D01*
X78659064Y-41687672D01*
X78574672Y-41772063D01*
X78529000Y-41882326D01*
X76080000Y-41882326D01*
X76080000Y-41810000D01*
X76100000Y-41810000D01*
X76100000Y-40825695D01*
X76300000Y-40825695D01*
X76300000Y-41810000D01*
X77283997Y-41810000D01*
X77329379Y-41629877D01*
X77196676Y-41309478D01*
X76890999Y-40973779D01*
X76480124Y-40780611D01*
X76300000Y-40825695D01*
X76100000Y-40825695D01*
X75919876Y-40780611D01*
X75509001Y-40973779D01*
X75284000Y-41220878D01*
X75284000Y-40422252D01*
X75276121Y-40383346D01*
X75257103Y-40354018D01*
X75139759Y-40228300D01*
X89637900Y-40228300D01*
X89637900Y-40387974D01*
X89683572Y-40498237D01*
X89767964Y-40582628D01*
X89878227Y-40628300D01*
X89962900Y-40628300D01*
X90037900Y-40553300D01*
X90037900Y-40153300D01*
X89712900Y-40153300D01*
X89637900Y-40228300D01*
X75139759Y-40228300D01*
X74749103Y-39809766D01*
X74716797Y-39786700D01*
X74676000Y-39778000D01*
X71669422Y-39778000D01*
X71495000Y-39603578D01*
X71495000Y-37640000D01*
X75532000Y-37640000D01*
X75532000Y-38739673D01*
X75577672Y-38849936D01*
X75662063Y-38934328D01*
X75772326Y-38980000D01*
X76842000Y-38980000D01*
X76917000Y-38905000D01*
X76917000Y-37565000D01*
X77117000Y-37565000D01*
X77117000Y-38905000D01*
X77192000Y-38980000D01*
X78261674Y-38980000D01*
X78371937Y-38934328D01*
X78456328Y-38849936D01*
X78502000Y-38739673D01*
X78502000Y-37640000D01*
X78427000Y-37565000D01*
X77117000Y-37565000D01*
X76917000Y-37565000D01*
X75607000Y-37565000D01*
X75532000Y-37640000D01*
X71495000Y-37640000D01*
X71495000Y-36190327D01*
X75532000Y-36190327D01*
X75532000Y-37290000D01*
X75607000Y-37365000D01*
X76917000Y-37365000D01*
X76917000Y-36025000D01*
X77117000Y-36025000D01*
X77117000Y-37365000D01*
X78427000Y-37365000D01*
X78502000Y-37290000D01*
X78502000Y-36190327D01*
X78456328Y-36080064D01*
X78371937Y-35995672D01*
X78261674Y-35950000D01*
X77192000Y-35950000D01*
X77117000Y-36025000D01*
X76917000Y-36025000D01*
X76842000Y-35950000D01*
X75772326Y-35950000D01*
X75662063Y-35995672D01*
X75577672Y-36080064D01*
X75532000Y-36190327D01*
X71495000Y-36190327D01*
X71495000Y-34570123D01*
X72378221Y-34570123D01*
X72386201Y-34613114D01*
X72595213Y-35017659D01*
X72943127Y-35311425D01*
X73376977Y-35449688D01*
X73560000Y-35380844D01*
X73560000Y-34390000D01*
X73760000Y-34390000D01*
X73760000Y-35380844D01*
X73943023Y-35449688D01*
X74376873Y-35311425D01*
X74724787Y-35017659D01*
X74933799Y-34613114D01*
X74941779Y-34570123D01*
X74896397Y-34390000D01*
X73760000Y-34390000D01*
X73560000Y-34390000D01*
X72423603Y-34390000D01*
X72378221Y-34570123D01*
X71495000Y-34570123D01*
X71495000Y-34009877D01*
X72378221Y-34009877D01*
X72423603Y-34190000D01*
X73560000Y-34190000D01*
X73560000Y-33199156D01*
X73760000Y-33199156D01*
X73760000Y-34190000D01*
X74896397Y-34190000D01*
X74941779Y-34009877D01*
X74933799Y-33966886D01*
X74724787Y-33562341D01*
X74376873Y-33268575D01*
X73943023Y-33130312D01*
X73760000Y-33199156D01*
X73560000Y-33199156D01*
X73376977Y-33130312D01*
X72943127Y-33268575D01*
X72595213Y-33562341D01*
X72386201Y-33966886D01*
X72378221Y-34009877D01*
X71495000Y-34009877D01*
X71495000Y-33294422D01*
X71669422Y-33120000D01*
X74380578Y-33120000D01*
X76129289Y-34868711D01*
G36*
X92102000Y-36068000D02*
X92109879Y-36106906D01*
X92131289Y-36138711D01*
X92385289Y-36392711D01*
X92418371Y-36414650D01*
X92456000Y-36422000D01*
X92864000Y-36422000D01*
X92864000Y-38100000D01*
X92871879Y-38138906D01*
X92893289Y-38170711D01*
X93147289Y-38424711D01*
X93180371Y-38446650D01*
X93218000Y-38454000D01*
X93880000Y-38454000D01*
X93880000Y-38508000D01*
X93218000Y-38508000D01*
X93179094Y-38515879D01*
X93147289Y-38537289D01*
X92893289Y-38791289D01*
X92871350Y-38824371D01*
X92864000Y-38862000D01*
X92864000Y-39270000D01*
X92456000Y-39270000D01*
X92417094Y-39277879D01*
X92385289Y-39299289D01*
X92131289Y-39553289D01*
X92109350Y-39586371D01*
X92102000Y-39624000D01*
X92102000Y-40117559D01*
X91910307Y-40286000D01*
X90778000Y-40286000D01*
X90778000Y-39624000D01*
X90770121Y-39585094D01*
X90748711Y-39553289D01*
X90494711Y-39299289D01*
X90461629Y-39277350D01*
X90424000Y-39270000D01*
X90016000Y-39270000D01*
X90016000Y-36422000D01*
X91694000Y-36422000D01*
X91732906Y-36414121D01*
X91764711Y-36392711D01*
X92018711Y-36138711D01*
X92040650Y-36105629D01*
X92048000Y-36068000D01*
X92048000Y-35406000D01*
X92102000Y-35406000D01*
X92102000Y-36068000D01*
X92102000Y-36068000D01*
G37*
X92102000Y-36068000D02*
X92109879Y-36106906D01*
X92131289Y-36138711D01*
X92385289Y-36392711D01*
X92418371Y-36414650D01*
X92456000Y-36422000D01*
X92864000Y-36422000D01*
X92864000Y-38100000D01*
X92871879Y-38138906D01*
X92893289Y-38170711D01*
X93147289Y-38424711D01*
X93180371Y-38446650D01*
X93218000Y-38454000D01*
X93880000Y-38454000D01*
X93880000Y-38508000D01*
X93218000Y-38508000D01*
X93179094Y-38515879D01*
X93147289Y-38537289D01*
X92893289Y-38791289D01*
X92871350Y-38824371D01*
X92864000Y-38862000D01*
X92864000Y-39270000D01*
X92456000Y-39270000D01*
X92417094Y-39277879D01*
X92385289Y-39299289D01*
X92131289Y-39553289D01*
X92109350Y-39586371D01*
X92102000Y-39624000D01*
X92102000Y-40117559D01*
X91910307Y-40286000D01*
X90778000Y-40286000D01*
X90778000Y-39624000D01*
X90770121Y-39585094D01*
X90748711Y-39553289D01*
X90494711Y-39299289D01*
X90461629Y-39277350D01*
X90424000Y-39270000D01*
X90016000Y-39270000D01*
X90016000Y-36422000D01*
X91694000Y-36422000D01*
X91732906Y-36414121D01*
X91764711Y-36392711D01*
X92018711Y-36138711D01*
X92040650Y-36105629D01*
X92048000Y-36068000D01*
X92048000Y-35406000D01*
X92102000Y-35406000D01*
X92102000Y-36068000D01*
G36*
X86550753Y-36654175D02*
X86540673Y-36650000D01*
X86281000Y-36650000D01*
X86206000Y-36725000D01*
X86206000Y-37250000D01*
X86706000Y-37250000D01*
X86781000Y-37175000D01*
X86781000Y-36890326D01*
X86776825Y-36880247D01*
X87784000Y-37887422D01*
X87784000Y-38000000D01*
X86655264Y-38000000D01*
X86735328Y-37919937D01*
X86781000Y-37809674D01*
X86781000Y-37525000D01*
X86706000Y-37450000D01*
X86206000Y-37450000D01*
X86206000Y-37470000D01*
X86006000Y-37470000D01*
X86006000Y-37450000D01*
X85506000Y-37450000D01*
X85431000Y-37525000D01*
X85431000Y-37809674D01*
X85476672Y-37919937D01*
X85556736Y-38000000D01*
X85344000Y-38000000D01*
X85305094Y-38007879D01*
X85273289Y-38029289D01*
X85019289Y-38283289D01*
X84997350Y-38316371D01*
X84990000Y-38354000D01*
X84990000Y-38820578D01*
X84794578Y-39016000D01*
X81067422Y-39016000D01*
X80618000Y-38566578D01*
X80618000Y-37640000D01*
X81772000Y-37640000D01*
X81772000Y-38739673D01*
X81817672Y-38849936D01*
X81902063Y-38934328D01*
X82012326Y-38980000D01*
X83082000Y-38980000D01*
X83157000Y-38905000D01*
X83157000Y-37565000D01*
X83357000Y-37565000D01*
X83357000Y-38905000D01*
X83432000Y-38980000D01*
X84501674Y-38980000D01*
X84611937Y-38934328D01*
X84696328Y-38849936D01*
X84742000Y-38739673D01*
X84742000Y-37640000D01*
X84667000Y-37565000D01*
X83357000Y-37565000D01*
X83157000Y-37565000D01*
X81847000Y-37565000D01*
X81772000Y-37640000D01*
X80618000Y-37640000D01*
X80618000Y-36190327D01*
X81772000Y-36190327D01*
X81772000Y-37290000D01*
X81847000Y-37365000D01*
X83157000Y-37365000D01*
X83157000Y-36025000D01*
X83357000Y-36025000D01*
X83357000Y-37365000D01*
X84667000Y-37365000D01*
X84742000Y-37290000D01*
X84742000Y-36890326D01*
X85431000Y-36890326D01*
X85431000Y-37175000D01*
X85506000Y-37250000D01*
X86006000Y-37250000D01*
X86006000Y-36725000D01*
X85931000Y-36650000D01*
X85671327Y-36650000D01*
X85561064Y-36695672D01*
X85476672Y-36780063D01*
X85431000Y-36890326D01*
X84742000Y-36890326D01*
X84742000Y-36190327D01*
X84696328Y-36080064D01*
X84611937Y-35995672D01*
X84501674Y-35950000D01*
X83432000Y-35950000D01*
X83357000Y-36025000D01*
X83157000Y-36025000D01*
X83082000Y-35950000D01*
X82012326Y-35950000D01*
X81902063Y-35995672D01*
X81817672Y-36080064D01*
X81772000Y-36190327D01*
X80618000Y-36190327D01*
X80618000Y-35347422D01*
X81067422Y-34898000D01*
X84794578Y-34898000D01*
X86550753Y-36654175D01*
X86550753Y-36654175D01*
G37*
X86550753Y-36654175D02*
X86540673Y-36650000D01*
X86281000Y-36650000D01*
X86206000Y-36725000D01*
X86206000Y-37250000D01*
X86706000Y-37250000D01*
X86781000Y-37175000D01*
X86781000Y-36890326D01*
X86776825Y-36880247D01*
X87784000Y-37887422D01*
X87784000Y-38000000D01*
X86655264Y-38000000D01*
X86735328Y-37919937D01*
X86781000Y-37809674D01*
X86781000Y-37525000D01*
X86706000Y-37450000D01*
X86206000Y-37450000D01*
X86206000Y-37470000D01*
X86006000Y-37470000D01*
X86006000Y-37450000D01*
X85506000Y-37450000D01*
X85431000Y-37525000D01*
X85431000Y-37809674D01*
X85476672Y-37919937D01*
X85556736Y-38000000D01*
X85344000Y-38000000D01*
X85305094Y-38007879D01*
X85273289Y-38029289D01*
X85019289Y-38283289D01*
X84997350Y-38316371D01*
X84990000Y-38354000D01*
X84990000Y-38820578D01*
X84794578Y-39016000D01*
X81067422Y-39016000D01*
X80618000Y-38566578D01*
X80618000Y-37640000D01*
X81772000Y-37640000D01*
X81772000Y-38739673D01*
X81817672Y-38849936D01*
X81902063Y-38934328D01*
X82012326Y-38980000D01*
X83082000Y-38980000D01*
X83157000Y-38905000D01*
X83157000Y-37565000D01*
X83357000Y-37565000D01*
X83357000Y-38905000D01*
X83432000Y-38980000D01*
X84501674Y-38980000D01*
X84611937Y-38934328D01*
X84696328Y-38849936D01*
X84742000Y-38739673D01*
X84742000Y-37640000D01*
X84667000Y-37565000D01*
X83357000Y-37565000D01*
X83157000Y-37565000D01*
X81847000Y-37565000D01*
X81772000Y-37640000D01*
X80618000Y-37640000D01*
X80618000Y-36190327D01*
X81772000Y-36190327D01*
X81772000Y-37290000D01*
X81847000Y-37365000D01*
X83157000Y-37365000D01*
X83157000Y-36025000D01*
X83357000Y-36025000D01*
X83357000Y-37365000D01*
X84667000Y-37365000D01*
X84742000Y-37290000D01*
X84742000Y-36890326D01*
X85431000Y-36890326D01*
X85431000Y-37175000D01*
X85506000Y-37250000D01*
X86006000Y-37250000D01*
X86006000Y-36725000D01*
X85931000Y-36650000D01*
X85671327Y-36650000D01*
X85561064Y-36695672D01*
X85476672Y-36780063D01*
X85431000Y-36890326D01*
X84742000Y-36890326D01*
X84742000Y-36190327D01*
X84696328Y-36080064D01*
X84611937Y-35995672D01*
X84501674Y-35950000D01*
X83432000Y-35950000D01*
X83357000Y-36025000D01*
X83157000Y-36025000D01*
X83082000Y-35950000D01*
X82012326Y-35950000D01*
X81902063Y-35995672D01*
X81817672Y-36080064D01*
X81772000Y-36190327D01*
X80618000Y-36190327D01*
X80618000Y-35347422D01*
X81067422Y-34898000D01*
X84794578Y-34898000D01*
X86550753Y-36654175D01*
M02*
