G04 #@! TF.FileFunction,Legend,Top*
%FSLAX46Y46*%
G04 Gerber Fmt 4.6, Leading zero omitted, Abs format (unit mm)*
G04 Created by KiCad (PCBNEW 4.0.1-stable) date 6/22/2016 1:27:22 PM*
%MOMM*%
G01*
G04 APERTURE LIST*
%ADD10C,0.100000*%
%ADD11C,0.300000*%
%ADD12C,0.150000*%
G04 APERTURE END LIST*
D10*
D11*
X96520000Y-53875714D02*
X96591428Y-53947143D01*
X96520000Y-54018571D01*
X96448571Y-53947143D01*
X96520000Y-53875714D01*
X96520000Y-54018571D01*
D12*
X90604000Y-55258000D02*
X90604000Y-54333000D01*
X95904000Y-49958000D02*
X95904000Y-50883000D01*
X90604000Y-49958000D02*
X90604000Y-50883000D01*
X95904000Y-55258000D02*
X94979000Y-55258000D01*
X95904000Y-49958000D02*
X94979000Y-49958000D01*
X90604000Y-49958000D02*
X91529000Y-49958000D01*
X90604000Y-55258000D02*
X91529000Y-55258000D01*
X84744000Y-51670000D02*
X84744000Y-50970000D01*
X85944000Y-50970000D02*
X85944000Y-51670000D01*
X84646000Y-57490000D02*
X76646000Y-57490000D01*
X76646000Y-61890000D02*
X84746000Y-61890000D01*
X87893000Y-62492000D02*
X87893000Y-60492000D01*
X85843000Y-60492000D02*
X85843000Y-62492000D01*
X93306000Y-62476000D02*
X93306000Y-61476000D01*
X91606000Y-61476000D02*
X91606000Y-62476000D01*
X95592000Y-62476000D02*
X95592000Y-61476000D01*
X93892000Y-61476000D02*
X93892000Y-62476000D01*
X97878000Y-62476000D02*
X97878000Y-61476000D01*
X96178000Y-61476000D02*
X96178000Y-62476000D01*
X100164000Y-62476000D02*
X100164000Y-61476000D01*
X98464000Y-61476000D02*
X98464000Y-62476000D01*
X102450000Y-62476000D02*
X102450000Y-61476000D01*
X100750000Y-61476000D02*
X100750000Y-62476000D01*
X93091000Y-34925000D02*
G75*
G03X93091000Y-34925000I-2286000J0D01*
G01*
X93091000Y-67945000D02*
G75*
G03X93091000Y-67945000I-2286000J0D01*
G01*
X82827905Y-42362381D02*
X82827905Y-41362381D01*
X83208858Y-41362381D01*
X83304096Y-41410000D01*
X83351715Y-41457619D01*
X83399334Y-41552857D01*
X83399334Y-41695714D01*
X83351715Y-41790952D01*
X83304096Y-41838571D01*
X83208858Y-41886190D01*
X82827905Y-41886190D01*
X83732667Y-41362381D02*
X84351715Y-41362381D01*
X84018381Y-41743333D01*
X84161239Y-41743333D01*
X84256477Y-41790952D01*
X84304096Y-41838571D01*
X84351715Y-41933810D01*
X84351715Y-42171905D01*
X84304096Y-42267143D01*
X84256477Y-42314762D01*
X84161239Y-42362381D01*
X83875524Y-42362381D01*
X83780286Y-42314762D01*
X83732667Y-42267143D01*
X92492095Y-48540381D02*
X92492095Y-49349905D01*
X92539714Y-49445143D01*
X92587333Y-49492762D01*
X92682571Y-49540381D01*
X92873048Y-49540381D01*
X92968286Y-49492762D01*
X93015905Y-49445143D01*
X93063524Y-49349905D01*
X93063524Y-48540381D01*
X94063524Y-49540381D02*
X93492095Y-49540381D01*
X93777809Y-49540381D02*
X93777809Y-48540381D01*
X93682571Y-48683238D01*
X93587333Y-48778476D01*
X93492095Y-48826095D01*
X78255905Y-50236381D02*
X78255905Y-49236381D01*
X78636858Y-49236381D01*
X78732096Y-49284000D01*
X78779715Y-49331619D01*
X78827334Y-49426857D01*
X78827334Y-49569714D01*
X78779715Y-49664952D01*
X78732096Y-49712571D01*
X78636858Y-49760190D01*
X78255905Y-49760190D01*
X79779715Y-50236381D02*
X79208286Y-50236381D01*
X79494000Y-50236381D02*
X79494000Y-49236381D01*
X79398762Y-49379238D01*
X79303524Y-49474476D01*
X79208286Y-49522095D01*
X85177334Y-49391143D02*
X85129715Y-49438762D01*
X84986858Y-49486381D01*
X84891620Y-49486381D01*
X84748762Y-49438762D01*
X84653524Y-49343524D01*
X84605905Y-49248286D01*
X84558286Y-49057810D01*
X84558286Y-48914952D01*
X84605905Y-48724476D01*
X84653524Y-48629238D01*
X84748762Y-48534000D01*
X84891620Y-48486381D01*
X84986858Y-48486381D01*
X85129715Y-48534000D01*
X85177334Y-48581619D01*
X85510667Y-48486381D02*
X86129715Y-48486381D01*
X85796381Y-48867333D01*
X85939239Y-48867333D01*
X86034477Y-48914952D01*
X86082096Y-48962571D01*
X86129715Y-49057810D01*
X86129715Y-49295905D01*
X86082096Y-49391143D01*
X86034477Y-49438762D01*
X85939239Y-49486381D01*
X85653524Y-49486381D01*
X85558286Y-49438762D01*
X85510667Y-49391143D01*
X80207334Y-63603143D02*
X80159715Y-63650762D01*
X80016858Y-63698381D01*
X79921620Y-63698381D01*
X79778762Y-63650762D01*
X79683524Y-63555524D01*
X79635905Y-63460286D01*
X79588286Y-63269810D01*
X79588286Y-63126952D01*
X79635905Y-62936476D01*
X79683524Y-62841238D01*
X79778762Y-62746000D01*
X79921620Y-62698381D01*
X80016858Y-62698381D01*
X80159715Y-62746000D01*
X80207334Y-62793619D01*
X81159715Y-63698381D02*
X80588286Y-63698381D01*
X80874000Y-63698381D02*
X80874000Y-62698381D01*
X80778762Y-62841238D01*
X80683524Y-62936476D01*
X80588286Y-62984095D01*
X86828334Y-58801143D02*
X86780715Y-58848762D01*
X86637858Y-58896381D01*
X86542620Y-58896381D01*
X86399762Y-58848762D01*
X86304524Y-58753524D01*
X86256905Y-58658286D01*
X86209286Y-58467810D01*
X86209286Y-58324952D01*
X86256905Y-58134476D01*
X86304524Y-58039238D01*
X86399762Y-57944000D01*
X86542620Y-57896381D01*
X86637858Y-57896381D01*
X86780715Y-57944000D01*
X86828334Y-57991619D01*
X87209286Y-57991619D02*
X87256905Y-57944000D01*
X87352143Y-57896381D01*
X87590239Y-57896381D01*
X87685477Y-57944000D01*
X87733096Y-57991619D01*
X87780715Y-58086857D01*
X87780715Y-58182095D01*
X87733096Y-58324952D01*
X87161667Y-58896381D01*
X87780715Y-58896381D01*
X102131905Y-47696381D02*
X102131905Y-46696381D01*
X102512858Y-46696381D01*
X102608096Y-46744000D01*
X102655715Y-46791619D01*
X102703334Y-46886857D01*
X102703334Y-47029714D01*
X102655715Y-47124952D01*
X102608096Y-47172571D01*
X102512858Y-47220190D01*
X102131905Y-47220190D01*
X103560477Y-47029714D02*
X103560477Y-47696381D01*
X103322381Y-46648762D02*
X103084286Y-47363048D01*
X103703334Y-47363048D01*
X92289334Y-59793143D02*
X92241715Y-59840762D01*
X92098858Y-59888381D01*
X92003620Y-59888381D01*
X91860762Y-59840762D01*
X91765524Y-59745524D01*
X91717905Y-59650286D01*
X91670286Y-59459810D01*
X91670286Y-59316952D01*
X91717905Y-59126476D01*
X91765524Y-59031238D01*
X91860762Y-58936000D01*
X92003620Y-58888381D01*
X92098858Y-58888381D01*
X92241715Y-58936000D01*
X92289334Y-58983619D01*
X93146477Y-59221714D02*
X93146477Y-59888381D01*
X92908381Y-58840762D02*
X92670286Y-59555048D01*
X93289334Y-59555048D01*
X94448334Y-59793143D02*
X94400715Y-59840762D01*
X94257858Y-59888381D01*
X94162620Y-59888381D01*
X94019762Y-59840762D01*
X93924524Y-59745524D01*
X93876905Y-59650286D01*
X93829286Y-59459810D01*
X93829286Y-59316952D01*
X93876905Y-59126476D01*
X93924524Y-59031238D01*
X94019762Y-58936000D01*
X94162620Y-58888381D01*
X94257858Y-58888381D01*
X94400715Y-58936000D01*
X94448334Y-58983619D01*
X95353096Y-58888381D02*
X94876905Y-58888381D01*
X94829286Y-59364571D01*
X94876905Y-59316952D01*
X94972143Y-59269333D01*
X95210239Y-59269333D01*
X95305477Y-59316952D01*
X95353096Y-59364571D01*
X95400715Y-59459810D01*
X95400715Y-59697905D01*
X95353096Y-59793143D01*
X95305477Y-59840762D01*
X95210239Y-59888381D01*
X94972143Y-59888381D01*
X94876905Y-59840762D01*
X94829286Y-59793143D01*
X96861334Y-59793143D02*
X96813715Y-59840762D01*
X96670858Y-59888381D01*
X96575620Y-59888381D01*
X96432762Y-59840762D01*
X96337524Y-59745524D01*
X96289905Y-59650286D01*
X96242286Y-59459810D01*
X96242286Y-59316952D01*
X96289905Y-59126476D01*
X96337524Y-59031238D01*
X96432762Y-58936000D01*
X96575620Y-58888381D01*
X96670858Y-58888381D01*
X96813715Y-58936000D01*
X96861334Y-58983619D01*
X97718477Y-58888381D02*
X97528000Y-58888381D01*
X97432762Y-58936000D01*
X97385143Y-58983619D01*
X97289905Y-59126476D01*
X97242286Y-59316952D01*
X97242286Y-59697905D01*
X97289905Y-59793143D01*
X97337524Y-59840762D01*
X97432762Y-59888381D01*
X97623239Y-59888381D01*
X97718477Y-59840762D01*
X97766096Y-59793143D01*
X97813715Y-59697905D01*
X97813715Y-59459810D01*
X97766096Y-59364571D01*
X97718477Y-59316952D01*
X97623239Y-59269333D01*
X97432762Y-59269333D01*
X97337524Y-59316952D01*
X97289905Y-59364571D01*
X97242286Y-59459810D01*
X99147334Y-59793143D02*
X99099715Y-59840762D01*
X98956858Y-59888381D01*
X98861620Y-59888381D01*
X98718762Y-59840762D01*
X98623524Y-59745524D01*
X98575905Y-59650286D01*
X98528286Y-59459810D01*
X98528286Y-59316952D01*
X98575905Y-59126476D01*
X98623524Y-59031238D01*
X98718762Y-58936000D01*
X98861620Y-58888381D01*
X98956858Y-58888381D01*
X99099715Y-58936000D01*
X99147334Y-58983619D01*
X99480667Y-58888381D02*
X100147334Y-58888381D01*
X99718762Y-59888381D01*
X101433334Y-59793143D02*
X101385715Y-59840762D01*
X101242858Y-59888381D01*
X101147620Y-59888381D01*
X101004762Y-59840762D01*
X100909524Y-59745524D01*
X100861905Y-59650286D01*
X100814286Y-59459810D01*
X100814286Y-59316952D01*
X100861905Y-59126476D01*
X100909524Y-59031238D01*
X101004762Y-58936000D01*
X101147620Y-58888381D01*
X101242858Y-58888381D01*
X101385715Y-58936000D01*
X101433334Y-58983619D01*
X102004762Y-59316952D02*
X101909524Y-59269333D01*
X101861905Y-59221714D01*
X101814286Y-59126476D01*
X101814286Y-59078857D01*
X101861905Y-58983619D01*
X101909524Y-58936000D01*
X102004762Y-58888381D01*
X102195239Y-58888381D01*
X102290477Y-58936000D01*
X102338096Y-58983619D01*
X102385715Y-59078857D01*
X102385715Y-59126476D01*
X102338096Y-59221714D01*
X102290477Y-59269333D01*
X102195239Y-59316952D01*
X102004762Y-59316952D01*
X101909524Y-59364571D01*
X101861905Y-59412190D01*
X101814286Y-59507429D01*
X101814286Y-59697905D01*
X101861905Y-59793143D01*
X101909524Y-59840762D01*
X102004762Y-59888381D01*
X102195239Y-59888381D01*
X102290477Y-59840762D01*
X102338096Y-59793143D01*
X102385715Y-59697905D01*
X102385715Y-59507429D01*
X102338096Y-59412190D01*
X102290477Y-59364571D01*
X102195239Y-59316952D01*
X79525905Y-43632381D02*
X79525905Y-42632381D01*
X79906858Y-42632381D01*
X80002096Y-42680000D01*
X80049715Y-42727619D01*
X80097334Y-42822857D01*
X80097334Y-42965714D01*
X80049715Y-43060952D01*
X80002096Y-43108571D01*
X79906858Y-43156190D01*
X79525905Y-43156190D01*
X80478286Y-42727619D02*
X80525905Y-42680000D01*
X80621143Y-42632381D01*
X80859239Y-42632381D01*
X80954477Y-42680000D01*
X81002096Y-42727619D01*
X81049715Y-42822857D01*
X81049715Y-42918095D01*
X81002096Y-43060952D01*
X80430667Y-43632381D01*
X81049715Y-43632381D01*
X90066905Y-38552381D02*
X90066905Y-37552381D01*
X90447858Y-37552381D01*
X90543096Y-37600000D01*
X90590715Y-37647619D01*
X90638334Y-37742857D01*
X90638334Y-37885714D01*
X90590715Y-37980952D01*
X90543096Y-38028571D01*
X90447858Y-38076190D01*
X90066905Y-38076190D01*
X91543096Y-37552381D02*
X91066905Y-37552381D01*
X91019286Y-38028571D01*
X91066905Y-37980952D01*
X91162143Y-37933333D01*
X91400239Y-37933333D01*
X91495477Y-37980952D01*
X91543096Y-38028571D01*
X91590715Y-38123810D01*
X91590715Y-38361905D01*
X91543096Y-38457143D01*
X91495477Y-38504762D01*
X91400239Y-38552381D01*
X91162143Y-38552381D01*
X91066905Y-38504762D01*
X91019286Y-38457143D01*
X90066905Y-65222381D02*
X90066905Y-64222381D01*
X90447858Y-64222381D01*
X90543096Y-64270000D01*
X90590715Y-64317619D01*
X90638334Y-64412857D01*
X90638334Y-64555714D01*
X90590715Y-64650952D01*
X90543096Y-64698571D01*
X90447858Y-64746190D01*
X90066905Y-64746190D01*
X91495477Y-64222381D02*
X91305000Y-64222381D01*
X91209762Y-64270000D01*
X91162143Y-64317619D01*
X91066905Y-64460476D01*
X91019286Y-64650952D01*
X91019286Y-65031905D01*
X91066905Y-65127143D01*
X91114524Y-65174762D01*
X91209762Y-65222381D01*
X91400239Y-65222381D01*
X91495477Y-65174762D01*
X91543096Y-65127143D01*
X91590715Y-65031905D01*
X91590715Y-64793810D01*
X91543096Y-64698571D01*
X91495477Y-64650952D01*
X91400239Y-64603333D01*
X91209762Y-64603333D01*
X91114524Y-64650952D01*
X91066905Y-64698571D01*
X91019286Y-64793810D01*
M02*
