G04 #@! TF.FileFunction,Soldermask,Top*
%FSLAX46Y46*%
G04 Gerber Fmt 4.6, Leading zero omitted, Abs format (unit mm)*
G04 Created by KiCad (PCBNEW 4.0.1-stable) date 6/22/2016 1:27:22 PM*
%MOMM*%
G01*
G04 APERTURE LIST*
%ADD10C,0.100000*%
%ADD11R,2.127200X2.127200*%
%ADD12O,2.127200X2.127200*%
%ADD13R,0.950000X0.800000*%
%ADD14R,0.800000X0.950000*%
%ADD15R,2.075000X2.075000*%
%ADD16R,1.150000X1.200000*%
%ADD17R,2.770000X2.830000*%
%ADD18R,2.000000X1.400000*%
%ADD19R,1.650000X1.400000*%
%ADD20R,2.432000X2.127200*%
%ADD21O,2.432000X2.127200*%
%ADD22C,4.464000*%
G04 APERTURE END LIST*
D10*
D11*
X86360000Y-40640000D03*
D12*
X86360000Y-43180000D03*
X88900000Y-40640000D03*
X88900000Y-43180000D03*
X91440000Y-40640000D03*
X91440000Y-43180000D03*
X93980000Y-40640000D03*
X93980000Y-43180000D03*
X96520000Y-40640000D03*
X96520000Y-43180000D03*
X99060000Y-40640000D03*
X99060000Y-43180000D03*
X101600000Y-40640000D03*
X101600000Y-43180000D03*
X104140000Y-40640000D03*
X104140000Y-43180000D03*
D13*
X95504000Y-53908000D03*
X95504000Y-53258000D03*
X95504000Y-52608000D03*
X95504000Y-51958000D03*
X95504000Y-51308000D03*
D14*
X94554000Y-50358000D03*
X93904000Y-50358000D03*
X93254000Y-50358000D03*
X92604000Y-50358000D03*
X91954000Y-50358000D03*
D13*
X91004000Y-51308000D03*
X91004000Y-51958000D03*
X91004000Y-52608000D03*
X91004000Y-53258000D03*
X91004000Y-53908000D03*
D14*
X91954000Y-54858000D03*
X92604000Y-54858000D03*
X93254000Y-54858000D03*
X93904000Y-54858000D03*
X94554000Y-54858000D03*
D15*
X92416500Y-51770500D03*
X92416500Y-53445500D03*
X94091500Y-51770500D03*
X94091500Y-53445500D03*
D11*
X77470000Y-54864000D03*
D12*
X80010000Y-54864000D03*
X77470000Y-52324000D03*
X80010000Y-52324000D03*
D16*
X85344000Y-52070000D03*
X85344000Y-50570000D03*
D17*
X77326000Y-59690000D03*
X83566000Y-59690000D03*
D18*
X86868000Y-59992000D03*
X86868000Y-62992000D03*
D11*
X104140000Y-49784000D03*
D12*
X101600000Y-49784000D03*
X104140000Y-52324000D03*
X101600000Y-52324000D03*
X104140000Y-54864000D03*
X101600000Y-54864000D03*
X104140000Y-57404000D03*
X101600000Y-57404000D03*
D19*
X92456000Y-60976000D03*
X92456000Y-62976000D03*
X94742000Y-60976000D03*
X94742000Y-62976000D03*
X97028000Y-60976000D03*
X97028000Y-62976000D03*
X99314000Y-60976000D03*
X99314000Y-62976000D03*
X101600000Y-60976000D03*
X101600000Y-62976000D03*
D20*
X77470000Y-40640000D03*
D21*
X77470000Y-43180000D03*
X77470000Y-45720000D03*
D22*
X90805000Y-34925000D03*
X90805000Y-67945000D03*
M02*
