G04 #@! TF.FileFunction,Soldermask,Top*
%FSLAX46Y46*%
G04 Gerber Fmt 4.6, Leading zero omitted, Abs format (unit mm)*
G04 Created by KiCad (PCBNEW 4.0.2-stable) date Saturday, June 18, 2016 'PMt' 03:39:07 PM*
%MOMM*%
G01*
G04 APERTURE LIST*
%ADD10C,0.100000*%
%ADD11R,0.950000X0.800000*%
%ADD12R,0.800000X0.950000*%
%ADD13R,2.075000X2.075000*%
%ADD14R,2.000000X1.400000*%
%ADD15R,2.127200X2.127200*%
%ADD16O,2.127200X2.127200*%
%ADD17R,2.770000X2.830000*%
%ADD18R,1.150000X1.200000*%
%ADD19R,1.650000X1.400000*%
%ADD20R,2.432000X2.127200*%
%ADD21O,2.432000X2.127200*%
%ADD22C,4.464000*%
G04 APERTURE END LIST*
D10*
D11*
X93687900Y-39103300D03*
X93687900Y-38453300D03*
X93687900Y-37803300D03*
X93687900Y-37153300D03*
X93687900Y-36503300D03*
D12*
X92737900Y-35553300D03*
X92087900Y-35553300D03*
X91437900Y-35553300D03*
X90787900Y-35553300D03*
X90137900Y-35553300D03*
D11*
X89187900Y-36503300D03*
X89187900Y-37153300D03*
X89187900Y-37803300D03*
X89187900Y-38453300D03*
X89187900Y-39103300D03*
D12*
X90137900Y-40053300D03*
X90787900Y-40053300D03*
X91437900Y-40053300D03*
X92087900Y-40053300D03*
X92737900Y-40053300D03*
D13*
X90600400Y-36965800D03*
X90600400Y-38640800D03*
X92275400Y-36965800D03*
X92275400Y-38640800D03*
D14*
X79629000Y-42442000D03*
X79629000Y-45442000D03*
D15*
X100330000Y-36830000D03*
D16*
X97790000Y-36830000D03*
X100330000Y-39370000D03*
X97790000Y-39370000D03*
X100330000Y-41910000D03*
X97790000Y-41910000D03*
X100330000Y-44450000D03*
X97790000Y-44450000D03*
D17*
X83257000Y-37465000D03*
X77017000Y-37465000D03*
D18*
X86106000Y-38850000D03*
X86106000Y-37350000D03*
D19*
X85471000Y-43450000D03*
X85471000Y-45450000D03*
X87757000Y-43450000D03*
X87757000Y-45450000D03*
X90043000Y-43450000D03*
X90043000Y-45450000D03*
X92329000Y-43450000D03*
X92329000Y-45450000D03*
X94615000Y-43450000D03*
X94615000Y-45450000D03*
D15*
X73660000Y-44450000D03*
D16*
X76200000Y-44450000D03*
X73660000Y-41910000D03*
X76200000Y-41910000D03*
D20*
X73660000Y-29210000D03*
D21*
X73660000Y-31750000D03*
X73660000Y-34290000D03*
D15*
X82550000Y-29210000D03*
D16*
X82550000Y-31750000D03*
X85090000Y-29210000D03*
X85090000Y-31750000D03*
X87630000Y-29210000D03*
X87630000Y-31750000D03*
X90170000Y-29210000D03*
X90170000Y-31750000D03*
X92710000Y-29210000D03*
X92710000Y-31750000D03*
X95250000Y-29210000D03*
X95250000Y-31750000D03*
X97790000Y-29210000D03*
X97790000Y-31750000D03*
X100330000Y-29210000D03*
X100330000Y-31750000D03*
D22*
X86995000Y-23495000D03*
X86995000Y-50165000D03*
M02*
