G04 #@! TF.FileFunction,Copper,L1,Top,Signal*
%FSLAX46Y46*%
G04 Gerber Fmt 4.6, Leading zero omitted, Abs format (unit mm)*
G04 Created by KiCad (PCBNEW 4.0.2-stable) date Saturday, June 18, 2016 'PMt' 03:39:07 PM*
%MOMM*%
G01*
G04 APERTURE LIST*
%ADD10C,0.100000*%
%ADD11R,0.550000X0.400000*%
%ADD12R,0.400000X0.550000*%
%ADD13R,1.675000X1.675000*%
%ADD14R,1.600000X1.000000*%
%ADD15R,1.727200X1.727200*%
%ADD16O,1.727200X1.727200*%
%ADD17R,2.370000X2.430000*%
%ADD18R,0.750000X0.800000*%
%ADD19R,1.250000X1.000000*%
%ADD20R,2.032000X1.727200*%
%ADD21O,2.032000X1.727200*%
%ADD22C,4.064000*%
%ADD23C,0.400000*%
%ADD24C,0.200000*%
G04 APERTURE END LIST*
D10*
D11*
X93687900Y-39103300D03*
X93687900Y-38453300D03*
X93687900Y-37803300D03*
X93687900Y-37153300D03*
X93687900Y-36503300D03*
D12*
X92737900Y-35553300D03*
X92087900Y-35553300D03*
X91437900Y-35553300D03*
X90787900Y-35553300D03*
X90137900Y-35553300D03*
D11*
X89187900Y-36503300D03*
X89187900Y-37153300D03*
X89187900Y-37803300D03*
X89187900Y-38453300D03*
X89187900Y-39103300D03*
D12*
X90137900Y-40053300D03*
X90787900Y-40053300D03*
X91437900Y-40053300D03*
X92087900Y-40053300D03*
X92737900Y-40053300D03*
D13*
X90600400Y-36965800D03*
X90600400Y-38640800D03*
X92275400Y-36965800D03*
X92275400Y-38640800D03*
D14*
X79629000Y-42442000D03*
X79629000Y-45442000D03*
D15*
X100330000Y-36830000D03*
D16*
X97790000Y-36830000D03*
X100330000Y-39370000D03*
X97790000Y-39370000D03*
X100330000Y-41910000D03*
X97790000Y-41910000D03*
X100330000Y-44450000D03*
X97790000Y-44450000D03*
D17*
X83257000Y-37465000D03*
X77017000Y-37465000D03*
D18*
X86106000Y-38850000D03*
X86106000Y-37350000D03*
D19*
X85471000Y-43450000D03*
X85471000Y-45450000D03*
X87757000Y-43450000D03*
X87757000Y-45450000D03*
X90043000Y-43450000D03*
X90043000Y-45450000D03*
X92329000Y-43450000D03*
X92329000Y-45450000D03*
X94615000Y-43450000D03*
X94615000Y-45450000D03*
D15*
X73660000Y-44450000D03*
D16*
X76200000Y-44450000D03*
X73660000Y-41910000D03*
X76200000Y-41910000D03*
D20*
X73660000Y-29210000D03*
D21*
X73660000Y-31750000D03*
X73660000Y-34290000D03*
D15*
X82550000Y-29210000D03*
D16*
X82550000Y-31750000D03*
X85090000Y-29210000D03*
X85090000Y-31750000D03*
X87630000Y-29210000D03*
X87630000Y-31750000D03*
X90170000Y-29210000D03*
X90170000Y-31750000D03*
X92710000Y-29210000D03*
X92710000Y-31750000D03*
X95250000Y-29210000D03*
X95250000Y-31750000D03*
X97790000Y-29210000D03*
X97790000Y-31750000D03*
X100330000Y-29210000D03*
X100330000Y-31750000D03*
D22*
X86995000Y-23495000D03*
X86995000Y-50165000D03*
D23*
X85090000Y-37338000D03*
X92202000Y-38862000D03*
X91694000Y-38862000D03*
X91186000Y-38862000D03*
X90678000Y-38862000D03*
X92202000Y-36830000D03*
X91694000Y-36830000D03*
X91186000Y-36830000D03*
X90678000Y-36830000D03*
X91694000Y-38354000D03*
X91694000Y-37846000D03*
X91694000Y-37338000D03*
X91186000Y-37846000D03*
X92202000Y-37846000D03*
X92202000Y-38354000D03*
X91186000Y-38354000D03*
X90678000Y-38354000D03*
X90678000Y-37846000D03*
X92202000Y-37338000D03*
X91186000Y-37338000D03*
X90678000Y-37338000D03*
D24*
X88540000Y-38460000D02*
X88150000Y-38850000D01*
X88150000Y-38850000D02*
X86106000Y-38850000D01*
X89190000Y-38460000D02*
X88540000Y-38460000D01*
X85090000Y-34290000D02*
X76200000Y-34290000D01*
X88610000Y-37810000D02*
X85090000Y-34290000D01*
X89190000Y-37810000D02*
X88610000Y-37810000D01*
X73660000Y-31750000D02*
X76200000Y-34290000D01*
X85090000Y-33655000D02*
X84455000Y-33655000D01*
X84455000Y-33655000D02*
X82550000Y-31750000D01*
X88595000Y-37160000D02*
X85090000Y-33655000D01*
X89190000Y-37160000D02*
X88595000Y-37160000D01*
X85090000Y-33020000D02*
X85090000Y-31750000D01*
X88580000Y-36510000D02*
X85090000Y-33020000D01*
X89190000Y-36510000D02*
X88580000Y-36510000D01*
X90140000Y-35560000D02*
X90140000Y-35485000D01*
X90140000Y-35485000D02*
X87630000Y-32975000D01*
X87630000Y-32975000D02*
X87630000Y-31750000D01*
X90170000Y-34465000D02*
X90170000Y-31750000D01*
X90790000Y-35560000D02*
X90790000Y-35085000D01*
X90790000Y-35085000D02*
X90170000Y-34465000D01*
X92710000Y-33815000D02*
X92710000Y-31750000D01*
X91440000Y-35560000D02*
X91440000Y-35085000D01*
X91440000Y-35085000D02*
X92710000Y-33815000D01*
X92740000Y-35560000D02*
X92740000Y-35485000D01*
X92740000Y-35485000D02*
X95250000Y-32975000D01*
X95250000Y-32975000D02*
X95250000Y-31750000D01*
X93690000Y-36510000D02*
X93690000Y-35850000D01*
X93690000Y-35850000D02*
X97790000Y-31750000D01*
X98305000Y-33020000D02*
X99060000Y-33020000D01*
X99060000Y-33020000D02*
X100330000Y-31750000D01*
X93690000Y-37160000D02*
X94165000Y-37160000D01*
X94165000Y-37160000D02*
X98305000Y-33020000D01*
G36*
X98960000Y-36363422D02*
X98960000Y-44916578D01*
X98256578Y-45620000D01*
X97323422Y-45620000D01*
X96082711Y-44379289D01*
X96049629Y-44357350D01*
X96012000Y-44350000D01*
X84877422Y-44350000D01*
X84428000Y-43900578D01*
X84428000Y-42967422D01*
X85385422Y-42010000D01*
X89408000Y-42010000D01*
X89446906Y-42002121D01*
X89478711Y-41980711D01*
X90719422Y-40740000D01*
X92202000Y-40740000D01*
X92240906Y-40732121D01*
X92272711Y-40710711D01*
X92363463Y-40619959D01*
X92399073Y-40613258D01*
X92501179Y-40547555D01*
X92569678Y-40447303D01*
X92593777Y-40328300D01*
X92593777Y-39881645D01*
X92691245Y-39784177D01*
X93112900Y-39784177D01*
X93224073Y-39763258D01*
X93326179Y-39697555D01*
X93394678Y-39597303D01*
X93418777Y-39478300D01*
X93418777Y-39056645D01*
X93513422Y-38962000D01*
X94234000Y-38962000D01*
X94272906Y-38954121D01*
X94305681Y-38931727D01*
X94327161Y-38898346D01*
X94334000Y-38862000D01*
X94334000Y-38100000D01*
X94326121Y-38061094D01*
X94303727Y-38028319D01*
X94270346Y-38006839D01*
X94234000Y-38000000D01*
X94123582Y-38000000D01*
X94081903Y-37971522D01*
X93962900Y-37947423D01*
X93572000Y-37947423D01*
X93572000Y-37692000D01*
X94234000Y-37692000D01*
X94272906Y-37684121D01*
X94304711Y-37662711D01*
X96307422Y-35660000D01*
X98256578Y-35660000D01*
X98960000Y-36363422D01*
X98960000Y-36363422D01*
G37*
X98960000Y-36363422D02*
X98960000Y-44916578D01*
X98256578Y-45620000D01*
X97323422Y-45620000D01*
X96082711Y-44379289D01*
X96049629Y-44357350D01*
X96012000Y-44350000D01*
X84877422Y-44350000D01*
X84428000Y-43900578D01*
X84428000Y-42967422D01*
X85385422Y-42010000D01*
X89408000Y-42010000D01*
X89446906Y-42002121D01*
X89478711Y-41980711D01*
X90719422Y-40740000D01*
X92202000Y-40740000D01*
X92240906Y-40732121D01*
X92272711Y-40710711D01*
X92363463Y-40619959D01*
X92399073Y-40613258D01*
X92501179Y-40547555D01*
X92569678Y-40447303D01*
X92593777Y-40328300D01*
X92593777Y-39881645D01*
X92691245Y-39784177D01*
X93112900Y-39784177D01*
X93224073Y-39763258D01*
X93326179Y-39697555D01*
X93394678Y-39597303D01*
X93418777Y-39478300D01*
X93418777Y-39056645D01*
X93513422Y-38962000D01*
X94234000Y-38962000D01*
X94272906Y-38954121D01*
X94305681Y-38931727D01*
X94327161Y-38898346D01*
X94334000Y-38862000D01*
X94334000Y-38100000D01*
X94326121Y-38061094D01*
X94303727Y-38028319D01*
X94270346Y-38006839D01*
X94234000Y-38000000D01*
X94123582Y-38000000D01*
X94081903Y-37971522D01*
X93962900Y-37947423D01*
X93572000Y-37947423D01*
X93572000Y-37692000D01*
X94234000Y-37692000D01*
X94272906Y-37684121D01*
X94304711Y-37662711D01*
X96307422Y-35660000D01*
X98256578Y-35660000D01*
X98960000Y-36363422D01*
G36*
X89795000Y-26670000D02*
X89816000Y-26775575D01*
X89816000Y-26924000D01*
X89823879Y-26962906D01*
X89846273Y-26995681D01*
X89879654Y-27017161D01*
X89916000Y-27024000D01*
X90064425Y-27024000D01*
X90170000Y-27045000D01*
X102495000Y-27045000D01*
X102495000Y-46615000D01*
X90170000Y-46615000D01*
X90064425Y-46636000D01*
X89916000Y-46636000D01*
X89877094Y-46643879D01*
X89844319Y-46666273D01*
X89822839Y-46699654D01*
X89816000Y-46736000D01*
X89816000Y-46884425D01*
X89795000Y-46990000D01*
X89795000Y-52965000D01*
X84195000Y-52965000D01*
X84195000Y-50626828D01*
X84662596Y-50626828D01*
X85016873Y-51484246D01*
X85672303Y-52140821D01*
X86529101Y-52496595D01*
X87456828Y-52497404D01*
X88314246Y-52143127D01*
X88970821Y-51487697D01*
X89326595Y-50630899D01*
X89327404Y-49703172D01*
X88973127Y-48845754D01*
X88317697Y-48189179D01*
X87460899Y-47833405D01*
X86533172Y-47832596D01*
X85675754Y-48186873D01*
X85019179Y-48842303D01*
X84663405Y-49699101D01*
X84662596Y-50626828D01*
X84195000Y-50626828D01*
X84195000Y-46990000D01*
X84174000Y-46884425D01*
X84174000Y-46736000D01*
X84166121Y-46697094D01*
X84143727Y-46664319D01*
X84110346Y-46642839D01*
X84074000Y-46636000D01*
X83925575Y-46636000D01*
X83820000Y-46615000D01*
X71495000Y-46615000D01*
X71495000Y-40406422D01*
X71669422Y-40232000D01*
X74380578Y-40232000D01*
X74830000Y-40681422D01*
X74830000Y-45212000D01*
X74837879Y-45250906D01*
X74859289Y-45282711D01*
X75367289Y-45790711D01*
X75400371Y-45812650D01*
X75438000Y-45820000D01*
X76962000Y-45820000D01*
X77000906Y-45812121D01*
X77032711Y-45790711D01*
X78527422Y-44296000D01*
X84032578Y-44296000D01*
X84511289Y-44774711D01*
X84544371Y-44796650D01*
X84582000Y-44804000D01*
X95716578Y-44804000D01*
X96957289Y-46044711D01*
X96990371Y-46066650D01*
X97028000Y-46074000D01*
X98552000Y-46074000D01*
X98590906Y-46066121D01*
X98622711Y-46044711D01*
X99384711Y-45282711D01*
X99406650Y-45249629D01*
X99414000Y-45212000D01*
X99414000Y-36068000D01*
X99406121Y-36029094D01*
X99384711Y-35997289D01*
X98622711Y-35235289D01*
X98589629Y-35213350D01*
X98552000Y-35206000D01*
X96761422Y-35206000D01*
X98339422Y-33628000D01*
X99060000Y-33628000D01*
X99098906Y-33620121D01*
X99130711Y-33598711D01*
X99609422Y-33120000D01*
X100838000Y-33120000D01*
X100876906Y-33112121D01*
X100908711Y-33090711D01*
X101670711Y-32328711D01*
X101692650Y-32295629D01*
X101700000Y-32258000D01*
X101700000Y-31242000D01*
X101692121Y-31203094D01*
X101670711Y-31171289D01*
X100908711Y-30409289D01*
X100875629Y-30387350D01*
X100838000Y-30380000D01*
X81788000Y-30380000D01*
X81749094Y-30387879D01*
X81717289Y-30409289D01*
X81209289Y-30917289D01*
X81187350Y-30950371D01*
X81180000Y-30988000D01*
X81180000Y-32512000D01*
X81187879Y-32550906D01*
X81209289Y-32582711D01*
X81717289Y-33090711D01*
X81750371Y-33112650D01*
X81788000Y-33120000D01*
X83270578Y-33120000D01*
X84040578Y-33890000D01*
X76449422Y-33890000D01*
X75284000Y-32724578D01*
X75284000Y-31242000D01*
X75276121Y-31203094D01*
X75254711Y-31171289D01*
X74492711Y-30409289D01*
X74459629Y-30387350D01*
X74422000Y-30380000D01*
X72898000Y-30380000D01*
X72859094Y-30387879D01*
X72827289Y-30409289D01*
X72065289Y-31171289D01*
X72043350Y-31204371D01*
X72036000Y-31242000D01*
X72036000Y-32470578D01*
X71840578Y-32666000D01*
X71669422Y-32666000D01*
X71495000Y-32491578D01*
X71495000Y-27045000D01*
X83820000Y-27045000D01*
X83925575Y-27024000D01*
X84074000Y-27024000D01*
X84112906Y-27016121D01*
X84145681Y-26993727D01*
X84167161Y-26960346D01*
X84174000Y-26924000D01*
X84174000Y-26775575D01*
X84195000Y-26670000D01*
X84195000Y-23956828D01*
X84662596Y-23956828D01*
X85016873Y-24814246D01*
X85672303Y-25470821D01*
X86529101Y-25826595D01*
X87456828Y-25827404D01*
X88314246Y-25473127D01*
X88970821Y-24817697D01*
X89326595Y-23960899D01*
X89327404Y-23033172D01*
X88973127Y-22175754D01*
X88317697Y-21519179D01*
X87460899Y-21163405D01*
X86533172Y-21162596D01*
X85675754Y-21516873D01*
X85019179Y-22172303D01*
X84663405Y-23029101D01*
X84662596Y-23956828D01*
X84195000Y-23956828D01*
X84195000Y-20695000D01*
X89795000Y-20695000D01*
X89795000Y-26670000D01*
X89795000Y-26670000D01*
G37*
X89795000Y-26670000D02*
X89816000Y-26775575D01*
X89816000Y-26924000D01*
X89823879Y-26962906D01*
X89846273Y-26995681D01*
X89879654Y-27017161D01*
X89916000Y-27024000D01*
X90064425Y-27024000D01*
X90170000Y-27045000D01*
X102495000Y-27045000D01*
X102495000Y-46615000D01*
X90170000Y-46615000D01*
X90064425Y-46636000D01*
X89916000Y-46636000D01*
X89877094Y-46643879D01*
X89844319Y-46666273D01*
X89822839Y-46699654D01*
X89816000Y-46736000D01*
X89816000Y-46884425D01*
X89795000Y-46990000D01*
X89795000Y-52965000D01*
X84195000Y-52965000D01*
X84195000Y-50626828D01*
X84662596Y-50626828D01*
X85016873Y-51484246D01*
X85672303Y-52140821D01*
X86529101Y-52496595D01*
X87456828Y-52497404D01*
X88314246Y-52143127D01*
X88970821Y-51487697D01*
X89326595Y-50630899D01*
X89327404Y-49703172D01*
X88973127Y-48845754D01*
X88317697Y-48189179D01*
X87460899Y-47833405D01*
X86533172Y-47832596D01*
X85675754Y-48186873D01*
X85019179Y-48842303D01*
X84663405Y-49699101D01*
X84662596Y-50626828D01*
X84195000Y-50626828D01*
X84195000Y-46990000D01*
X84174000Y-46884425D01*
X84174000Y-46736000D01*
X84166121Y-46697094D01*
X84143727Y-46664319D01*
X84110346Y-46642839D01*
X84074000Y-46636000D01*
X83925575Y-46636000D01*
X83820000Y-46615000D01*
X71495000Y-46615000D01*
X71495000Y-40406422D01*
X71669422Y-40232000D01*
X74380578Y-40232000D01*
X74830000Y-40681422D01*
X74830000Y-45212000D01*
X74837879Y-45250906D01*
X74859289Y-45282711D01*
X75367289Y-45790711D01*
X75400371Y-45812650D01*
X75438000Y-45820000D01*
X76962000Y-45820000D01*
X77000906Y-45812121D01*
X77032711Y-45790711D01*
X78527422Y-44296000D01*
X84032578Y-44296000D01*
X84511289Y-44774711D01*
X84544371Y-44796650D01*
X84582000Y-44804000D01*
X95716578Y-44804000D01*
X96957289Y-46044711D01*
X96990371Y-46066650D01*
X97028000Y-46074000D01*
X98552000Y-46074000D01*
X98590906Y-46066121D01*
X98622711Y-46044711D01*
X99384711Y-45282711D01*
X99406650Y-45249629D01*
X99414000Y-45212000D01*
X99414000Y-36068000D01*
X99406121Y-36029094D01*
X99384711Y-35997289D01*
X98622711Y-35235289D01*
X98589629Y-35213350D01*
X98552000Y-35206000D01*
X96761422Y-35206000D01*
X98339422Y-33628000D01*
X99060000Y-33628000D01*
X99098906Y-33620121D01*
X99130711Y-33598711D01*
X99609422Y-33120000D01*
X100838000Y-33120000D01*
X100876906Y-33112121D01*
X100908711Y-33090711D01*
X101670711Y-32328711D01*
X101692650Y-32295629D01*
X101700000Y-32258000D01*
X101700000Y-31242000D01*
X101692121Y-31203094D01*
X101670711Y-31171289D01*
X100908711Y-30409289D01*
X100875629Y-30387350D01*
X100838000Y-30380000D01*
X81788000Y-30380000D01*
X81749094Y-30387879D01*
X81717289Y-30409289D01*
X81209289Y-30917289D01*
X81187350Y-30950371D01*
X81180000Y-30988000D01*
X81180000Y-32512000D01*
X81187879Y-32550906D01*
X81209289Y-32582711D01*
X81717289Y-33090711D01*
X81750371Y-33112650D01*
X81788000Y-33120000D01*
X83270578Y-33120000D01*
X84040578Y-33890000D01*
X76449422Y-33890000D01*
X75284000Y-32724578D01*
X75284000Y-31242000D01*
X75276121Y-31203094D01*
X75254711Y-31171289D01*
X74492711Y-30409289D01*
X74459629Y-30387350D01*
X74422000Y-30380000D01*
X72898000Y-30380000D01*
X72859094Y-30387879D01*
X72827289Y-30409289D01*
X72065289Y-31171289D01*
X72043350Y-31204371D01*
X72036000Y-31242000D01*
X72036000Y-32470578D01*
X71840578Y-32666000D01*
X71669422Y-32666000D01*
X71495000Y-32491578D01*
X71495000Y-27045000D01*
X83820000Y-27045000D01*
X83925575Y-27024000D01*
X84074000Y-27024000D01*
X84112906Y-27016121D01*
X84145681Y-26993727D01*
X84167161Y-26960346D01*
X84174000Y-26924000D01*
X84174000Y-26775575D01*
X84195000Y-26670000D01*
X84195000Y-23956828D01*
X84662596Y-23956828D01*
X85016873Y-24814246D01*
X85672303Y-25470821D01*
X86529101Y-25826595D01*
X87456828Y-25827404D01*
X88314246Y-25473127D01*
X88970821Y-24817697D01*
X89326595Y-23960899D01*
X89327404Y-23033172D01*
X88973127Y-22175754D01*
X88317697Y-21519179D01*
X87460899Y-21163405D01*
X86533172Y-21162596D01*
X85675754Y-21516873D01*
X85019179Y-22172303D01*
X84663405Y-23029101D01*
X84662596Y-23956828D01*
X84195000Y-23956828D01*
X84195000Y-20695000D01*
X89795000Y-20695000D01*
X89795000Y-26670000D01*
G36*
X76129289Y-34868711D02*
X76162371Y-34890650D01*
X76200000Y-34898000D01*
X79736432Y-34898000D01*
X80164000Y-35346058D01*
X80164000Y-38862000D01*
X80171879Y-38900906D01*
X80195000Y-38934381D01*
X80727887Y-39442381D01*
X80761483Y-39463523D01*
X80796887Y-39470000D01*
X85521582Y-39470000D01*
X85611997Y-39531778D01*
X85731000Y-39555877D01*
X86481000Y-39555877D01*
X86592173Y-39534958D01*
X86693121Y-39470000D01*
X88392000Y-39470000D01*
X88430906Y-39462121D01*
X88462711Y-39440711D01*
X88941422Y-38962000D01*
X89457023Y-38962000D01*
X89457023Y-39478300D01*
X89477942Y-39589473D01*
X89543645Y-39691579D01*
X89643897Y-39760078D01*
X89762900Y-39784177D01*
X90188755Y-39784177D01*
X90282023Y-39877445D01*
X90282023Y-40328300D01*
X90291249Y-40377329D01*
X89112578Y-41556000D01*
X85090000Y-41556000D01*
X85051094Y-41563879D01*
X85019289Y-41585289D01*
X84003289Y-42601289D01*
X83981350Y-42634371D01*
X83974000Y-42672000D01*
X83974000Y-43646578D01*
X83778578Y-43842000D01*
X78232000Y-43842000D01*
X78193094Y-43849879D01*
X78161289Y-43871289D01*
X76666578Y-45366000D01*
X75733422Y-45366000D01*
X75284000Y-44916578D01*
X75284000Y-40422252D01*
X75276121Y-40383346D01*
X75257103Y-40354018D01*
X74749103Y-39809766D01*
X74716797Y-39786700D01*
X74676000Y-39778000D01*
X71669422Y-39778000D01*
X71495000Y-39603578D01*
X71495000Y-33294422D01*
X71669422Y-33120000D01*
X74380578Y-33120000D01*
X76129289Y-34868711D01*
X76129289Y-34868711D01*
G37*
X76129289Y-34868711D02*
X76162371Y-34890650D01*
X76200000Y-34898000D01*
X79736432Y-34898000D01*
X80164000Y-35346058D01*
X80164000Y-38862000D01*
X80171879Y-38900906D01*
X80195000Y-38934381D01*
X80727887Y-39442381D01*
X80761483Y-39463523D01*
X80796887Y-39470000D01*
X85521582Y-39470000D01*
X85611997Y-39531778D01*
X85731000Y-39555877D01*
X86481000Y-39555877D01*
X86592173Y-39534958D01*
X86693121Y-39470000D01*
X88392000Y-39470000D01*
X88430906Y-39462121D01*
X88462711Y-39440711D01*
X88941422Y-38962000D01*
X89457023Y-38962000D01*
X89457023Y-39478300D01*
X89477942Y-39589473D01*
X89543645Y-39691579D01*
X89643897Y-39760078D01*
X89762900Y-39784177D01*
X90188755Y-39784177D01*
X90282023Y-39877445D01*
X90282023Y-40328300D01*
X90291249Y-40377329D01*
X89112578Y-41556000D01*
X85090000Y-41556000D01*
X85051094Y-41563879D01*
X85019289Y-41585289D01*
X84003289Y-42601289D01*
X83981350Y-42634371D01*
X83974000Y-42672000D01*
X83974000Y-43646578D01*
X83778578Y-43842000D01*
X78232000Y-43842000D01*
X78193094Y-43849879D01*
X78161289Y-43871289D01*
X76666578Y-45366000D01*
X75733422Y-45366000D01*
X75284000Y-44916578D01*
X75284000Y-40422252D01*
X75276121Y-40383346D01*
X75257103Y-40354018D01*
X74749103Y-39809766D01*
X74716797Y-39786700D01*
X74676000Y-39778000D01*
X71669422Y-39778000D01*
X71495000Y-39603578D01*
X71495000Y-33294422D01*
X71669422Y-33120000D01*
X74380578Y-33120000D01*
X76129289Y-34868711D01*
G36*
X87784000Y-37887422D02*
X87784000Y-38000000D01*
X85344000Y-38000000D01*
X85305094Y-38007879D01*
X85273289Y-38029289D01*
X85019289Y-38283289D01*
X84997350Y-38316371D01*
X84990000Y-38354000D01*
X84990000Y-38820578D01*
X84794578Y-39016000D01*
X81067422Y-39016000D01*
X80618000Y-38566578D01*
X80618000Y-37437020D01*
X84589913Y-37437020D01*
X84665873Y-37620857D01*
X84806403Y-37761633D01*
X84990107Y-37837913D01*
X85189020Y-37838087D01*
X85372857Y-37762127D01*
X85513633Y-37621597D01*
X85589913Y-37437893D01*
X85590087Y-37238980D01*
X85514127Y-37055143D01*
X85373597Y-36914367D01*
X85189893Y-36838087D01*
X84990980Y-36837913D01*
X84807143Y-36913873D01*
X84666367Y-37054403D01*
X84590087Y-37238107D01*
X84589913Y-37437020D01*
X80618000Y-37437020D01*
X80618000Y-35347422D01*
X81067422Y-34898000D01*
X84794578Y-34898000D01*
X87784000Y-37887422D01*
X87784000Y-37887422D01*
G37*
X87784000Y-37887422D02*
X87784000Y-38000000D01*
X85344000Y-38000000D01*
X85305094Y-38007879D01*
X85273289Y-38029289D01*
X85019289Y-38283289D01*
X84997350Y-38316371D01*
X84990000Y-38354000D01*
X84990000Y-38820578D01*
X84794578Y-39016000D01*
X81067422Y-39016000D01*
X80618000Y-38566578D01*
X80618000Y-37437020D01*
X84589913Y-37437020D01*
X84665873Y-37620857D01*
X84806403Y-37761633D01*
X84990107Y-37837913D01*
X85189020Y-37838087D01*
X85372857Y-37762127D01*
X85513633Y-37621597D01*
X85589913Y-37437893D01*
X85590087Y-37238980D01*
X85514127Y-37055143D01*
X85373597Y-36914367D01*
X85189893Y-36838087D01*
X84990980Y-36837913D01*
X84807143Y-36913873D01*
X84666367Y-37054403D01*
X84590087Y-37238107D01*
X84589913Y-37437020D01*
X80618000Y-37437020D01*
X80618000Y-35347422D01*
X81067422Y-34898000D01*
X84794578Y-34898000D01*
X87784000Y-37887422D01*
G36*
X92102000Y-36068000D02*
X92109879Y-36106906D01*
X92131289Y-36138711D01*
X92385289Y-36392711D01*
X92418371Y-36414650D01*
X92456000Y-36422000D01*
X92864000Y-36422000D01*
X92864000Y-38100000D01*
X92871879Y-38138906D01*
X92893289Y-38170711D01*
X93147289Y-38424711D01*
X93180371Y-38446650D01*
X93218000Y-38454000D01*
X93880000Y-38454000D01*
X93880000Y-38508000D01*
X93218000Y-38508000D01*
X93179094Y-38515879D01*
X93147289Y-38537289D01*
X92893289Y-38791289D01*
X92871350Y-38824371D01*
X92864000Y-38862000D01*
X92864000Y-39270000D01*
X92456000Y-39270000D01*
X92417094Y-39277879D01*
X92385289Y-39299289D01*
X92131289Y-39553289D01*
X92109350Y-39586371D01*
X92102000Y-39624000D01*
X92102000Y-40117559D01*
X91910307Y-40286000D01*
X90778000Y-40286000D01*
X90778000Y-39624000D01*
X90770121Y-39585094D01*
X90748711Y-39553289D01*
X90494711Y-39299289D01*
X90461629Y-39277350D01*
X90424000Y-39270000D01*
X90016000Y-39270000D01*
X90016000Y-36422000D01*
X91694000Y-36422000D01*
X91732906Y-36414121D01*
X91764711Y-36392711D01*
X92018711Y-36138711D01*
X92040650Y-36105629D01*
X92048000Y-36068000D01*
X92048000Y-35406000D01*
X92102000Y-35406000D01*
X92102000Y-36068000D01*
X92102000Y-36068000D01*
G37*
X92102000Y-36068000D02*
X92109879Y-36106906D01*
X92131289Y-36138711D01*
X92385289Y-36392711D01*
X92418371Y-36414650D01*
X92456000Y-36422000D01*
X92864000Y-36422000D01*
X92864000Y-38100000D01*
X92871879Y-38138906D01*
X92893289Y-38170711D01*
X93147289Y-38424711D01*
X93180371Y-38446650D01*
X93218000Y-38454000D01*
X93880000Y-38454000D01*
X93880000Y-38508000D01*
X93218000Y-38508000D01*
X93179094Y-38515879D01*
X93147289Y-38537289D01*
X92893289Y-38791289D01*
X92871350Y-38824371D01*
X92864000Y-38862000D01*
X92864000Y-39270000D01*
X92456000Y-39270000D01*
X92417094Y-39277879D01*
X92385289Y-39299289D01*
X92131289Y-39553289D01*
X92109350Y-39586371D01*
X92102000Y-39624000D01*
X92102000Y-40117559D01*
X91910307Y-40286000D01*
X90778000Y-40286000D01*
X90778000Y-39624000D01*
X90770121Y-39585094D01*
X90748711Y-39553289D01*
X90494711Y-39299289D01*
X90461629Y-39277350D01*
X90424000Y-39270000D01*
X90016000Y-39270000D01*
X90016000Y-36422000D01*
X91694000Y-36422000D01*
X91732906Y-36414121D01*
X91764711Y-36392711D01*
X92018711Y-36138711D01*
X92040650Y-36105629D01*
X92048000Y-36068000D01*
X92048000Y-35406000D01*
X92102000Y-35406000D01*
X92102000Y-36068000D01*
M02*
